<?xml version="1.0" standalone="no"?>
<!DOCTYPE svg PUBLIC "-//W3C//DTD SVG 1.1//EN" "http://www.w3.org/Graphics/SVG/1.1/DTD/svg11.dtd" >
<svg xmlns="http://www.w3.org/2000/svg" xmlns:xlink="http://www.w3.org/1999/xlink" version="1.1">
<metadata></metadata>
<defs>
<font id="visionthin" horiz-adv-x="1134" >
<font-face units-per-em="2048" ascent="1638" descent="-410" />
<missing-glyph horiz-adv-x="512" />
<glyph unicode="&#xfb00;" horiz-adv-x="1175" d="M31 971v65h137q0 51 7 101t26.5 106.5t50.5 98.5t84 70t121 28q35 0 71.5 -11t52 -18.5t23.5 -13.5l-26 -60q-4 4 -15.5 11t-42 15.5t-65.5 8.5q-64 0 -109 -32.5t-66.5 -86.5t-30.5 -106.5t-9 -110.5h321h2h135q0 51 7 101t26.5 106.5t50.5 98.5t84 70t121 28 q35 0 72 -11t52.5 -18.5t23.5 -13.5l-27 -60q-4 4 -15.5 11t-42 15.5t-65.5 8.5q-64 0 -109 -32.5t-66.5 -86.5t-30.5 -106.5t-9 -110.5h324v-65h-328v-971h-68v971h-135h-2h-325v-971h-68v971h-137z" />
<glyph unicode="&#xfb01;" horiz-adv-x="784" d="M31 971v65h137q0 51 6.5 101t26 106.5t50 98.5t83.5 70t121 28q83 0 147 -43l-27 -60l-5 3q-5 3 -11 7t-17 8.5t-23.5 8t-30 6t-35.5 2.5q-52 0 -91.5 -22.5t-62 -56.5t-36.5 -81t-19 -88.5t-6 -87.5h391v-1036h-68v971h-325v-971h-68v971h-137z" />
<glyph unicode="&#xfb02;" horiz-adv-x="1044" d="M31 971v65h137q0 51 7 101t26.5 106.5t50.5 98.5t84 70t121 28q49 0 98 -19v13h68l2 -1065q0 -45 4 -86t17 -86t33 -77.5t55 -53.5t81 -21q75 0 127 35l27 -60q-65 -43 -152 -43q-62 0 -110 26.5t-76 66.5t-46 95t-24 104t-6 100v602h-319v-971h-68v971h-137zM240 1036 h315v315q-42 21 -100 21q-64 0 -109 -32.5t-66.5 -86.5t-30.5 -106.5t-9 -110.5z" />
<glyph unicode="&#xfb04;" horiz-adv-x="1581" d="M31 971v65h137q0 51 6.5 101t26 106.5t50 98.5t83.5 70t121 28q35 0 71.5 -11t52 -18.5t23.5 -13.5l-26 -60q-4 4 -15.5 11t-42 15.5t-65.5 8.5q-52 0 -91.5 -22.5t-62 -56.5t-36.5 -81t-19 -88.5t-6 -87.5h321h2h135q0 51 6.5 101t26 106.5t50 98.5t83.5 70t121 28 q51 0 107 -23v17h67l4 -1065q0 -58 8 -109t27 -102.5t59 -82t97 -30.5q74 0 127 35l26 -60l-7 -4q-8 -5 -16 -9t-22 -10t-29 -10t-36 -7t-43 -3q-62 0 -110 26.5t-76 66.5t-46 95t-24 104t-6 100v602h-326v-971h-68v971h-135h-2h-323v-971h-68v971h-137zM766 1036h324v311 q-47 25 -109 25q-52 0 -91.5 -22.5t-62 -56.5t-36.5 -81t-19 -88.5t-6 -87.5z" />
<glyph unicode="fft" horiz-adv-x="1699" d="M31 971v65h137q0 42 5 84t16.5 89.5t33 87.5t52 73.5t77 52.5t103.5 19q35 0 71.5 -11t52 -18.5t23.5 -13.5l-27 -62q-5 5 -16 12t-41 16t-65 9q-52 0 -91.5 -22.5t-62.5 -57t-37 -81.5t-19 -89.5t-5 -87.5h309h14h123q0 42 5 84t16.5 89.5t33 87.5t52 73.5t77 52.5 t103.5 19q83 0 147 -43l-26 -62q-5 5 -16 12t-41.5 16t-65.5 9q-64 0 -108.5 -32.5t-66 -87.5t-30.5 -107t-10 -111h321h2h133v305h68v-305h315v-65h-313v-598q5 -326 190 -326q74 0 129 37l25 -61q-65 -43 -151 -43q-52 0 -94.5 18t-70.5 50t-48 70.5t-30.5 84.5t-15 87 t-4.5 83v598h-133h-2h-323v-971h-68v971h-123h-14h-311v-971h-68v971h-137z" />
<glyph unicode="fj" horiz-adv-x="774" d="M31 971v65h137q0 51 7 101t26.5 106.5t50.5 98.5t84 70t121 28q35 0 71.5 -11t52 -18.5t23.5 -13.5l-26 -60q-4 4 -15.5 11t-42 15.5t-65.5 8.5q-64 0 -109 -32.5t-66.5 -86.5t-30.5 -106.5t-9 -110.5h303h20h47v-1036q0 -51 -6 -100t-24 -103.5t-46 -94.5t-76 -66.5 t-110 -26.5q-22 0 -43 3t-36 7t-29 10t-22 10t-16 9l-7 4l26 61q55 -37 127 -37q57 0 97 30.5t59 82t27 102.5t8 109l3 971h-306v-971h-68v971h-137z" />
<glyph unicode="ft" horiz-adv-x="1183" d="M31 971v65h137q0 51 7 101t26.5 106.5t50.5 98.5t84 70t121 28q35 0 71.5 -11t52 -18.5t23.5 -13.5l-26 -60q-4 4 -15.5 11t-42 15.5t-65.5 8.5q-64 0 -109 -32.5t-66.5 -86.5t-30.5 -106.5t-9 -110.5h317h6h129v305h68l2 -305h313v-65h-313l2 -598q0 -45 4 -86t17 -86.5 t33 -78t55 -54t81 -21.5q72 0 127 37l27 -61l-8 -5q-7 -4 -15 -8t-22.5 -10t-29.5 -10t-36 -7t-43 -3q-62 0 -110 26.5t-76 67t-46 95t-24 104t-6 100.5v598h-129h-6h-319l-2 -971h-68v971h-137z" />
<glyph unicode="tf" horiz-adv-x="1171" d="M31 971v65h135v303h67l3 -303h311h2h135q0 51 7 101t26.5 106.5t50.5 98.5t84 70t121 28q35 0 71.5 -11t52 -18.5t23.5 -13.5l-26 -60q-4 4 -15.5 11t-42 15.5t-65.5 8.5q-64 0 -109 -32.5t-66.5 -86.5t-30.5 -106.5t-9 -110.5h323v-65h-327v-971h-68v971h-135h-2h-311 l2 -600q0 -45 4 -86t17 -86t33 -77.5t55 -53.5t81 -21q20 0 40 3.5t34.5 8.5t25.5 10t18.5 9t8.5 4l27 -59q-64 -43 -152 -43q-62 0 -110.5 26.5t-76.5 67t-46 95t-24.5 103t-6.5 99.5v600h-135z" />
<glyph unicode="ffj" horiz-adv-x="1323" d="M31 971v65h137q0 51 7 101t26.5 106.5t50.5 98.5t84 70t121 28q35 0 71.5 -11t52 -18.5t23.5 -13.5l-26 -60q-4 4 -15.5 11t-42 15.5t-65.5 8.5q-64 0 -109 -32.5t-66.5 -86.5t-30.5 -106.5t-9 -110.5h321h2h135q0 51 7 101t26.5 106.5t50.5 98.5t84 70t121 28 q35 0 72 -11t52.5 -18.5t23.5 -13.5l-27 -60q-4 4 -15.5 11t-42 15.5t-65.5 8.5q-64 0 -109 -32.5t-66.5 -86.5t-30.5 -106.5t-9 -110.5h322h2h65v-1036q0 -51 -6 -100t-24 -103.5t-46 -94.5t-76 -66.5t-110 -26.5q-22 0 -43 3t-36 7t-29.5 10t-22.5 10t-16 9l-7 4l27 61 q55 -37 127 -37q46 0 81 21t55 53.5t33 77.5t17 86t4 86l4 971h-325v-971h-68v971h-135h-2h-325v-971h-68v971h-137z" />
<glyph horiz-adv-x="0" />
<glyph horiz-adv-x="682" />
<glyph unicode=" "  horiz-adv-x="512" />
<glyph unicode="&#x09;" horiz-adv-x="512" />
<glyph unicode="&#xa0;" horiz-adv-x="512" />
<glyph unicode="!" horiz-adv-x="362" d="M111 49q0 29 20.5 49.5t48.5 20.5q29 0 50.5 -20.5t21.5 -49.5t-21 -49t-51 -20q-28 0 -48.5 20t-20.5 49zM141 1489h86l-14 -1204h-66z" />
<glyph unicode="&#x22;" horiz-adv-x="600" d="M111 1274h94l-17 -432h-61zM395 1274h94l-18 -432h-61z" />
<glyph unicode="#" horiz-adv-x="1370" d="M111 365l16 63h238l65 393h-240l15 66h235l60 364h73l-61 -364h414l59 364h74l-60 -364h258l-14 -66h-256l-63 -393h256l-17 -63h-250l-61 -365h-72l60 365h-414l-59 -365h-74l61 365h-243zM438 428h412l65 393h-413z" />
<glyph unicode="$" horiz-adv-x="1021" d="M137 111l43 63q61 -46 149.5 -82.5t170.5 -36.5q84 0 147.5 27t98 71t51 90t16.5 93q0 61 -28 110.5t-73.5 81.5t-103.5 62t-118.5 52t-118.5 52t-103.5 62.5t-73.5 82.5t-28 113q0 117 78 207.5t231 112.5v168h72v-162h18q76 0 152.5 -23t128.5 -71l-29 -64 q-51 41 -118 63.5t-130 22.5q-58 0 -114 -14t-105.5 -42.5t-79.5 -79t-30 -116.5q0 -49 27.5 -88.5t73 -66t103.5 -53.5t118.5 -49.5t118.5 -56t103.5 -71.5t73 -96.5t27.5 -130.5q0 -158 -94.5 -250.5t-243.5 -105.5v-140h-72v140q-90 6 -183 42t-155 83z" />
<glyph unicode="%" horiz-adv-x="1441" d="M111 940q0 134 71.5 234t186.5 100t186.5 -100t71.5 -234q0 -87 -29 -162t-89 -123.5t-140 -48.5t-140 48.5t-89 123.5t-29 162zM184 940q0 -100 50.5 -180t134.5 -80t135 80t51 180t-51 180t-135 80t-134.5 -80t-50.5 -180zM463 0l432 1253h80l-432 -1253h-80zM815 324 q0 134 71.5 233.5t186.5 99.5t186.5 -99.5t71.5 -233.5q0 -87 -29 -162t-89 -123.5t-140 -48.5t-140 48.5t-89 123.5t-29 162zM889 324q0 -101 50 -181t134 -80t135.5 80.5t51.5 180.5t-51.5 180t-135.5 80t-134 -79.5t-50 -180.5z" />
<glyph unicode="&#x26;" horiz-adv-x="1257" d="M111 367q0 74 29 141.5t67 111t89.5 81.5t82.5 54.5t59 28.5q-84 148 -84 226q0 63 27.5 114.5t72 83.5t97.5 49t106 17q65 0 124 -19t85 -38l27 -19l-35 -53q-11 6 -29.5 15t-71.5 24.5t-100 15.5q-95 0 -161 -52.5t-66 -131.5q0 -67 75 -196t169 -251.5t213 -261.5 q59 88 91 194t32 212h75q0 -122 -37 -245t-106 -224q55 -63 109.5 -124t82.5 -90l27 -30h-98q-70 75 -168 184q-75 -96 -173.5 -150t-213.5 -54q-95 0 -173 36t-125.5 93.5t-73 124.5t-25.5 133zM184 367q0 -132 94 -223t226 -91q97 0 183.5 51t154.5 142q-251 292 -369 479 q-26 -11 -54.5 -25.5t-73 -47t-78 -70t-58.5 -95t-25 -120.5z" />
<glyph unicode="'" horiz-adv-x="278" d="M92 1274h94l-18 -432h-62z" />
<glyph unicode="(" horiz-adv-x="716" d="M93 570.5q0 185.5 53 357t164.5 329t271.5 273.5q7 -9 21.5 -28.5t21.5 -28.5q-150 -109 -254.5 -257.5t-154 -309.5t-49.5 -335t49.5 -335t154 -309t254.5 -257q-26 -37 -43 -59q-160 116 -271.5 273.5t-164.5 329t-53 357z" />
<glyph unicode=")" horiz-adv-x="716" d="M92 -311q150 109 254.5 257t154 309t49.5 335t-49.5 335t-154 309t-254.5 257q17 22 43 59q160 -116 271.5 -274t164.5 -330t53 -357.5t-53 -357t-164.5 -329t-271.5 -273.5q-7 10 -21.5 30t-21.5 30z" />
<glyph unicode="*" horiz-adv-x="866" d="M115 727l243 160l-241 168l41 59l239 -166v305h74v-305l238 166l43 -59l-242 -168l242 -160l-39 -61l-242 159v-307h-74v307l-241 -159z" />
<glyph unicode="+" horiz-adv-x="919" d="M92 561v66h332v336h72v-336h331v-66h-331v-334h-72v334h-332z" />
<glyph unicode="," horiz-adv-x="372" d="M111.5 64q5.5 30 29.5 45q25 15 54.5 9t44.5 -30q20 -33 21 -79.5t-13.5 -89t-48 -76.5t-78.5 -42q-1 8 -4 26t-4 26q48 8 71 44.5t25 88.5q-23 -11 -49 -4t-39 28q-15 24 -9.5 54z" />
<glyph unicode="-" horiz-adv-x="909" d="M86 582v65h735v-65h-735z" />
<glyph unicode="." horiz-adv-x="323" d="M92 49q0 29 20.5 49.5t49.5 20.5t49 -20.5t20 -49.5t-20 -49t-49 -20t-49.5 20t-20.5 49z" />
<glyph unicode="/" horiz-adv-x="532" d="M10 0l432 1253h80l-432 -1253h-80z" />
<glyph unicode="0" horiz-adv-x="1019" d="M92 520q0 93 26.5 186t76 173t132 130t183.5 50t183 -50t132 -130t76.5 -173t26.5 -186q0 -76 -15.5 -151t-49 -145.5t-81 -124.5t-118 -86.5t-154.5 -32.5t-155 33t-118.5 87t-81 124.5t-48.5 145.5t-15 150zM168 516q0 -81 20 -160t60 -149.5t109 -114t157 -43.5 q86 0 154.5 44t108 114t59.5 149.5t20 159.5q0 81 -20 161t-59 151.5t-107.5 116t-155.5 44.5q-89 0 -158 -44t-108.5 -115.5t-59.5 -151.5t-20 -162z" />
<glyph unicode="1" horiz-adv-x="729" d="M72 901l268 131h59v-973h238v-63h-238h-73h-234v63h234v885l-230 -110z" />
<glyph unicode="2" horiz-adv-x="931" d="M92 0v68q0 72 21.5 133.5t57.5 106t83 82.5t99 68t103.5 57.5t98.5 55t83 57t57.5 68t21.5 82.5q0 90 -75.5 149.5t-180.5 59.5q-93 0 -186 -35.5t-152 -81.5l-31 66q61 50 155.5 87.5t213.5 37.5q90 0 157 -27t103 -70.5t53 -90.5t17 -95q0 -68 -34.5 -123.5t-89.5 -95 t-122 -75.5t-133.5 -75t-121.5 -83.5t-89.5 -110t-34.5 -145.5h674v-70h-748z" />
<glyph unicode="3" horiz-adv-x="976" d="M92 -88l47 57q6 -5 16.5 -14t44.5 -32t69.5 -40.5t88.5 -32t105 -14.5q144 0 238 86t94 234q0 151 -102 223t-310 72h-29v69l367 451h-569v65h659v-65l-356 -451q186 0 298.5 -93.5t112.5 -270.5q0 -117 -58.5 -208.5t-150.5 -138.5t-198 -47q-59 0 -118 15.5t-102 37.5 t-77.5 44t-51.5 37z" />
<glyph unicode="4" horiz-adv-x="1058" d="M92 123v65l617 848h73v-848h205v-65h-205v-340h-73v340h-617zM182 188h527v725z" />
<glyph unicode="5" horiz-adv-x="915" d="M72 -111l47 58q6 -5 16.5 -12t43 -26.5t65.5 -34t80 -26.5t90 -12q100 0 178 51t117 127.5t39 161.5q0 64 -20.5 120t-63.5 103t-118.5 74t-176.5 27h-232l15 536h575v-65h-506l-12 -396h160q117 0 207 -33t142.5 -90.5t78.5 -127.5t26 -150q0 -106 -46 -198.5 t-141.5 -153t-221.5 -60.5q-52 0 -106.5 13t-95 32t-73.5 37.5t-50 31.5z" />
<glyph unicode="6" horiz-adv-x="983" d="M92 375q0 121 68 225l377 653h86l-306 -520q75 37 175 37q119 0 212 -57t140 -146t47 -192q0 -76 -27 -146.5t-76 -126t-126 -89t-170 -33.5q-124 0 -217 57.5t-138 146t-45 191.5zM166 375q0 -129 89.5 -225.5t236.5 -96.5q98 0 173.5 47t113.5 119.5t38 155.5 q0 127 -90 224t-235 97q-98 0 -174.5 -47.5t-114 -119.5t-37.5 -154z" />
<glyph unicode="7" horiz-adv-x="823" d="M72 971v65h659v-65l-510 -1188h-80l510 1188h-579z" />
<glyph unicode="8" horiz-adv-x="948" d="M92 360q0 110 59 206t162 141q-70 40 -108.5 112t-38.5 152q0 125 85 216t224 91q137 0 222 -91.5t85 -215.5q0 -80 -38 -152t-107 -112q102 -45 160.5 -141t58.5 -206q0 -100 -43 -185t-131.5 -140t-206.5 -55t-207 55t-132.5 140t-43.5 185zM166 360q0 -79 35.5 -148 t107.5 -114t166 -45q138 0 222.5 92t84.5 215q0 116 -93.5 212t-213.5 96t-214.5 -96t-94.5 -212zM240 971q0 -93 65 -164.5t170 -71.5t169.5 71.5t64.5 164.5t-64.5 163t-169.5 70t-170 -70t-65 -163z" />
<glyph unicode="9" horiz-adv-x="983" d="M92 651q0 104 45 192.5t138 146t217 57.5q93 0 170 -33t126 -89t76 -126.5t27 -147.5q0 -119 -70 -225l-377 -653h-84l306 520q-82 -37 -174 -37q-119 0 -212.5 57.5t-140.5 146.5t-47 191zM166 653q0 -83 38 -155.5t114 -120t174 -47.5t174 47.5t113.5 120t37.5 155.5 q0 82 -37.5 154t-113.5 119t-174 47t-174 -47t-114 -119t-38 -154z" />
<glyph unicode=":" horiz-adv-x="405" d="M133 49q0 29 20.5 49.5t49.5 20.5t49 -20.5t20 -49.5t-20 -49t-49 -20t-49.5 20t-20.5 49zM133 782q0 29 20.5 49.5t49.5 20.5t49 -20.5t20 -49.5t-20 -50t-49 -21t-49.5 21t-20.5 50z" />
<glyph unicode=";" horiz-adv-x="417" d="M133 782q0 29 20.5 49.5t49.5 20.5t49 -20.5t20 -49.5t-20 -50t-49 -21t-49.5 21t-20.5 50zM134.5 64.5q6.5 29.5 31.5 44.5t53 9t43 -30q20 -33 22 -79.5t-12.5 -89t-48 -76.5t-78.5 -42q-2 8 -5 26t-5 26q91 16 98 133q-25 -11 -50 -4.5t-38 28.5q-17 25 -10.5 54.5z " />
<glyph unicode="&#x3c;" horiz-adv-x="862" d="M92 717v41l678 278v-73l-555 -226l555 -227v-74z" />
<glyph unicode="=" horiz-adv-x="923" d="M92 834v65h735v-65h-735zM96 424v65h735v-65h-735z" />
<glyph unicode="&#x3e;" horiz-adv-x="862" d="M92 436v74l555 227l-555 226v73l678 -278v-41z" />
<glyph unicode="?" horiz-adv-x="864" d="M113 1341q44 38 123 66.5t149 28.5q164 0 263.5 -98.5t99.5 -243.5q0 -90 -26.5 -161t-69 -115t-100.5 -72.5t-117 -40t-122 -11.5v-385h-71v185v278h71q182 0 271.5 84.5t89.5 237.5q0 59 -18 106.5t-47 77.5t-68 50t-78 28t-80 8q-61 0 -128 -26.5t-116 -61.5zM207 49 q0 29 20.5 49.5t48.5 20.5q29 0 50.5 -20.5t21.5 -49.5t-21 -49t-51 -20q-28 0 -48.5 20t-20.5 49z" />
<glyph unicode="@" horiz-adv-x="1695" d="M111 539q0 159 60 298t161 234t235 149t281 54q163 0 302 -52.5t233.5 -142.5t148 -211t53.5 -256q0 -88 -18 -174t-53 -161t-94.5 -121.5t-133.5 -46.5q-122 0 -166 116q-35 -48 -110 -82t-179 -34q-70 0 -138 27.5t-125.5 78.5t-92.5 132.5t-35 180.5q0 79 22.5 144.5 t60.5 110.5t89 76t106 45t113 14q46 0 91 -10t77 -24t57 -28.5t38 -24.5l12 -10v76h68v-317v-6q0 -80 0.5 -117.5t3.5 -94t10.5 -81.5t20.5 -53.5t33.5 -39t49.5 -10.5q67 0 119 60.5t78.5 158.5t26.5 215q0 169 -92.5 305.5t-245 211.5t-330.5 75q-188 0 -342 -90 t-240 -242t-86 -333q0 -140 53 -264.5t143 -212.5t212.5 -139.5t257.5 -51.5q62 0 139.5 20.5t124.5 40.5l47 21l31 -70q-6 -3 -17.5 -8.5t-48 -20t-74 -25t-92.5 -19.5t-108 -9q-154 0 -291 58t-234.5 157t-154.5 235t-57 288zM510 528q0 -83 30.5 -151.5t79 -110.5 t104.5 -65t110 -23q113 0 192.5 59t79.5 117v332q0 57 -87.5 109.5t-189.5 52.5q-55 0 -109 -18.5t-102 -55t-78 -100.5t-30 -146z" />
<glyph unicode="A" horiz-adv-x="1163" d="M102 0l443 1253h76l440 -1253h-80l-133 381h-531l-133 -381h-82zM340 446h485l-243 693z" />
<glyph unicode="B" horiz-adv-x="1093" d="M156 0v1253h403q121 0 206 -83t85 -205q0 -72 -34.5 -141t-92.5 -115q99 -34 166 -133t67 -214q0 -141 -96.5 -251.5t-222.5 -110.5h-481zM229 66h408q92 0 170 88t78 204t-78 204.5t-170 88.5h-408v-585zM229 717h330q89 0 154 76t65 172q0 95 -64 159t-155 64h-330 v-471z" />
<glyph unicode="C" horiz-adv-x="1236" d="M137 625q0 118 44 233t122 207t196.5 148.5t256.5 56.5q211 0 344 -125l-37 -64q-130 121 -307 121q-121 0 -225.5 -51t-172.5 -133t-106.5 -185t-38.5 -208t38.5 -208t106.5 -185.5t172.5 -133.5t225.5 -51q179 0 307 121l37 -66q-133 -122 -344 -122 q-138 0 -256.5 56.5t-196.5 148t-122 206.5t-44 234z" />
<glyph unicode="D" horiz-adv-x="1144" d="M156 0v1253h2h350q98 0 190 -49.5t160 -132.5t109 -199.5t41 -244.5q0 -170 -68.5 -315t-184 -228.5t-247.5 -83.5h-283h-67h-2zM229 66h279q111 0 208.5 74.5t156.5 204.5t59 282q0 153 -56 282t-153.5 204t-214.5 75h-279v-1122z" />
<glyph unicode="E" horiz-adv-x="1028" d="M156 0v1253h716v-65h-643v-488h525v-67h-525v-567h643v-66h-716z" />
<glyph unicode="F" horiz-adv-x="1028" d="M156 0v1253h716v-65h-645v-488h527v-67h-527v-633h-71z" />
<glyph unicode="G" horiz-adv-x="1282" d="M137 629q0 94 27.5 187t82 175.5t128 145.5t173 100t210.5 37q86 0 188.5 -33t179.5 -104l-39 -64q-54 50 -125.5 82t-120 41.5t-83.5 9.5q-122 0 -227 -51t-173 -133t-106.5 -185t-38.5 -208q0 -104 39.5 -207.5t108.5 -187t173.5 -135.5t223.5 -52q82 0 163.5 33.5 t131.5 97.5v410h71v-432q-40 -76 -147.5 -126t-220.5 -50q-136 0 -254 56.5t-196.5 148.5t-123.5 208t-45 236z" />
<glyph unicode="H" horiz-adv-x="1122" d="M156 0v1253h71v-553h668v553h72v-1253h-72v633h-668v-633h-71z" />
<glyph unicode="I" horiz-adv-x="385" d="M156 0v1253h73v-1253h-73z" />
<glyph unicode="J" horiz-adv-x="841" d="M102 70l35 69q93 -90 223 -90t198.5 97.5t68.5 244.5v858h71v-858q0 -178 -89 -297t-249 -119q-145 0 -258 95z" />
<glyph unicode="K" horiz-adv-x="1011" d="M133 0v1253h74v-534l526 534h92l-549 -569l623 -684h-92l-600 643v-643h-74z" />
<glyph unicode="L" horiz-adv-x="778" d="M156 0v1253h71v-1187h437v-66h-508z" />
<glyph unicode="M" horiz-adv-x="1386" d="M156 0v1253h86l452 -579l451 579h86v-1253h-74v1143l-463 -588l-465 588v-1143h-73z" />
<glyph unicode="N" horiz-adv-x="1122" d="M156 0v1253h80l657 -1116v1116h74v-1253h-82l-658 1110v-1110h-71z" />
<glyph unicode="O" horiz-adv-x="1316" d="M137 627q0 131 36.5 248t102 206t164.5 141t217 52q157 0 278 -89.5t183 -236t62 -321.5q0 -177 -59.5 -322t-180.5 -235t-283 -90q-122 0 -221.5 52t-164 141t-99.5 206t-35 248zM213 627q0 -117 28.5 -221t83 -184.5t140 -127.5t192.5 -47q142 0 245.5 81.5t152.5 211 t49 287.5q0 117 -29 221t-83.5 184t-141 127t-193.5 47t-192.5 -47t-140 -127t-83 -184t-28.5 -221z" />
<glyph unicode="P" horiz-adv-x="1095" d="M156 0v1253h481q127 0 224 -111t97 -251q0 -139 -97.5 -251t-223.5 -112h-408v-528h-73zM229 594h408q92 0 171 90t79 207t-79 207t-171 90h-408v-594z" />
<glyph unicode="Q" horiz-adv-x="1314" d="M137 627q0 176 61.5 322t181.5 235.5t277 89.5q118 0 217.5 -52t165 -141t102 -206t36.5 -248q0 -210 -84.5 -375t-237.5 -232l215 -262h-84l-196 238q-66 -16 -134 -16q-122 0 -222 52t-164.5 141t-99 205.5t-34.5 248.5zM211 627q0 -117 29 -221t83.5 -184.5 t140.5 -127.5t193 -47q141 0 244.5 81.5t153 211t49.5 287.5q0 117 -29 221t-84 184t-141 127t-193 47t-193 -47t-140.5 -127t-83.5 -184t-29 -221z" />
<glyph unicode="R" horiz-adv-x="1161" d="M156 0v1253h493q130 0 218.5 -99.5t88.5 -229.5q0 -83 -38 -160t-107.5 -126.5t-151.5 -49.5l365 -588h-88l-365 588h-344v-588h-71zM227 653h422q90 0 162 82t72 187q0 107 -70.5 186.5t-165.5 79.5h-420v-535z" />
<glyph unicode="S" horiz-adv-x="1021" d="M137 106l43 64q61 -46 149.5 -82.5t170.5 -36.5q84 0 147.5 27t98 71t51 90t16.5 93q0 61 -28 110.5t-73.5 81.5t-103.5 62t-118.5 52t-118.5 52t-103.5 62.5t-73.5 82.5t-28 113t23 119.5t69.5 103.5t125.5 75t181 28q76 0 152.5 -23t128.5 -71l-29 -64 q-51 41 -118 63.5t-130 22.5q-58 0 -114 -14t-105.5 -42.5t-79.5 -79t-30 -116.5q0 -49 27.5 -88.5t73 -66t103.5 -53.5t118.5 -49.5t118.5 -56t103.5 -71.5t73 -96.5t27.5 -130.5q0 -170 -108 -264t-273 -94q-96 0 -198 37.5t-169 88.5z" />
<glyph unicode="T" horiz-adv-x="1216" d="M137 1188v65h942v-65h-434v-1188h-74v1188h-434z" />
<glyph unicode="U" horiz-adv-x="1058" d="M123 395v858h74v-858q0 -138 97.5 -240t233.5 -102q137 0 235.5 102t98.5 240v858h74v-858q0 -168 -120 -291.5t-288 -123.5q-166 0 -285.5 123.5t-119.5 291.5z" />
<glyph unicode="V" horiz-adv-x="1163" d="M102 1253h80l400 -1126l397 1126h82l-440 -1253h-76z" />
<glyph unicode="W" horiz-adv-x="2041" d="M102 1253h80l400 -1126l397 1118h82l399 -1118l398 1126h81l-442 -1253h-76l-401 1133l-399 -1133h-76z" />
<glyph unicode="X" horiz-adv-x="1222" d="M115 0l452 686l-389 567h90l344 -510l355 510h88l-400 -567l453 -686h-86l-410 625l-409 -625h-88z" />
<glyph unicode="Y" horiz-adv-x="1118" d="M102 1253h84l373 -553l373 553h84l-420 -630v-623h-74v623z" />
<glyph unicode="Z" horiz-adv-x="1122" d="M154 0v66l727 1122h-695v65h781v-65l-729 -1122h729v-66h-813z" />
<glyph unicode="[" horiz-adv-x="466" d="M92 -371v2042h283v-69h-209v-1903h209v-70h-283z" />
<glyph unicode="\" horiz-adv-x="778" d="M25 1528h77l652 -1899h-78z" />
<glyph unicode="]" horiz-adv-x="466" d="M92 -301h209v1903h-209v69h283v-2042h-283v70z" />
<glyph unicode="^" horiz-adv-x="776" d="M88 756l279 678h41l280 -678h-74l-227 555l-225 -555h-74z" />
<glyph unicode="_" horiz-adv-x="1165" d="M72 -201h1022v-63h-1022v63z" />
<glyph unicode="`" horiz-adv-x="1118" d="M401 1511h103l104 -258h-73z" />
<glyph unicode="a" d="M70 547q0 102 27 188t72 146t105 102t126 61.5t134 19.5q57 0 112.5 -14.5t94 -35.5t69 -42.5t44.5 -35.5l15 -15v115h73v-712q0 -76 13 -136t48 -102t90 -42l-21 -64q-38 0 -71 18t-52.5 42.5t-34 51t-20.5 43t-6 18.5v-1q-50 -72 -139 -120q-99 -53 -218 -53 q-94 0 -177 37t-146.5 107t-100.5 179.5t-37 244.5zM144 547q0 -228 111.5 -363.5t278.5 -135.5q69 0 135 27t107.5 63.5t67 69t25.5 47.5v517q0 28 -24.5 65.5t-66 73t-108 59.5t-139.5 24q-74 0 -142.5 -29.5t-123.5 -84t-88 -141t-33 -192.5z" />
<glyph unicode="b" horiz-adv-x="1077" d="M137 0v1434h68v-488q146 113 309 113q93 0 174.5 -33.5t144 -96.5t98.5 -162t36 -222q0 -252 -132 -408.5t-321 -156.5q-93 0 -174 31.5t-135 74.5v-86h-68zM205 180q5 -5 13.5 -14.5t39 -32.5t63.5 -41t85.5 -32.5t107.5 -14.5q110 0 198.5 68.5t136.5 182.5t48 249 q0 191 -106.5 319.5t-276.5 128.5q-50 0 -100 -13.5t-86 -32t-65 -37.5t-43 -32l-15 -14v-684z" />
<glyph unicode="c" horiz-adv-x="985" d="M111 518q0 83 19 162t58.5 147t94 119.5t130 81t162.5 29.5q57 0 111.5 -12.5t92 -30.5t67 -35.5t43.5 -30.5l14 -12l-41 -55q-5 4 -13.5 11.5t-37.5 26.5t-60.5 33.5t-80 26.5t-97.5 12q-74 0 -139 -30t-110.5 -79t-78.5 -111.5t-49 -127t-16 -125.5t16 -125.5t49 -127 t78.5 -111.5t110.5 -79t139 -30q49 0 97 11.5t81 27.5t59.5 32.5t39.5 27.5l12 12l41 -56q-5 -5 -14.5 -13t-42 -28.5t-68.5 -36.5t-91 -29t-112 -13q-87 0 -162.5 29.5t-130 80.5t-94 119.5t-58.5 147t-19 161.5z" />
<glyph unicode="d" horiz-adv-x="1079" d="M113 545q0 123 36 222t98 162t143.5 96.5t174.5 33.5q90 0 170.5 -34t138.5 -81v490h68v-1434h-68v86q-51 -44 -132.5 -76.5t-174.5 -32.5q-92 0 -174.5 40.5t-144.5 113t-98.5 180t-36.5 234.5zM182 545q0 -137 44 -249t133 -181.5t208 -69.5q54 0 105.5 14.5t86.5 35.5 t62 42.5t40 36.5l13 14v676q-5 5 -15 14t-42.5 31t-66.5 39t-84.5 31t-100.5 14q-170 0 -276.5 -128.5t-106.5 -319.5z" />
<glyph unicode="e" horiz-adv-x="1019" d="M111 543q0 108 25 199.5t75 163.5t131.5 112.5t187.5 40.5q175 0 277 -119t102 -344v-66h-731q0 -90 26.5 -176t74 -155.5t121 -111.5t161.5 -42q51 0 98.5 11.5t79.5 27.5t56 32.5t35 27.5l12 12l41 -56q-5 -5 -13.5 -13t-39 -28.5t-64.5 -36.5t-89 -29t-114 -13 q-138 0 -242 75.5t-157 202.5t-53 285zM180 596h662q0 81 -16.5 150t-51.5 125.5t-97.5 89t-146.5 32.5q-76 0 -137.5 -25t-100 -65t-65 -93t-37 -106.5t-10.5 -107.5z" />
<glyph unicode="f" horiz-adv-x="645" d="M31 971v65h137q0 51 7 101t26.5 106.5t50.5 98.5t84 70t121 28q35 0 71.5 -11t52 -18.5t23.5 -13.5l-26 -60q-4 4 -15.5 11t-42 15.5t-65.5 8.5q-64 0 -109 -32.5t-66.5 -86.5t-30.5 -106.5t-9 -110.5h323v-65h-327v-971h-68v971h-137z" />
<glyph unicode="g" horiz-adv-x="1083" d="M111 551q0 116 37.5 212.5t101 160.5t149 99.5t181.5 35.5q175 0 299 -103v80h67v-911q0 -101 -28 -192.5t-80 -164t-133.5 -115t-180.5 -42.5q-103 0 -200 44t-138 85l39 51q24 -26 116 -70.5t185 -44.5q149 0 251 130.5t102 312.5q-48 -39 -125.5 -66.5t-173.5 -27.5 q-128 0 -234.5 64.5t-170.5 186t-64 275.5zM176 553q0 -94 27.5 -178t78 -147.5t128 -100.5t170.5 -37q65 0 120 15t86.5 36.5t54 43t30.5 36.5l8 15v628q-4 5 -12.5 14t-37 31t-61 39t-83.5 31t-105 14q-187 0 -295.5 -124t-108.5 -316z" />
<glyph unicode="h" horiz-adv-x="1058" d="M156 0v1434h67v-596q8 25 23 52t41.5 58t59.5 55t80.5 40t100.5 16q184 0 275.5 -113.5t91.5 -322.5v-623h-64v535q0 79 -6.5 141t-26.5 123t-53 101t-88.5 64.5t-130.5 24.5q-81 0 -141.5 -38.5t-94.5 -105t-50.5 -144t-16.5 -166.5v-535h-67z" />
<glyph unicode="i" horiz-adv-x="425" d="M156 1204q0 24 16.5 41t40.5 17q23 0 40 -17.5t17 -40.5t-17 -40t-40 -17q-24 0 -40.5 16.5t-16.5 40.5zM178 0v1036h68v-1036h-68z" />
<glyph unicode="j" horiz-adv-x="524" d="M-76 -346l27 59q52 -35 127 -35q46 0 81 21t55 53t33 77t17 85.5t4 85.5l2 1036h68v-1036q0 -51 -6 -99.5t-24 -102.5t-46 -94t-76 -66.5t-110 -26.5q-87 0 -152 43zM246 1204q0 24 16.5 41t40.5 17q23 0 40 -17.5t17 -40.5t-17 -40t-40 -17q-24 0 -40.5 16.5t-16.5 40.5 z" />
<glyph unicode="k" horiz-adv-x="985" d="M137 0v1434h68v-781l459 383h106l-494 -418l613 -618h-105l-579 586v-398v-188h-68z" />
<glyph unicode="l" horiz-adv-x="565" d="M76 369v1065h67l2 -1065q0 -58 8 -109t27 -102.5t59 -82t97 -30.5q74 0 127 35l26 -60q-65 -43 -151 -43q-62 0 -110 26.5t-76 66.5t-46 95t-24 104t-6 100z" />
<glyph unicode="m" horiz-adv-x="1732" d="M156 0v1036h67v-180q15 31 36 60.5t57 64.5t91.5 56.5t120.5 21.5q134 0 220 -62t122 -178q10 26 24 51.5t42.5 61.5t63 62.5t88 45.5t114.5 19q183 0 275 -114t92 -322v-623h-66v535q0 79 -6.5 141t-26.5 123t-52.5 101t-88 64.5t-129.5 24.5q-80 0 -139.5 -36.5 t-94 -100t-51 -138t-18.5 -161.5v-553h-66v535q0 79 -6.5 141t-26.5 123t-53 101t-88.5 64.5t-130.5 24.5q-81 0 -141.5 -38.5t-94.5 -105t-50.5 -144t-16.5 -166.5v-535h-67z" />
<glyph unicode="n" horiz-adv-x="1058" d="M156 0v1036h67v-198q8 25 23 52t41.5 58t59.5 55t80.5 40t100.5 16q184 0 275.5 -113.5t91.5 -322.5v-623h-64v535q0 79 -6.5 141t-26.5 123t-53 101t-88.5 64.5t-130.5 24.5q-81 0 -141.5 -38.5t-94.5 -105t-50.5 -144t-16.5 -166.5v-535h-67z" />
<glyph unicode="o" horiz-adv-x="1126" d="M111 518q0 236 127.5 387.5t324.5 151.5t325 -151.5t128 -387.5q0 -235 -129 -386.5t-324 -151.5t-323.5 151.5t-128.5 386.5zM178 518q0 -119 50 -227.5t140 -177t195 -68.5q96 0 173 48t121.5 122t67.5 152.5t23 150.5q0 90 -27 174.5t-75 151t-122 107t-161 40.5 q-107 0 -196.5 -68.5t-139 -177t-49.5 -227.5z" />
<glyph unicode="p" horiz-adv-x="1077" d="M137 -371v1407h68v-100q56 49 136 86t171 37q92 0 175 -40.5t145 -112.5t98.5 -179.5t36.5 -234.5q0 -122 -36.5 -221.5t-99 -162.5t-144 -97t-173.5 -34q-90 0 -170.5 34t-138.5 81v-463h-68zM205 174q5 -5 15 -14t41.5 -31.5t65.5 -40t84.5 -31.5t100.5 -14 q170 0 277.5 129.5t107.5 319.5q0 137 -44 249t-133 181t-208 69q-54 0 -105.5 -14.5t-86.5 -35.5t-62 -42.5t-40 -36.5l-13 -14v-674z" />
<glyph unicode="q" horiz-adv-x="1077" d="M111 492q0 127 36.5 234.5t98 179.5t144 112.5t173.5 40.5t171.5 -35.5t137.5 -83.5v96h68v-1407h-68v463q-149 -115 -309 -115q-93 0 -174.5 33.5t-143.5 96.5t-98 162.5t-36 222.5zM180 492q0 -191 106.5 -320t276.5 -129q50 0 100 13.5t86 32.5t65 37.5t44 31.5l14 14 v676q-5 6 -13.5 15.5t-39 34t-63.5 43.5t-85.5 34.5t-107.5 15.5q-118 0 -206.5 -69t-132.5 -181t-44 -249z" />
<glyph unicode="r" horiz-adv-x="667" d="M156 0v1036h67v-198q11 32 33.5 67t58.5 71.5t92 59.5t121 23q49 0 97 -10l-31 -66q-27 8 -66 8q-82 0 -143 -39t-95 -105.5t-50.5 -144.5t-16.5 -167v-535h-67z" />
<glyph unicode="s" horiz-adv-x="872" d="M115 90l41 60q5 -4 15 -11t40 -25.5t60.5 -32t74 -25t82.5 -11.5q118 0 189 64t71 161q0 56 -30.5 99t-78.5 71t-106.5 52.5t-117.5 49.5t-107 55t-78.5 76.5t-30.5 106.5q1 116 93 198q91 81 230 81h3q52 -1 98.5 -10.5t76 -22.5t51 -26t31.5 -22l9 -9l-35 -58 q-4 3 -11 8.5t-31 19.5t-49 24.5t-64 19.5t-78 10h-6q-94 0 -169 -61q-77 -63 -77 -148q0 -41 23.5 -74t62 -55t87.5 -45t100.5 -41.5t100.5 -46t87.5 -59t62 -80t23.5 -107.5q0 -76 -28.5 -135t-76 -93t-104.5 -51t-119 -17q-48 0 -98 11.5t-87.5 27.5t-67.5 32t-46 27z " />
<glyph unicode="t" horiz-adv-x="657" d="M31 971v65h135v303h67l3 -303h313v-65h-313l2 -600q0 -45 4 -86t17 -86t33 -77.5t55 -53.5t81 -21q20 0 40 3.5t34.5 8.5t25.5 10t18.5 9t8.5 4l27 -59q-64 -43 -152 -43q-62 0 -110.5 26.5t-76.5 67t-46 95t-24.5 103t-6.5 99.5v600h-135z" />
<glyph unicode="u" horiz-adv-x="1062" d="M164 1036h67v-534q0 -79 7 -141t26.5 -123t52.5 -101t88.5 -65t129.5 -25q66 0 118.5 26t87 69t57.5 102.5t32.5 123.5t9.5 134l2 534h65v-1036h-65v199q-11 -32 -33.5 -67t-59.5 -71.5t-93 -60t-121 -23.5q-183 0 -275 114t-94 323z" />
<glyph unicode="v" horiz-adv-x="958" d="M88 1036h72l317 -901l322 901h71l-358 -1036h-68z" />
<glyph unicode="w" horiz-adv-x="1669" d="M88 1036h72l319 -901l320 893h71l320 -893l319 901h72l-356 -1036h-70l-319 926l-322 -926h-70z" />
<glyph unicode="x" horiz-adv-x="1046" d="M96 0l383 547l-336 489h80l301 -424l301 424h80l-336 -489l381 -547h-80l-346 483l-348 -483h-80z" />
<glyph unicode="y" horiz-adv-x="935" d="M88 -319l37 53q1 0 9.5 -5.5t18.5 -11t23.5 -11.5t29.5 -9.5t30 -3.5q39 0 75 32.5t59 79.5t40 93.5t24 79.5l8 32l-354 1026h72l319 -901l320 901h71l-354 -1022q-7 -21 -19.5 -65t-22.5 -74t-26 -71t-34.5 -68.5t-43.5 -54t-58.5 -39.5t-73.5 -13q-42 0 -91 20t-59 32z " />
<glyph unicode="z" horiz-adv-x="909" d="M84 0v68l641 901h-600v67h686v-67l-641 -901h655v-68h-741z" />
<glyph unicode="{" horiz-adv-x="555" d="M92 649l88 117v651q0 114 70 184t184 70h29v-69h-41q-75 0 -121.5 -46t-46.5 -122v-689l-78 -96l78 -88v-694q0 -75 46.5 -121.5t121.5 -46.5h41v-70h-29q-114 0 -184 70t-70 184v656z" />
<glyph unicode="|" horiz-adv-x="165" d="M47 -371v2040h72v-2040h-72z" />
<glyph unicode="}" horiz-adv-x="555" d="M92 -301h41q75 0 121.5 46t46.5 122v694l76 88l-76 96v689q0 76 -46.5 122t-121.5 46h-41v69h29q114 0 184 -70t70 -184v-651l88 -117l-88 -110v-656q0 -114 -70 -184t-184 -70h-29v70z" />
<glyph unicode="~" horiz-adv-x="997" d="M156 1260q11 17 24.5 33t40 40t67 38.5t87.5 14.5q62 0 104 -16.5t80.5 -32.5t91.5 -16q52 0 80 20t47 54l64 -31q-64 -111 -191 -111q-51 0 -89.5 10.5t-59 22.5t-54 22.5t-75.5 10.5q-104 0 -156 -92z" />
<glyph unicode="&#xa1;" horiz-adv-x="360" d="M111 1440q0 29 20 49t49 20t49.5 -20t20.5 -49t-20.5 -49.5t-49.5 -20.5t-49 20.5t-20 49.5zM135 0l15 1204h63l8 -1204h-86z" />
<glyph unicode="&#xa2;" horiz-adv-x="1155" d="M111 623q0 88 24 175.5t71 166.5t111.5 142t152.5 104.5t187 52.5v172h74v-168q209 0 342 -125l-37 -64q-77 70 -159.5 95.5t-145.5 25.5h-2q-26 0 -72 -4q-141 -19 -250.5 -108t-165 -211.5t-55.5 -253.5t55.5 -254t165 -212t250.5 -108q46 -4 72 -4h2q175 0 305 121 l37 -66q-134 -123 -342 -123v-155h-74v160q-123 13 -228 74t-173.5 150t-106.5 197.5t-38 219.5z" />
<glyph unicode="&#xa3;" horiz-adv-x="1093" d="M43 604v66h229q0 38 3.5 82t14 104.5t27.5 116t47 112t68.5 97.5t96 66.5t126.5 25.5q65 0 122 -21.5t81 -42.5l25 -22l-39 -62q-8 8 -23.5 20.5t-65 33t-100.5 20.5q-53 0 -98 -21.5t-75.5 -56.5t-55 -82.5t-38.5 -96t-23.5 -101.5t-13 -94t-3.5 -78h318v-66h-320 q0 -137 -47 -324.5t-92 -213.5h588v-66h-748v66h25q43 0 82 58t64 142.5t39.5 175.5t14.5 162h-229z" />
<glyph unicode="&#xa4;" horiz-adv-x="1079" d="M76 133l139 139q-94 118 -94 279q0 157 88 272l-133 135l51 52l133 -133q114 100 275 100q165 0 280 -105l137 138l52 -52l-140 -139q86 -113 86 -268q0 -156 -92 -272l146 -146l-52 -53l-143 145q-112 -98 -274 -98q-154 0 -269 94l-139 -141zM186 551q0 -90 45 -173 t126.5 -135.5t177.5 -52.5q105 0 186 53t121.5 134.5t40.5 173.5t-40.5 172.5t-121.5 133t-186 52.5q-145 0 -247 -109.5t-102 -248.5z" />
<glyph unicode="&#xa5;" horiz-adv-x="1118" d="M102 1253h84l373 -553l373 553h84l-418 -626h248v-66h-250v-94h250v-66h-250v-401h-74v401h-250v66h250v94h-250v66h248z" />
<glyph unicode="&#xa6;" horiz-adv-x="782" d="M225 -367v791h72v-791h-72zM225 565v791h72v-791h-72z" />
<glyph unicode="&#xa7;" horiz-adv-x="1005" d="M115 -262l43 63q61 -46 149 -82t170 -36q67 0 122 18t89.5 46.5t58.5 66t34 74.5t10 73q0 112 -105 193q-51 37 -169.5 90.5t-143.5 66.5q-119 61 -174.5 121.5t-55.5 153.5q0 79 39 149.5t115 112.5q-125 83 -125 213q0 63 23 120t69.5 104.5t125.5 75.5t181 28 q75 0 152 -24t129 -71l-29 -65q-51 41 -117.5 63.5t-130.5 22.5q-58 0 -114 -14t-105.5 -42.5t-79.5 -79t-30 -116.5q0 -61 78.5 -125t183.5 -107q152 -65 204 -96q150 -89 174 -223q5 -28 5 -59q0 -176 -113 -271q84 -87 84 -213q0 -170 -108 -264t-273 -94q-95 0 -197 38 t-169 89zM219 582q0 -54 33 -96t90 -72.5t118.5 -55.5t135.5 -58.5t123 -68.5q52 41 77 99t25 116q0 51 -20.5 94.5t-50.5 72t-79.5 57.5t-90.5 46.5t-102 43t-97 43.5q-162 -67 -162 -221z" />
<glyph unicode="&#xa8;" horiz-adv-x="1118" d="M270 1493q0 29 20.5 50.5t49.5 21.5t49.5 -21.5t20.5 -50.5t-20.5 -49.5t-49.5 -20.5t-49.5 20.5t-20.5 49.5zM705 1493q0 29 21 50.5t50 21.5t49.5 -21.5t20.5 -50.5t-20.5 -49.5t-49.5 -20.5t-50 20.5t-21 49.5z" />
<glyph unicode="&#xa9;" horiz-adv-x="1572" d="M111 621q0 182 89.5 337t245 246.5t340.5 91.5q182 0 337.5 -89.5t247 -245t91.5 -340.5q0 -139 -54 -264.5t-145 -215.5t-216 -143t-261 -53q-138 0 -262 53q-188 79 -300.5 249.5t-112.5 373.5zM170 618q0 -166 82.5 -307.5t224.5 -224t309 -82.5q125 0 239.5 49 t197 131t131.5 196t49 238q0 125 -49 239.5t-131.5 197t-197 131.5t-239.5 49t-239 -49t-196.5 -131.5t-131.5 -197t-49 -239.5zM410 621q0 170 102.5 286.5t269.5 116.5q72 0 138 -23t96 -46l31 -23l-35 -47q-3 3 -12 10t-31.5 20.5t-48.5 25t-64 20t-76 8.5 q-73 0 -134.5 -33.5t-99.5 -86t-58.5 -112.5t-20.5 -116q0 -57 20.5 -117t58.5 -113t99.5 -87t134.5 -34q28 0 56 4.5t50 12t42 16.5t35 18t26 16.5t17 12.5l6 4l35 -45q-4 -4 -12 -10t-34.5 -22t-55.5 -28t-73.5 -22t-89.5 -10q-167 0 -269.5 117t-102.5 287z" />
<glyph unicode="&#xaa;" horiz-adv-x="663" d="M41 809q0 92 68 156.5t161 64.5q43 0 97 -14.5t88 -38.5q-1 38 -6 68.5t-16.5 61.5t-29.5 51.5t-48 33t-70 12.5q-96 0 -172 -76l-7 -6l-28 62l4 2q35 38 92 61t111 23q46 0 82.5 -12.5t60.5 -31.5t41.5 -50t26.5 -60.5t14.5 -70.5t6.5 -71.5t1 -72.5q0 -94 12 -153 q18 -107 70 -107h10l-30 -66l-5 3q-67 6 -96 77q-93 -77 -205 -77q-104 0 -168.5 63.5t-64.5 167.5zM111 809q0 -74 45 -123t118 -49q51 0 100.5 24.5t84.5 65.5l-6 168q-35 34 -83.5 54t-95.5 20q-64 0 -113.5 -48.5t-49.5 -111.5z" />
<glyph unicode="&#xab;" horiz-adv-x="821" d="M92 610l238 428h80l-232 -428l232 -428h-80zM412 610l237 428h80l-231 -428l231 -428h-80z" />
<glyph unicode="&#xac;" horiz-adv-x="1144" d="M156 731v68h825v-357h-68v289h-757z" />
<glyph unicode="&#xad;" horiz-adv-x="880" d="M72 635v65h737v-65h-737z" />
<glyph unicode="&#xae;" horiz-adv-x="1572" d="M111 621q0 182 89.5 337t245 246.5t340.5 91.5q183 0 338.5 -89.5t246.5 -245t91 -340.5q0 -139 -54 -264.5t-145 -215.5t-216 -143t-261 -53q-138 0 -262 53q-188 79 -300.5 249.5t-112.5 373.5zM170 618q0 -166 82.5 -307.5t224.5 -224t309 -82.5q125 0 239.5 49 t197 131t131.5 196t49 238q0 125 -49 239.5t-131.5 197t-197 131.5t-239.5 49t-239 -49t-196.5 -131.5t-131.5 -197t-49 -239.5zM551 240v741h293q79 0 132.5 -60t53.5 -139q0 -72 -47 -133t-117 -67l211 -342h-71v2l-211 338h-187v-340h-57zM608 635h236q49 0 88 45t39 102 q0 59 -37.5 102.5t-89.5 43.5h-236v-293z" />
<glyph unicode="&#xaf;" horiz-adv-x="1054" d="M156 1368v66h735v-66h-735z" />
<glyph unicode="&#xb0;" horiz-adv-x="755" d="M111 1038q0 110 77.5 186t190.5 76q111 0 188.5 -76t77.5 -186q0 -114 -77.5 -191t-188.5 -77q-113 0 -190.5 76.5t-77.5 191.5zM184 1038q0 -82 55.5 -138t137.5 -56t138 56t56 138q0 81 -56 135t-138 54t-137.5 -54t-55.5 -135z" />
<glyph unicode="&#xb1;" horiz-adv-x="925" d="M92 637v63h332v336h72v-336h331v-63h-331v-336h-72v336h-332zM98 90v66h736v-66h-736z" />
<glyph unicode="&#xb2;" horiz-adv-x="509" d="M43 1196q75 78 195 78q92 0 154.5 -45t62.5 -133q0 -52 -33 -100.5t-80.5 -87t-96 -76.5t-85 -85t-41.5 -96h350v-65h-422v47q0 55 25 106t62 87t81 73t81 66t62 63.5t25 67.5q0 55 -43 80.5t-102 25.5q-89 0 -168 -69z" />
<glyph unicode="&#xb3;" horiz-adv-x="522" d="M43 659l41 52q29 -34 77.5 -55t94.5 -21q70 0 113 41.5t43 111.5q0 37 -14 63.5t-34.5 41t-53 22t-58.5 9.5t-62 2h-6v55l176 215h-284v59h373v-53l-173 -213q90 -6 146.5 -59.5t56.5 -141.5q0 -94 -66.5 -155.5t-160.5 -61.5q-53 0 -113.5 25t-95.5 63z" />
<glyph unicode="&#xb4;" horiz-adv-x="1116" d="M489 1253l105 258h102l-133 -258h-74z" />
<glyph unicode="&#xb6;" horiz-adv-x="843" d="M49 1032q0 92 64.5 156.5t156.5 64.5h543v-65h-141v-1385h-74v1385h-254v-1385h-74v1008q-92 0 -156.5 65t-64.5 156z" />
<glyph unicode="&#xb8;" horiz-adv-x="1118" d="M485 -279l142 279h73l-112 -279h-103z" />
<glyph unicode="&#xb9;" horiz-adv-x="294" d="M37 1184l145 71h54v-667h-68v590l-109 -56z" />
<glyph unicode="&#xba;" horiz-adv-x="714" d="M31 920q0 89 32 166t100.5 128.5t160.5 51.5q93 0 161.5 -51.5t100.5 -128.5t32 -166q0 -66 -19 -127t-55 -110t-93 -78.5t-127 -29.5q-91 0 -159.5 51.5t-101 128.5t-32.5 165zM94 920q0 -103 66 -194t164 -91q69 0 123.5 44t81 108t26.5 133q0 110 -62.5 197t-168.5 87 q-67 0 -121 -44.5t-81.5 -109t-27.5 -130.5z" />
<glyph unicode="&#xbb;" horiz-adv-x="821" d="M92 195l232 428l-232 428h80l238 -428l-238 -428h-80zM412 195l231 428l-231 428h80l237 -428l-237 -428h-80z" />
<glyph unicode="&#xbf;" horiz-adv-x="860" d="M113 322q0 90 26.5 160.5t69 114.5t100.5 72.5t116.5 40t121.5 11.5v385h71v-184v-277h-71q-182 0 -271.5 -85t-89.5 -238q0 -73 27 -128t71 -85t93 -44t102 -14q60 0 126.5 26.5t115.5 61.5l27 -65q-45 -37 -124.5 -65.5t-148.5 -28.5q-164 0 -263 98.5t-99 243.5z M512 1366q0 29 21.5 49.5t50.5 20.5q28 0 48.5 -20.5t20.5 -49.5t-20.5 -49.5t-48.5 -20.5q-29 0 -50.5 20.5t-21.5 49.5z" />
<glyph unicode="&#xc0;" horiz-adv-x="1163" d="M102 0l443 1253h76l440 -1253h-80l-133 381h-531l-133 -381h-82zM340 446h485l-243 693zM403 1692h103l104 -258h-73z" />
<glyph unicode="&#xc1;" horiz-adv-x="1163" d="M102 0l443 1253h76l440 -1253h-80l-133 381h-531l-133 -381h-82zM340 446h485l-243 693zM555 1432l104 258h103l-133 -258h-74z" />
<glyph unicode="&#xc2;" horiz-adv-x="1163" d="M102 0l443 1253h76l440 -1253h-80l-133 381h-531l-133 -381h-82zM340 446h485l-243 693zM418 1432l121 274h86l120 -274h-67l-96 213l-97 -213h-67z" />
<glyph unicode="&#xc3;" horiz-adv-x="1163" d="M102 0l443 1253h76l440 -1253h-80l-133 381h-531l-133 -381h-82zM238 1440q79 127 219 127q49 0 87 -10.5t58 -22.5t54 -22.5t77 -10.5q53 0 80.5 19.5t46.5 52.5l64 -29q-64 -110 -191 -110q-65 0 -108 16t-80.5 31.5t-89.5 15.5q-106 0 -156 -90zM340 446h485l-243 693 z" />
<glyph unicode="&#xc4;" horiz-adv-x="1163" d="M102 0l443 1253h76l440 -1253h-80l-133 381h-531l-133 -381h-82zM293 1499q0 30 20 51t49 21t49.5 -21.5t20.5 -50.5t-20.5 -49t-49.5 -20t-49 20t-20 49zM340 446h485l-243 693zM727 1499q0 29 21.5 50.5t50.5 21.5t49 -21t20 -51q0 -29 -20 -49t-49 -20q-30 0 -51 20 t-21 49z" />
<glyph unicode="&#xc5;" horiz-adv-x="1163" d="M102 0l443 1253h76l440 -1253h-80l-133 381h-531l-133 -381h-82zM340 446h485l-243 693zM401 1540q0 73 53 124.5t128 51.5q74 0 126 -51.5t52 -124.5q0 -76 -52 -128t-126 -52q-75 0 -128 52t-53 128zM475 1540q0 -40 31 -73t74 -33t74.5 33t31.5 73q0 39 -31.5 70.5 t-74.5 31.5t-74 -31.5t-31 -70.5z" />
<glyph unicode="&#xc6;" horiz-adv-x="1454" d="M102 0l441 1253h755v-65h-645v-488h527v-67h-527v-567h645v-66h-716v381h-267l-133 -381h-80zM340 446h242v693z" />
<glyph unicode="&#xc7;" horiz-adv-x="1236" d="M137 625q0 118 44 233t122 207t196.5 148.5t256.5 56.5q211 0 344 -125l-37 -64q-130 121 -307 121q-121 0 -225.5 -51t-172.5 -133t-106.5 -185t-38.5 -208t38.5 -208t106.5 -185.5t172.5 -133.5t225.5 -51q179 0 307 121l37 -66q-133 -122 -344 -122q-38 0 -54 2 l-100 -250l-98 8l129 252q-149 29 -264 127.5t-173.5 231t-58.5 274.5z" />
<glyph unicode="&#xc8;" horiz-adv-x="1028" d="M156 0v1253h716v-65h-643v-488h525v-67h-525v-567h643v-66h-716zM356 1690h103l104 -258h-74z" />
<glyph unicode="&#xc9;" horiz-adv-x="1028" d="M156 0v1253h716v-65h-643v-488h525v-67h-525v-567h643v-66h-716zM485 1432l105 258h102l-133 -258h-74z" />
<glyph unicode="&#xca;" horiz-adv-x="1028" d="M156 0v1253h716v-65h-643v-488h525v-67h-525v-567h643v-66h-716zM367 1434l120 274h86l121 -274h-67l-97 213l-96 -213h-67z" />
<glyph unicode="&#xcb;" horiz-adv-x="1028" d="M156 0v1253h716v-65h-643v-488h525v-67h-525v-567h643v-66h-716zM231 1493q0 29 20.5 50.5t49.5 21.5t49.5 -21.5t20.5 -50.5t-20.5 -49.5t-49.5 -20.5t-49.5 20.5t-20.5 49.5zM666 1493q0 29 21 50.5t50 21.5t49.5 -21.5t20.5 -50.5t-20.5 -49.5t-49.5 -20.5t-50 20.5 t-21 49.5z" />
<glyph unicode="&#xcc;" horiz-adv-x="436" d="M74 1692h102l105 -258h-74zM205 0v1253h74v-1253h-74z" />
<glyph unicode="&#xcd;" horiz-adv-x="395" d="M156 0v1253h73v-1253h-73zM156 1434l104 258h102l-133 -258h-73z" />
<glyph unicode="&#xce;" horiz-adv-x="393" d="M33 1434l121 274h86l120 -274h-67l-96 213l-97 -213h-67zM160 0v1253h73v-1253h-73z" />
<glyph unicode="&#xcf;" horiz-adv-x="370" d="M-102 1493q0 30 20 51t49 21t49.5 -21.5t20.5 -50.5t-20.5 -49.5t-49.5 -20.5t-49 20.5t-20 49.5zM147 0v1253h74v-1253h-74zM332 1493q0 29 21 50.5t50 21.5t49.5 -21.5t20.5 -50.5t-20.5 -49.5t-49.5 -20.5t-50 20.5t-21 49.5z" />
<glyph unicode="&#xd0;" horiz-adv-x="1187" d="M31 594v65h170v594h2h65h283q98 0 190 -49.5t160 -132.5t109 -199.5t41 -244.5q0 -170 -68.5 -315t-184 -228.5t-247.5 -83.5h-283h-65h-2v594h-170zM272 66h279q112 0 210 74.5t157 204.5t59 282q0 153 -56.5 282t-154.5 204t-215 75h-279v-529h383v-65h-383v-528z" />
<glyph unicode="&#xd1;" horiz-adv-x="1122" d="M156 0v1253h80l657 -1116v1116h74v-1253h-82l-658 1110v-1110h-71zM219 1440q9 16 23 33t40 40.5t67 38.5t89 15q74 0 143 -33t132 -33q54 0 82 20t47 54l61 -31q-64 -110 -190 -110q-51 0 -90 10t-59 22.5t-54 22.5t-76 10q-103 0 -155 -92z" />
<glyph unicode="&#xd2;" horiz-adv-x="1316" d="M137 627q0 131 36.5 248t102 206t164.5 141t217 52q157 0 278 -89.5t183 -236t62 -321.5q0 -177 -59.5 -322t-180.5 -235t-283 -90q-122 0 -221.5 52t-164 141t-99.5 206t-35 248zM213 627q0 -117 28.5 -221t83 -184.5t140 -127.5t192.5 -47q142 0 245.5 81.5t152.5 211 t49 287.5q0 117 -29 221t-83.5 184t-141 127t-193.5 47t-192.5 -47t-140 -127t-83 -184t-28.5 -221zM508 1694h102l105 -258h-74z" />
<glyph unicode="&#xd3;" horiz-adv-x="1316" d="M137 627q0 131 36.5 248t102 206t164.5 141t217 52q157 0 278 -89.5t183 -236t62 -321.5q0 -177 -59.5 -322t-180.5 -235t-283 -90q-122 0 -221.5 52t-164 141t-99.5 206t-35 248zM213 627q0 -117 28.5 -221t83 -184.5t140 -127.5t192.5 -47q142 0 245.5 81.5t152.5 211 t49 287.5q0 117 -29 221t-83.5 184t-141 127t-193.5 47t-192.5 -47t-140 -127t-83 -184t-28.5 -221zM606 1434l105 258h102l-133 -258h-74z" />
<glyph unicode="&#xd4;" horiz-adv-x="1316" d="M137 627q0 131 36.5 248t102 206t164.5 141t217 52q157 0 278 -89.5t183 -236t62 -321.5q0 -177 -59.5 -322t-180.5 -235t-283 -90q-122 0 -221.5 52t-164 141t-99.5 206t-35 248zM213 627q0 -117 28.5 -221t83 -184.5t140 -127.5t192.5 -47q142 0 245.5 81.5t152.5 211 t49 287.5q0 117 -29 221t-83.5 184t-141 127t-193.5 47t-192.5 -47t-140 -127t-83 -184t-28.5 -221zM494 1434l120 274h86l121 -274h-67l-97 213l-96 -213h-67z" />
<glyph unicode="&#xd5;" horiz-adv-x="1316" d="M137 627q0 131 36.5 248t102 206t164.5 141t217 52q157 0 278 -89.5t183 -236t62 -321.5q0 -177 -59.5 -322t-180.5 -235t-283 -90q-122 0 -221.5 52t-164 141t-99.5 206t-35 248zM213 627q0 -117 28.5 -221t83 -184.5t140 -127.5t192.5 -47q142 0 245.5 81.5t152.5 211 t49 287.5q0 117 -29 221t-83.5 184t-141 127t-193.5 47t-192.5 -47t-140 -127t-83 -184t-28.5 -221zM313 1440q79 127 219 127q62 0 104 -16.5t81 -33t92 -16.5t80.5 19.5t46.5 52.5l63 -29q-64 -110 -190 -110q-65 0 -108 16t-81 31.5t-90 15.5q-105 0 -155 -90z" />
<glyph unicode="&#xd6;" horiz-adv-x="1316" d="M137 627q0 131 36.5 248t102 206t164.5 141t217 52q157 0 278 -89.5t183 -236t62 -321.5q0 -177 -59.5 -322t-180.5 -235t-283 -90q-122 0 -221.5 52t-164 141t-99.5 206t-35 248zM213 627q0 -117 28.5 -221t83 -184.5t140 -127.5t192.5 -47q142 0 245.5 81.5t152.5 211 t49 287.5q0 117 -29 221t-83.5 184t-141 127t-193.5 47t-192.5 -47t-140 -127t-83 -184t-28.5 -221zM371 1518q0 29 20 50t49 21t49.5 -21t20.5 -50t-20.5 -49.5t-49.5 -20.5t-49 20.5t-20 49.5zM805 1518q0 29 21.5 50t50.5 21t49 -21t20 -50t-20 -49.5t-49 -20.5 t-50.5 20.5t-21.5 49.5z" />
<glyph unicode="&#xd7;" horiz-adv-x="763" d="M96 414l238 237l-234 234l45 47l234 -236l237 238l52 -51l-238 -238l236 -233l-48 -45l-233 233l-238 -238z" />
<glyph unicode="&#xd8;" horiz-adv-x="1316" d="M137 627q0 131 36.5 248t102 206t164.5 141t217 52q129 0 238 -64l106 224h78l-127 -263q108 -87 168 -231.5t60 -312.5q0 -177 -59.5 -322t-180.5 -235t-283 -90q-134 0 -245 65l-97 -197h-77l114 238q-103 88 -159 230.5t-56 310.5zM213 627q0 -146 44 -270.5 t128 -204.5l481 999q-93 55 -209 55q-107 0 -192.5 -47t-140 -127t-83 -184t-28.5 -221zM440 109q97 -62 217 -62q142 0 245.5 81.5t152.5 211t49 287.5q0 151 -46 277.5t-134 203.5z" />
<glyph unicode="&#xd9;" horiz-adv-x="1058" d="M123 395v858h74v-858q0 -138 97.5 -240t233.5 -102q137 0 235.5 102t98.5 240v858h74v-858q0 -168 -120 -291.5t-288 -123.5q-166 0 -285.5 123.5t-119.5 291.5zM383 1690h102l105 -258h-74z" />
<glyph unicode="&#xda;" horiz-adv-x="1058" d="M123 395v858h74v-858q0 -138 97.5 -240t233.5 -102q137 0 235.5 102t98.5 240v858h74v-858q0 -168 -120 -291.5t-288 -123.5q-166 0 -285.5 123.5t-119.5 291.5zM487 1432l105 258h102l-133 -258h-74z" />
<glyph unicode="&#xdb;" horiz-adv-x="1058" d="M123 395v858h74v-858q0 -138 97.5 -240t233.5 -102q137 0 235.5 102t98.5 240v858h74v-858q0 -168 -120 -291.5t-288 -123.5q-166 0 -285.5 123.5t-119.5 291.5zM365 1434l120 274h86l121 -274h-67l-97 213l-96 -213h-67z" />
<glyph unicode="&#xdc;" horiz-adv-x="1058" d="M123 395v858h74v-858q0 -138 97.5 -240t233.5 -102q137 0 235.5 102t98.5 240v858h74v-858q0 -168 -120 -291.5t-288 -123.5q-166 0 -285.5 123.5t-119.5 291.5zM240 1491q0 30 20 51t49 21t49.5 -21.5t20.5 -50.5t-20.5 -49.5t-49.5 -20.5t-49 20.5t-20 49.5zM674 1491 q0 29 21 50.5t50 21.5t49.5 -21.5t20.5 -50.5t-20.5 -49.5t-49.5 -20.5t-50 20.5t-21 49.5z" />
<glyph unicode="&#xdd;" horiz-adv-x="1118" d="M102 1253h84l373 -553l373 553h84l-420 -630v-623h-74v623zM520 1434l105 258h102l-133 -258h-74z" />
<glyph unicode="&#xde;" horiz-adv-x="976" d="M-19251 420h67v-332h234q200 0 306 -81t106 -247q0 -327 -412 -327h-234v-371h-67v1358zM-19184 23v-525h234q48 0 91 5.5t91.5 22.5t82.5 44.5t56.5 76t22.5 113.5q0 64 -24 113.5t-59.5 77t-84 44.5t-90.5 22.5t-86 5.5h-234zM127 0v1358h68v-322h180q84 0 149.5 -8.5 t126.5 -30.5t101 -58t64 -95t24 -137t-24 -136.5t-64 -94.5t-101 -58.5t-126.5 -30.5t-149.5 -8h-180v-379h-68zM195 444h180q148 0 219 20q178 50 178 243q0 75 -30 128t-67 78t-100 39t-98.5 15.5t-93.5 1.5h-8h-180v-525z" />
<glyph unicode="&#xdf;" horiz-adv-x="1030" d="M137 0v813q0 67 11.5 129.5t38.5 123.5t68 106t105.5 72.5t145.5 27.5q134 0 213.5 -69t79.5 -177q0 -45 -18 -85.5t-43.5 -68.5t-51 -53t-43.5 -50t-18 -48q0 -30 30.5 -62t73.5 -64.5t86.5 -71t74 -98.5t30.5 -132q0 -130 -90.5 -221.5t-211.5 -91.5q-44 0 -91.5 14 t-72.5 28l-26 13l31 67q0 -2 24 -13.5t64 -23.5t71 -12q82 0 155 69t73 175q0 56 -22 102t-55 75t-71.5 58.5t-71.5 53.5t-55 59.5t-22 77.5q0 38 18 71t44 57.5t52 49.5t44 57.5t18 69.5q0 81 -64.5 125.5t-154.5 44.5q-137 0 -216 -106.5t-79 -270.5l2 -821h-76z" />
<glyph unicode="&#xe0;" d="M70 547q0 102 27 188t72 146t105 102t126 61.5t134 19.5q57 0 112.5 -14.5t94 -35.5t69 -42.5t44.5 -35.5l15 -15v115h73v-712q0 -76 13 -136t48 -102t90 -42l-21 -64q-38 0 -71 18t-52.5 42.5t-34 51t-20.5 43t-6 18.5v-1q-50 -72 -139 -120q-99 -53 -218 -53 q-94 0 -177 37t-146.5 107t-100.5 179.5t-37 244.5zM144 547q0 -228 111.5 -363.5t278.5 -135.5q69 0 135 27t107.5 63.5t67 69t25.5 47.5v517q0 28 -24.5 65.5t-66 73t-108 59.5t-139.5 24q-74 0 -142.5 -29.5t-123.5 -84t-88 -141t-33 -192.5zM389 1511h103l104 -258h-74z " />
<glyph unicode="&#xe1;" d="M70 547q0 102 27 188t72 146t105 102t126 61.5t134 19.5q57 0 112.5 -14.5t94 -35.5t69 -42.5t44.5 -35.5l15 -15v115h73v-712q0 -76 13 -136t48 -102t90 -42l-21 -64q-38 0 -71 18t-52.5 42.5t-34 51t-20.5 43t-6 18.5v-1q-50 -72 -139 -120q-99 -53 -218 -53 q-94 0 -177 37t-146.5 107t-100.5 179.5t-37 244.5zM144 547q0 -228 111.5 -363.5t278.5 -135.5q69 0 135 27t107.5 63.5t67 69t25.5 47.5v517q0 28 -24.5 65.5t-66 73t-108 59.5t-139.5 24q-74 0 -142.5 -29.5t-123.5 -84t-88 -141t-33 -192.5zM477 1253l105 258h102 l-133 -258h-74z" />
<glyph unicode="&#xe2;" d="M70 547q0 102 27 188t72 146t105 102t126 61.5t134 19.5q57 0 112.5 -14.5t94 -35.5t69 -42.5t44.5 -35.5l15 -15v115h73v-712q0 -76 13 -136t48 -102t90 -42l-21 -64q-38 0 -71 18t-52.5 42.5t-34 51t-20.5 43t-6 18.5v-1q-50 -72 -139 -120q-99 -53 -218 -53 q-94 0 -177 37t-146.5 107t-100.5 179.5t-37 244.5zM144 547q0 -228 111.5 -363.5t278.5 -135.5q69 0 135 27t107.5 63.5t67 69t25.5 47.5v517q0 28 -24.5 65.5t-66 73t-108 59.5t-139.5 24q-74 0 -142.5 -29.5t-123.5 -84t-88 -141t-33 -192.5zM383 1253l121 275h86 l121 -275h-68l-96 213l-96 -213h-68z" />
<glyph unicode="&#xe3;" d="M70 547q0 102 27 188t72 146t105 102t126 61.5t134 19.5q57 0 112.5 -14.5t94 -35.5t69 -42.5t44.5 -35.5l15 -15v115h73v-712q0 -76 13 -136t48 -102t90 -42l-21 -64q-38 0 -71 18t-52.5 42.5t-34 51t-20.5 43t-6 18.5v-1q-50 -72 -139 -120q-99 -53 -218 -53 q-94 0 -177 37t-146.5 107t-100.5 179.5t-37 244.5zM144 547q0 -228 111.5 -363.5t278.5 -135.5q69 0 135 27t107.5 63.5t67 69t25.5 47.5v517q0 28 -24.5 65.5t-66 73t-108 59.5t-139.5 24q-74 0 -142.5 -29.5t-123.5 -84t-88 -141t-33 -192.5zM225 1372q79 127 219 127 q49 0 87 -10t58.5 -22.5t54.5 -22.5t77 -10q53 0 80.5 19t46.5 52l63 -28q-64 -111 -190 -111q-65 0 -108 16t-81 32t-90 16q-104 0 -155 -91z" />
<glyph unicode="&#xe4;" d="M70 547q0 102 27 188t72 146t105 102t126 61.5t134 19.5q57 0 112.5 -14.5t94 -35.5t69 -42.5t44.5 -35.5l15 -15v115h73v-712q0 -76 13 -136t48 -102t90 -42l-21 -64q-38 0 -71 18t-52.5 42.5t-34 51t-20.5 43t-6 18.5v-1q-50 -72 -139 -120q-99 -53 -218 -53 q-94 0 -177 37t-146.5 107t-100.5 179.5t-37 244.5zM144 547q0 -228 111.5 -363.5t278.5 -135.5q69 0 135 27t107.5 63.5t67 69t25.5 47.5v517q0 28 -24.5 65.5t-66 73t-108 59.5t-139.5 24q-74 0 -142.5 -29.5t-123.5 -84t-88 -141t-33 -192.5zM258 1493q0 29 20.5 50.5 t49.5 21.5t49 -21t20 -51q0 -29 -20 -49.5t-49 -20.5t-49.5 20.5t-20.5 49.5zM692 1493q0 29 21.5 50.5t50.5 21.5t49.5 -21.5t20.5 -50.5t-20.5 -49.5t-49.5 -20.5t-50.5 20.5t-21.5 49.5z" />
<glyph unicode="&#xe5;" d="M70 547q0 102 27 188t72 146t105 102t126 61.5t134 19.5q57 0 112.5 -14.5t94 -35.5t69 -42.5t44.5 -35.5l15 -15v115h73v-712q0 -76 13 -136t48 -102t90 -42l-21 -64q-38 0 -71 18t-52.5 42.5t-34 51t-20.5 43t-6 18.5v-1q-50 -72 -139 -120q-99 -53 -218 -53 q-94 0 -177 37t-146.5 107t-100.5 179.5t-37 244.5zM144 547q0 -228 111.5 -363.5t278.5 -135.5q69 0 135 27t107.5 63.5t67 69t25.5 47.5v517q0 28 -24.5 65.5t-66 73t-108 59.5t-139.5 24q-74 0 -142.5 -29.5t-123.5 -84t-88 -141t-33 -192.5zM377 1412q0 73 52.5 124.5 t127.5 51.5q74 0 126 -51.5t52 -124.5q0 -76 -52 -128t-126 -52q-75 0 -127.5 52t-52.5 128zM451 1412q0 -40 30.5 -73t73.5 -33t75 33t32 73q0 39 -32 71t-75 32t-73.5 -31.5t-30.5 -71.5z" />
<glyph unicode="&#xe6;" horiz-adv-x="1652" d="M82 334q0 97 50.5 176t129.5 120.5t168 41.5q94 0 187.5 -35t123.5 -70v2q0 209 -67 315.5t-221 106.5q-53 0 -105 -15.5t-88.5 -38t-57.5 -38.5t-30 -27l-29 62q43 43 126 84t184 41q143 0 219.5 -68t109.5 -200q45 125 140.5 196.5t238.5 71.5q176 0 278.5 -119 t102.5 -344v-66h-733q0 -72 16.5 -142t49.5 -131.5t78.5 -109t108 -75t132.5 -27.5q51 0 98.5 11.5t79.5 27.5t56 32.5t36 27.5l11 12l41 -56q-5 -5 -13.5 -13t-39.5 -28.5t-65.5 -36.5t-89.5 -29t-114 -13q-116 0 -207 52.5t-151 147.5q-66 -85 -178.5 -142.5t-223.5 -57.5 q-154 0 -253 95t-99 259zM156 336q0 -134 80.5 -214.5t197.5 -80.5q105 0 207 59t164 138q-53 109 -62 243q-19 17 -43 34t-65 40.5t-94 38t-107 14.5q-103 0 -190.5 -78t-87.5 -194zM811 596h662q0 82 -16 150t-51 125.5t-97.5 89.5t-147.5 32q-76 0 -137.5 -25t-100 -65 t-65 -93t-37 -106.5t-10.5 -107.5z" />
<glyph unicode="&#xe7;" horiz-adv-x="985" d="M111 518q0 83 19 162t58.5 147t94 119.5t130 81t162.5 29.5q57 0 111.5 -12.5t92 -30.5t67 -35.5t43.5 -30.5l14 -12l-41 -55q-5 4 -13.5 11.5t-37.5 26.5t-60.5 33.5t-80 26.5t-97.5 12q-74 0 -139 -30t-110.5 -79t-78.5 -111.5t-49 -127t-16 -125.5t16 -125.5t49 -127 t78.5 -111.5t110.5 -79t139 -30q49 0 97 11.5t81 27.5t59.5 32.5t39.5 27.5l12 12l41 -56q-5 -5 -14.5 -13t-42 -28.5t-68.5 -36.5t-91 -29t-112 -13h-20l-106 -277l-101 8l135 279q-173 34 -272.5 184.5t-99.5 343.5z" />
<glyph unicode="&#xe8;" horiz-adv-x="1019" d="M111 543q0 108 25 199.5t75 163.5t131.5 112.5t187.5 40.5q175 0 277 -119t102 -344v-66h-731q0 -90 26.5 -176t74 -155.5t121 -111.5t161.5 -42q51 0 98.5 11.5t79.5 27.5t56 32.5t35 27.5l12 12l41 -56q-5 -5 -13.5 -13t-39 -28.5t-64.5 -36.5t-89 -29t-114 -13 q-138 0 -242 75.5t-157 202.5t-53 285zM180 596h662q0 81 -16.5 150t-51.5 125.5t-97.5 89t-146.5 32.5q-76 0 -137.5 -25t-100 -65t-65 -93t-37 -106.5t-10.5 -107.5zM362 1516h103l104 -259h-73z" />
<glyph unicode="&#xe9;" horiz-adv-x="1019" d="M111 543q0 108 25 199.5t75 163.5t131.5 112.5t187.5 40.5q175 0 277 -119t102 -344v-66h-731q0 -90 26.5 -176t74 -155.5t121 -111.5t161.5 -42q51 0 98.5 11.5t79.5 27.5t56 32.5t35 27.5l12 12l41 -56q-5 -5 -13.5 -13t-39 -28.5t-64.5 -36.5t-89 -29t-114 -13 q-138 0 -242 75.5t-157 202.5t-53 285zM180 596h662q0 81 -16.5 150t-51.5 125.5t-97.5 89t-146.5 32.5q-76 0 -137.5 -25t-100 -65t-65 -93t-37 -106.5t-10.5 -107.5zM487 1253l91 258h116l-133 -258h-74z" />
<glyph unicode="&#xea;" horiz-adv-x="1019" d="M111 543q0 108 25 199.5t75 163.5t131.5 112.5t187.5 40.5q175 0 277 -119t102 -344v-66h-731q0 -90 26.5 -176t74 -155.5t121 -111.5t161.5 -42q51 0 98.5 11.5t79.5 27.5t56 32.5t35 27.5l12 12l41 -56q-5 -5 -13.5 -13t-39 -28.5t-64.5 -36.5t-89 -29t-114 -13 q-138 0 -242 75.5t-157 202.5t-53 285zM180 596h662q0 81 -16.5 150t-51.5 125.5t-97.5 89t-146.5 32.5q-76 0 -137.5 -25t-100 -65t-65 -93t-37 -106.5t-10.5 -107.5zM344 1253l121 275h86l121 -275h-68l-96 213l-96 -213h-68z" />
<glyph unicode="&#xeb;" horiz-adv-x="1019" d="M111 543q0 108 25 199.5t75 163.5t131.5 112.5t187.5 40.5q175 0 277 -119t102 -344v-66h-731q0 -90 26.5 -176t74 -155.5t121 -111.5t161.5 -42q51 0 98.5 11.5t79.5 27.5t56 32.5t35 27.5l12 12l41 -56q-5 -5 -13.5 -13t-39 -28.5t-64.5 -36.5t-89 -29t-114 -13 q-138 0 -242 75.5t-157 202.5t-53 285zM180 596h662q0 81 -16.5 150t-51.5 125.5t-97.5 89t-146.5 32.5q-76 0 -137.5 -25t-100 -65t-65 -93t-37 -106.5t-10.5 -107.5zM223 1391q0 29 20.5 50t49.5 21t49 -21t20 -50t-20 -49.5t-49 -20.5t-49.5 20.5t-20.5 49.5zM657 1391 q0 29 21.5 50t50.5 21t49.5 -21t20.5 -50t-20.5 -49.5t-49.5 -20.5t-50.5 20.5t-21.5 49.5z" />
<glyph unicode="&#xec;" horiz-adv-x="395" d="M33 1511h102l105 -258h-74zM172 0v1036h68v-1036h-68z" />
<glyph unicode="&#xed;" horiz-adv-x="395" d="M156 0v1036h67v-1036h-67zM156 1253l104 258h102l-133 -258h-73z" />
<glyph unicode="&#xee;" horiz-adv-x="391" d="M33 1253l121 275h84l120 -275h-65l-96 213l-97 -213h-67zM162 0v1036h67v-1036h-67z" />
<glyph unicode="&#xef;" horiz-adv-x="452" d="M-61 1391q0 29 20 50t49 21t49.5 -21t20.5 -50t-20.5 -49.5t-49.5 -20.5t-49 20.5t-20 49.5zM193 0v1036h67v-1036h-67zM373 1391q0 29 21 50t50 21t49.5 -21t20.5 -50t-20.5 -49.5t-49.5 -20.5t-50 20.5t-21 49.5z" />
<glyph unicode="&#xf0;" horiz-adv-x="940" d="M111 418q0 192 104 315t264 123q41 0 91.5 -13t78.5 -34l-223 340l-184 -123l-27 43l184 123l-151 242h86l123 -203l166 110l26 -41l-168 -112l37 -52q37 -51 91.5 -137t108.5 -184t92 -207t38 -190q0 -192 -105.5 -315t-263.5 -123q-159 0 -263.5 123t-104.5 315z M178 418q0 -149 85.5 -261t213.5 -112q63 0 116 25t86.5 64.5t57 90t33.5 99t10 94.5q0 153 -81 260.5t-222 107.5q-130 0 -214.5 -109.5t-84.5 -258.5z" />
<glyph unicode="&#xf1;" horiz-adv-x="1058" d="M156 0v1036h67v-198q8 25 23 52t41.5 58t59.5 55t80.5 40t100.5 16q184 0 275.5 -113.5t91.5 -322.5v-623h-64v535q0 79 -6.5 141t-26.5 123t-53 101t-88.5 64.5t-130.5 24.5q-81 0 -141.5 -38.5t-94.5 -105t-50.5 -144t-16.5 -166.5v-535h-67zM182 1315q79 127 219 127 q62 0 104 -16.5t81 -33t92 -16.5t80.5 19.5t46.5 52.5l63 -29q-64 -110 -190 -110q-52 0 -91 10t-59 21.5t-53.5 21.5t-75.5 10q-105 0 -155 -90z" />
<glyph unicode="&#xf2;" horiz-adv-x="1126" d="M111 518q0 236 127.5 387.5t324.5 151.5t325 -151.5t128 -387.5q0 -235 -129 -386.5t-324 -151.5t-323.5 151.5t-128.5 386.5zM178 518q0 -119 50 -227.5t140 -177t195 -68.5q96 0 173 48t121.5 122t67.5 152.5t23 150.5q0 90 -27 174.5t-75 151t-122 107t-161 40.5 q-107 0 -196.5 -68.5t-139 -177t-49.5 -227.5zM424 1511h102l105 -258h-74z" />
<glyph unicode="&#xf3;" horiz-adv-x="1126" d="M111 518q0 236 127.5 387.5t324.5 151.5t325 -151.5t128 -387.5q0 -235 -129 -386.5t-324 -151.5t-323.5 151.5t-128.5 386.5zM178 518q0 -119 50 -227.5t140 -177t195 -68.5q96 0 173 48t121.5 122t67.5 152.5t23 150.5q0 90 -27 174.5t-75 151t-122 107t-161 40.5 q-107 0 -196.5 -68.5t-139 -177t-49.5 -227.5zM518 1253l105 258h102l-133 -258h-74z" />
<glyph unicode="&#xf4;" horiz-adv-x="1126" d="M111 518q0 236 127.5 387.5t324.5 151.5t325 -151.5t128 -387.5q0 -235 -129 -386.5t-324 -151.5t-323.5 151.5t-128.5 386.5zM178 518q0 -119 50 -227.5t140 -177t195 -68.5q96 0 173 48t121.5 122t67.5 152.5t23 150.5q0 90 -27 174.5t-75 151t-122 107t-161 40.5 q-107 0 -196.5 -68.5t-139 -177t-49.5 -227.5zM401 1253l121 275h86l121 -275h-67l-97 213l-96 -213h-68z" />
<glyph unicode="&#xf5;" horiz-adv-x="1126" d="M111 518q0 236 127.5 387.5t324.5 151.5t325 -151.5t128 -387.5q0 -235 -129 -386.5t-324 -151.5t-323.5 151.5t-128.5 386.5zM178 518q0 -119 50 -227.5t140 -177t195 -68.5q96 0 173 48t121.5 122t67.5 152.5t23 150.5q0 90 -27 174.5t-75 151t-122 107t-161 40.5 q-107 0 -196.5 -68.5t-139 -177t-49.5 -227.5zM219 1262q79 127 219 127q62 0 104 -16.5t81 -33t92 -16.5t80.5 19.5t46.5 52.5l63 -29q-64 -111 -190 -111q-65 0 -108 16t-81 32t-90 16q-105 0 -155 -90z" />
<glyph unicode="&#xf6;" horiz-adv-x="1126" d="M111 518q0 236 127.5 387.5t324.5 151.5t325 -151.5t128 -387.5q0 -235 -129 -386.5t-324 -151.5t-323.5 151.5t-128.5 386.5zM178 518q0 -119 50 -227.5t140 -177t195 -68.5q96 0 173 48t121.5 122t67.5 152.5t23 150.5q0 90 -27 174.5t-75 151t-122 107t-161 40.5 q-107 0 -196.5 -68.5t-139 -177t-49.5 -227.5zM276 1391q0 29 20.5 50t49.5 21t49.5 -21t20.5 -50t-20.5 -49.5t-49.5 -20.5t-49.5 20.5t-20.5 49.5zM711 1391q0 29 21 50t50 21t49.5 -21t20.5 -50t-20.5 -49.5t-49.5 -20.5t-50 20.5t-21 49.5z" />
<glyph unicode="&#xf7;" horiz-adv-x="1048" d="M156 545v65h737v-65h-737zM453 211q0 29 20 49.5t49 20.5t49.5 -20.5t20.5 -49.5t-20.5 -49.5t-49.5 -20.5t-49 20.5t-20 49.5zM453 944q0 29 20 49.5t49 20.5t49.5 -20.5t20.5 -49.5t-20.5 -50.5t-49.5 -21.5t-49 21t-20 51z" />
<glyph unicode="&#xf8;" horiz-adv-x="1126" d="M111 514q0 236 127.5 387.5t324.5 151.5q107 0 203 -52l119 248h78l-140 -286q91 -72 142 -188.5t51 -260.5q0 -235 -129 -387t-324 -152q-105 0 -196 48l-127 -261h-78l145 299q-92 70 -144 188t-52 265zM178 514q0 -110 44.5 -212.5t119.5 -170.5l393 809 q-79 47 -172 47q-107 0 -196.5 -68.5t-139 -177t-49.5 -227.5zM399 88q74 -47 164 -47q96 0 173 48t121.5 122t67.5 152.5t23 150.5q0 112 -40.5 214.5t-114.5 168.5z" />
<glyph unicode="&#xf9;" horiz-adv-x="1062" d="M164 1036h67v-534q0 -79 7 -141t26.5 -123t52.5 -101t88.5 -65t129.5 -25q66 0 118.5 26t87 69t57.5 102.5t32.5 123.5t9.5 134l2 534h65v-1036h-65v199q-11 -32 -33.5 -67t-59.5 -71.5t-93 -60t-121 -23.5q-183 0 -275 114t-94 323zM389 1511h103l104 -258h-74z" />
<glyph unicode="&#xfa;" horiz-adv-x="1062" d="M164 1036h67v-534q0 -79 7 -141t26.5 -123t52.5 -101t88.5 -65t129.5 -25q66 0 118.5 26t87 69t57.5 102.5t32.5 123.5t9.5 134l2 534h65v-1036h-65v199q-11 -32 -33.5 -67t-59.5 -71.5t-93 -60t-121 -23.5q-183 0 -275 114t-94 323zM479 1253l105 258h102l-133 -258h-74 z" />
<glyph unicode="&#xfb;" horiz-adv-x="1062" d="M164 1036h67v-534q0 -79 7 -141t26.5 -123t52.5 -101t88.5 -65t129.5 -25q66 0 118.5 26t87 69t57.5 102.5t32.5 123.5t9.5 134l2 534h65v-1036h-65v199q-11 -32 -33.5 -67t-59.5 -71.5t-93 -60t-121 -23.5q-183 0 -275 114t-94 323zM371 1253l121 275h86l120 -275h-67 l-96 213l-97 -213h-67z" />
<glyph unicode="&#xfc;" horiz-adv-x="1062" d="M164 1036h67v-534q0 -79 7 -141t26.5 -123t52.5 -101t88.5 -65t129.5 -25q66 0 118.5 26t87 69t57.5 102.5t32.5 123.5t9.5 134l2 534h65v-1036h-65v199q-11 -32 -33.5 -67t-59.5 -71.5t-93 -60t-121 -23.5q-183 0 -275 114t-94 323zM246 1391q0 29 20 50t49 21t49.5 -21 t20.5 -50t-20.5 -49.5t-49.5 -20.5t-49 20.5t-20 49.5zM680 1391q0 29 21.5 50t50.5 21t49 -21t20 -50t-20 -49.5t-49 -20.5t-50.5 20.5t-21.5 49.5z" />
<glyph unicode="&#xfd;" horiz-adv-x="935" d="M88 -319l37 53q1 0 9.5 -5.5t18.5 -11t23.5 -11.5t29.5 -9.5t30 -3.5q39 0 75 32.5t59 79.5t40 93.5t24 79.5l8 32l-354 1026h72l319 -901l320 901h71l-354 -1022q-7 -21 -19.5 -65t-22.5 -74t-26 -71t-34.5 -68.5t-43.5 -54t-58.5 -39.5t-73.5 -13q-42 0 -91 20t-59 32z M440 1253l105 258h102l-133 -258h-74z" />
<glyph unicode="&#xfe;" horiz-adv-x="1079" d="M137 -272v1706h68v-488q146 113 309 113q93 0 175 -33.5t144.5 -96.5t99 -162t36.5 -222q0 -127 -36.5 -234t-98.5 -179t-145 -112t-175 -40q-91 0 -171.5 34t-137.5 80v-366h-68zM205 190q5 -6 13.5 -15.5t39 -34.5t63.5 -44.5t85.5 -35t107.5 -15.5q119 0 208 69.5 t133 181.5t44 249q0 191 -107.5 319.5t-277.5 128.5q-50 0 -100 -13.5t-86 -32t-65 -37.5t-43 -32l-15 -14v-674z" />
<glyph unicode="&#xff;" horiz-adv-x="935" d="M88 -319l37 53q1 0 9.5 -5.5t18.5 -11t23.5 -11.5t29.5 -9.5t30 -3.5q39 0 75 32.5t59 79.5t40 93.5t24 79.5l8 32l-354 1026h72l319 -901l320 901h71l-354 -1022q-7 -21 -19.5 -65t-22.5 -74t-26 -71t-34.5 -68.5t-43.5 -54t-58.5 -39.5t-73.5 -13q-42 0 -91 20t-59 32z M190 1391q0 29 20.5 50t49.5 21t49.5 -21t20.5 -50t-20.5 -49.5t-49.5 -20.5t-49.5 20.5t-20.5 49.5zM625 1391q0 29 21 50t50 21t49.5 -21t20.5 -50t-20.5 -49.5t-49.5 -20.5t-50 20.5t-21 49.5z" />
<glyph unicode="&#x152;" horiz-adv-x="1978" d="M137 647q0 176 61.5 322t181.5 235.5t277 89.5q151 0 266.5 -81.5t182.5 -221.5v262h717v-65h-645v-488h526v-65h-526v-569h645v-66h-717v299q-66 -139 -180.5 -219t-268.5 -80q-122 0 -222 52t-164.5 141t-99 205.5t-34.5 248.5zM211 647q0 -117 29 -221t83.5 -184 t140.5 -127t193 -47t193 47t141 127t84 184t29 221q0 158 -49.5 287.5t-153 211t-244.5 81.5q-107 0 -193 -47t-140.5 -127.5t-83.5 -184.5t-29 -221z" />
<glyph unicode="&#x153;" horiz-adv-x="1857" d="M111 518q0 236 127.5 387.5t324.5 151.5q142 0 251.5 -82t161.5 -223q41 142 139.5 224.5t252.5 82.5q175 0 277 -119t102 -344v-66h-731q0 -90 26.5 -176t74 -155.5t121 -111.5t161.5 -42q51 0 98.5 11.5t79 27.5t56 32.5t35.5 27.5l11 12l41 -56q-4 -5 -13 -13 t-39 -28.5t-64.5 -36.5t-89 -29t-113.5 -13q-151 0 -259 88.5t-158 239.5q-49 -151 -162 -239.5t-259 -88.5q-195 0 -323.5 151.5t-128.5 386.5zM178 518q0 -119 50 -227.5t140 -177t195 -68.5q96 0 173 48t121.5 122t67.5 152.5t23 150.5q0 90 -27 174.5t-75 151t-122 107 t-161 40.5q-107 0 -196.5 -68.5t-139 -177t-49.5 -227.5zM1018 596h661q0 82 -16.5 150t-51 125t-97 89.5t-146.5 32.5q-76 0 -137.5 -25t-100 -65t-65 -93t-37 -106.5t-10.5 -107.5z" />
<glyph unicode="&#x178;" horiz-adv-x="1118" d="M102 1253h84l373 -553l373 553h84l-420 -630v-623h-74v623zM270 1493q0 29 20.5 50.5t49.5 21.5t49.5 -21.5t20.5 -50.5t-20.5 -49.5t-49.5 -20.5t-49.5 20.5t-20.5 49.5zM705 1493q0 29 21 50.5t50 21.5t49.5 -21.5t20.5 -50.5t-20.5 -49.5t-49.5 -20.5t-50 20.5 t-21 49.5z" />
<glyph unicode="&#x2c6;" horiz-adv-x="1118" d="M395 1253l121 275h86l121 -275h-68l-96 213l-96 -213h-68z" />
<glyph unicode="&#x2dc;" horiz-adv-x="1118" d="M197 1372q79 127 219 127q62 0 104 -16.5t80.5 -32.5t91.5 -16t80.5 19t46.5 52l64 -28q-64 -111 -191 -111q-52 0 -90.5 10t-58.5 22t-53.5 22t-75.5 10q-105 0 -156 -91z" />
<glyph unicode="&#x2000;" horiz-adv-x="858" />
<glyph unicode="&#x2001;" horiz-adv-x="1716" />
<glyph unicode="&#x2002;" horiz-adv-x="858" />
<glyph unicode="&#x2003;" horiz-adv-x="1716" />
<glyph unicode="&#x2004;" horiz-adv-x="572" />
<glyph unicode="&#x2005;" horiz-adv-x="429" />
<glyph unicode="&#x2006;" horiz-adv-x="286" />
<glyph unicode="&#x2007;" horiz-adv-x="286" />
<glyph unicode="&#x2008;" horiz-adv-x="214" />
<glyph unicode="&#x2009;" horiz-adv-x="343" />
<glyph unicode="&#x200a;" horiz-adv-x="95" />
<glyph unicode="&#x2010;" horiz-adv-x="909" d="M86 582v65h735v-65h-735z" />
<glyph unicode="&#x2011;" horiz-adv-x="909" d="M86 582v65h735v-65h-735z" />
<glyph unicode="&#x2012;" horiz-adv-x="909" d="M86 582v65h735v-65h-735z" />
<glyph unicode="&#x2013;" horiz-adv-x="1122" d="M92 612v66h938v-66h-938z" />
<glyph unicode="&#x2014;" horiz-adv-x="1861" d="M109 612v66h1646v-66h-1646z" />
<glyph unicode="&#x2018;" horiz-adv-x="432" d="M129 1098q0 69 37.5 127t101.5 69l11 -51q-50 -9 -74.5 -45.5t-24.5 -87.5q20 8 31 6q30 0 50 -19t20 -48q0 -30 -21 -51t-51 -21q-43 0 -61.5 37t-18.5 84z" />
<glyph unicode="&#x2019;" horiz-adv-x="432" d="M143 1008q92 16 99 133q-25 -11 -50 -4.5t-38 28.5q-17 25 -11 53.5t31 45.5q24 15 52.5 9t43.5 -32q20 -33 22 -78.5t-12 -88t-47.5 -76.5t-78.5 -42q-2 8 -5.5 26t-5.5 26z" />
<glyph unicode="&#x201a;" horiz-adv-x="432" d="M143 64.5q6 29.5 31 44.5t53 9t43 -30q20 -33 22 -79.5t-12 -89t-47.5 -76.5t-78.5 -42q-2 8 -5.5 26t-5.5 26q92 16 99 133q-25 -11 -50 -4.5t-38 28.5q-17 25 -11 54.5z" />
<glyph unicode="&#x201c;" horiz-adv-x="821" d="M138.5 1163.5q1.5 46.5 21.5 79.5q15 24 44 30t52 -9q25 -17 31.5 -45.5t-8.5 -53.5q-15 -21 -40.5 -28t-48.5 4q2 -52 25.5 -88.5t71.5 -44.5q-1 -8 -4 -26t-4 -26q-45 8 -79 42t-48.5 76.5t-13 89zM467.5 1163.5q1.5 46.5 21.5 79.5q15 24 44.5 30t52.5 -9 q25 -17 31 -45.5t-9 -53.5q-15 -22 -40 -28.5t-48 4.5q2 -52 25 -88.5t71 -44.5q-1 -8 -4 -26t-4 -26q-45 8 -79 42t-48.5 76.5t-13 89z" />
<glyph unicode="&#x201d;" horiz-adv-x="542" d="M44.5 1220.5q6.5 28.5 31.5 43.5t53.5 8.5t42.5 -29.5q20 -33 22 -79.5t-12.5 -89t-48 -76.5t-78.5 -42q-2 9 -5 27t-5 27q91 13 98 131q-54 -23 -88 26q-17 25 -10.5 53.5zM349.5 1220.5q6.5 28.5 31.5 43.5t53.5 8.5t42.5 -29.5q20 -33 22 -79.5t-12.5 -89t-48 -76.5 t-78.5 -42q-2 9 -5 27t-5 27q92 13 99 131q-55 -23 -89 26q-17 25 -10.5 53.5z" />
<glyph unicode="&#x201e;" horiz-adv-x="542" d="M44.5 64.5q6.5 29.5 31.5 44.5t53 9t43 -30q20 -33 22 -79.5t-12.5 -89t-48 -76.5t-78.5 -42q-2 8 -5 26t-5 26q91 16 98 133q-25 -11 -50 -4.5t-38 28.5q-17 25 -10.5 54.5zM349.5 64.5q6.5 29.5 31.5 44.5t53 9t43 -30q20 -33 22 -79.5t-12.5 -89t-48 -76.5t-78.5 -42 q-2 8 -5 26t-5 26q92 16 99 133q-25 -11 -50.5 -4t-38.5 28q-17 25 -10.5 54.5z" />
<glyph unicode="&#x2022;" horiz-adv-x="339" d="M70 664q0 43 28.5 71.5t71.5 28.5t71.5 -28.5t28.5 -71.5t-28.5 -72t-71.5 -29t-71.5 29t-28.5 72z" />
<glyph unicode="&#x2026;" horiz-adv-x="1519" d="M70 49q0 29 20 49.5t49 20.5t49.5 -20.5t20.5 -49.5t-20.5 -49t-49.5 -20t-49 20t-20 49zM690 49q0 29 20.5 49.5t49.5 20.5t49 -20.5t20 -49.5t-20 -49t-49 -20t-49.5 20t-20.5 49zM1311 49q0 29 20 49.5t49 20.5t49.5 -20.5t20.5 -49.5t-20.5 -49t-49.5 -20t-49 20 t-20 49z" />
<glyph unicode="&#x202f;" horiz-adv-x="343" />
<glyph unicode="&#x2039;" horiz-adv-x="456" d="M70 610l237 428h80l-231 -428l231 -428h-80z" />
<glyph unicode="&#x203a;" horiz-adv-x="456" d="M70 180l231 428l-231 428h80l237 -428l-237 -428h-80z" />
<glyph unicode="&#x2044;" horiz-adv-x="598" d="M43 0l434 1253h78l-432 -1253h-80z" />
<glyph unicode="&#x205f;" horiz-adv-x="429" />
<glyph unicode="&#x2070;" horiz-adv-x="632" d="M43 918q0 85 30 162.5t95 131.5t151 54q53 0 98.5 -21t77 -55.5t54 -80t33 -94t10.5 -97.5q0 -62 -17 -122t-49.5 -111t-86 -82.5t-120.5 -31.5q-88 0 -153 53.5t-94 130.5t-29 163zM111 918q0 -49 12.5 -97.5t36 -90.5t65 -68.5t94.5 -26.5t94.5 26.5t65.5 69t36.5 91 t12.5 96.5q0 49 -12 97.5t-36 91t-65.5 69t-95.5 26.5q-71 0 -120 -46t-68.5 -107.5t-19.5 -130.5z" />
<glyph unicode="&#x2074;" horiz-adv-x="561" d="M43 760v51l328 444h57v-436h111v-59h-111v-174h-63v174h-322zM129 819h236v322z" />
<glyph unicode="&#x2075;" horiz-adv-x="512" d="M43 647l43 49q76 -61 156 -61q67 0 114 48t47 116q0 32 -9.5 57t-22.5 41t-37.5 27t-43 16.5t-52 8t-52 2.5t-54.5 -0.5t-48 -0.5l8 305h326v-59h-264l-7 -178q54 0 94.5 -3.5t86 -17t74.5 -36.5t48 -64.5t19 -99.5q0 -98 -66 -162t-163 -64q-49 0 -103 21.5t-94 54.5z " />
<glyph unicode="&#x2076;" horiz-adv-x="530" d="M43 791q0 52 37 120l203 344h75l-153 -258q37 11 61 11q93 0 157 -62t64 -155q0 -95 -63 -157.5t-158 -62.5q-96 0 -159.5 62.5t-63.5 157.5zM109 788q0 -64 46 -108.5t111 -44.5q66 0 112 43.5t46 109.5q0 65 -46.5 108.5t-111.5 43.5t-111 -44t-46 -108z" />
<glyph unicode="&#x2077;" horiz-adv-x="438" d="M25 1196v59h370v-24v-12q0 -9 -270 -631h-78l272 608h-294z" />
<glyph unicode="&#x2078;" horiz-adv-x="516" d="M43 782q0 55 27 105.5t73 77.5q-61 47 -61 135q0 73 52 122.5t126 49.5q71 0 123.5 -50.5t52.5 -121.5q0 -87 -69 -135q49 -26 77.5 -76.5t28.5 -106.5q0 -91 -61 -151t-152 -60q-93 0 -155 59.5t-62 151.5zM109 782q0 -61 44.5 -104t106.5 -43q60 0 104 43t44 104 q0 56 -46 102t-102 46q-58 0 -104.5 -45.5t-46.5 -102.5zM147 1098q0 -45 33.5 -76t79.5 -31q44 0 75.5 31.5t31.5 75.5q0 46 -31 79t-76 33q-47 0 -80 -32.5t-33 -79.5z" />
<glyph unicode="&#x2079;" horiz-adv-x="530" d="M43 1055q0 94 63.5 155.5t159.5 61.5q94 0 157.5 -62t63.5 -155q0 -55 -38 -123l-201 -344h-76l154 256q-27 -8 -60 -8q-94 0 -158.5 63t-64.5 156zM109 1055q0 -65 46 -109.5t111 -44.5t110.5 44.5t45.5 109.5q0 64 -45.5 108.5t-110.5 44.5q-66 0 -111.5 -43.5 t-45.5 -109.5z" />
<glyph unicode="&#x207d;" horiz-adv-x="333" d="M43 934q0 109 55 208t146 169l4 4l45 -60l-6 -4q-82 -60 -127 -143t-45 -174q0 -89 45 -172t127 -146l6 -4l-45 -55l-6 4q-90 66 -144.5 165.5t-54.5 207.5z" />
<glyph unicode="&#x207e;" horiz-adv-x="333" d="M43 616l6 5q82 63 127 145.5t45 171.5q0 90 -45 172.5t-127 144.5l-6 5l43 59l6 -4q91 -70 146 -169t55 -208q0 -108 -55 -208.5t-146 -164.5l-4 -4z" />
<glyph unicode="&#x2080;" horiz-adv-x="632" d="M43 334q0 85 30 162t95 130.5t151 53.5q53 0 98 -21t77 -55.5t54.5 -79.5t33 -93.5t10.5 -96.5q0 -63 -17 -123t-49.5 -111t-86 -82.5t-120.5 -31.5q-88 0 -153 53.5t-94 130.5t-29 164zM109 334q0 -50 12.5 -98.5t37 -90.5t66 -68t94.5 -26q69 0 118 46t69 108t20 129 q0 66 -20 127.5t-69 107t-118 45.5q-71 0 -120.5 -45t-69.5 -106t-20 -129z" />
<glyph unicode="&#x2081;" horiz-adv-x="294" d="M37 596l139 74h60v-670h-68v592l-109 -55z" />
<glyph unicode="&#x2082;" horiz-adv-x="509" d="M43 610q75 78 195 78q92 0 154.5 -45t62.5 -133q0 -52 -33 -100.5t-80.5 -87t-96 -76t-85 -84.5t-41.5 -96h350v-66h-422v47q0 55 25 105.5t62 86.5t81 73t81 66t62 64t25 68q0 55 -43 80.5t-102 25.5q-89 0 -168 -69z" />
<glyph unicode="&#x2083;" horiz-adv-x="522" d="M43 76l41 49q29 -32 78 -53t94 -21q70 0 113 41t43 111q0 32 -9.5 56.5t-28 39t-38.5 24t-49 13.5t-50.5 5t-52.5 1v53l174 213h-282v62h373v-54l-173 -213q91 -6 147 -59t56 -141q0 -94 -66.5 -155.5t-160.5 -61.5q-53 0 -113.5 26t-95.5 64z" />
<glyph unicode="&#x2084;" horiz-adv-x="579" d="M43 190v52l328 428h57v-422h111v-58h-111v-190h-63v190h-322zM135 252h230v315z" />
<glyph unicode="&#x2085;" horiz-adv-x="512" d="M43 61l43 52q30 -27 73.5 -44.5t82.5 -17.5q67 0 114 47t47 115q0 26 -6 47t-15 36.5t-25.5 27.5t-30.5 19.5t-38 12.5t-39.5 7t-43.5 3t-42 1t-42.5 -1t-38.5 -1l8 305h328v-62h-264l-9 -176q55 0 95 -3.5t86 -16.5t75 -36t48.5 -65t19.5 -100q0 -98 -65.5 -161.5 t-163.5 -63.5q-48 0 -102.5 21.5t-94.5 53.5z" />
<glyph unicode="&#x2086;" horiz-adv-x="530" d="M43 205q0 53 37 121l205 344h73l-153 -258q33 10 63 10q93 0 156 -62t63 -155q0 -95 -62 -157t-157 -62q-97 0 -161 61.5t-64 157.5zM109 203q0 -64 47 -108t112 -44t110.5 43.5t45.5 108.5t-45.5 109t-110.5 44t-112 -44t-47 -109z" />
<glyph unicode="&#x2087;" horiz-adv-x="438" d="M25 604v66h370v-52l-270 -618h-74l268 604h-294z" />
<glyph unicode="&#x2088;" horiz-adv-x="516" d="M43 190q0 57 27 107.5t75 77.5q-63 45 -63 135q0 73 52 121.5t126 48.5q71 0 123.5 -49.5t52.5 -120.5q0 -87 -69 -135q49 -28 77.5 -78t28.5 -107q0 -90 -61 -150t-152 -60q-93 0 -155 59t-62 151zM109 190q0 -61 44.5 -103t106.5 -42q60 0 104 42.5t44 102.5 q0 56 -46.5 103t-101.5 47q-59 0 -105 -46t-46 -104zM147 508q0 -45 33.5 -77t79.5 -32q44 0 75.5 32.5t31.5 76.5q0 46 -30.5 77t-76.5 31t-79.5 -31.5t-33.5 -76.5z" />
<glyph unicode="&#x2089;" horiz-adv-x="530" d="M43 469q0 95 63.5 156t159.5 61q93 0 157 -62t64 -155q0 -64 -36 -125l-203 -344h-76l154 258q-33 -10 -60 -10q-95 0 -159 63.5t-64 157.5zM109 469q0 -66 45.5 -110t111.5 -44q65 0 110.5 45t45.5 109t-45.5 108t-110.5 44t-111 -44t-46 -108z" />
<glyph unicode="&#x208d;" horiz-adv-x="333" d="M43 319q0 110 55 209t146 168l4 4l45 -59l-6 -4q-82 -60 -127 -143.5t-45 -174.5q0 -88 45 -171t127 -144l6 -6l-45 -55l-6 4q-90 66 -144.5 165t-54.5 207z" />
<glyph unicode="&#x208e;" horiz-adv-x="333" d="M43 -20l6 4q82 63 127 145.5t45 171.5q0 91 -45 174t-127 143l-6 5l43 59l6 -4q91 -70 146 -169t55 -208q0 -108 -55 -208.5t-146 -164.5l-4 -4z" />
<glyph unicode="&#x20ac;" horiz-adv-x="1275" d="M31 463v63h153q-8 44 -8 99q0 39 6 82h-151v63h162q23 100 75 189t127.5 159t179 111t220.5 41q211 0 344 -125l-37 -64q-130 121 -307 121q-197 0 -338 -125.5t-187 -306.5h508v-63h-522q-4 -29 -4 -82q0 -55 8 -99h518v-63h-504q49 -176 188.5 -296t332.5 -120 q179 0 307 121l37 -66q-133 -122 -344 -122q-115 0 -216.5 39t-176.5 106.5t-127.5 153.5t-77.5 184h-166z" />
<glyph unicode="&#x25fc;" horiz-adv-x="1034" d="M0 0v1034h1034v-1034h-1034z" />
<glyph unicode="&#xfb03;" horiz-adv-x="1310" d="M31 971v65h137q0 51 7 101t26.5 106.5t50.5 98.5t84 70t121 28q35 0 71.5 -11t52 -18.5t23.5 -13.5l-26 -60q-4 4 -15.5 11t-42 15.5t-65.5 8.5q-64 0 -109 -32.5t-66.5 -86.5t-30.5 -106.5t-9 -110.5h321h2h135q0 51 6.5 101t26 106.5t50 98.5t83.5 70t121 28 q35 0 72 -11t52.5 -18.5t23.5 -13.5l-27 -60q-4 4 -15.5 11t-42 15.5t-65.5 8.5q-64 0 -109 -32.5t-66.5 -86.5t-30.5 -106.5t-9 -110.5h319h5h63v-1036h-68v971h-321v-971h-68v971h-135h-2h-325v-971h-68v971h-137z" />
<glyph horiz-adv-x="1009" d="M102 -2l367 1042h72l366 -1042h-78l-108 313h-432l-109 -313h-78zM313 375h383l-192 551z" />
<glyph horiz-adv-x="962" d="M156 -2v1042h336q103 0 174 -70t71 -173q0 -59 -27 -114.5t-73 -94.5q83 -32 135.5 -114t52.5 -173q0 -113 -78.5 -208t-189.5 -95h-401zM225 61h332q82 0 140.5 77t58.5 161t-58.5 160t-140.5 76h-332v-474zM225 598h267q74 0 125 62.5t51 138.5q0 73 -51.5 125.5 t-124.5 52.5h-267v-379z" />
<glyph horiz-adv-x="1081" d="M137 516q0 143 66.5 266t186 197t263.5 74q81 0 158.5 -26t130.5 -79l2 -2l-37 -59l-2 2q-46 46 -114.5 72t-137.5 26q-125 0 -227.5 -66t-159.5 -173.5t-57 -231.5q0 -123 57 -230t160 -173t227 -66q71 0 138.5 25t113.5 73l2 2l37 -59l-2 -2q-52 -52 -130 -78t-159 -26 q-144 0 -263.5 73.5t-186 196t-66.5 264.5z" />
<glyph horiz-adv-x="1003" d="M156 -2v1042h295q95 0 175.5 -48.5t131.5 -125.5t79.5 -168t28.5 -180q0 -71 -17.5 -143.5t-52.5 -140t-83.5 -120.5t-116.5 -84.5t-145 -31.5h-295zM225 61h226q64 0 121 29t97 76t69 107t43 123t14 122q0 78 -22 157t-63.5 147.5t-109 111.5t-149.5 43h-226v-916z" />
<glyph horiz-adv-x="866" d="M156 -2v1042h600v-65h-531v-389h432v-66h-432v-457h531v-65h-600z" />
<glyph horiz-adv-x="919" d="M156 -2v1044h608v-65h-539v-387h441v-66h-441v-526h-69z" />
<glyph horiz-adv-x="1120" d="M137 520q0 143 66.5 266t186 197t263.5 74q80 0 167.5 -31t142.5 -84l2 -2l-39 -61l-2 2q-47 47 -125 78.5t-146 31.5q-125 0 -227.5 -66t-159.5 -173.5t-57 -231.5q0 -121 57.5 -229.5t161 -176t225.5 -67.5q69 0 133.5 27t104.5 78v340h70v-361q0 -9 -7 -16t-10 -13 q-52 -59 -130.5 -89.5t-162.5 -30.5q-144 0 -263 75t-185 198t-66 265z" />
<glyph horiz-adv-x="991" d="M156 -2v1042h69v-454h539v454h72v-1042h-72v522h-539v-522h-69z" />
<glyph horiz-adv-x="380" d="M156 -2v1042h69v-1042h-69z" />
<glyph horiz-adv-x="749" d="M102 59l33 66l4 -2q34 -35 83 -55.5t100 -20.5q74 0 124 42.5t69.5 103t19.5 133.5v710h71v-710q0 -67 -17 -128t-50.5 -111.5t-89.5 -80t-127 -29.5q-59 0 -117.5 21t-100.5 59z" />
<glyph horiz-adv-x="890" d="M133 -2v1042h70v-432l428 432h90l-457 -475l514 -567h-88l-487 522v-522h-70z" />
<glyph horiz-adv-x="741" d="M156 -2v1042h69v-977h361v-65h-430z" />
<glyph horiz-adv-x="1208" d="M156 -2v1042h80l368 -475l371 475h78v-1042h-70v930l-379 -475l-377 475v-930h-71z" />
<glyph horiz-adv-x="991" d="M156 -2v1042h73l537 -907v907h70v-1042h-76l-533 899v-899h-71z" />
<glyph horiz-adv-x="1144" d="M137 518q0 79 17 156t52.5 146.5t86 122t123 83.5t157.5 31t157.5 -31.5t122.5 -84t85.5 -122t52.5 -146t17 -155.5q0 -101 -26.5 -194.5t-78 -171t-137 -124t-193.5 -46.5t-193.5 46t-137 123.5t-78.5 171t-27 195.5zM211 518q0 -69 12.5 -134.5t41 -127.5t69.5 -108 t102.5 -73.5t136.5 -27.5q74 0 135.5 27.5t103 74t70 107.5t41.5 127t13 135t-13 135.5t-41.5 128t-70 108t-103 74t-135.5 27.5q-75 0 -136.5 -27.5t-102.5 -74t-69.5 -108t-41 -127.5t-12.5 -136z" />
<glyph horiz-adv-x="962" d="M156 -2v1042h401q111 0 189.5 -95t78.5 -208t-78.5 -208t-189.5 -95h-332v-436h-69zM225 498h332q82 0 140.5 76.5t58.5 160.5t-58.5 163t-140.5 79h-332v-479z" />
<glyph horiz-adv-x="1142" d="M137 518q0 79 16.5 155t52 146t85.5 122.5t122.5 84t157.5 31.5t157.5 -31.5t122.5 -84t85.5 -122t52.5 -146t17 -155.5q0 -102 -25 -196t-85.5 -178t-150.5 -126l179 -219h-82l-162 197q-49 -14 -109 -14q-87 0 -159.5 30.5t-122.5 82.5t-85 121t-51 145.5t-16 156.5z M209 518q0 -69 13 -135t41 -127t69.5 -107.5t103 -74t135.5 -27.5t135.5 27.5t103 74t70 107.5t41.5 127t13 135t-13 135.5t-41.5 128t-70 108t-103 74t-135.5 27.5t-135.5 -27.5t-103 -74t-69.5 -108t-41 -128t-13 -135.5z" />
<glyph horiz-adv-x="1024" d="M156 -2v1042h411q109 0 183.5 -83.5t74.5 -192.5q0 -104 -69 -191.5t-170 -91.5l301 -483h-86l-299 483h-277v-483h-69zM225 547h342q76 0 131.5 68t55.5 147q0 82 -54 148.5t-135 66.5h-340v-430z" />
<glyph horiz-adv-x="903" d="M137 90l41 62l2 -2q57 -43 128 -72t134 -29q107 0 180.5 61.5t73.5 165.5q0 91 -82 156q-41 30 -84 49l-98 43q-50 20 -80 33.5t-70.5 37.5t-62.5 48t-38.5 60.5t-16.5 78.5q0 91 49 155.5t122.5 93t162.5 28.5q62 0 127.5 -21t107.5 -59l2 -2l-26 -66l-4 4 q-39 34 -94 53t-111 19q-105 0 -184.5 -51.5t-79.5 -149.5q0 -72 81 -124q56 -31 84 -44q8 -4 99 -40q47 -20 79 -36.5t70.5 -43.5t61.5 -55.5t39 -69.5t16 -90q0 -140 -89.5 -220.5t-230.5 -80.5q-75 0 -161.5 30t-145.5 76z" />
<glyph horiz-adv-x="1062" d="M137 975v65h789v-65h-359v-977h-69v977h-361z" />
<glyph horiz-adv-x="925" d="M123 330v710h72v-710q0 -112 78.5 -195.5t189.5 -83.5t190.5 83.5t79.5 195.5v710h70v-710q0 -141 -99.5 -244.5t-240.5 -103.5q-140 0 -240 103.5t-100 244.5z" />
<glyph horiz-adv-x="1009" d="M102 1040h76l326 -917l325 917h78l-368 -1042h-70z" />
<glyph horiz-adv-x="1732" d="M102 1040h76l326 -917l325 911h74l326 -911l325 917h76l-366 -1042h-68l-328 922l-327 -922h-72z" />
<glyph horiz-adv-x="1069" d="M115 -2l377 569l-324 473h86l281 -413l290 413h86l-333 -473l376 -569h-86l-333 510l-334 -510h-86z" />
<glyph horiz-adv-x="974" d="M102 1040h82l303 -450l308 450h77l-348 -526v-516h-71v516z" />
<glyph horiz-adv-x="989" d="M154 -2v61l596 918h-568v63h652v-59l-596 -918h596v-65h-680z" />
<glyph horiz-adv-x="997" d="M102 0l365 1036h63l365 -1036h-68l-108 315h-440l-109 -315h-68zM299 369h399l-200 573zM350 1272q0 61 45.5 105t108.5 44t107 -43.5t44 -105.5q0 -63 -43.5 -107.5t-107.5 -44.5t-109 44.5t-45 107.5zM420 1272q0 -32 25 -58t57 -26q33 0 58.5 25.5t25.5 58.5 q0 32 -25.5 56t-58.5 24q-32 0 -57 -24t-25 -56z" />
<glyph horiz-adv-x="997" d="M102 0l365 1036h63l365 -1036h-68l-108 315h-440l-109 -315h-68zM262 1239q0 25 18 43t44 18t43.5 -18t17.5 -43q0 -26 -17.5 -43.5t-43.5 -17.5t-44 17.5t-18 43.5zM299 369h399l-200 573zM621 1239q0 25 18.5 43t44.5 18t43.5 -18t17.5 -43q0 -26 -17.5 -43.5 t-43.5 -17.5t-44.5 17.5t-18.5 43.5z" />
<glyph horiz-adv-x="997" d="M102 0l365 1036h63l365 -1036h-68l-108 315h-440l-109 -315h-68zM215 1186l2 4q28 50 77 78t107 28q46 0 116.5 -26.5t111.5 -26.5q37 0 60 13t42 44l2 5l58 -29l-3 -4q-55 -92 -159 -92q-46 0 -118 26.5t-112 26.5t-73 -19.5t-52 -54.5l-2 -2zM299 369h399l-200 573z " />
<glyph horiz-adv-x="997" d="M102 0l365 1036h63l365 -1036h-68l-108 315h-440l-109 -315h-68zM299 369h399l-200 573zM362 1178l105 233h74l104 -233h-65l-76 170l-78 -170h-64z" />
<glyph horiz-adv-x="1005" d="M102 0l367 1038h68l366 -1038h-74l-110 313h-432l-109 -313h-76zM309 375h389l-194 553zM496 1253l88 222h94l-113 -222h-69z" />
<glyph horiz-adv-x="997" d="M102 0l365 1036h63l365 -1036h-68l-108 315h-440l-109 -315h-68zM299 369h399l-200 573zM350 1399h94l88 -219h-69z" />
<glyph horiz-adv-x="1079" d="M137 518q0 104 39 202t106.5 171.5t164.5 117.5t206 44q173 0 287 -105l2 -2l-37 -59l-4 4q-109 98 -248 98q-126 0 -229.5 -67t-160 -174.5t-56.5 -229.5q0 -123 56.5 -230.5t160 -174t229.5 -66.5q141 0 248 96l4 4l37 -59l-2 -2q-113 -102 -287 -102q-28 0 -42 1 l-109 -214h-70l93 229q-172 45 -280 191t-108 327z" />
<glyph horiz-adv-x="909" d="M156 0v1038h598v-61h-531v-393h432v-64h-432v-459h531v-61h-598zM418 1190l88 221h94l-113 -221h-69z" />
<glyph horiz-adv-x="909" d="M156 0v1038h598v-61h-531v-393h432v-64h-432v-459h531v-61h-598zM328 1180l104 233h76l102 -233h-63l-78 168l-76 -168h-65z" />
<glyph horiz-adv-x="909" d="M156 0v1038h598v-61h-531v-393h432v-64h-432v-459h531v-61h-598zM217 1231q0 26 18 44.5t44 18.5t43.5 -18.5t17.5 -44.5q0 -25 -17.5 -42.5t-43.5 -17.5t-44 17.5t-18 42.5zM575 1231q0 26 19 44.5t45 18.5t43.5 -18.5t17.5 -44.5q0 -25 -17.5 -42.5t-43.5 -17.5 t-45 17.5t-19 42.5z" />
<glyph horiz-adv-x="909" d="M156 0v1038h598v-61h-531v-393h432v-64h-432v-459h531v-61h-598zM317 1399h93l90 -221h-70z" />
<glyph horiz-adv-x="370" d="M156 1180l88 219h94l-113 -219h-69zM158 0v1038h67v-1038h-67z" />
<glyph horiz-adv-x="346" d="M33 1180l102 233h76l102 -233h-63l-76 168l-78 -168h-63zM139 0v1038h68v-1038h-68z" />
<glyph horiz-adv-x="358" d="M-61 1231q0 27 17 45t44 18q26 0 43.5 -18.5t17.5 -44.5q0 -25 -17.5 -42.5t-43.5 -17.5t-43.5 17.5t-17.5 42.5zM145 0v1038h68v-1038h-68zM295 1231q0 26 18.5 44.5t44.5 18.5t44 -18.5t18 -44.5q0 -25 -18 -42.5t-44 -17.5q-25 0 -44 18t-19 42z" />
<glyph horiz-adv-x="413" d="M74 1399h94l90 -219h-70zM186 0v1038h68v-1038h-68z" />
<glyph horiz-adv-x="991" d="M156 -2v1042h73l537 -907v907h70v-1042h-76l-533 899v-899h-71zM209 1196l2 4q24 50 74 78.5t110 28.5q42 0 114.5 -27t113.5 -27q37 0 61 13t41 45l2 4l57 -29l-2 -4q-47 -92 -159 -92q-47 0 -118.5 26.5t-111.5 26.5t-73 -19.5t-52 -54.5l-2 -2z" />
<glyph horiz-adv-x="1691" d="M137 537q0 98 27 191t78 171t136 126t191 48q122 0 216.5 -63.5t150.5 -173.5v202h600v-61h-532v-393h434v-62h-434v-459h532v-63h-600v231q-55 -109 -149.5 -170t-217.5 -61q-108 0 -193.5 47t-136 125.5t-76.5 171.5t-26 193zM207 537q0 -68 12.5 -134t41 -128 t69.5 -109t102.5 -75t136.5 -28t137.5 28t104 75t70 109t41 128t12.5 134t-12.5 134t-41 128t-70 108.5t-104 74.5t-137.5 28t-136.5 -28t-102.5 -74.5t-69.5 -108.5t-41 -128t-12.5 -134z" />
<glyph horiz-adv-x="1142" d="M137 518q0 64 12 127.5t35 123.5t59.5 112t83.5 91t109.5 61t134.5 22q86 0 158.5 -31.5t122.5 -84.5t85.5 -123t52 -145.5t16.5 -152.5q0 -99 -26.5 -192t-77.5 -170.5t-137 -124.5t-194 -47q-87 0 -160 31t-123 83t-84.5 121.5t-50.5 144.5t-16 154zM207 518 q0 -87 21 -167.5t63 -150t114.5 -111.5t165.5 -42q75 0 137.5 28t104 74t70 107.5t41 127.5t12.5 134t-12.5 134t-41 128t-70 108.5t-104 74.5t-137.5 28t-137 -28t-103.5 -74.5t-70 -108.5t-41 -128t-12.5 -134zM524 1180l90 219h95l-115 -219h-70z" />
<glyph horiz-adv-x="1144" d="M137 518q0 79 17 156t52.5 146.5t86 122t123 83.5t157.5 31t157.5 -31.5t122.5 -84t85.5 -122t52.5 -146t17 -155.5q0 -101 -26.5 -194.5t-78 -171t-137 -124t-193.5 -46.5t-193.5 46t-137 123.5t-78.5 171t-27 195.5zM211 518q0 -69 12.5 -134.5t41 -127.5t69.5 -108 t102.5 -73.5t136.5 -27.5q74 0 135.5 27.5t103 74t70 107.5t41.5 127t13 135t-13 135.5t-41.5 128t-70 108t-103 74t-135.5 27.5q-75 0 -136.5 -27.5t-102.5 -74t-69.5 -108t-41 -127.5t-12.5 -136zM432 1180l105 233h73l105 -233h-64l-78 168l-75 -168h-66z" />
<glyph horiz-adv-x="1144" d="M137 518q0 79 17 156t52.5 146.5t86 122t123 83.5t157.5 31t157.5 -31.5t122.5 -84t85.5 -122t52.5 -146t17 -155.5q0 -101 -26.5 -194.5t-78 -171t-137 -124t-193.5 -46.5t-193.5 46t-137 123.5t-78.5 171t-27 195.5zM211 518q0 -69 12.5 -134.5t41 -127.5t69.5 -108 t102.5 -73.5t136.5 -27.5q74 0 135.5 27.5t103 74t70 107.5t41.5 127t13 135t-13 135.5t-41.5 128t-70 108t-103 74t-135.5 27.5q-75 0 -136.5 -27.5t-102.5 -74t-69.5 -108t-41 -127.5t-12.5 -136zM332 1251q0 27 17.5 45.5t43.5 18.5q27 0 44.5 -18.5t17.5 -45.5 q0 -25 -18 -43t-44 -18t-43.5 18t-17.5 43zM690 1251q0 26 19 45t45 19t43.5 -18.5t17.5 -45.5q0 -25 -17.5 -43t-43.5 -18t-45 18t-19 43z" />
<glyph horiz-adv-x="1144" d="M137 518q0 79 17 156t52.5 146.5t86 122t123 83.5t157.5 31t157.5 -31.5t122.5 -84t85.5 -122t52.5 -146t17 -155.5q0 -101 -26.5 -194.5t-78 -171t-137 -124t-193.5 -46.5t-193.5 46t-137 123.5t-78.5 171t-27 195.5zM211 518q0 -69 12.5 -134.5t41 -127.5t69.5 -108 t102.5 -73.5t136.5 -27.5q74 0 135.5 27.5t103 74t70 107.5t41.5 127t13 135t-13 135.5t-41.5 128t-70 108t-103 74t-135.5 27.5q-75 0 -136.5 -27.5t-102.5 -74t-69.5 -108t-41 -127.5t-12.5 -136zM442 1401h95l90 -219h-70z" />
<glyph horiz-adv-x="1144" d="M137 518q0 79 17 156t52.5 146.5t86 122t123 83.5t157.5 31t157.5 -31.5t122.5 -84t85.5 -122t52.5 -146t17 -155.5q0 -101 -26.5 -194.5t-78 -171t-137 -124t-193.5 -46.5t-193.5 46t-137 123.5t-78.5 171t-27 195.5zM211 518q0 -69 12.5 -134.5t41 -127.5t69.5 -108 t102.5 -73.5t136.5 -27.5q74 0 135.5 27.5t103 74t70 107.5t41.5 127t13 135t-13 135.5t-41.5 128t-70 108t-103 74t-135.5 27.5q-75 0 -136.5 -27.5t-102.5 -74t-69.5 -108t-41 -127.5t-12.5 -136zM285 1186l2 4q29 50 77.5 78t106.5 28t119 -26q50 -19 51 -19q32 -8 57 -8 q71 0 103 57l2 5l59 -29l-2 -4q-55 -92 -160 -92q-61 0 -122 26l-50 19q-36 8 -59 8q-82 0 -125 -74l-2 -2z" />
<glyph horiz-adv-x="923" d="M123 330v708h70v-708q0 -111 79 -195t191 -84t191 84t79 195v708h68v-708q0 -139 -99 -242.5t-239 -103.5q-141 0 -240.5 104t-99.5 242zM424 1178l88 221h94l-112 -221h-70z" />
<glyph horiz-adv-x="923" d="M123 330v708h70v-708q0 -111 79 -195t191 -84t191 84t79 195v708h68v-708q0 -139 -99 -242.5t-239 -103.5q-141 0 -240.5 104t-99.5 242zM322 1180l102 233h76l104 -233h-65l-76 168l-78 -168h-63z" />
<glyph horiz-adv-x="923" d="M123 330v708h70v-708q0 -111 79 -195t191 -84t191 84t79 195v708h68v-708q0 -139 -99 -242.5t-239 -103.5q-141 0 -240.5 104t-99.5 242zM221 1229q0 26 18 44.5t44 18.5t43.5 -18.5t17.5 -44.5q0 -25 -17.5 -43.5t-43.5 -18.5t-44 18.5t-18 43.5zM580 1229 q0 26 18.5 44.5t44.5 18.5t44 -18.5t18 -44.5q0 -25 -18 -43.5t-44 -18.5t-44.5 18.5t-18.5 43.5z" />
<glyph horiz-adv-x="923" d="M123 330v708h70v-708q0 -111 79 -195t191 -84t191 84t79 195v708h68v-708q0 -139 -99 -242.5t-239 -103.5q-141 0 -240.5 104t-99.5 242zM336 1399h94l90 -221h-69z" />
<glyph horiz-adv-x="972" d="M102 1038h78l305 -450l306 450h79l-350 -524v-514h-67v514zM246 1231q0 27 17 45t44 18q26 0 44 -18.5t18 -44.5q0 -25 -18 -42.5t-44 -17.5t-43.5 17.5t-17.5 42.5zM602 1231q0 26 19 44.5t45 18.5t43.5 -18.5t17.5 -44.5q0 -25 -17.5 -42.5t-43.5 -17.5t-45 17.5 t-19 42.5z" />
<glyph horiz-adv-x="729" d="M72 901l268 131h59v-973h238v-63h-238h-73h-234v63h234v885l-230 -110z" />
<glyph horiz-adv-x="1019" d="M92 520q0 93 26.5 186t76 173t132 130t183.5 50t183 -50t132 -130t76.5 -173t26.5 -186q0 -76 -15.5 -151t-49 -145.5t-81 -124.5t-118 -86.5t-154.5 -32.5t-155 33t-118.5 87t-81 124.5t-48.5 145.5t-15 150zM168 516q0 -81 20 -160t60 -149.5t109 -114t157 -43.5 q86 0 154.5 44t108 114t59.5 149.5t20 159.5q0 81 -20 161t-59 151.5t-107.5 116t-155.5 44.5q-89 0 -158 -44t-108.5 -115.5t-59.5 -151.5t-20 -162z" />
<glyph horiz-adv-x="823" d="M72 971v65h659v-65l-510 -1188h-80l510 1188h-579z" />
<glyph horiz-adv-x="915" d="M72 -111l47 58q6 -5 16.5 -12t43 -26.5t65.5 -34t80 -26.5t90 -12q100 0 178 51t117 127.5t39 161.5q0 64 -20.5 120t-63.5 103t-118.5 74t-176.5 27h-232l15 536h575v-65h-506l-12 -396h160q117 0 207 -33t142.5 -90.5t78.5 -127.5t26 -150q0 -106 -46 -198.5 t-141.5 -153t-221.5 -60.5q-52 0 -106.5 13t-95 32t-73.5 37.5t-50 31.5z" />
<glyph horiz-adv-x="983" d="M92 375q0 121 68 225l377 653h86l-306 -520q75 37 175 37q119 0 212 -57t140 -146t47 -192q0 -76 -27 -146.5t-76 -126t-126 -89t-170 -33.5q-124 0 -217 57.5t-138 146t-45 191.5zM166 375q0 -129 89.5 -225.5t236.5 -96.5q98 0 173.5 47t113.5 119.5t38 155.5 q0 127 -90 224t-235 97q-98 0 -174.5 -47.5t-114 -119.5t-37.5 -154z" />
<glyph horiz-adv-x="931" d="M92 0v68q0 72 21.5 133.5t57.5 106t83 82.5t99 68t103.5 57.5t98.5 55t83 57t57.5 68t21.5 82.5q0 90 -75.5 149.5t-180.5 59.5q-93 0 -186 -35.5t-152 -81.5l-31 66q61 50 155.5 87.5t213.5 37.5q90 0 157 -27t103 -70.5t53 -90.5t17 -95q0 -68 -34.5 -123.5t-89.5 -95 t-122 -75.5t-133.5 -75t-121.5 -83.5t-89.5 -110t-34.5 -145.5h674v-70h-748z" />
<glyph horiz-adv-x="976" d="M92 -88l47 57q6 -5 16.5 -14t44.5 -32t69.5 -40.5t88.5 -32t105 -14.5q144 0 238 86t94 234q0 151 -102 223t-310 72h-29v69l367 451h-569v65h659v-65l-356 -451q186 0 298.5 -93.5t112.5 -270.5q0 -117 -58.5 -208.5t-150.5 -138.5t-198 -47q-59 0 -118 15.5t-102 37.5 t-77.5 44t-51.5 37z" />
<glyph horiz-adv-x="1058" d="M92 123v65l617 848h73v-848h205v-65h-205v-340h-73v340h-617zM182 188h527v725z" />
<glyph horiz-adv-x="948" d="M92 360q0 110 59 206t162 141q-70 40 -108.5 112t-38.5 152q0 125 85 216t224 91q137 0 222 -91.5t85 -215.5q0 -80 -38 -152t-107 -112q102 -45 160.5 -141t58.5 -206q0 -100 -43 -185t-131.5 -140t-206.5 -55t-207 55t-132.5 140t-43.5 185zM166 360q0 -79 35.5 -148 t107.5 -114t166 -45q138 0 222.5 92t84.5 215q0 116 -93.5 212t-213.5 96t-214.5 -96t-94.5 -212zM240 971q0 -93 65 -164.5t170 -71.5t169.5 71.5t64.5 164.5t-64.5 163t-169.5 70t-170 -70t-65 -163z" />
<glyph horiz-adv-x="983" d="M92 651q0 104 45 192.5t138 146t217 57.5q93 0 170 -33t126 -89t76 -126.5t27 -147.5q0 -119 -70 -225l-377 -653h-84l306 520q-82 -37 -174 -37q-119 0 -212.5 57.5t-140.5 146.5t-47 191zM166 653q0 -83 38 -155.5t114 -120t174 -47.5t174 47.5t113.5 120t37.5 155.5 q0 82 -37.5 154t-113.5 119t-174 47t-174 -47t-114 -119t-38 -154z" />
<glyph horiz-adv-x="802" d="M31 831v60h84v72h-84v59h92q33 119 125.5 194.5t214.5 75.5q129 0 201 -75l2 -5l-33 -51h-6l-2 2q-71 68 -162 68q-95 0 -168 -58.5t-100 -150.5h272v-59h-287v-31q0 -27 2 -41h285v-60h-270q31 -91 101.5 -145.5t164.5 -54.5q92 0 162 67l2 2h6l33 -51l-2 -4 q-71 -74 -201 -74q-120 0 -211.5 71.5t-124.5 188.5h-96z" />
<glyph horiz-adv-x="647" d="M61 1257h72l189 -274l188 274h76l-217 -323h118v-60h-131v-24h131v-57h-131v-205h-65v205h-131v57h131v24h-131v60h119z" />
<glyph horiz-adv-x="729" d="M55 666l88 88q-55 73 -55 170q0 92 51 168l-84 84l51 51l84 -82q72 57 172 57q101 0 175 -59l86 84l51 -51l-88 -89q49 -66 49 -163q0 -94 -53 -168l92 -90l-51 -52l-93 91q-74 -58 -168 -58q-97 0 -167 55l-89 -88zM154 924q0 -82 62.5 -146.5t145.5 -64.5q87 0 146 62 t59 149q0 89 -59 151t-146 62q-84 0 -146 -64.5t-62 -148.5z" />
<glyph horiz-adv-x="542" d="M29 588v59h24q41 0 70 109q19 76 24 143h-118v59h118q1 52 12 103t34 100.5t66 80t101 30.5q18 0 35.5 -3.5t30.5 -9t24.5 -12t19 -13.5t13 -12t8 -8.5t1.5 -3.5q-21 -35 -29 -51l-6 6q-43 43 -97 43q-40 0 -69.5 -25t-45 -65t-22.5 -79.5t-8 -80.5h164v-59h-168 q-4 -61 -19 -136.5t-38 -115.5h295v-59h-420z" />
<glyph horiz-adv-x="718" d="M111 928q0 126 68 226t188 118v114h79v-112q49 -5 104.5 -27.5t82.5 -54.5l4 -4l-43 -58l-4 7q-25 29 -79.5 50t-96.5 21q-100 0 -166 -87.5t-66 -192.5q0 -104 66.5 -191.5t165.5 -87.5q43 0 95 21t81 51l4 6l43 -57l-4 -4q-28 -30 -83.5 -52.5t-103.5 -27.5v-119h-79 v121q-120 18 -188 116t-68 224z" />
<glyph horiz-adv-x="790" d="M113 936q0 141 77 235.5t216 94.5q91 0 182 -60v291h65v-909h-65v41q-77 -56 -182 -56q-71 0 -128.5 32.5t-92.5 85.5t-53.5 116t-18.5 129zM178 936q0 -75 22.5 -141t76 -113t129.5 -47q50 0 101 23t81 61v409q-34 33 -84.5 53.5t-97.5 20.5q-104 0 -166 -78.5 t-62 -187.5z" />
<glyph horiz-adv-x="804" d="M156 590v909h65v-330q30 45 77.5 72t100.5 27q126 0 184 -78t58 -205v-395h-63v340q0 38 -2 67t-8 62.5t-18.5 57t-32 44t-49.5 31t-69 10.5q-50 0 -86.5 -25t-55.5 -66.5t-27.5 -86t-8.5 -94.5v-340h-65z" />
<glyph horiz-adv-x="804" d="M156 590v665h65v-86q30 45 77.5 72t100.5 27q126 0 184 -77t58 -204v-397h-63v342q0 45 -3.5 79.5t-14.5 72t-29.5 62t-52 40.5t-79.5 16q-50 0 -86.5 -24.5t-55.5 -66.5t-27.5 -86t-8.5 -93v-342h-65z" />
<glyph horiz-adv-x="421" d="M51 592v663h66v-84q30 45 77.5 72t100.5 27q52 0 72 -10l4 -3l-27 -57h-10q-4 0 -18 2t-21 2q-50 0 -86.5 -25t-55.5 -66.5t-27.5 -86t-8.5 -94.5v-340h-66z" />
<glyph horiz-adv-x="530" d="M51 651l39 60l6 -6q19 -24 74.5 -45t91.5 -21q62 0 107 34.5t45 94.5q0 54 -52 88q-14 10 -55 31q-5 2 -27 11t-34 15q-32 13 -51.5 21.5t-46 24.5t-41.5 32t-26 40t-11 52q0 83 65.5 134t149.5 51q48 0 98 -15.5t80 -46.5l2 -4l-33 -55l-6 6q-17 22 -62.5 37.5 t-78.5 15.5q-56 0 -102 -34t-46 -87q0 -38 51 -71q5 -3 16 -8.5t20.5 -10t17.5 -8.5q10 -4 31.5 -12t31.5 -12q39 -17 64.5 -31t53.5 -36.5t42 -53.5t14 -70q0 -92 -61 -143t-154 -51q-104 0 -203 69z" />
<glyph horiz-adv-x="458" d="M41 1188v63h86v189h63l3 -189h194v-63h-194v-361q0 -34 4 -63.5t14.5 -60t33 -48.5t54.5 -18q19 0 45 6.5t33 15.5l6 9l27 -60l-2 -2q-11 -15 -47 -24t-60 -9q-49 0 -85 23.5t-54.5 63t-26.5 81t-8 86.5v361h-86z" />
<glyph horiz-adv-x="704" d="M137 657l37 45l4 -4q31 -27 80.5 -46t89.5 -19q68 0 115 40t47 107q0 32 -12.5 56.5t-42 44.5t-51 30t-66.5 29q-88 37 -123 64q-57 47 -57 110q0 80 50 127.5t130 58.5v74h55v-71q98 -4 156 -56l4 -4l-31 -47l-4 4q-57 45 -133 45q-71 0 -119.5 -33t-48.5 -98 q0 -44 51 -74q17 -11 56 -28q36 -15 65 -27q39 -16 66 -31.5t55 -39.5t42.5 -57t14.5 -75q0 -81 -47.5 -133.5t-126.5 -64.5v-76h-55v72q-107 3 -197 73z" />
<glyph horiz-adv-x="1101" d="M111 307q0 119 79 209.5t187 138.5q-66 115 -66 181q0 56 24.5 101t64 71t83 39.5t86.5 13.5q48 0 103 -17.5t96 -46.5l6 -4l-37 -57l-4 4q-78 45 -164 45q-41 0 -80.5 -14.5t-69.5 -48.5t-30 -80q0 -135 369 -572q96 150 96 322v8h78v-8q0 -208 -117 -385 q72 -86 176 -197l15 -14h-103l-2 2l-135 147q-64 -79 -146.5 -122t-173.5 -43q-60 0 -119 22t-107.5 62t-78.5 103.5t-30 139.5zM184 307q0 -112 79 -181t179 -69q151 0 271 150q-202 235 -299 385q-93 -39 -161.5 -113.5t-68.5 -171.5z" />
<glyph d="M70 547q0 102 27 188t72 146t105 102t126 61.5t134 19.5q57 0 112.5 -14.5t94 -35.5t69 -42.5t44.5 -35.5l15 -15v115h73v-712q0 -76 13 -136t48 -102t90 -42l-21 -64q-38 0 -71 18t-52.5 42.5t-34 51t-20.5 43t-6 18.5v-1q-50 -72 -139 -120q-99 -53 -218 -53 q-94 0 -177 37t-146.5 107t-100.5 179.5t-37 244.5zM144 547q0 -228 111.5 -363.5t278.5 -135.5q69 0 135 27t107.5 63.5t67 69t25.5 47.5v517q0 28 -24.5 65.5t-66 73t-108 59.5t-139.5 24q-74 0 -142.5 -29.5t-123.5 -84t-88 -141t-33 -192.5z" />
<glyph d="M70 547q0 102 27 188t72 146t105 102t126 61.5t134 19.5q57 0 112.5 -14.5t94 -35.5t69 -42.5t44.5 -35.5l15 -15v115h73v-712q0 -76 13 -136t48 -102t90 -42l-21 -64q-38 0 -71 18t-52.5 42.5t-34 51t-20.5 43t-6 18.5v-1q-50 -72 -139 -120q-99 -53 -218 -53 q-94 0 -177 37t-146.5 107t-100.5 179.5t-37 244.5zM144 547q0 -228 111.5 -363.5t278.5 -135.5q69 0 135 27t107.5 63.5t67 69t25.5 47.5v517q0 28 -24.5 65.5t-66 73t-108 59.5t-139.5 24q-74 0 -142.5 -29.5t-123.5 -84t-88 -141t-33 -192.5zM477 1253l105 258h102 l-133 -258h-74z" />
<glyph d="M70 547q0 102 27 188t72 146t105 102t126 61.5t134 19.5q57 0 112.5 -14.5t94 -35.5t69 -42.5t44.5 -35.5l15 -15v115h73v-712q0 -76 13 -136t48 -102t90 -42l-21 -64q-38 0 -71 18t-52.5 42.5t-34 51t-20.5 43t-6 18.5v-1q-50 -72 -139 -120q-99 -53 -218 -53 q-94 0 -177 37t-146.5 107t-100.5 179.5t-37 244.5zM144 547q0 -228 111.5 -363.5t278.5 -135.5q69 0 135 27t107.5 63.5t67 69t25.5 47.5v517q0 28 -24.5 65.5t-66 73t-108 59.5t-139.5 24q-74 0 -142.5 -29.5t-123.5 -84t-88 -141t-33 -192.5zM383 1253l121 275h86 l121 -275h-68l-96 213l-96 -213h-68z" />
<glyph d="M70 547q0 102 27 188t72 146t105 102t126 61.5t134 19.5q57 0 112.5 -14.5t94 -35.5t69 -42.5t44.5 -35.5l15 -15v115h73v-712q0 -76 13 -136t48 -102t90 -42l-21 -64q-38 0 -71 18t-52.5 42.5t-34 51t-20.5 43t-6 18.5v-1q-50 -72 -139 -120q-99 -53 -218 -53 q-94 0 -177 37t-146.5 107t-100.5 179.5t-37 244.5zM144 547q0 -228 111.5 -363.5t278.5 -135.5q69 0 135 27t107.5 63.5t67 69t25.5 47.5v517q0 28 -24.5 65.5t-66 73t-108 59.5t-139.5 24q-74 0 -142.5 -29.5t-123.5 -84t-88 -141t-33 -192.5zM258 1493q0 29 20.5 50.5 t49.5 21.5t49 -21t20 -51q0 -29 -20 -49.5t-49 -20.5t-49.5 20.5t-20.5 49.5zM692 1493q0 29 21.5 50.5t50.5 21.5t49.5 -21.5t20.5 -50.5t-20.5 -49.5t-49.5 -20.5t-50.5 20.5t-21.5 49.5z" />
<glyph d="M70 547q0 102 27 188t72 146t105 102t126 61.5t134 19.5q57 0 112.5 -14.5t94 -35.5t69 -42.5t44.5 -35.5l15 -15v115h73v-712q0 -76 13 -136t48 -102t90 -42l-21 -64q-38 0 -71 18t-52.5 42.5t-34 51t-20.5 43t-6 18.5v-1q-50 -72 -139 -120q-99 -53 -218 -53 q-94 0 -177 37t-146.5 107t-100.5 179.5t-37 244.5zM144 547q0 -228 111.5 -363.5t278.5 -135.5q69 0 135 27t107.5 63.5t67 69t25.5 47.5v517q0 28 -24.5 65.5t-66 73t-108 59.5t-139.5 24q-74 0 -142.5 -29.5t-123.5 -84t-88 -141t-33 -192.5zM389 1511h103l104 -258h-74z " />
<glyph d="M70 547q0 102 27 188t72 146t105 102t126 61.5t134 19.5q57 0 112.5 -14.5t94 -35.5t69 -42.5t44.5 -35.5l15 -15v115h73v-712q0 -76 13 -136t48 -102t90 -42l-21 -64q-38 0 -71 18t-52.5 42.5t-34 51t-20.5 43t-6 18.5v-1q-50 -72 -139 -120q-99 -53 -218 -53 q-94 0 -177 37t-146.5 107t-100.5 179.5t-37 244.5zM144 547q0 -228 111.5 -363.5t278.5 -135.5q69 0 135 27t107.5 63.5t67 69t25.5 47.5v517q0 28 -24.5 65.5t-66 73t-108 59.5t-139.5 24q-74 0 -142.5 -29.5t-123.5 -84t-88 -141t-33 -192.5zM377 1412q0 73 52.5 124.5 t127.5 51.5q74 0 126 -51.5t52 -124.5q0 -76 -52 -128t-126 -52q-75 0 -127.5 52t-52.5 128zM451 1412q0 -40 30.5 -73t73.5 -33t75 33t32 73q0 39 -32 71t-75 32t-73.5 -31.5t-30.5 -71.5z" />
<glyph d="M70 547q0 102 27 188t72 146t105 102t126 61.5t134 19.5q57 0 112.5 -14.5t94 -35.5t69 -42.5t44.5 -35.5l15 -15v115h73v-712q0 -76 13 -136t48 -102t90 -42l-21 -64q-38 0 -71 18t-52.5 42.5t-34 51t-20.5 43t-6 18.5v-1q-50 -72 -139 -120q-99 -53 -218 -53 q-94 0 -177 37t-146.5 107t-100.5 179.5t-37 244.5zM144 547q0 -228 111.5 -363.5t278.5 -135.5q69 0 135 27t107.5 63.5t67 69t25.5 47.5v517q0 28 -24.5 65.5t-66 73t-108 59.5t-139.5 24q-74 0 -142.5 -29.5t-123.5 -84t-88 -141t-33 -192.5zM225 1372q79 127 219 127 q49 0 87 -10t58.5 -22.5t54.5 -22.5t77 -10q53 0 80.5 19t46.5 52l63 -28q-64 -111 -190 -111q-65 0 -108 16t-81 32t-90 16q-104 0 -155 -91z" />
</font>
</defs>
</svg>
