<?xml version="1.0" standalone="no"?>
<!DOCTYPE svg PUBLIC "-//W3C//DTD SVG 1.1//EN" "http://www.w3.org/Graphics/SVG/1.1/DTD/svg11.dtd" >
<svg xmlns="http://www.w3.org/2000/svg" xmlns:xlink="http://www.w3.org/1999/xlink" version="1.1">
<metadata></metadata>
<defs>
<font id="visionlight_italic" horiz-adv-x="929" >
<font-face units-per-em="2048" ascent="1638" descent="-410" />
<missing-glyph horiz-adv-x="514" />
<glyph unicode="&#xfb00;" horiz-adv-x="1273" d="M68 -371l186 1321h-141l14 92h139q11 75 38 144t70 128.5t108.5 95.5t144.5 36q89 0 157 -49l-47 -78q-36 33 -110 33q-48 0 -88.5 -19t-68.5 -49.5t-49.5 -72.5t-33.5 -83.5t-18 -85.5h315h6h135q11 75 38 144t70 128.5t108 95.5t143 36q92 0 157 -49l-45 -78 q-38 33 -112 33q-48 0 -88.5 -19t-68 -49.5t-48.5 -72.5t-33 -83t-18 -86h319l-12 -92h-324l-186 -1321h-98l186 1321h-137h-4h-320l-186 -1321h-98z" />
<glyph unicode="&#xfb01;" horiz-adv-x="847" d="M94 -371l182 1319h-139l13 94h141q11 76 38 144.5t70.5 127t109 93.5t144.5 35q92 0 152 -45l-47 -78q-50 33 -113 33q-59 0 -106 -28.5t-76 -76t-46.5 -98.5t-25.5 -107h420l-147 -1042h-99l133 948h-321l-182 -1319h-101z" />
<glyph unicode="&#xfb02;" horiz-adv-x="1032" d="M96 -371l185 1321h-140l13 92h141q11 75 37.5 144t69.5 128.5t108 95.5t143 36q53 0 108 -22l1 10h100l-145 -1053q-8 -70 -8 -105q0 -202 141 -202q71 0 127 35l24 -84q-74 -48 -174 -48q-62 0 -106.5 24t-68.5 67t-35 92t-11 108q0 62 8 111l80 571h-315l-184 -1321 h-99zM397 1042h310l40 289q-37 21 -94 21q-48 0 -88.5 -19t-68.5 -50t-49 -72.5t-32.5 -83t-17.5 -85.5z" />
<glyph unicode="&#xfb04;" horiz-adv-x="1830" d="M68 -371l186 1321h-141l14 92h139q11 75 38 144t70 128.5t108.5 95.5t144.5 36q89 0 157 -49l-47 -78q-36 33 -110 33q-48 0 -88.5 -19t-68.5 -49.5t-49.5 -72.5t-33.5 -83.5t-18 -85.5h315h6h135q11 75 38 144t70 128.5t108 95.5t143 36q74 -2 112 -13v1h103l-148 -1053 q-8 -70 -8 -105q0 -202 141 -202q71 0 127 35l25 -84q-74 -48 -174 -48q-62 0 -106.5 24t-68.5 67t-35 92t-11 108q0 62 8 111l80 571h-318l-186 -1321h-98l186 1321h-137h-4h-320l-186 -1321h-98zM928 1042h314l41 299q-23 11 -99 11q-48 0 -88.5 -19t-68 -49.5 t-48.5 -72.5t-33 -83t-18 -86z" />
<glyph unicode="ffj" horiz-adv-x="1425" d="M94 -371l191 1321h-142l13 92h141q11 75 37.5 144t69.5 128.5t108 95.5t143 36q98 -4 158 -49l-45 -78q-40 33 -121 33q-58 0 -104 -29t-74.5 -77t-45.5 -98.5t-24 -105.5h320h139q11 75 38 144t70 128.5t108.5 95.5t144.5 36q94 -4 157 -49l-47 -78q-40 33 -121 33 q-58 0 -104 -29t-74 -77t-45 -98.5t-24 -105.5h319h2h98l-116 -833q-29 -204 -54 -292q-92 -305 -309 -308q-78 0 -143 34l-2 -14h-99l189 1321h-139h-2h-322l-188 -1321h-101zM771 -263q50 -34 126 -34q46 0 82.5 18t62 58.5t42 72.5t29.5 94t17.5 87.5t12.5 85.5 q3 19 4 28l119 803h-322z" />
<glyph unicode="fft" horiz-adv-x="1746" d="M92 -371l187 1321h-142l15 92h139q11 75 37.5 144t69.5 128.5t108.5 95.5t144.5 36q90 0 158 -49l-47 -78q-36 33 -111 33q-48 0 -88.5 -19t-68.5 -49.5t-49.5 -72.5t-33.5 -83.5t-18 -85.5h316h6h135q11 75 37.5 144t69.5 128.5t108 95.5t143 36q118 -4 158 -35l-45 -78 q-7 6 -16.5 9.5t-17.5 5.5t-21 3t-19 1h-21h-18q-48 0 -88.5 -19t-68 -49.5t-48.5 -72.5t-33 -83t-18 -86h314h6h133l43 297h98l-41 -297h312l-13 -94h-311l-78 -565q-8 -70 -8 -107q0 -200 141 -200q45 0 125 35l25 -82q-76 -49 -172 -49q-61 0 -106 25t-69 68.5t-35 93 t-11 107.5q0 46 6 93l82 581h-140l1 2h-318l-186 -1321h-99l187 1321h-138h-4h-319l-187 -1321h-98z" />
<glyph unicode="fj" horiz-adv-x="862" d="M94 -371l189 1321h-142l15 92h139q9 59 27 115t48.5 109t70 92.5t94.5 63.5t118 24q96 0 160 -49l-45 -76q-46 37 -121 37q-59 0 -105.5 -29.5t-75 -79t-45 -100t-24.5 -107.5h303h19h82l-117 -833q-1 -9 -4 -28q-7 -50 -11.5 -78t-14.5 -81.5t-19 -86.5t-25.5 -81.5 t-34.5 -79t-44 -65t-55.5 -54t-69 -33t-84.5 -13.5q-73 0 -129 26v-6h-99zM207 -266q51 -31 108 -31q34 0 63 10t51 26.5t41 42.5t31.5 52.5t24 62t18 65t13 68t9.5 65t7 61.5t7 53l107 741h-306z" />
<glyph unicode="ft" horiz-adv-x="1224" d="M92 -371l187 1321h-142l13 92h141q11 75 37.5 144t69.5 128.5t108 95.5t143 36q37 -1 57 -3t51 -10t50 -22l-47 -78q-6 6 -15.5 9.5t-17 5.5t-20.5 3t-19 1h-21h-18q-48 0 -88.5 -19t-68 -49.5t-48.5 -72.5t-33 -83t-18 -86h314h6h133l43 297h98l-41 -297h311l-12 -94 h-311l-78 -565q-8 -47 -8 -107q0 -200 141 -200q9 0 17.5 1t15.5 2t16.5 3.5t14.5 4t15.5 5.5t14 5.5t16 7t15.5 6.5l25 -82q-76 -49 -172 -49q-61 0 -106 25t-69.5 68.5t-35.5 93t-11 107.5q0 39 7 93l82 581h-140l1 2h-318l-187 -1321h-98z" />
<glyph unicode="tf" horiz-adv-x="1327" d="M94 948l15 94h137l43 297h98l-41 -297h311h2h140q11 75 37.5 144t69.5 128.5t108 95.5t143 36q90 0 158 -49l-47 -78q-36 33 -111 33q-48 0 -88.5 -19t-68.5 -50t-49 -72.5t-32.5 -83t-17.5 -85.5h320l-13 -92h-325l-185 -1321h-100l186 1321h-139v-2h-311l-78 -565 q-8 -70 -8 -107q0 -200 141 -200q43 0 127 35l25 -82q-76 -49 -172 -49q-61 0 -106 25t-70 68t-36.5 93t-11.5 108q0 39 7 93l81 581h-139z" />
<glyph horiz-adv-x="0" />
<glyph horiz-adv-x="682" />
<glyph horiz-adv-x="0" />
<glyph horiz-adv-x="0" />
<glyph unicode="&#xd;" horiz-adv-x="512" />
<glyph unicode=" "  horiz-adv-x="514" />
<glyph unicode="&#x09;" horiz-adv-x="514" />
<glyph unicode="&#xa0;" horiz-adv-x="514" />
<glyph unicode="!" horiz-adv-x="399" d="M111 51q0 38 29.5 66t68.5 28q31 0 52.5 -19.5t21.5 -51.5q0 -38 -30 -66t-69 -28q-31 0 -52 20t-21 51zM184 305l148 1184h137l-193 -1184h-92z" />
<glyph unicode="&#x22;" horiz-adv-x="477" d="M90 854l39 432h115l-82 -432h-72zM379 854l41 432h112l-83 -432h-70z" />
<glyph unicode="#" horiz-adv-x="1355" d="M86 352l35 90h227l113 365h-232l35 92h223l109 352h109l-111 -352h383l106 352h109l-107 -352h246l-35 -92h-239l-111 -365h242l-35 -90h-235l-109 -352h-107l107 352h-381l-106 -352h-109l109 352h-236zM453 438h387l112 371h-387z" />
<glyph unicode="$" horiz-adv-x="1005" d="M88 109l66 94q57 -48 145 -83.5t158 -35.5q84 0 159.5 34.5t125 102t49.5 152.5q0 56 -30.5 100t-79 73t-107 54.5t-117.5 53t-107.5 59.5t-79 81.5t-30.5 112.5q0 97 51.5 176.5t132 126t174.5 60.5l25 166h86l-23 -160q204 -4 293 -98l-51 -86q-43 40 -108.5 62 t-129.5 22q-58 0 -116 -15.5t-109.5 -45t-84 -79.5t-32.5 -112q0 -46 30.5 -83t79.5 -62.5t107.5 -49.5t117.5 -52.5t108 -63.5t79.5 -89t30.5 -123q0 -168 -114 -282.5t-281 -132.5l-21 -144h-88l21 142q-87 6 -178 39.5t-152 85.5z" />
<glyph unicode="%" horiz-adv-x="1261" d="M94 874q0 67 21.5 136.5t60 128.5t99 97t131.5 38q72 0 123 -41t72.5 -101t21.5 -131q0 -67 -21.5 -135.5t-59.5 -127t-98 -95.5t-131 -37q-108 0 -163.5 78t-55.5 190zM186 893q0 -47 13 -89t46 -74t81 -32q47 0 87.5 29t65.5 73.5t39 93.5t14 93q0 47 -12.5 89.5 t-45.5 75t-81 32.5q-62 0 -111.5 -50t-72.5 -115.5t-23 -125.5zM309 0l631 1253h107l-631 -1253h-107zM737 256q0 67 21.5 136t60 128.5t99 97t131.5 37.5q72 0 123 -41t72.5 -100.5t21.5 -130.5q0 -67 -21.5 -135.5t-59.5 -127t-99 -95.5t-132 -37q-107 0 -162 78.5 t-55 189.5zM829 274q0 -76 34.5 -135t105.5 -59q62 0 111.5 49.5t72.5 114.5t23 125q0 47 -13 89.5t-46 74.5t-81 32q-62 0 -111.5 -50t-72.5 -115.5t-23 -125.5z" />
<glyph unicode="&#x26;" horiz-adv-x="1179" d="M94 319q0 79 32.5 154t88 134t122 104.5t140.5 74.5q-51 116 -51 191q0 87 56 157t137 105t165 35q60 0 125.5 -19t102.5 -55l-54 -74q-36 24 -87 39t-95 15q-90 0 -164.5 -55t-74.5 -142q0 -166 340 -651q138 174 165 385h101q-36 -263 -205 -467q104 -143 190 -250 h-139q-52 70 -131 170q-188 -188 -407 -188q-153 0 -255 93t-102 244zM197 332q0 -111 76.5 -181.5t187.5 -70.5q177 0 338 172q-194 266 -287 453q-129 -47 -222 -147t-93 -226z" />
<glyph unicode="'" horiz-adv-x="296" d="M207 854l39 432h125l-86 -432h-78z" />
<glyph unicode="(" horiz-adv-x="659" d="M84 399q0 342 176 647t469 496l51 -84q-266 -175 -426.5 -454t-160.5 -590q0 -217 86 -407.5t251 -323.5l-75 -86q-182 147 -276.5 355.5t-94.5 446.5z" />
<glyph unicode=")" horiz-adv-x="569" d="M-125 -301q266 175 426 453t160 589q0 219 -85.5 409t-250.5 323l74 88q182 -147 277 -356.5t95 -448.5q0 -342 -176.5 -647t-468.5 -498z" />
<glyph unicode="*" horiz-adv-x="763" d="M94 731l254 154l-207 162l60 71l205 -157l40 290h91l-41 -290l247 157l41 -71l-252 -162l209 -154l-59 -74l-207 154l-41 -295h-90l41 295l-250 -154z" />
<glyph unicode="+" horiz-adv-x="847" d="M84 545l14 96h324l45 330h106l-47 -330h324l-14 -96h-322l-47 -326h-105l46 326h-324z" />
<glyph unicode="," horiz-adv-x="335" d="M102 -143q46 10 76.5 46.5t38.5 84.5q-38 -11 -68 9t-30 60q0 39 32 70t72 31q42 0 61 -31.5t19 -75.5q0 -52 -24.5 -108t-68.5 -98t-95 -52z" />
<glyph unicode="-" d="M94 561l15 94h751l-14 -94h-752z" />
<glyph unicode="." horiz-adv-x="358" d="M100 55q0 40 31 71.5t72 31.5q32 0 54 -22t22 -56q0 -40 -30.5 -70t-70.5 -30q-34 0 -56 21.5t-22 53.5z" />
<glyph unicode="/" horiz-adv-x="722" d="M12 -16l629 1296h107l-631 -1296h-105z" />
<glyph unicode="0" horiz-adv-x="993" d="M104 418q0 71 15.5 145.5t44.5 147t73.5 136.5t98.5 112.5t124.5 77t147.5 28.5q71 0 130.5 -25.5t100 -68.5t68.5 -100.5t41 -120.5t13 -129q0 -85 -21.5 -174.5t-65 -173t-102.5 -149t-141 -105t-174 -39.5q-73 0 -132.5 24.5t-100 66.5t-68 98.5t-40 119t-12.5 129.5z M209 428q0 -53 8.5 -102t28 -94.5t49 -79t75.5 -54t103 -20.5q92 0 168 52.5t122 134t70.5 172t24.5 175.5q0 52 -8 100.5t-27 95t-48 81t-74.5 55.5t-102.5 21q-75 0 -140 -34.5t-109.5 -90.5t-77 -127.5t-47.5 -144t-15 -140.5z" />
<glyph unicode="1" horiz-adv-x="698" d="M90 -4l12 94h236l117 830l-246 -107l-14 94q21 9 73 33t81 37t73 31t80 30h78l-134 -948h236l-12 -94h-580z" />
<glyph unicode="2" horiz-adv-x="948" d="M90 0l10 76q13 97 59 174.5t109.5 128t137 92t144.5 75t129 68.5t94 82.5t36 106.5q0 44 -18.5 77t-50.5 50.5t-68.5 26t-77.5 8.5q-82 0 -178 -31.5t-166 -79.5l-27 86q172 125 389 125q128 0 218 -68t90 -194q0 -58 -21 -107.5t-57.5 -86.5t-84 -70t-101 -61.5 t-108 -57t-106 -61t-93.5 -68.5t-72 -85t-41 -106h634l-14 -100h-766z" />
<glyph unicode="3" horiz-adv-x="999" d="M90 -86l64 80q53 -55 136 -89t159 -34q154 0 259 94.5t105 245.5q0 45 -14.5 81t-35.5 59.5t-56.5 40t-66.5 25t-76.5 13t-75.5 5.5t-74 1l12 92l414 420h-545l12 94h672l-12 -94l-398 -416q154 0 252.5 -77.5t98.5 -225.5q0 -128 -66.5 -234.5t-176.5 -166t-237 -59.5 q-92 0 -190 40t-160 105z" />
<glyph unicode="4" horiz-adv-x="1044" d="M90 121l12 88l709 833h119l-117 -827h203l-15 -94h-202l-45 -332h-109l47 332h-602zM223 215h484l94 678z" />
<glyph unicode="5" horiz-adv-x="954" d="M90 -106l68 86q56 -47 132.5 -78t145.5 -31q145 0 253 107.5t108 252.5q0 44 -10.5 80t-27 61.5t-44 45t-54.5 32t-65.5 20.5t-69.5 11.5t-74.5 5t-72.5 1t-71 -1.5t-64 -1l94 557h588l-13 -94h-495l-64 -362l150 2q85 0 156 -19t127.5 -58t88 -105t31.5 -154 q0 -131 -65 -242t-176 -176t-242 -65q-83 0 -176.5 35t-157.5 90z" />
<glyph unicode="6" horiz-adv-x="933" d="M94 315q0 145 103 289q304 434 460 649h117l-368 -514q70 33 157 33q153 0 249.5 -92t96.5 -244q0 -125 -63 -230t-169.5 -165.5t-230.5 -60.5q-155 0 -253.5 90.5t-98.5 244.5zM199 334q0 -116 73 -187t189 -71q139 0 242.5 102.5t103.5 241.5q0 115 -73 187.5 t-189 72.5q-139 0 -242.5 -103t-103.5 -243z" />
<glyph unicode="7" horiz-adv-x="774" d="M37 -211l663 1159h-567l14 94h678l-12 -92l-663 -1161h-113z" />
<glyph unicode="8" horiz-adv-x="921" d="M94 305q0 128 76 239.5t195 162.5q-54 34 -82.5 92t-28.5 125q0 146 108 250t256 104q120 0 197.5 -72.5t77.5 -191.5q0 -94 -49.5 -178.5t-132.5 -128.5q83 -40 127.5 -118t44.5 -171q0 -183 -132 -310.5t-315 -127.5q-150 0 -246 88.5t-96 236.5zM197 324 q0 -111 71 -179.5t181 -68.5q130 0 230.5 96t100.5 225q0 102 -74 179t-176 77q-80 0 -158 -47.5t-126.5 -124.5t-48.5 -157zM354 942q0 -84 53.5 -136t137.5 -52q99 0 173.5 76t74.5 176q0 81 -52.5 132.5t-134.5 51.5q-100 0 -176 -74.5t-76 -173.5z" />
<glyph unicode="9" horiz-adv-x="937" d="M94 598q0 125 63 230t169 165t231 60q156 0 254 -91t98 -245q0 -143 -102 -289q-45 -64 -461 -649h-117l367 514q-76 -31 -158 -31q-150 -2 -247 92t-97 244zM199 614q0 -117 72 -188.5t188 -71.5q141 0 244.5 103t103.5 243q0 115 -73.5 185.5t-188.5 70.5 q-140 0 -243 -101.5t-103 -240.5z" />
<glyph unicode=":" horiz-adv-x="442" d="M135 55q0 40 31.5 71.5t71.5 31.5q32 0 54.5 -22t22.5 -56q0 -40 -31 -70t-71 -30q-33 0 -55.5 21.5t-22.5 53.5zM238 778q0 41 30.5 72t71.5 31q32 0 54 -22t22 -54q0 -40 -30.5 -71.5t-70.5 -31.5q-33 0 -55 22t-22 54z" />
<glyph unicode=";" horiz-adv-x="425" d="M102 -152q47 10 77 46t40 86q-14 -7 -29 -7q-33 0 -53 22t-20 56q0 37 31 68t69 31t62 -38t24 -79q0 -78 -56 -155.5t-130 -92.5q-8 39 -15 63zM219 778q0 41 31 72t72 31q32 0 53.5 -22t21.5 -54q0 -40 -30.5 -71.5t-71.5 -31.5q-32 0 -54 22t-22 54z" />
<glyph unicode="&#x3c;" horiz-adv-x="851" d="M90 692l10 70l727 293l-14 -105l-569 -223l506 -225l-15 -105z" />
<glyph unicode="=" horiz-adv-x="884" d="M90 410l12 94h752l-12 -94h-752zM143 821l15 97h751l-14 -97h-752z" />
<glyph unicode="&#x3e;" horiz-adv-x="860" d="M90 393l14 107l570 227l-506 227l14 105l647 -297l-8 -70z" />
<glyph unicode="?" horiz-adv-x="763" d="M90 51q0 38 29.5 66t66.5 28q32 0 54 -20t22 -51q0 -38 -30.5 -66t-67.5 -28q-31 0 -52.5 20.5t-21.5 50.5zM164 328l65 463q108 0 129 2q146 12 237 104t91 238q0 101 -69.5 154.5t-172.5 53.5q-57 0 -125.5 -25t-121.5 -61l-23 91q54 40 142 67t157 27q140 0 232 -77.5 t92 -213.5q0 -133 -66 -238t-176 -161t-242 -56l-51 -368h-98z" />
<glyph unicode="@" horiz-adv-x="1626" d="M94 438q0 168 69 324t184 270t271.5 182t323.5 68q131 0 248 -37.5t207 -108t143 -180.5t53 -245q0 -53 -11 -116t-31.5 -130t-54 -129t-74.5 -111t-96.5 -78.5t-117.5 -29.5q-58 0 -100 30t-57 86q-51 -59 -133 -87.5t-168 -28.5q-145 0 -237.5 100.5t-92.5 247.5 q0 193 125.5 327t316.5 134q66 0 138.5 -26.5t115.5 -70.5l10 76h95q-3 -20 -26.5 -167t-34.5 -242.5t-11 -169.5q0 -27 3 -47.5t11.5 -41.5t27 -32.5t46.5 -11.5q54 0 101.5 38.5t79.5 97.5t56 128.5t35 131.5t11 107q0 119 -49 217.5t-131.5 162t-187.5 98t-220 34.5 q-150 0 -290.5 -61.5t-244 -164t-165.5 -242.5t-62 -291q0 -246 163 -406t410 -160q68 0 157 23.5t165 56.5l22 -72q-73 -37 -170 -59t-182 -22q-182 0 -328 79t-229.5 223t-83.5 326zM516 481q0 -115 72.5 -194.5t185.5 -79.5q49 0 108.5 19t110.5 58.5t60 88.5q4 38 8 55 q2 19 18.5 116.5t16.5 147.5q0 42 -45 77t-98 51t-93 16q-148 -1 -246 -104t-98 -251z" />
<glyph unicode="A" horiz-adv-x="1069" d="M18 0l609 1253h127l254 -1253h-113l-76 365h-508l-178 -365h-115zM354 461h451l-135 653z" />
<glyph unicode="B" horiz-adv-x="1024" d="M90 0l176 1253h416q116 0 192 -70t76 -184q0 -85 -43.5 -163t-115.5 -131q85 -31 133.5 -112.5t48.5 -176.5q0 -99 -52 -194.5t-141 -157t-188 -64.5h-84h-418zM211 90h381q69 0 133.5 49t101.5 121t37 141q0 88 -55 160t-141 72h-381zM301 727h256h51q62 1 118 40 t88 98.5t32 121.5q0 77 -51.5 126.5t-128.5 49.5h-304z" />
<glyph unicode="C" horiz-adv-x="1179" d="M100 530q0 141 58 277t154 238t228.5 164.5t274.5 62.5q97 0 186.5 -31.5t149.5 -95.5l-61 -92q-53 56 -129 86t-156 30q-119 0 -229.5 -53t-189.5 -139t-126 -199.5t-47 -230.5q0 -200 121 -333.5t319 -133.5q84 0 167.5 31.5t148.5 87.5l37 -95q-74 -61 -171.5 -92.5 t-199.5 -31.5q-235 0 -385 157t-150 393z" />
<glyph unicode="D" horiz-adv-x="1097" d="M90 0l176 1253h363q104 0 189 -43.5t138.5 -116.5t82 -164t28.5 -190q0 -100 -28 -205t-83 -200t-128 -170t-171 -119.5t-204 -44.5h-363zM211 98h174h90q106 4 199 65.5t152.5 155t93.5 201.5t34 209q0 79 -20 151.5t-58.5 134t-103 99.5t-147.5 41h-90h-175z" />
<glyph unicode="E" horiz-adv-x="1040" d="M90 0l176 1253h746l-15 -98h-637l-63 -444h518l-12 -97h-518l-74 -516h639l-14 -98h-746z" />
<glyph unicode="F" horiz-adv-x="1032" d="M90 0l176 1253h746l-13 -98h-641l-61 -444h512l-14 -101h-512l-86 -610h-107z" />
<glyph unicode="G" horiz-adv-x="1210" d="M100 535q0 141 59 276.5t156 237t231.5 163.5t276.5 62q99 0 198 -35.5t161 -101.5l-64 -93q-53 56 -139 93t-162 37q-158 0 -298 -89t-222 -233t-82 -301q0 -200 125 -335.5t324 -135.5q78 0 152.5 30t127.5 85l55 405h107l-64 -448q-53 -79 -174.5 -125.5t-228.5 -46.5 q-156 0 -280 73.5t-191.5 199.5t-67.5 282z" />
<glyph unicode="H" horiz-adv-x="1138" d="M90 0l176 1253h107l-76 -536h631l76 536h106l-176 -1253h-107l88 616h-632l-86 -616h-107z" />
<glyph unicode="I" horiz-adv-x="403" d="M90 0l176 1253h109l-176 -1253h-109z" />
<glyph unicode="J" horiz-adv-x="905" d="M92 76l62 96q79 -88 206 -88q65 0 118 27.5t88 75t56.5 103t30.5 118.5l119 841h105l-91 -641q-19 -143 -32 -219q-14 -83 -45 -155.5t-79.5 -131.5t-120 -93t-157.5 -34q-156 0 -260 101z" />
<glyph unicode="K" horiz-adv-x="1019" d="M90 0l176 1253h109l-74 -518l576 518h129l-611 -567l504 -686h-131l-481 635l-88 -635h-109z" />
<glyph unicode="L" horiz-adv-x="665" d="M90 0l176 1253h107l-162 -1155h426l-14 -98h-533z" />
<glyph unicode="M" horiz-adv-x="1404" d="M90 0l176 1253h115l362 -559l519 559h114l-176 -1253h-108l155 1096l-526 -564l-369 564l-153 -1096h-109z" />
<glyph unicode="N" horiz-adv-x="1138" d="M90 0l176 1253h113l475 -1056l147 1056h109l-176 -1253h-115l-475 1049l-147 -1049h-107z" />
<glyph unicode="O" horiz-adv-x="1212" d="M100 500q0 108 27 217.5t82 209t129.5 177.5t177 124t217.5 46q109 0 196.5 -43t142.5 -116t83.5 -166.5t28.5 -198.5q0 -109 -27 -219t-81 -209t-128.5 -175.5t-177.5 -121.5t-219 -45q-110 0 -197.5 41.5t-142 113.5t-83 165t-28.5 200zM215 506q0 -87 20 -162t60 -136 t109.5 -96.5t160.5 -35.5q99 0 183.5 41.5t142.5 109.5t99.5 156t61 181t19.5 184q0 87 -20 162t-61 136t-110.5 96.5t-160.5 35.5q-99 0 -183.5 -42t-142 -110.5t-99 -156.5t-60.5 -180.5t-19 -182.5z" />
<glyph unicode="P" horiz-adv-x="1056" d="M90 0l176 1253h494q124 0 204 -97.5t80 -223.5q0 -19 -4 -51q-14 -90 -68.5 -175.5t-140 -142.5t-176.5 -57h-385l-71 -506h-109zM283 604h381q70 0 135.5 50t103 122.5t37.5 141.5q0 89 -56.5 163t-142.5 74h-381z" />
<glyph unicode="Q" horiz-adv-x="1212" d="M100 496q0 108 27 218t81.5 210.5t129 178.5t177 124.5t218.5 46.5q109 0 196.5 -43t141.5 -116t82.5 -166.5t28.5 -198.5q0 -146 -45 -287t-140.5 -261.5t-226.5 -176.5l184 -267h-127l-163 236q-57 -14 -127 -14q-108 0 -193 42.5t-137.5 115.5t-79.5 164t-27 194z M213 506q0 -87 20 -162t61 -136t110.5 -96.5t160.5 -35.5q98 0 182.5 41.5t143 109t100 155.5t61 180.5t19.5 182.5q0 87 -20 162t-61 136.5t-110.5 97t-160.5 35.5q-98 0 -182.5 -41.5t-143 -109.5t-100 -156t-61 -180.5t-19.5 -182.5z" />
<glyph unicode="R" horiz-adv-x="1077" d="M90 0l176 1253h506q121 0 198 -84t77 -206q0 -88 -44.5 -175t-122.5 -146t-167 -64l272 -578h-125l-266 569h-318l-79 -569h-107zM289 662h393q101 0 179.5 92t78.5 194q0 86 -53 149.5t-137 63.5h-392z" />
<glyph unicode="S" horiz-adv-x="1005" d="M88 106l66 95q57 -48 145 -83.5t158 -35.5q84 0 159.5 34.5t125 102t49.5 152.5q0 56 -30.5 100t-79 73t-107 54.5t-117.5 53t-107.5 59.5t-79 81.5t-30.5 112.5q0 89 40.5 161t106.5 116.5t146 68t163 23.5q80 0 158 -24t125 -74l-51 -89q-43 41 -108.5 64t-129.5 23 q-58 0 -116 -15.5t-109.5 -45t-84 -79.5t-32.5 -112q0 -46 30.5 -82.5t79.5 -62t107.5 -50.5t117.5 -53.5t108 -63.5t79.5 -89.5t30.5 -123.5q0 -121 -62.5 -217.5t-165 -148t-222.5 -51.5q-94 0 -196 34t-167 92z" />
<glyph unicode="T" horiz-adv-x="1128" d="M172 1157l12 96h957l-13 -96h-426l-161 -1157h-107l162 1157h-424z" />
<glyph unicode="U" horiz-adv-x="1085" d="M94 348q0 22 4 62l119 843h107l-119 -843q-2 -14 -2 -45q0 -118 76.5 -199.5t193.5 -81.5q131 0 236.5 97.5t124.5 228.5l116 843h107l-119 -843q-25 -177 -163 -303.5t-316 -126.5q-159 0 -262 104.5t-103 263.5z" />
<glyph unicode="V" horiz-adv-x="1134" d="M170 1253h117l225 -1077l526 1077h121l-612 -1253h-117z" />
<glyph unicode="W" horiz-adv-x="2011" d="M170 1253h117l225 -1075l528 1067h119l230 -1067l528 1075h119l-615 -1253h-116l-230 1073l-528 -1073h-117z" />
<glyph unicode="X" horiz-adv-x="1224" d="M53 0l537 682l-301 571h121l260 -495l409 495h119l-471 -571l344 -682h-117l-307 596l-475 -596h-119z" />
<glyph unicode="Y" horiz-adv-x="1024" d="M98 1253h115l283 -538l436 538h115l-512 -645l-84 -608h-109l86 608z" />
<glyph unicode="Z" horiz-adv-x="1134" d="M90 0l14 96l859 1061h-676l12 96h809l-14 -96l-858 -1061h708l-12 -96h-842z" />
<glyph unicode="[" horiz-adv-x="493" d="M37 -369l287 2044h315l-14 -100h-207l-258 -1843h205l-13 -101h-315z" />
<glyph unicode="\" horiz-adv-x="598" d="M84 1513h111l376 -1855h-112z" />
<glyph unicode="]" horiz-adv-x="493" d="M16 -379l15 98h207l258 1846h-205l12 98h315l-288 -2042h-314z" />
<glyph unicode="^" horiz-adv-x="739" d="M90 748l365 677h80l176 -677h-101l-135 538l-287 -538h-98z" />
<glyph unicode="_" horiz-adv-x="1179" d="M90 -276l12 94h1053l-12 -94h-1053z" />
<glyph unicode="`" horiz-adv-x="1046" d="M573 1513h129l68 -258h-96z" />
<glyph unicode="a" horiz-adv-x="1116" d="M104 426q0 93 23 185t69.5 174t110.5 145t151.5 100t186.5 37q85 0 171 -38t134 -103l17 114h106l-96 -678q-8 -74 -8 -114q0 -34 4.5 -62t15.5 -56.5t35 -44.5t59 -15l-39 -90q-39 0 -69 13.5t-51 40.5t-33.5 53t-26.5 65q-69 -81 -169 -126.5t-208 -45.5 q-123 0 -212 63t-130 162t-41 221zM211 449q0 -100 32 -181.5t104 -134.5t173 -53q82 0 165 39.5t144 103.5q28 28 33 49q9 39 29 197q38 262 41 289v10q0 60 -51.5 107.5t-116.5 69.5t-121 22q-98 0 -181.5 -46.5t-137 -121.5t-83.5 -166t-30 -184z" />
<glyph unicode="b" horiz-adv-x="1064" d="M90 0l201 1434h98l-67 -480q149 109 319 109q181 0 283 -115.5t102 -300.5q0 -90 -23.5 -184t-70.5 -180t-111 -154t-151.5 -108.5t-184.5 -40.5q-166 0 -284 106l-13 -86h-98zM217 205q41 -59 117 -94t151 -35q95 0 179 52t138.5 132.5t86 176.5t31.5 186q0 148 -82 247 t-228 99q-75 0 -159 -34.5t-144 -88.5z" />
<glyph unicode="c" horiz-adv-x="1007" d="M104 426q0 94 25.5 186.5t74.5 173t116 143t155.5 98.5t186.5 36q85 0 175.5 -33.5t141.5 -93.5l-59 -78q-43 51 -118.5 80t-146.5 29q-90 0 -174.5 -47t-143 -120.5t-93.5 -164t-35 -176.5q0 -98 34.5 -183t108.5 -141.5t174 -56.5q76 0 158.5 29.5t138.5 78.5l39 -77 q-66 -59 -165 -94t-189 -35q-126 0 -219 60.5t-139 160.5t-46 225z" />
<glyph unicode="d" horiz-adv-x="1118" d="M104 434q0 96 22 188t67.5 172t108.5 140.5t150.5 95.5t188.5 35q77 0 153.5 -30t127.5 -83l67 482h98l-200 -1434h-99l13 86q-141 -109 -314 -109q-93 0 -167.5 38.5t-120.5 103.5t-70.5 146t-24.5 169zM211 444q0 -74 18 -138.5t53.5 -117.5t95 -83.5t136.5 -30.5 q79 0 164 38t139 97l90 635q-47 55 -122 89t-148 34q-80 0 -149.5 -30.5t-119.5 -82t-86 -119t-53.5 -142t-17.5 -149.5z" />
<glyph unicode="e" horiz-adv-x="954" d="M104 406q0 95 21.5 188.5t66 178t107 149.5t150 103t188.5 38q122 0 204.5 -72t82.5 -192q0 -71 -26.5 -127.5t-69.5 -92.5t-101.5 -59.5t-118.5 -33t-125 -9.5q-160 0 -260 76q-18 -81 -18 -137q0 -90 32.5 -167t101 -127t161.5 -50q76 0 159.5 31t137.5 83l37 -80 q-62 -59 -161 -92.5t-192 -33.5q-123 0 -209.5 58t-127 152.5t-40.5 215.5zM246 639q32 -34 108.5 -55t134.5 -21q46 0 90.5 6.5t89.5 23.5t78.5 42t54.5 66t21 92q0 83 -58.5 131.5t-143.5 48.5q-266 0 -375 -334z" />
<glyph unicode="f" horiz-adv-x="653" d="M96 -371l185 1321h-140l13 92h141q11 75 37.5 144t69.5 128.5t108 95.5t143 36q90 0 158 -49l-47 -78q-36 33 -111 33q-48 0 -88.5 -19t-68.5 -50t-49 -72.5t-32.5 -83t-17.5 -85.5h320l-12 -92h-326l-184 -1321h-99z" />
<glyph unicode="g" horiz-adv-x="1095" d="M104 -262l62 78q35 -43 125.5 -76t152.5 -33q101 0 189 64t139.5 157t65.5 193q-124 -90 -301 -90q-185 0 -293.5 122.5t-108.5 309.5q0 91 24.5 179t71.5 163.5t111 133.5t149 91t179 33q181 0 286 -102l11 81h98l-111 -790q-17 -116 -18 -121q-13 -79 -40.5 -153.5 t-72 -141.5t-101 -117t-131.5 -79t-159 -29q-82 0 -180.5 35t-147.5 92zM238 479q0 -154 84 -253t235 -99q86 0 173.5 35.5t127.5 101.5q8 57 38 263t44 319q-39 58 -114.5 90.5t-149.5 32.5q-130 0 -232 -70t-154 -181t-52 -239z" />
<glyph unicode="h" horiz-adv-x="974" d="M90 0l201 1434h100l-82 -584q43 93 135.5 154t192.5 61q154 0 231.5 -84.5t77.5 -239.5q0 -38 -8 -108l-90 -633h-96l75 539q13 80 13 145q0 130 -54.5 201t-181.5 71q-63 0 -116.5 -26t-90 -67.5t-65 -97.5t-44 -111.5t-24.5 -114.5l-74 -539h-100z" />
<glyph unicode="i" horiz-adv-x="409" d="M94 0l148 1042h98l-145 -1042h-101zM244 1217q0 33 25.5 57t58.5 24q27 0 46 -17.5t19 -43.5q0 -32 -26.5 -57t-59.5 -25q-26 0 -44.5 18t-18.5 44z" />
<glyph unicode="j" horiz-adv-x="544" d="M-174 -344l49 82q47 -33 119 -33q40 0 73 16t56 38t42 61t30 70t21 80t14 75.5t10 71.5q3 21 4 30l127 895h100l-143 -1015q-11 -76 -34.5 -144.5t-63 -132t-102.5 -101.5t-142 -38q-104 0 -160 45zM373 1217q0 33 25.5 57t58.5 24q26 0 44.5 -17.5t18.5 -43.5 q0 -32 -26 -57t-58 -25q-26 0 -44.5 18t-18.5 44z" />
<glyph unicode="k" horiz-adv-x="933" d="M94 0l203 1434h98l-108 -764l483 372h141l-538 -424l508 -618h-142l-467 565l-77 -565h-101z" />
<glyph unicode="l" horiz-adv-x="520" d="M94 268q0 37 8 111l150 1055h100l-147 -1053q-6 -53 -6 -105q0 -202 139 -202q71 0 127 35l27 -84q-77 -48 -177 -48q-62 0 -106.5 24t-68.5 67t-35 92t-11 108z" />
<glyph unicode="m" horiz-adv-x="1636" d="M90 0l146 1042h100l-25 -176q53 89 140 144t186 55q124 0 203 -57.5t100 -176.5q55 105 149 169.5t209 64.5q153 0 230.5 -85.5t77.5 -240.5q0 -45 -7 -106l-90 -633h-96l74 539q12 73 12 147q0 129 -54 199.5t-179 70.5q-75 0 -137 -36.5t-101.5 -97t-64 -127.5 t-35.5 -140l-78 -555h-96l73 539q13 80 13 145q0 130 -54.5 201t-181.5 71q-63 0 -116.5 -26t-90 -67.5t-65 -97.5t-44 -111.5t-24.5 -114.5l-74 -539h-100z" />
<glyph unicode="n" horiz-adv-x="974" d="M90 0l146 1042h100l-27 -192q43 93 135.5 154t192.5 61q154 0 231.5 -84t77.5 -240q0 -38 -8 -108l-90 -633h-96l75 539q13 80 13 145q0 130 -54.5 201t-181.5 71q-63 0 -116.5 -26t-90 -67.5t-65 -97.5t-44 -111.5t-24.5 -114.5l-74 -539h-100z" />
<glyph unicode="o" horiz-adv-x="1075" d="M104 420q0 92 24 184t71.5 174t112 145.5t152 100.5t185.5 37q124 0 214.5 -60.5t134.5 -159t44 -220.5q0 -92 -24 -184.5t-71.5 -175t-111.5 -146t-151.5 -101t-185.5 -37.5q-123 0 -214 61.5t-135.5 160.5t-44.5 221zM209 446q0 -93 32.5 -176.5t103 -141.5t165.5 -58 q93 0 175.5 50t136.5 128t85 171t31 181q0 96 -31 177t-101 135.5t-169 54.5q-72 0 -140 -32.5t-119 -86.5t-90 -121.5t-59 -140.5t-20 -140z" />
<glyph unicode="p" horiz-adv-x="1110" d="M90 -371l199 1413h98l-14 -100q158 123 315 123q93 0 167.5 -38.5t120.5 -103.5t70.5 -146t24.5 -169q0 -117 -35.5 -228.5t-100 -201t-166.5 -144t-224 -54.5q-182 0 -291 112l-66 -463h-98zM268 197q45 -56 120.5 -90.5t148.5 -34.5q99 0 182.5 46.5t136.5 122.5 t82 168t29 187q0 74 -18 139.5t-54 118t-96 83t-137 30.5q-79 0 -164.5 -38.5t-141.5 -97.5z" />
<glyph unicode="q" horiz-adv-x="1067" d="M104 393q0 91 23 185.5t69 181.5t109.5 155t150.5 109t185 41q162 0 287 -119l12 96h100l-198 -1413h-101l66 463q-148 -115 -318 -115q-183 0 -284 115t-101 301zM211 420q0 -147 81 -245.5t226 -98.5q75 0 160 35t145 88l88 630q-40 62 -115.5 99t-152.5 37 q-79 0 -149.5 -33t-121 -88.5t-88 -126t-55.5 -147t-18 -150.5z" />
<glyph unicode="r" horiz-adv-x="643" d="M80 0l147 1042h101l-29 -192q43 92 136.5 153.5t193.5 61.5q34 0 104 -16l-61 -101q-29 10 -70 10q-65 0 -119.5 -26.5t-92 -68t-66 -98.5t-44 -113.5t-24.5 -116.5l-76 -535h-100z" />
<glyph unicode="s" horiz-adv-x="888" d="M90 90l64 86q48 -44 119.5 -73t134.5 -29q105 0 187.5 64t82.5 167q0 44 -25.5 79t-66 58.5t-89.5 45t-98.5 44.5t-90 50.5t-66 69.5t-25.5 96q0 93 58 167.5t143.5 112t175.5 37.5q71 0 150 -24t114 -70l-53 -78q-37 35 -99.5 56.5t-117.5 21.5q-57 0 -116.5 -25 t-102.5 -74t-43 -108q0 -52 48 -90.5t116 -66.5t136.5 -60t116.5 -88t48 -133q0 -104 -56 -184.5t-143.5 -121t-188.5 -40.5q-81 0 -168 29.5t-145 80.5z" />
<glyph unicode="t" horiz-adv-x="688" d="M94 948l15 94h137l43 297h98l-41 -297h313l-14 -94h-311l-78 -565q-8 -70 -8 -107q0 -200 141 -200q43 0 127 35l25 -82q-76 -49 -172 -49q-61 0 -106 25t-70 68t-36.5 93t-11.5 108q0 39 7 93l81 581h-139z" />
<glyph unicode="u" horiz-adv-x="976" d="M90 307q0 60 8 107l86 628h99l-76 -542q-12 -98 -12 -148q0 -129 54 -199.5t181 -70.5q64 0 117.5 26t90 67t64.5 97.5t43.5 112t24.5 115.5l78 542h98l-145 -1042h-99l27 190q-43 -91 -137 -152t-193 -61q-156 0 -232.5 86t-76.5 244z" />
<glyph unicode="v" horiz-adv-x="921" d="M131 1042h102l177 -866l419 866h107l-502 -1042h-98z" />
<glyph unicode="w" horiz-adv-x="1624" d="M131 1042h105l176 -866l417 858h107l178 -858l418 866h106l-499 -1042h-101l-176 889l-426 -889h-100z" />
<glyph unicode="x" horiz-adv-x="1046" d="M49 0l453 551l-258 491h108l223 -403l338 403h111l-397 -491l295 -551h-113l-258 459l-389 -459h-113z" />
<glyph unicode="y" horiz-adv-x="944" d="M4 -319l57 77q60 -39 105 -39q37 0 76.5 33.5t70.5 84t53.5 97.5t34.5 86l-206 1022h106l176 -860l420 860h104q-49 -100 -226 -468.5t-275 -567.5q-9 -19 -30 -65t-35 -73.5t-37.5 -69.5t-46.5 -68t-52.5 -52t-65 -38.5t-75.5 -12.5q-33 0 -84 16t-70 38z" />
<glyph unicode="z" horiz-adv-x="1003" d="M90 0l12 94l736 854h-574l12 94h697l-12 -94l-736 -854h629l-12 -94h-752z" />
<glyph unicode="{" horiz-adv-x="481" d="M57 -150q0 18 4 46l89 632l-93 123l127 129l90 631q15 117 97.5 189.5t201.5 72.5h52l-15 -98q-98 0 -157 -36.5t-72 -129.5l-92 -655l-105 -103l78 -92l-94 -663q-2 -8 -2 -29q0 -43 14.5 -71t42.5 -41.5t57.5 -18t71.5 -4.5l-14 -101q-62 0 -109 9.5t-88 32.5 t-62.5 67.5t-21.5 109.5z" />
<glyph unicode="|" horiz-adv-x="503" d="M84 -369l287 2044h104l-287 -2044h-104z" />
<glyph unicode="}" horiz-adv-x="585" d="M16 -369l15 101q99 0 157.5 36t71.5 128l94 663l101 92l-74 103l92 655q2 10 2 31q0 43 -14.5 71t-42.5 41.5t-57 18t-70 4.5l12 98q49 0 88 -5.5t76 -20t62 -38t40 -62.5t15 -91q0 -31 -2 -45l-90 -631l92 -127l-127 -125l-88 -632q-17 -118 -100 -191.5t-201 -73.5h-52 z" />
<glyph unicode="~" horiz-adv-x="833" d="M90 1151q45 63 108.5 100t135.5 37q52 0 132.5 -31.5t127.5 -31.5q83 0 133 71l78 -41q-84 -122 -217 -122q-54 0 -134 32.5t-128 32.5q-103 0 -164 -90z" />
<glyph unicode="&#xa1;" horiz-adv-x="397" d="M127 -29l192 1182h91l-146 -1182h-137zM313 1384q0 38 29.5 67.5t67.5 29.5q31 0 52 -20.5t21 -51.5q0 -38 -29.5 -66t-66.5 -28q-31 0 -52.5 19.5t-21.5 49.5z" />
<glyph unicode="&#xa2;" horiz-adv-x="1183" d="M104 526q0 175 84 337.5t231.5 271t321.5 127.5l25 172h88l-23 -168q212 -4 322 -125l-61 -92q-52 55 -128.5 86.5t-152.5 31.5q-120 0 -231 -53t-190.5 -139.5t-127 -200.5t-47.5 -231q0 -199 121.5 -332t318.5 -133q84 0 167.5 31t148.5 86l37 -95q-146 -120 -359 -123 l-20 -157h-90l22 162q-139 16 -244 93.5t-159 194.5t-54 256z" />
<glyph unicode="&#xa3;" horiz-adv-x="1089" d="M55 0l13 90h24q49 0 97.5 63t83 151t57 167.5t28.5 126.5h-219l13 82h219q10 78 32.5 156.5t62.5 158.5t91.5 141t125 99.5t157.5 38.5q61 0 126 -23.5t99 -66.5l-57 -78q-29 34 -79.5 53t-97.5 19q-66 0 -123 -34.5t-95.5 -87t-68.5 -122t-46.5 -131.5t-26.5 -123h303 l-12 -82h-303q-14 -100 -81.5 -287.5t-123.5 -220.5h563l-12 -90h-750z" />
<glyph unicode="&#xa4;" horiz-adv-x="1142" d="M131 139l162 142q-53 82 -53 196q0 188 120 326l-116 137l82 72l116 -135q122 92 273 92q157 0 254 -97l157 142l64 -74l-164 -143q47 -74 47 -185q0 -90 -32 -175t-91 -150l127 -148l-84 -73l-123 145q-122 -92 -274 -92q-143 0 -244 88l-159 -141zM326 500 q0 -123 80.5 -209t201.5 -86q155 0 266 116.5t111 272.5q0 127 -78 207t-205 80q-95 0 -182.5 -54t-140.5 -142.5t-53 -184.5z" />
<glyph unicode="&#xa5;" horiz-adv-x="1095" d="M170 1253h115l284 -536l435 536h114l-502 -630h244l-10 -80h-252l-14 -92h254l-13 -80h-252l-53 -371h-106l53 371h-254l12 80h252l12 92h-251l12 80h244z" />
<glyph unicode="&#xa6;" horiz-adv-x="761" d="M154 -367l112 791h105l-111 -791h-106zM285 565l112 791h105l-111 -791h-106z" />
<glyph unicode="&#xa7;" horiz-adv-x="1122" d="M90 -260l68 94q57 -49 144 -84t157 -35q131 0 232.5 80t101.5 207q0 54 -30.5 97.5t-79 73.5t-107 57t-117.5 56t-107.5 62t-79 83t-30.5 112q0 95 54.5 178t141.5 127q-88 72 -88 170q0 89 40.5 162t107 118t147 69t164.5 24q78 0 156.5 -25t126.5 -74l-52 -88 q-43 40 -108 62t-129 22q-54 0 -111.5 -15t-110.5 -43t-86.5 -76t-33.5 -107q0 -11 2 -15q9 -46 44.5 -83.5t84.5 -63.5t106.5 -51t113 -53.5t101 -62.5t73.5 -86.5t28 -117.5q0 -94 -43.5 -182.5t-118.5 -143.5q51 -66 51 -157q0 -180 -131.5 -299t-312.5 -119 q-96 0 -198.5 34t-170.5 93zM352 555q0 -44 32.5 -82.5t86 -67.5t108 -52.5t113 -48.5t86.5 -44q56 40 91.5 101t35.5 128q0 41 -19 76.5t-46.5 60.5t-69.5 49.5t-76.5 39.5t-80 34.5t-68.5 30.5q-81 -29 -137 -88t-56 -137z" />
<glyph unicode="&#xa8;" horiz-adv-x="743" d="M94 1468q0 36 28 64.5t64 28.5q29 0 48.5 -20.5t19.5 -49.5q0 -36 -27 -63t-63 -27q-30 0 -50 19t-20 48zM522 1468q0 37 28.5 65t65.5 28q29 0 48.5 -20.5t19.5 -49.5q0 -36 -27 -63t-63 -27q-30 0 -51 19t-21 48z" />
<glyph unicode="&#xa9;" horiz-adv-x="1492" d="M94 524q0 150 64.5 292.5t171 247t249.5 167.5t293 63q164 0 298.5 -74.5t212 -208t77.5 -298.5q0 -150 -64.5 -292.5t-171 -247t-249.5 -167.5t-293 -63q-165 0 -299.5 75t-211.5 208.5t-77 297.5zM156 530q0 -149 70 -270t192 -189.5t272 -68.5q136 0 266.5 57.5 t227.5 152t156 224t59 266.5q0 228 -153.5 379.5t-381.5 151.5q-136 0 -266.5 -58t-227 -153t-155.5 -225t-59 -267zM397 551q0 122 55.5 229.5t157 174.5t224.5 67q67 0 138.5 -25.5t112.5 -70.5l-47 -62q-37 38 -96.5 60t-114.5 22q-91 0 -172.5 -55t-128.5 -141.5 t-47 -176.5q0 -118 69 -200t185 -82q59 0 125 22.5t111 59.5l30 -60q-53 -45 -131 -71.5t-149 -26.5q-147 0 -234.5 93.5t-87.5 242.5z" />
<glyph unicode="&#xaa;" horiz-adv-x="710" d="M70 862q0 100 40 192.5t120.5 155t183.5 62.5q53 0 105.5 -21t88.5 -59l8 63h82q-2 -17 -22.5 -138t-33.5 -220.5t-13 -153.5q0 -47 17 -73t61 -27l-31 -70q-93 0 -123 101q-42 -46 -106 -72.5t-128 -26.5q-119 0 -184 81.5t-65 205.5zM150 877q0 -95 49 -160.5 t141 -65.5q49 0 124 36.5t87 78.5q5 18 8.5 56.5t3.5 41.5q3 22 12 66.5t14 81t5 65.5q0 52 -60.5 85.5t-115.5 33.5q-118 0 -193 -98.5t-75 -220.5z" />
<glyph unicode="&#xab;" horiz-adv-x="864" d="M90 592l295 428h113l-289 -428l168 -428h-111zM432 592l295 428h113l-289 -428l168 -428h-113z" />
<glyph unicode="&#xac;" horiz-adv-x="958" d="M90 731l12 98h832l-55 -387h-101l41 289h-729z" />
<glyph unicode="&#xad;" horiz-adv-x="880" d="M90 606l12 96h754l-12 -96h-754z" />
<glyph unicode="&#xae;" horiz-adv-x="1486" d="M94 524q0 150 64.5 292.5t171 247t249.5 167.5t293 63q164 0 298.5 -74.5t212 -208t77.5 -298.5q0 -150 -64.5 -292.5t-171 -247t-249.5 -167.5t-293 -63q-165 0 -299.5 75t-211.5 208.5t-77 297.5zM156 530q0 -149 70 -270t192 -189.5t272 -68.5q136 0 266.5 57.5 t227.5 152t156 224t59 266.5q0 228 -153.5 379.5t-381.5 151.5q-136 0 -266.5 -58t-227 -153t-155.5 -225t-59 -267zM487 246l103 731h295q72 0 118 -50t46 -122q0 -77 -55 -147.5t-130 -79.5l156 -332h-90v2l-154 323h-170l-45 -325h-74zM616 639h218q55 0 97 50.5 t42 105.5q0 46 -28.5 80t-72.5 34h-217z" />
<glyph unicode="&#xaf;" horiz-adv-x="876" d="M90 1362l10 84h752l-10 -84h-752z" />
<glyph unicode="&#xb0;" horiz-adv-x="733" d="M94 997q0 124 92.5 213.5t216.5 89.5q98 0 165 -63.5t67 -161.5q0 -123 -92 -214t-215 -91q-101 0 -167.5 63.5t-66.5 163.5zM180 1012q0 -69 45 -113.5t113 -44.5q85 0 149 63t64 148q0 68 -46.5 110t-115.5 42q-85 0 -147 -60.5t-62 -144.5z" />
<glyph unicode="&#xb1;" horiz-adv-x="958" d="M90 82l12 94h752l-12 -94h-752zM164 645l14 92h322l47 330h104l-45 -330h324l-15 -92h-323l-45 -330h-107l47 330h-323z" />
<glyph unicode="&#xb2;" horiz-adv-x="528" d="M31 588q7 61 18 94q19 55 65 106.5t98 89t101.5 73.5t82 74.5t32.5 76.5q0 45 -37 65.5t-86 20.5q-87 0 -172 -68l-20 74q89 80 211 80q81 0 137.5 -38.5t56.5 -115.5q0 -48 -24 -92t-61.5 -76t-83 -67t-87 -64.5t-76 -69.5t-47.5 -81h334l-12 -82h-430z" />
<glyph unicode="&#xb3;" horiz-adv-x="534" d="M31 659l51 64q27 -32 71 -51t87 -19q70 0 119 45.5t49 116.5q0 25 -9 44t-29 30t-36 17.5t-47 8.5t-43.5 2.5t-42.5 0.5l10 65l192 199h-266l10 73h377l-8 -67l-188 -195q73 -8 119.5 -52.5t46.5 -115.5q0 -105 -80 -178.5t-185 -73.5q-53 0 -110 24t-88 62z" />
<glyph unicode="&#xb4;" horiz-adv-x="421" d="M135 1255l139 258h129l-170 -258h-98z" />
<glyph unicode="&#xb6;" horiz-adv-x="894" d="M94 997q0 104 80.5 183.5t183.5 79.5h560l-11 -82h-141l-193 -1368h-90l193 1368h-240l-190 -1368h-90l139 991q-85 0 -143 56t-58 140z" />
<glyph unicode="&#xb8;" horiz-adv-x="1189" d="M453 -274l190 290h88l-151 -292z" />
<glyph unicode="&#xb9;" horiz-adv-x="284" d="M51 1184q103 51 170 71h58l-95 -665h-86l80 571l-115 -53z" />
<glyph unicode="&#xba;" horiz-adv-x="739" d="M104 862q0 73 25.5 145.5t70 130t111 93t142.5 35.5q121 0 188.5 -81t67.5 -204q0 -100 -43 -192t-126 -153t-184 -61q-118 0 -185 82.5t-67 204.5zM190 879q0 -87 47 -156.5t130 -69.5q74 0 134.5 50.5t91 121.5t30.5 142q0 91 -47 156t-134 65q-70 0 -129.5 -50 t-91 -120.5t-31.5 -138.5z" />
<glyph unicode="&#xbb;" horiz-adv-x="864" d="M90 174l289 428l-170 428h113l176 -428l-295 -428h-113zM432 174l289 428l-170 428h113l176 -428l-295 -428h-113z" />
<glyph unicode="&#xbf;" horiz-adv-x="817" d="M94 244q0 133 66.5 238t176.5 160.5t241 55.5l51 369h98l-63 -461h-78q-165 0 -273 -91.5t-108 -254.5q0 -102 70 -155.5t174 -53.5q111 0 247 86l23 -90q-57 -40 -144.5 -67t-156.5 -27q-139 0 -231.5 77.5t-92.5 213.5zM631 1321q0 38 29.5 66t68.5 28q31 0 52.5 -20.5 t21.5 -51.5q0 -38 -29.5 -66t-66.5 -28q-33 0 -54.5 20t-21.5 52z" />
<glyph unicode="&#xc0;" horiz-adv-x="1069" d="M18 0l609 1253h127l254 -1253h-113l-76 365h-508l-178 -365h-115zM354 461h451l-135 653zM563 1694h129l68 -258h-96z" />
<glyph unicode="&#xc1;" horiz-adv-x="1069" d="M18 0l609 1253h127l254 -1253h-113l-76 365h-508l-178 -365h-115zM354 461h451l-135 653zM666 1434l139 258h129l-172 -258h-96z" />
<glyph unicode="&#xc2;" horiz-adv-x="1069" d="M18 0l609 1253h127l254 -1253h-113l-76 365h-508l-178 -365h-115zM354 461h451l-135 653zM539 1432l157 274h113l82 -274h-84l-64 200l-120 -200h-84z" />
<glyph unicode="&#xc3;" horiz-adv-x="1134" d="M18 0l609 1253h127l254 -1253h-113l-76 365h-508l-178 -365h-115zM354 461h451l-135 653zM369 1456q42 61 107 97t136 36q51 0 133.5 -31.5t128.5 -31.5q87 0 136 69l77 -39q-82 -120 -213 -120q-58 0 -139 31.5t-129 31.5q-104 0 -166 -88z" />
<glyph unicode="&#xc4;" horiz-adv-x="1085" d="M18 0l609 1253h127l254 -1253h-113l-76 365h-508l-178 -365h-115zM354 461h451l-135 653zM430 1495q0 35 27.5 63.5t62.5 28.5q29 0 49.5 -20t20.5 -49q0 -36 -28 -63.5t-64 -27.5q-29 0 -48.5 19.5t-19.5 48.5zM858 1495q0 36 28 64t64 28q29 0 49.5 -20t20.5 -49 q0 -36 -28 -63.5t-64 -27.5q-29 0 -49.5 19.5t-20.5 48.5z" />
<glyph unicode="&#xc5;" horiz-adv-x="1056" d="M18 0l609 1253h127l254 -1253h-113l-76 365h-508l-178 -365h-115zM354 461h451l-135 653zM547 1511q0 83 62.5 143t144.5 60q66 0 110.5 -42.5t44.5 -108.5q0 -82 -61 -143.5t-143 -61.5q-68 0 -113 43t-45 110zM627 1526q0 -37 25 -63.5t61 -26.5q43 0 80.5 35t37.5 79 q0 36 -26.5 61t-63.5 25q-43 0 -78.5 -33t-35.5 -77z" />
<glyph unicode="&#xc6;" horiz-adv-x="1490" d="M18 0l613 1253h805l-15 -98h-639l-63 -444h520l-14 -95h-518l-74 -518h639l-12 -98h-746l51 365h-256l-178 -365h-113zM354 461h224l92 653z" />
<glyph unicode="&#xc7;" horiz-adv-x="1179" d="M100 530q0 141 58 276.5t154 238t228.5 165t274.5 62.5q97 0 186.5 -31.5t149.5 -95.5l-61 -92q-53 56 -129 86t-156 30q-119 0 -229.5 -53t-189.5 -139t-126 -199.5t-47 -230.5q0 -200 121 -333.5t319 -133.5q174 0 316 119l37 -95q-147 -122 -385 -122h-25l-131 -250 l-121 10l164 252q-189 39 -298.5 189t-109.5 347z" />
<glyph unicode="&#xc8;" horiz-adv-x="1040" d="M90 0l176 1253h746l-15 -98h-637l-63 -444h518l-12 -97h-518l-74 -516h639l-14 -98h-746zM539 1692h129l67 -258h-96z" />
<glyph unicode="&#xc9;" horiz-adv-x="1040" d="M90 0l176 1253h746l-15 -98h-637l-63 -444h518l-12 -97h-518l-74 -516h639l-14 -98h-746zM616 1434l140 258h129l-172 -258h-97z" />
<glyph unicode="&#xca;" horiz-adv-x="1040" d="M90 0l176 1253h746l-15 -98h-637l-63 -444h518l-12 -97h-518l-74 -516h639l-14 -98h-746zM504 1434l160 274h112l82 -274h-84l-65 200l-121 -200h-84z" />
<glyph unicode="&#xcb;" horiz-adv-x="1040" d="M90 0l176 1253h746l-15 -98h-637l-63 -444h518l-12 -97h-518l-74 -516h639l-14 -98h-746zM385 1489q0 37 27.5 64.5t64.5 27.5q29 0 48.5 -19.5t19.5 -48.5q0 -37 -27.5 -64.5t-62.5 -27.5q-29 0 -49.5 19.5t-20.5 48.5zM813 1491q0 35 28.5 62.5t65.5 27.5 q29 0 48.5 -19.5t19.5 -48.5q0 -37 -27.5 -64.5t-62.5 -27.5q-30 0 -51 20t-21 50z" />
<glyph unicode="&#xcc;" horiz-adv-x="434" d="M90 0l176 1253h109l-176 -1253h-109zM201 1694h129l67 -258h-96z" />
<glyph unicode="&#xcd;" horiz-adv-x="458" d="M90 0l176 1253h109l-176 -1253h-109zM295 1436l141 258h129l-172 -258h-98z" />
<glyph unicode="&#xce;" horiz-adv-x="421" d="M90 0l176 1253h109l-176 -1253h-109zM170 1434l158 274h112l82 -274h-84l-63 200l-121 -200h-84z" />
<glyph unicode="&#xcf;" horiz-adv-x="440" d="M53 1489q0 37 26.5 64.5t63.5 27.5q29 0 49.5 -19.5t20.5 -48.5q0 -37 -27.5 -64.5t-64.5 -27.5q-29 0 -48.5 19.5t-19.5 48.5zM82 0l176 1253h107l-177 -1253h-106zM481 1491q0 35 27.5 62.5t64.5 27.5q29 0 48.5 -19.5t19.5 -48.5q0 -37 -26.5 -64.5t-63.5 -27.5 q-30 0 -50 20t-20 50z" />
<glyph unicode="&#xd0;" horiz-adv-x="1193" d="M90 584l12 88h168l82 581h373q103 0 188 -44t138.5 -117t82.5 -164.5t29 -190.5t-28.5 -203.5t-84 -199.5t-128.5 -170t-170.5 -119.5t-202.5 -44.5h-373l82 584h-168zM295 98h268q87 0 166 40t137 106t101 148.5t64.5 169t21.5 165.5q0 80 -21 154.5t-62 136.5 t-108 99.5t-151 37.5h-267l-67 -483h354l-12 -88h-354z" />
<glyph unicode="&#xd1;" horiz-adv-x="1138" d="M90 0l176 1253h113l475 -1056l147 1056h109l-176 -1253h-115l-475 1049l-147 -1049h-107zM367 1456q38 60 104.5 96.5t138.5 36.5q49 0 130.5 -31.5t129.5 -31.5q85 0 136 71l75 -41q-82 -120 -211 -120q-57 0 -138 32.5t-130 32.5q-102 0 -166 -90z" />
<glyph unicode="&#xd2;" horiz-adv-x="1212" d="M100 500q0 108 27 217.5t82 209t129.5 177.5t177 124t217.5 46q109 0 196.5 -43t142.5 -116t83.5 -166.5t28.5 -198.5q0 -109 -27 -219t-81 -209t-128.5 -175.5t-177.5 -121.5t-219 -45q-110 0 -197.5 41.5t-142 113.5t-83 165t-28.5 200zM215 506q0 -87 20 -162t60 -136 t109.5 -96.5t160.5 -35.5q99 0 183.5 41.5t142.5 109.5t99.5 156t61 181t19.5 184q0 87 -20 162t-61 136t-110.5 96.5t-160.5 35.5q-99 0 -183.5 -42t-142 -110.5t-99 -156.5t-60.5 -180.5t-19 -182.5zM635 1696h129l67 -258h-98z" />
<glyph unicode="&#xd3;" horiz-adv-x="1212" d="M100 500q0 108 27 217.5t82 209t129.5 177.5t177 124t217.5 46q109 0 196.5 -43t142.5 -116t83.5 -166.5t28.5 -198.5q0 -109 -27 -219t-81 -209t-128.5 -175.5t-177.5 -121.5t-219 -45q-110 0 -197.5 41.5t-142 113.5t-83 165t-28.5 200zM215 506q0 -87 20 -162t60 -136 t109.5 -96.5t160.5 -35.5q99 0 183.5 41.5t142.5 109.5t99.5 156t61 181t19.5 184q0 87 -20 162t-61 136t-110.5 96.5t-160.5 35.5q-99 0 -183.5 -42t-142 -110.5t-99 -156.5t-60.5 -180.5t-19 -182.5zM684 1436l139 258h129l-170 -258h-98z" />
<glyph unicode="&#xd4;" horiz-adv-x="1212" d="M100 500q0 108 27 217.5t82 209t129.5 177.5t177 124t217.5 46q109 0 196.5 -43t142.5 -116t83.5 -166.5t28.5 -198.5q0 -109 -27 -219t-81 -209t-128.5 -175.5t-177.5 -121.5t-219 -45q-110 0 -197.5 41.5t-142 113.5t-83 165t-28.5 200zM215 506q0 -87 20 -162t60 -136 t109.5 -96.5t160.5 -35.5q99 0 183.5 41.5t142.5 109.5t99.5 156t61 181t19.5 184q0 87 -20 162t-61 136t-110.5 96.5t-160.5 35.5q-99 0 -183.5 -42t-142 -110.5t-99 -156.5t-60.5 -180.5t-19 -182.5zM578 1434l159 274h113l82 -274h-84l-66 200l-118 -200h-86z" />
<glyph unicode="&#xd5;" horiz-adv-x="1212" d="M100 500q0 108 27 217.5t82 209t129.5 177.5t177 124t217.5 46q109 0 196.5 -43t142.5 -116t83.5 -166.5t28.5 -198.5q0 -109 -27 -219t-81 -209t-128.5 -175.5t-177.5 -121.5t-219 -45q-110 0 -197.5 41.5t-142 113.5t-83 165t-28.5 200zM215 506q0 -87 20 -162t60 -136 t109.5 -96.5t160.5 -35.5q99 0 183.5 41.5t142.5 109.5t99.5 156t61 181t19.5 184q0 87 -20 162t-61 136t-110.5 96.5t-160.5 35.5q-99 0 -183.5 -42t-142 -110.5t-99 -156.5t-60.5 -180.5t-19 -182.5zM410 1456q42 61 107 97t136 36q49 0 131.5 -31.5t130.5 -31.5 q88 0 134 69l77 -39q-36 -56 -90.5 -88t-120.5 -32q-58 0 -139 31.5t-129 31.5q-104 0 -166 -88z" />
<glyph unicode="&#xd6;" horiz-adv-x="1212" d="M100 500q0 108 27 217.5t82 209t129.5 177.5t177 124t217.5 46q109 0 196.5 -43t142.5 -116t83.5 -166.5t28.5 -198.5q0 -109 -27 -219t-81 -209t-128.5 -175.5t-177.5 -121.5t-219 -45q-110 0 -197.5 41.5t-142 113.5t-83 165t-28.5 200zM215 506q0 -87 20 -162t60 -136 t109.5 -96.5t160.5 -35.5q99 0 183.5 41.5t142.5 109.5t99.5 156t61 181t19.5 184q0 87 -20 162t-61 136t-110.5 96.5t-160.5 35.5q-99 0 -183.5 -42t-142 -110.5t-99 -156.5t-60.5 -180.5t-19 -182.5zM473 1511q0 36 28 64.5t64 28.5q29 0 48.5 -20.5t19.5 -49.5 q0 -36 -27 -63t-63 -27q-30 0 -50 19t-20 48zM901 1511q0 37 28.5 65t65.5 28q29 0 48.5 -20.5t19.5 -49.5q0 -36 -27 -63t-63 -27q-30 0 -51 19t-21 48z" />
<glyph unicode="&#xd7;" horiz-adv-x="776" d="M84 418l266 231l-198 232l75 67l199 -231l264 231l64 -71l-267 -234l199 -227l-78 -66l-196 228l-265 -234z" />
<glyph unicode="&#xd8;" horiz-adv-x="1216" d="M100 500q0 108 27 217.5t82 209t129.5 177.5t177 124t217.5 46q123 0 215 -57l129 215h92l-155 -256q87 -74 128.5 -187t41.5 -239q0 -109 -27 -219t-81 -209t-128.5 -175.5t-177.5 -121.5t-219 -45q-125 0 -223 59l-115 -189h-92l139 232q-82 74 -121 184.5t-39 233.5z M215 508q0 -213 102 -328l580 948q-76 50 -178 50q-98 0 -182.5 -41.5t-142.5 -110t-99 -156.5t-60.5 -180t-19.5 -182zM379 131q78 -55 186 -55q99 0 183.5 41.5t142 109t99 155.5t60.5 180t19 183q0 221 -108 334z" />
<glyph unicode="&#xd9;" horiz-adv-x="1085" d="M94 348q0 22 4 62l119 843h107l-119 -843q-2 -14 -2 -45q0 -118 76.5 -199.5t193.5 -81.5q131 0 236.5 97.5t124.5 228.5l116 843h107l-119 -843q-25 -177 -163 -303.5t-316 -126.5q-159 0 -262 104.5t-103 263.5zM541 1692h129l67 -258h-98z" />
<glyph unicode="&#xda;" horiz-adv-x="1085" d="M94 348q0 22 4 62l119 843h107l-119 -843q-2 -14 -2 -45q0 -118 76.5 -199.5t193.5 -81.5q131 0 236.5 97.5t124.5 228.5l116 843h107l-119 -843q-25 -177 -163 -303.5t-316 -126.5q-159 0 -262 104.5t-103 263.5zM600 1434l139 258h129l-170 -258h-98z" />
<glyph unicode="&#xdb;" horiz-adv-x="1085" d="M94 348q0 22 4 62l119 843h107l-119 -843q-2 -14 -2 -45q0 -118 76.5 -199.5t193.5 -81.5q131 0 236.5 97.5t124.5 228.5l116 843h107l-119 -843q-25 -177 -163 -303.5t-316 -126.5q-159 0 -262 104.5t-103 263.5zM485 1434l160 274h111l84 -274h-86l-64 200l-121 -200 h-84z" />
<glyph unicode="&#xdc;" horiz-adv-x="1085" d="M94 348q0 22 4 62l119 843h107l-119 -843q-2 -14 -2 -45q0 -118 76.5 -199.5t193.5 -81.5q131 0 236.5 97.5t124.5 228.5l116 843h107l-119 -843q-25 -177 -163 -303.5t-316 -126.5q-159 0 -262 104.5t-103 263.5zM375 1489q0 36 28 64t64 28q29 0 48.5 -20.5t19.5 -49.5 q0 -36 -27.5 -63t-63.5 -27q-30 0 -49.5 19t-19.5 49zM803 1489q0 35 28.5 63.5t65.5 28.5q29 0 48.5 -20.5t19.5 -49.5q0 -36 -27.5 -63t-63.5 -27q-30 0 -50.5 19t-20.5 49z" />
<glyph unicode="&#xdd;" horiz-adv-x="1024" d="M98 1253h115l283 -538l436 538h115l-512 -645l-84 -608h-109l86 608zM547 1436l141 258h129l-172 -258h-98z" />
<glyph unicode="&#xde;" horiz-adv-x="985" d="M90 0l193 1358h98l-43 -309q20 0 64 1q208 3 306 -19q236 -51 236 -263q0 -20 -4 -66q-10 -72 -36.5 -128t-64 -91.5t-85.5 -61t-102 -37t-113 -18.5t-119 -6t-120 0h-58l-52 -360h-100zM256 459h190q67 0 119.5 6t107 24t90 49t58.5 84.5t23 125.5q0 44 -13.5 78.5 t-39.5 55.5t-54.5 35t-68.5 20.5t-72.5 8.5t-73.5 2h-198z" />
<glyph unicode="&#xdf;" horiz-adv-x="983" d="M90 0l115 813q14 93 48 174t88 145.5t134 102t176 37.5q53 0 101 -12t89.5 -36.5t66 -68t24.5 -100.5q0 -53 -22 -99.5t-53 -79.5t-62.5 -61.5t-53.5 -57.5t-22 -55q0 -27 24 -55.5t57.5 -57.5t67.5 -62.5t58 -83.5t24 -107q0 -139 -110 -247.5t-250 -108.5 q-47 0 -100 15.5t-91 41.5l50 88q77 -47 149 -47q97 0 171.5 80.5t74.5 177.5q0 43 -18 80t-44.5 61t-57.5 49.5t-57.5 47t-44.5 52.5t-18 66q0 36 16 68.5t40.5 55t53 48t53 48t40.5 55t16 69.5q0 70 -56 105t-130 35q-93 0 -165 -53.5t-110.5 -131.5t-50.5 -170l-114 -821 h-107z" />
<glyph unicode="&#xe0;" horiz-adv-x="1122" d="M104 426q0 93 23 185t69.5 174t110.5 145t151.5 100t186.5 37q86 0 173 -37.5t134 -103.5l17 114h110l-96 -678q-10 -65 -10 -116q0 -33 5 -61.5t16.5 -57t36 -44.5t59.5 -15l-43 -88q-40 0 -70 13.5t-51.5 41t-34 52.5t-27.5 65q-67 -81 -167 -126.5t-208 -45.5 q-94 0 -168.5 36t-121 98t-71 141.5t-24.5 170.5zM211 449q0 -100 32.5 -181.5t105 -134.5t173.5 -53q82 0 165 39.5t144 103.5q30 36 33 49q8 36 17.5 109t11.5 88q5 40 20 138t21 151v10q0 60 -51.5 107.5t-116.5 69.5t-121 22q-130 0 -231.5 -79.5t-152 -196.5 t-50.5 -242zM600 1518h129l66 -258h-97z" />
<glyph unicode="&#xe1;" horiz-adv-x="1122" d="M104 426q0 93 23 185t69.5 174t110.5 145t151.5 100t186.5 37q86 0 173 -37.5t134 -103.5l17 114h110l-96 -678q-10 -65 -10 -116q0 -33 5 -61.5t16.5 -57t36 -44.5t59.5 -15l-43 -88q-40 0 -70 13.5t-51.5 41t-34 52.5t-27.5 65q-67 -81 -167 -126.5t-208 -45.5 q-94 0 -168.5 36t-121 98t-71 141.5t-24.5 170.5zM211 449q0 -100 32.5 -181.5t105 -134.5t173.5 -53q82 0 165 39.5t144 103.5q30 36 33 49q8 36 17.5 109t11.5 88q5 40 20 138t21 151v10q0 60 -51.5 107.5t-116.5 69.5t-121 22q-130 0 -231.5 -79.5t-152 -196.5 t-50.5 -242zM674 1253l139 258h129l-172 -258h-96z" />
<glyph unicode="&#xe2;" horiz-adv-x="1122" d="M104 426q0 93 23 185t69.5 174t110.5 145t151.5 100t186.5 37q86 0 173 -37.5t134 -103.5l17 114h110l-96 -678q-10 -65 -10 -116q0 -33 5 -61.5t16.5 -57t36 -44.5t59.5 -15l-43 -88q-40 0 -70 13.5t-51.5 41t-34 52.5t-27.5 65q-67 -81 -167 -126.5t-208 -45.5 q-94 0 -168.5 36t-121 98t-71 141.5t-24.5 170.5zM211 449q0 -100 32.5 -181.5t105 -134.5t173.5 -53q82 0 165 39.5t144 103.5q30 36 33 49q8 36 17.5 109t11.5 88q5 40 20 138t21 151v10q0 60 -51.5 107.5t-116.5 69.5t-121 22q-130 0 -231.5 -79.5t-152 -196.5 t-50.5 -242zM549 1253l160 275h112l82 -275h-84l-65 201l-119 -201h-86z" />
<glyph unicode="&#xe3;" horiz-adv-x="1130" d="M104 426q0 93 23 185t69.5 174t110.5 145t151.5 100t186.5 37q86 0 173 -37.5t134 -103.5l17 114h110l-96 -678q-10 -65 -10 -116q0 -33 5 -61.5t16.5 -57t36 -44.5t59.5 -15l-43 -88q-40 0 -70 13.5t-51.5 41t-34 52.5t-27.5 65q-67 -81 -167 -126.5t-208 -45.5 q-94 0 -168.5 36t-121 98t-71 141.5t-24.5 170.5zM211 449q0 -100 32.5 -181.5t105 -134.5t173.5 -53q82 0 165 39.5t144 103.5q30 36 33 49q8 36 17.5 109t11.5 88q5 40 20 138t21 151v10q0 60 -51.5 107.5t-116.5 69.5t-121 22q-130 0 -231.5 -79.5t-152 -196.5 t-50.5 -242zM377 1325q42 61 107.5 97t136.5 36q49 0 131.5 -31.5t130.5 -31.5q87 0 133 69l78 -39q-36 -56 -90.5 -88t-120.5 -32q-58 0 -139.5 31.5t-129.5 31.5q-103 0 -165 -88z" />
<glyph unicode="&#xe4;" horiz-adv-x="1122" d="M104 426q0 93 23 185t69.5 174t110.5 145t151.5 100t186.5 37q86 0 173 -37.5t134 -103.5l17 114h110l-96 -678q-10 -65 -10 -116q0 -33 5 -61.5t16.5 -57t36 -44.5t59.5 -15l-43 -88q-40 0 -70 13.5t-51.5 41t-34 52.5t-27.5 65q-67 -81 -167 -126.5t-208 -45.5 q-94 0 -168.5 36t-121 98t-71 141.5t-24.5 170.5zM211 449q0 -100 32.5 -181.5t105 -134.5t173.5 -53q82 0 165 39.5t144 103.5q30 36 33 49q8 36 17.5 109t11.5 88q5 40 20 138t21 151v10q0 60 -51.5 107.5t-116.5 69.5t-121 22q-130 0 -231.5 -79.5t-152 -196.5 t-50.5 -242zM475 1380q0 36 27.5 64.5t62.5 28.5q30 0 50 -20t20 -50q0 -36 -27 -63t-63 -27q-30 0 -50 19t-20 48zM903 1380q0 36 28.5 64.5t63.5 28.5q30 0 50 -20t20 -50q0 -37 -27.5 -63.5t-64.5 -26.5q-30 0 -50 19t-20 48z" />
<glyph unicode="&#xe5;" horiz-adv-x="1122" d="M104 426q0 93 23 185t69.5 174t110.5 145t151.5 100t186.5 37q86 0 173 -37.5t134 -103.5l17 114h110l-96 -678q-10 -65 -10 -116q0 -33 5 -61.5t16.5 -57t36 -44.5t59.5 -15l-43 -88q-40 0 -70 13.5t-51.5 41t-34 52.5t-27.5 65q-67 -81 -167 -126.5t-208 -45.5 q-94 0 -168.5 36t-121 98t-71 141.5t-24.5 170.5zM211 449q0 -100 32.5 -181.5t105 -134.5t173.5 -53q82 0 165 39.5t144 103.5q30 36 33 49q8 36 17.5 109t11.5 88q5 40 20 138t21 151v10q0 60 -51.5 107.5t-116.5 69.5t-121 22q-130 0 -231.5 -79.5t-152 -196.5 t-50.5 -242zM532 1374q0 83 62.5 143t144.5 60q66 0 111 -43t45 -109q0 -82 -61.5 -143t-143.5 -61q-68 0 -113 43t-45 110zM612 1389q0 -37 25 -64t61 -27q43 0 81 35.5t38 77.5q0 37 -26.5 62.5t-63.5 25.5q-43 0 -79 -34t-36 -76z" />
<glyph unicode="&#xe6;" horiz-adv-x="1617" d="M104 270q0 165 119.5 285.5t284.5 120.5q68 0 153 -25.5t125 -66.5q15 77 15 116q0 269 -230 269q-74 0 -152.5 -32.5t-139.5 -84.5l-27 82q65 57 157.5 93t176.5 36q131 0 203 -60t94 -188q151 248 424 248q122 0 200 -76.5t78 -198.5q0 -69 -27.5 -123.5t-71.5 -89 t-103.5 -57.5t-119 -32t-122.5 -9q-156 0 -256 76q-17 -96 -17 -137q0 -140 78 -241t213 -101q78 0 162 30t139 82l37 -80q-62 -59 -160.5 -92.5t-191.5 -33.5q-104 0 -187 44.5t-131 133.5q-78 -78 -192 -128t-221 -50q-140 0 -225 76.5t-85 213.5zM209 295 q0 -104 61 -166.5t164 -62.5q91 0 187.5 46.5t166.5 116.5q-22 73 -22 164q0 43 6 90q-53 50 -123 78.5t-141 28.5q-116 0 -207.5 -90t-91.5 -205zM909 639q31 -34 108.5 -55t135.5 -21q46 0 90.5 6.5t89.5 23.5t78.5 42t54.5 66t21 92q0 83 -58.5 131.5t-144.5 48.5 q-266 0 -375 -334z" />
<glyph unicode="&#xe7;" horiz-adv-x="1007" d="M104 426q0 94 25.5 186t74.5 172.5t116 142.5t155.5 98t186.5 36q86 0 176 -33t141 -94l-59 -76q-43 51 -119 80t-148 29q-90 0 -173.5 -47t-142 -120.5t-93.5 -164t-35 -176.5q0 -98 34.5 -183.5t108.5 -142.5t174 -57q75 0 159 30t138 78l39 -75q-126 -111 -358 -129 l-142 -273l-122 10l174 273q-102 21 -173.5 87.5t-104 155.5t-32.5 193z" />
<glyph unicode="&#xe8;" horiz-adv-x="954" d="M104 406q0 95 21.5 188.5t66 178t107 149.5t150 103t188.5 38q122 0 203.5 -72.5t81.5 -191.5q0 -71 -26.5 -127.5t-69 -92.5t-101 -59.5t-119 -33t-125.5 -9.5q-69 0 -138.5 19t-119.5 57q-18 -81 -18 -137q0 -91 32 -167.5t100 -126.5t161 -50q78 0 161.5 31t137.5 83 l37 -80q-62 -59 -161 -92.5t-192 -33.5q-123 0 -209.5 58t-127 152.5t-40.5 215.5zM246 639q31 -33 109 -54.5t134 -21.5q46 0 90.5 6.5t89.5 23.5t78.5 42t54.5 66t21 92q0 83 -57.5 131.5t-142.5 48.5q-268 0 -377 -334zM537 1518h129l65 -258h-96z" />
<glyph unicode="&#xe9;" horiz-adv-x="954" d="M104 406q0 95 21.5 188.5t66 178t107 149.5t150 103t188.5 38q122 0 203.5 -72.5t81.5 -191.5q0 -71 -26.5 -127.5t-69 -92.5t-101 -59.5t-119 -33t-125.5 -9.5q-69 0 -138.5 19t-119.5 57q-18 -81 -18 -137q0 -91 32 -167.5t100 -126.5t161 -50q78 0 161.5 31t137.5 83 l37 -80q-62 -59 -161 -92.5t-192 -33.5q-123 0 -209.5 58t-127 152.5t-40.5 215.5zM246 639q31 -33 109 -54.5t134 -21.5q46 0 90.5 6.5t89.5 23.5t78.5 42t54.5 66t21 92q0 83 -57.5 131.5t-142.5 48.5q-268 0 -377 -334zM633 1255l127 258h141l-172 -258h-96z" />
<glyph unicode="&#xea;" horiz-adv-x="954" d="M104 406q0 95 21.5 188.5t66 178t107 149.5t150 103t188.5 38q122 0 203.5 -72.5t81.5 -191.5q0 -71 -26.5 -127.5t-69 -92.5t-101 -59.5t-119 -33t-125.5 -9.5q-69 0 -138.5 19t-119.5 57q-18 -81 -18 -137q0 -91 32 -167.5t100 -126.5t161 -50q78 0 161.5 31t137.5 83 l37 -80q-62 -59 -161 -92.5t-192 -33.5q-123 0 -209.5 58t-127 152.5t-40.5 215.5zM246 639q31 -33 109 -54.5t134 -21.5q46 0 90.5 6.5t89.5 23.5t78.5 42t54.5 66t21 92q0 83 -57.5 131.5t-142.5 48.5q-268 0 -377 -334zM481 1253l160 275h113l82 -275h-84l-66 201 l-119 -201h-86z" />
<glyph unicode="&#xeb;" horiz-adv-x="1011" d="M104 406q0 95 21.5 188.5t66 178t107 149.5t150 103t188.5 38q122 0 203.5 -72.5t81.5 -191.5q0 -71 -26.5 -127.5t-69 -92.5t-101 -59.5t-119 -33t-125.5 -9.5q-69 0 -138.5 19t-119.5 57q-18 -81 -18 -137q0 -91 32 -167.5t100 -126.5t161 -50q78 0 161.5 31t137.5 83 l37 -80q-62 -59 -161 -92.5t-192 -33.5q-123 0 -209.5 58t-127 152.5t-40.5 215.5zM246 639q31 -33 109 -54.5t134 -21.5q46 0 90.5 6.5t89.5 23.5t78.5 42t54.5 66t21 92q0 83 -57.5 131.5t-142.5 48.5q-268 0 -377 -334zM381 1378q0 36 28 64t64 28q29 0 48.5 -20 t19.5 -49q0 -35 -27.5 -62.5t-62.5 -27.5q-30 0 -50 19t-20 48zM809 1378q0 37 28.5 64.5t65.5 27.5q29 0 48.5 -20t19.5 -49q0 -35 -27.5 -62.5t-62.5 -27.5q-30 0 -51 19t-21 48z" />
<glyph unicode="&#xec;" horiz-adv-x="385" d="M94 0l148 1042h98l-145 -1042h-101zM172 1513h129l68 -258h-99z" />
<glyph unicode="&#xed;" horiz-adv-x="399" d="M94 0l148 1042h98l-145 -1042h-101zM276 1255l140 258h129l-170 -258h-99z" />
<glyph unicode="&#xee;" horiz-adv-x="411" d="M94 0l148 1042h98l-145 -1042h-101zM145 1253l160 275h109l84 -275h-80l-68 203l-123 -203h-82z" />
<glyph unicode="&#xef;" horiz-adv-x="354" d="M47 1378q0 35 27.5 63.5t62.5 28.5q31 0 50.5 -20t19.5 -49q0 -35 -27.5 -62.5t-62.5 -27.5q-30 0 -50 19t-20 48zM96 0l148 1042h98l-145 -1042h-101zM475 1378q0 36 28 64t64 28q31 0 50.5 -20t19.5 -49q0 -35 -27.5 -62.5t-64.5 -27.5q-30 0 -50 19t-20 48z" />
<glyph unicode="&#xf0;" horiz-adv-x="897" d="M104 338q0 94 30.5 185.5t84.5 166t138 120.5t182 46q36 0 77 -11t66 -30l-160 313l-194 -116l-27 53l197 121l-117 246h119l88 -191l174 107l29 -54l-179 -108q13 -27 40.5 -77t37.5 -69q176 -347 176 -553q0 -123 -54.5 -238.5t-158 -192t-229.5 -76.5 q-150 0 -235 102.5t-85 255.5zM201 356q0 -116 61 -203t172 -87q76 0 141.5 39t107 101t64.5 135.5t23 145.5q0 121 -60.5 201t-177.5 80q-59 0 -112 -25.5t-92.5 -67.5t-68.5 -95.5t-43.5 -111t-14.5 -112.5z" />
<glyph unicode="&#xf1;" horiz-adv-x="1044" d="M90 0l146 1042h100l-27 -192q43 93 135.5 154t192.5 61q154 0 231.5 -84t77.5 -240q0 -38 -8 -108l-90 -633h-96l75 539q13 80 13 145q0 130 -54.5 201t-181.5 71q-63 0 -116.5 -26t-90 -67.5t-65 -97.5t-44 -111.5t-24.5 -114.5l-74 -539h-100zM303 1325q42 61 107.5 97 t138.5 36q49 0 131.5 -31.5t130.5 -31.5q84 0 133 69l78 -39q-82 -120 -211 -120q-59 0 -139.5 31.5t-128.5 31.5q-107 0 -166 -88z" />
<glyph unicode="&#xf2;" horiz-adv-x="1075" d="M104 420q0 92 24 184t71.5 174t112 145.5t152 100.5t185.5 37q124 0 214.5 -60.5t134.5 -159t44 -220.5q0 -92 -24 -184.5t-71.5 -175t-111.5 -146t-151.5 -101t-185.5 -37.5q-123 0 -214 61.5t-135.5 160.5t-44.5 221zM209 446q0 -93 32.5 -176.5t103 -141.5t165.5 -58 q93 0 175.5 50t136.5 128t85 171t31 181q0 96 -31 177t-101 135.5t-169 54.5q-72 0 -140 -32.5t-119 -86.5t-90 -121.5t-59 -140.5t-20 -140zM561 1513h129l68 -258h-96z" />
<glyph unicode="&#xf3;" horiz-adv-x="1075" d="M104 420q0 92 24 184t71.5 174t112 145.5t152 100.5t185.5 37q124 0 214.5 -60.5t134.5 -159t44 -220.5q0 -92 -24 -184.5t-71.5 -175t-111.5 -146t-151.5 -101t-185.5 -37.5q-123 0 -214 61.5t-135.5 160.5t-44.5 221zM209 446q0 -93 32.5 -176.5t103 -141.5t165.5 -58 q93 0 175.5 50t136.5 128t85 171t31 181q0 96 -31 177t-101 135.5t-169 54.5q-72 0 -140 -32.5t-119 -86.5t-90 -121.5t-59 -140.5t-20 -140zM621 1255l139 258h129l-172 -258h-96z" />
<glyph unicode="&#xf4;" horiz-adv-x="1075" d="M104 420q0 92 24 184t71.5 174t112 145.5t152 100.5t185.5 37q124 0 214.5 -60.5t134.5 -159t44 -220.5q0 -92 -24 -184.5t-71.5 -175t-111.5 -146t-151.5 -101t-185.5 -37.5q-123 0 -214 61.5t-135.5 160.5t-44.5 221zM209 446q0 -93 32.5 -176.5t103 -141.5t165.5 -58 q93 0 175.5 50t136.5 128t85 171t31 181q0 96 -31 177t-101 135.5t-169 54.5q-72 0 -140 -32.5t-119 -86.5t-90 -121.5t-59 -140.5t-20 -140zM502 1253l160 275h112l82 -275h-84l-65 201l-121 -201h-84z" />
<glyph unicode="&#xf5;" horiz-adv-x="1132" d="M156 420q0 116 39 230t107.5 205.5t173.5 148.5t226 57q123 0 214 -60.5t135.5 -159t44.5 -220.5q0 -92 -24 -184.5t-72 -175t-113 -146t-152.5 -101t-185.5 -37.5q-123 0 -213.5 61.5t-135 160.5t-44.5 221zM262 446q0 -68 19.5 -134t55.5 -120.5t95 -88t131 -33.5 q93 0 175 50t135.5 128t84.5 171t31 181q0 96 -31 177t-101 135.5t-169 54.5q-72 0 -139.5 -32.5t-118.5 -86.5t-89.5 -121.5t-58.5 -140.5t-20 -140zM383 1278q42 61 107.5 98t136.5 37q51 0 133.5 -32.5t128.5 -32.5q86 0 135 69l78 -39q-38 -56 -92.5 -88.5t-118.5 -32.5 q-59 0 -140.5 32t-129.5 32q-104 0 -166 -88z" />
<glyph unicode="&#xf6;" horiz-adv-x="1075" d="M104 420q0 92 24 184t71.5 174t112 145.5t152 100.5t185.5 37q124 0 214.5 -60.5t134.5 -159t44 -220.5q0 -92 -24 -184.5t-71.5 -175t-111.5 -146t-151.5 -101t-185.5 -37.5q-123 0 -214 61.5t-135.5 160.5t-44.5 221zM209 446q0 -93 32.5 -176.5t103 -141.5t165.5 -58 q93 0 175.5 50t136.5 128t85 171t31 181q0 96 -31 177t-101 135.5t-169 54.5q-72 0 -140 -32.5t-119 -86.5t-90 -121.5t-59 -140.5t-20 -140zM401 1378q0 36 28.5 64t64.5 28q29 0 48 -20t19 -49q0 -35 -27.5 -62.5t-62.5 -27.5q-30 0 -50 19t-20 48zM829 1378q0 36 29 64 t66 28q29 0 48 -20t19 -49q0 -35 -27.5 -62.5t-62.5 -27.5q-30 0 -51 19t-21 48z" />
<glyph unicode="&#xf7;" horiz-adv-x="770" d="M70 537l14 96h764l-14 -96h-764zM319 193q0 37 29.5 65.5t67.5 28.5q31 0 51 -20.5t20 -51.5q0 -38 -28.5 -66t-65.5 -28q-31 0 -52.5 20t-21.5 52zM426 946q0 38 29 67t67 29q31 0 51.5 -20t20.5 -51q0 -38 -29 -67.5t-67 -29.5q-31 0 -51.5 20.5t-20.5 51.5z" />
<glyph unicode="&#xf8;" horiz-adv-x="1153" d="M121 -238l178 293q-78 63 -116 158t-38 203q0 117 38.5 231t107 206t173.5 149t226 57q99 0 182 -47l152 254h82l-174 -291q76 -63 113.5 -157.5t37.5 -201.5q0 -92 -24 -184.5t-71.5 -174t-112 -145t-152 -100.5t-184.5 -37q-99 0 -181 43l-155 -256h-82zM250 444 q0 -178 104 -288l469 768q-61 41 -145 41q-72 0 -140 -32.5t-119 -86.5t-90 -121.5t-59 -140.5t-20 -140zM410 111q61 -43 141 -43q94 0 176.5 50t136.5 128t84.5 170.5t30.5 181.5q0 182 -98 283z" />
<glyph unicode="&#xf9;" horiz-adv-x="976" d="M90 307q0 60 8 107l86 628h99l-76 -542q-12 -98 -12 -148q0 -129 54 -199.5t181 -70.5q64 0 117.5 26t90 67t64.5 97.5t43.5 112t24.5 115.5l78 542h98l-145 -1042h-99l27 190q-43 -91 -137 -152t-193 -61q-156 0 -232.5 86t-76.5 244zM473 1513h129l66 -258h-97z" />
<glyph unicode="&#xfa;" horiz-adv-x="976" d="M90 307q0 60 8 107l86 628h99l-76 -542q-12 -98 -12 -148q0 -129 54 -199.5t181 -70.5q64 0 117.5 26t90 67t64.5 97.5t43.5 112t24.5 115.5l78 542h98l-145 -1042h-99l27 190q-43 -91 -137 -152t-193 -61q-156 0 -232.5 86t-76.5 244zM526 1255l140 258h129l-172 -258 h-97z" />
<glyph unicode="&#xfb;" horiz-adv-x="976" d="M90 307q0 60 8 107l86 628h99l-76 -542q-12 -98 -12 -148q0 -129 54 -199.5t181 -70.5q64 0 117.5 26t90 67t64.5 97.5t43.5 112t24.5 115.5l78 542h98l-145 -1042h-99l27 190q-43 -91 -137 -152t-193 -61q-156 0 -232.5 86t-76.5 244zM418 1253l160 275h112l82 -275h-84 l-63 201l-121 -201h-86z" />
<glyph unicode="&#xfc;" horiz-adv-x="976" d="M90 307q0 60 8 107l86 628h99l-76 -542q-12 -98 -12 -148q0 -129 54 -199.5t181 -70.5q64 0 117.5 26t90 67t64.5 97.5t43.5 112t24.5 115.5l78 542h98l-145 -1042h-99l27 190q-43 -91 -137 -152t-193 -61q-156 0 -232.5 86t-76.5 244zM319 1378q0 35 28 63.5t63 28.5 q29 0 49 -20t20 -49q0 -35 -27.5 -62.5t-64.5 -27.5q-29 0 -48.5 19t-19.5 48zM748 1378q0 36 28 64t64 28q29 0 49 -20t20 -49q0 -35 -27.5 -62.5t-64.5 -27.5q-29 0 -49 19t-20 48z" />
<glyph unicode="&#xfd;" horiz-adv-x="944" d="M4 -319l57 77q60 -39 105 -39q37 0 76.5 33.5t70.5 84t53.5 97.5t34.5 86l-206 1022h106l176 -860l420 860h104q-49 -100 -226 -468.5t-275 -567.5q-9 -19 -30 -65t-35 -73.5t-37.5 -69.5t-46.5 -68t-52.5 -52t-65 -38.5t-75.5 -12.5q-33 0 -84 16t-70 38zM573 1255 l140 258h129l-170 -258h-99z" />
<glyph unicode="&#xfe;" horiz-adv-x="1062" d="M47 -276l240 1710h100l-68 -480q66 50 151 80.5t165 30.5q183 0 286 -116.5t103 -301.5q0 -91 -23.5 -185t-70.5 -180t-111 -153.5t-152 -108t-186 -40.5q-158 0 -282 114l-54 -370h-98zM215 213q40 -63 115.5 -100t152.5 -37q79 0 150 33t122 88.5t88.5 126t56 147 t18.5 150.5q0 149 -82.5 248.5t-227.5 99.5q-75 0 -160.5 -35t-144.5 -88z" />
<glyph unicode="&#xff;" horiz-adv-x="944" d="M4 -319l57 77q60 -39 105 -39q37 0 76.5 33.5t70.5 84t53.5 97.5t34.5 86l-206 1022h106l176 -860l420 860h104q-49 -100 -226 -468.5t-275 -567.5q-9 -19 -30 -65t-35 -73.5t-37.5 -69.5t-46.5 -68t-52.5 -52t-65 -38.5t-75.5 -12.5q-33 0 -84 16t-70 38zM350 1378 q0 35 27.5 63.5t62.5 28.5q29 0 49.5 -20t20.5 -49q0 -35 -27.5 -62.5t-64.5 -27.5q-29 0 -48.5 19t-19.5 48zM778 1378q0 36 28 64t64 28q29 0 49.5 -20t20.5 -49q0 -35 -27.5 -62.5t-64.5 -27.5q-30 0 -50 19t-20 48z" />
<glyph unicode="&#x152;" horiz-adv-x="1925" d="M100 516q0 108 27 218t81.5 210t129 178t177 124t218.5 46q135 0 235 -71.5t150 -200.5l33 233h745l-14 -98h-639l-61 -444h518l-12 -93h-521l-73 -520h641l-15 -98h-745l37 266q-81 -124 -200 -196t-261 -72q-110 0 -197.5 41t-142 113t-83 164.5t-28.5 199.5zM213 524 q0 -87 20 -162t61 -136t110.5 -96.5t160.5 -35.5q98 0 182.5 41.5t143 109.5t100 156t61 180.5t19.5 182.5q0 87 -20 162t-61 136t-110.5 96.5t-160.5 35.5q-98 0 -182.5 -41.5t-143 -109.5t-100 -156t-61 -180.5t-19.5 -182.5z" />
<glyph unicode="&#x153;" horiz-adv-x="1783" d="M104 420q0 92 24 184t71.5 174t112 145.5t152 100.5t185.5 37q142 0 237.5 -77t133.5 -205q69 129 181.5 205.5t260.5 76.5q121 0 203 -73t82 -193q0 -71 -26 -127.5t-69 -92.5t-101 -59.5t-118.5 -33t-125.5 -9.5q-157 0 -260 76q-17 -96 -17 -137q0 -91 32 -167 t100 -125.5t161 -49.5q77 0 161 30.5t138 81.5l37 -78q-63 -60 -162 -94.5t-190 -34.5q-144 0 -236.5 77t-125.5 206q-74 -128 -188.5 -204.5t-258.5 -76.5q-123 0 -214 61.5t-135.5 160.5t-44.5 221zM209 446q0 -93 32.5 -176.5t103 -141.5t165.5 -58q93 0 175.5 50 t136.5 128t85 171t31 181q0 96 -31 177t-101 135.5t-169 54.5q-72 0 -140 -32.5t-119 -86.5t-90 -121.5t-59 -140.5t-20 -140zM1069 635q32 -34 110 -55t134 -21q59 0 114 11.5t106.5 36.5t82.5 71.5t31 109.5q0 84 -58 133.5t-143 49.5q-268 -3 -377 -336z" />
<glyph unicode="&#x178;" horiz-adv-x="1024" d="M98 1253h115l283 -538l436 538h115l-512 -645l-84 -608h-109l86 608zM311 1489q0 37 27.5 64.5t62.5 27.5q31 0 50.5 -19.5t19.5 -48.5q0 -37 -27.5 -64.5t-64.5 -27.5q-29 0 -48.5 19.5t-19.5 48.5zM739 1491q0 35 28.5 62.5t63.5 27.5q29 0 49.5 -19.5t20.5 -48.5 q0 -37 -27.5 -64.5t-64.5 -27.5q-30 0 -50 20t-20 50z" />
<glyph unicode="&#x2c6;" horiz-adv-x="1116" d="M557 1253l160 275h112l82 -275h-84l-63 201l-121 -201h-86z" />
<glyph unicode="&#x2dc;" horiz-adv-x="1093" d="M350 1376q42 60 107.5 96.5t136.5 36.5q49 0 131.5 -31.5t130.5 -31.5q86 0 133 70l78 -39q-77 -121 -211 -121q-58 0 -139 31.5t-129 31.5q-104 0 -166 -88z" />
<glyph unicode="&#x2000;" horiz-adv-x="857" />
<glyph unicode="&#x2001;" horiz-adv-x="1714" />
<glyph unicode="&#x2002;" horiz-adv-x="857" />
<glyph unicode="&#x2003;" horiz-adv-x="1714" />
<glyph unicode="&#x2004;" horiz-adv-x="571" />
<glyph unicode="&#x2005;" horiz-adv-x="428" />
<glyph unicode="&#x2006;" horiz-adv-x="285" />
<glyph unicode="&#x2007;" horiz-adv-x="285" />
<glyph unicode="&#x2008;" horiz-adv-x="214" />
<glyph unicode="&#x2009;" horiz-adv-x="342" />
<glyph unicode="&#x200a;" horiz-adv-x="95" />
<glyph unicode="&#x2010;" d="M94 561l15 94h751l-14 -94h-752z" />
<glyph unicode="&#x2011;" d="M94 561l15 94h751l-14 -94h-752z" />
<glyph unicode="&#x2012;" d="M94 561l15 94h751l-14 -94h-752z" />
<glyph unicode="&#x2013;" horiz-adv-x="1054" d="M90 588l12 94h953l-15 -94h-950z" />
<glyph unicode="&#x2014;" horiz-adv-x="1720" d="M90 588l12 94h1606l-14 -94h-1604z" />
<glyph unicode="&#x2018;" horiz-adv-x="278" d="M94 1061q0 79 52.5 156.5t127.5 91.5l11 -62q-46 -9 -75.5 -44t-37.5 -83q24 6 27 6q31 0 51 -18.5t20 -50.5q0 -38 -30.5 -67t-67.5 -29q-41 0 -59.5 29t-18.5 71z" />
<glyph unicode="&#x2019;" horiz-adv-x="276" d="M102 995q45 9 74 43.5t39 83.5q-16 -4 -29 -4q-29 0 -49 19.5t-20 48.5q0 37 28 66.5t66 29.5q37 0 58.5 -36t21.5 -75q0 -74 -53.5 -148t-124.5 -89q-2 10 -5.5 30.5t-5.5 30.5z" />
<glyph unicode="&#x201a;" horiz-adv-x="331" d="M102 -133q47 9 77 44.5t40 84.5q-16 -4 -29 -4q-33 0 -53 21.5t-20 54.5q0 38 31 69t69 31t62 -38.5t24 -78.5q0 -78 -56 -156.5t-130 -93.5q-4 25 -15 66z" />
<glyph unicode="&#x201c;" horiz-adv-x="688" d="M94 1116q0 38 12 77t41.5 69t69.5 30q33 0 56.5 -22.5t23.5 -55.5q0 -40 -29 -69t-69 -29q-11 0 -27 4v-16q0 -96 78 -113l-29 -65q-59 13 -93 69.5t-34 120.5zM453 1116q0 39 11.5 77t40 68.5t68.5 30.5q34 0 57 -22t23 -56q0 -40 -29 -69t-69 -29q-7 0 -27 4v-16 q0 -43 20 -73.5t60 -39.5l-30 -65q-59 13 -92 69.5t-33 120.5z" />
<glyph unicode="&#x201d;" horiz-adv-x="538" d="M102 991q47 9 77 44.5t40 84.5q-39 -11 -68.5 10t-29.5 62q0 39 32.5 68.5t71.5 29.5q42 0 61 -31.5t19 -76.5q0 -80 -56 -161t-132 -95zM438 991q47 9 77 44.5t40 84.5q-39 -11 -68.5 10t-29.5 62q0 39 32 68.5t70 29.5q43 0 61.5 -31.5t18.5 -76.5q0 -81 -55 -161.5 t-131 -94.5z" />
<glyph unicode="&#x201e;" horiz-adv-x="622" d="M43 -133q47 9 77 44.5t40 84.5q-16 -4 -29 -4q-33 0 -53.5 21.5t-20.5 54.5q0 38 31.5 69t69.5 31t62 -38.5t24 -78.5q0 -78 -56.5 -156.5t-130.5 -93.5q-6 37 -14 66zM379 -133q47 9 77 44.5t40 84.5q-16 -4 -29 -4q-33 0 -53.5 21.5t-20.5 54.5q0 38 31.5 69t69.5 31 t62 -38.5t24 -78.5q0 -78 -56.5 -156.5t-130.5 -93.5q-3 11 -7 32.5t-7 33.5z" />
<glyph unicode="&#x2022;" horiz-adv-x="372" d="M156 643q0 54 39.5 93.5t93.5 39.5q43 0 71.5 -27.5t28.5 -70.5q0 -54 -39.5 -93.5t-93.5 -39.5q-43 0 -71.5 27.5t-28.5 70.5z" />
<glyph unicode="&#x2026;" horiz-adv-x="1572" d="M80 55q0 40 31 71.5t71 31.5q33 0 55.5 -22.5t22.5 -55.5q0 -40 -31 -70t-71 -30q-33 0 -55.5 21.5t-22.5 53.5zM707 55q0 40 31 71.5t71 31.5q33 0 55.5 -22.5t22.5 -55.5q0 -39 -31.5 -69.5t-71.5 -30.5q-34 0 -55.5 21.5t-21.5 53.5zM1333 55q0 40 31 71.5t72 31.5 q32 0 53.5 -22t21.5 -56q0 -40 -30 -70t-70 -30q-34 0 -56 21.5t-22 53.5z" />
<glyph unicode="&#x202f;" horiz-adv-x="342" />
<glyph unicode="&#x2039;" horiz-adv-x="522" d="M90 592l295 428h113l-289 -428l168 -428h-111z" />
<glyph unicode="&#x203a;" horiz-adv-x="522" d="M90 162l289 428l-170 428h113l176 -428l-295 -428h-113z" />
<glyph unicode="&#x2044;" horiz-adv-x="657" d="M41 -16l629 1292h104l-629 -1292h-104z" />
<glyph unicode="&#x205f;" horiz-adv-x="428" />
<glyph unicode="&#x2070;" horiz-adv-x="608" d="M23 858q0 69 23.5 140.5t64.5 131.5t104.5 98t136.5 38q58 0 103.5 -24t72.5 -65t40.5 -90t13.5 -104q0 -94 -37.5 -186t-114.5 -157t-174 -65q-114 0 -173.5 82t-59.5 201zM109 866q0 -54 14 -100t51 -79.5t92 -33.5q56 0 102 32t74 81.5t43 104.5t15 106q0 55 -14 100 t-51 78t-93 33t-102.5 -31.5t-74 -80.5t-42 -104t-14.5 -106z" />
<glyph unicode="&#x2074;" horiz-adv-x="552" d="M31 758l8 61l375 436h82l-60 -424h107l-11 -73h-106l-25 -170h-82l25 170h-313zM141 831h213l41 295z" />
<glyph unicode="&#x2075;" horiz-adv-x="507" d="M31 649l55 66q69 -62 145 -62q68 0 120 53t52 121q0 29 -10.5 50t-32 33.5t-42 20t-53.5 10t-53 3t-54 -0.5t-43 -1l51 313h334l-11 -73h-258l-28 -160q45 0 79 -2.5t75.5 -13t68 -29t45 -52.5t18.5 -81q0 -113 -78 -192t-190 -79q-49 0 -101 21t-89 55z" />
<glyph unicode="&#x2076;" horiz-adv-x="493" d="M31 760q0 23 2 35q5 35 46.5 105.5t86 131t100.5 134.5t66 89h94l-184 -254q27 9 55 9q80 0 134 -52t54 -133q0 -105 -76.5 -178.5t-181.5 -73.5q-85 0 -140.5 51t-55.5 136zM113 772q0 -53 36 -88t89 -35q68 0 116.5 48.5t48.5 115.5q0 53 -35.5 86t-88.5 33 q-67 0 -116.5 -47.5t-49.5 -112.5z" />
<glyph unicode="&#x2077;" horiz-adv-x="466" d="M31 590l348 590h-285l12 75h379q-6 -46 -8 -51q-6 -19 -20 -47.5t-26.5 -48.5t-33.5 -53.5t-26 -42.5q-40 -70 -121 -210.5t-121 -211.5h-98z" />
<glyph unicode="&#x2078;" horiz-adv-x="489" d="M33 754q0 64 34.5 122t90.5 91q-43 37 -43 100q0 86 61 145.5t148 59.5q64 0 109.5 -42.5t45.5 -107.5q0 -47 -23.5 -88.5t-62.5 -66.5q38 -24 59 -65.5t21 -86.5q0 -100 -74 -170t-174 -70q-82 0 -137 49t-55 130zM115 768q0 -51 35 -84t86 -33q61 0 108 45.5t47 106.5 q0 46 -35 83.5t-82 37.5q-59 0 -109 -48.5t-50 -107.5zM195 1081q0 -36 26.5 -60t63.5 -24q45 0 78.5 34.5t33.5 80.5q0 37 -23.5 61.5t-60.5 24.5q-47 0 -82.5 -35t-35.5 -82z" />
<glyph unicode="&#x2079;" horiz-adv-x="495" d="M33 1020q0 105 76.5 178.5t181.5 73.5q85 0 139.5 -51t54.5 -136q0 -20 -2 -32q-5 -34 -48 -107t-83 -129t-103 -140t-65 -87h-92l182 252q-24 -6 -53 -6q-82 0 -135 51.5t-53 132.5zM115 1032q0 -53 36 -87t89 -34q66 0 114.5 48t48.5 114q0 54 -34.5 87.5t-87.5 33.5 q-67 0 -116.5 -47.5t-49.5 -114.5z" />
<glyph unicode="&#x207d;" horiz-adv-x="253" d="M80 879q0 127 69.5 235.5t184.5 194.5l8 6l39 -68q-91 -50 -155 -153.5t-64 -206.5q0 -151 127 -262v-9l-53 -57q-72 53 -114 140.5t-42 179.5z" />
<glyph unicode="&#x207e;" horiz-adv-x="292" d="M76 618l2 11q94 65 154.5 158t60.5 198q0 72 -36.5 150.5t-94.5 115.5l57 66q71 -53 113.5 -143t42.5 -181q0 -127 -69.5 -235.5t-182.5 -190.5l-8 -6z" />
<glyph unicode="&#x2080;" horiz-adv-x="612" d="M45 266q0 95 38 187.5t115.5 157.5t174.5 65q112 0 170.5 -83t58.5 -200q0 -69 -22.5 -140.5t-63 -131t-103.5 -97.5t-137 -38q-114 0 -172.5 80.5t-58.5 199.5zM127 276q0 -86 39 -148t121 -62q73 0 128 54t79 125t24 140q0 40 -8 75.5t-25.5 67t-49 50t-73.5 18.5 q-56 0 -102.5 -30.5t-74.5 -79t-43 -103t-15 -107.5z" />
<glyph unicode="&#x2081;" horiz-adv-x="266" d="M33 594l153 74h74l-94 -668h-86l82 573l-115 -53z" />
<glyph unicode="&#x2082;" horiz-adv-x="528" d="M31 0q8 64 18 94q19 55 65 106t98 88.5t101.5 73.5t82 74t32.5 76q0 46 -37 67t-86 21q-87 0 -172 -68l-20 72q89 80 211 80q81 0 137.5 -37.5t56.5 -114.5q0 -57 -33.5 -107.5t-84 -90t-103 -76t-98 -82.5t-60.5 -94h334l-12 -82h-430z" />
<glyph unicode="&#x2083;" horiz-adv-x="534" d="M31 72l51 63q27 -31 71.5 -50t86.5 -19q71 0 119.5 44.5t48.5 114.5q0 25 -9.5 44t-28 29.5t-36.5 17.5t-46 10t-44.5 3.5t-42.5 0.5l10 63l190 197h-266l12 76h377l-10 -68l-186 -195q74 -8 120 -51.5t46 -115.5q0 -105 -80 -177.5t-185 -72.5q-53 0 -110 24t-88 62z " />
<glyph unicode="&#x2084;" horiz-adv-x="552" d="M31 184l8 62l373 422h82l-60 -412h109l-11 -72h-108l-25 -184h-82l27 184h-313zM145 260h209l41 289z" />
<glyph unicode="&#x2085;" horiz-adv-x="507" d="M31 59l55 68q28 -28 67.5 -44.5t77.5 -16.5q70 0 121 52t51 120q0 25 -9.5 44.5t-22.5 32t-36.5 21t-41.5 12.5t-48.5 5.5t-46.5 1t-47 -1.5t-38 -1l53 314h334l-11 -76h-258l-30 -158q46 0 80.5 -2.5t76 -13t68 -29t45 -52.5t18.5 -81q0 -112 -77.5 -190t-190.5 -78 q-49 0 -101 20t-89 53z" />
<glyph unicode="&#x2086;" horiz-adv-x="495" d="M31 170q0 80 55 158q47 68 139 192t109 148h92l-184 -254q36 8 57 8q81 0 133.5 -49.5t52.5 -130.5q0 -107 -74 -181.5t-180 -74.5q-87 0 -143.5 49.5t-56.5 134.5zM115 184q0 -53 37 -87t90 -34q67 0 115.5 47.5t48.5 114.5q0 54 -35.5 87.5t-89.5 33.5 q-65 0 -115.5 -48.5t-50.5 -113.5z" />
<glyph unicode="&#x2087;" horiz-adv-x="462" d="M31 0l344 588h-285l12 80h379l-8 -64l-305 -526q-4 -8 -21.5 -36t-23.5 -42h-92z" />
<glyph unicode="&#x2088;" horiz-adv-x="489" d="M33 160q0 65 35 123.5t92 89.5q-45 40 -45 110q0 81 63.5 138t145.5 57q64 0 109.5 -41.5t45.5 -106.5q0 -46 -23.5 -88t-62.5 -69q38 -24 59 -65t21 -87q0 -99 -74.5 -169t-173.5 -70q-82 0 -137 48.5t-55 129.5zM115 174q0 -50 35.5 -82.5t85.5 -32.5q59 0 107 45.5 t48 104.5q0 47 -35.5 85t-81.5 38q-60 0 -109.5 -49t-49.5 -109zM195 489q0 -38 26 -62t64 -24q44 0 78 35t34 80q0 36 -24 60t-60 24q-46 0 -82 -34t-36 -79z" />
<glyph unicode="&#x2089;" horiz-adv-x="497" d="M33 432q0 105 76.5 177.5t181.5 72.5q85 0 139.5 -50.5t54.5 -133.5q0 -80 -55 -158q-35 -51 -75.5 -107t-92.5 -126.5t-78 -106.5h-92l182 254q-27 -10 -53 -10q-82 0 -135 52.5t-53 135.5zM115 442q0 -53 36 -86.5t89 -33.5q66 0 114.5 48.5t48.5 114.5 q0 52 -34.5 85.5t-87.5 33.5q-66 0 -116 -48t-50 -114z" />
<glyph unicode="&#x208d;" horiz-adv-x="325" d="M76 262q0 128 70 237t184 193l8 8l41 -67q-91 -50 -155 -153.5t-64 -205.5q0 -75 33.5 -143t91.5 -119v-12l-54 -57q-71 55 -113 142t-42 177z" />
<glyph unicode="&#x208e;" horiz-adv-x="325" d="M31 -16l2 10q94 66 153.5 159.5t59.5 198.5q0 73 -35.5 150t-93.5 114l55 68q71 -53 114.5 -144t43.5 -182q0 -125 -70 -233.5t-184 -192.5l-8 -6z" />
<glyph unicode="&#x20ac;" horiz-adv-x="1329" d="M86 459l10 76h156q-5 71 20 163h-151l10 76h164q79 213 263.5 354.5t406.5 141.5q97 0 187 -31.5t148 -95.5l-61 -92q-53 56 -130 87t-155 31q-179 0 -326.5 -111.5t-217.5 -283.5h473l-11 -76h-491q-21 -82 -21 -149v-14h488l-10 -76h-469q27 -171 143.5 -275 t288.5 -104q178 0 317 117l35 -95q-74 -61 -171 -91.5t-200 -30.5q-214 0 -359.5 133t-168.5 346h-168z" />
<glyph unicode="&#x25fc;" horiz-adv-x="1044" d="M0 0v1044h1044v-1044h-1044z" />
<glyph unicode="&#xfb03;" horiz-adv-x="1409" d="M94 -371l185 1321h-142l13 92h141q11 75 37.5 144t69.5 128.5t108 95.5t143 36q98 -4 158 -49l-47 -78q-38 33 -119 33q-58 0 -104 -29t-74.5 -77t-45.5 -98.5t-24 -105.5h318h2h139q11 75 37.5 144t69 128.5t107.5 95.5t144 36q96 -4 156 -49l-45 -78q-40 33 -121 33 q-58 0 -104 -29t-74.5 -77t-45.5 -98.5t-24 -105.5h316h4h96l-145 -1042h-101l133 950h-317l-182 -1321h-101l185 1321h-140h-2h-321l-184 -1321h-99z" />
<glyph horiz-adv-x="915" d="M18 -2l512 1046h109l217 -1046h-108l-62 301h-414l-145 -301h-109zM315 389h355l-107 518z" />
<glyph horiz-adv-x="911" d="M18 0l510 1044h107l217 -1044h-104l-64 301h-414l-145 -301h-107zM311 389h359l-107 520zM592 1255l121 226h121l-150 -226h-92z" />
<glyph horiz-adv-x="905" d="M18 0l508 1042h103l215 -1042h-99l-61 303h-420l-147 -303h-99zM301 385h369l-109 537zM446 1188l140 237h102l72 -237h-82l-51 162l-101 -162h-80z" />
<glyph horiz-adv-x="882" d="M18 0l508 1042h103l215 -1042h-99l-61 303h-420l-147 -303h-99zM301 385h369l-109 537zM358 1247q0 34 25 59t57 25q28 0 46 -17.5t18 -45.5q0 -32 -25 -56.5t-57 -23.5q-28 0 -46 16.5t-18 42.5zM721 1249q0 32 26 57t58 25q27 0 45 -18t18 -45q0 -33 -25.5 -57 t-58.5 -23q-27 0 -45 17t-18 44z" />
<glyph horiz-adv-x="905" d="M18 0l508 1042h103l215 -1042h-99l-61 303h-420l-147 -303h-99zM301 385h369l-109 537zM465 1413h121l57 -223h-92z" />
<glyph horiz-adv-x="892" d="M18 0l508 1042h103l215 -1042h-99l-61 303h-420l-147 -303h-99zM301 385h369l-109 537zM459 1262q0 70 54.5 122t125.5 52q57 0 96 -37t39 -94q0 -70 -54.5 -123.5t-123.5 -53.5q-59 0 -98 38t-39 96zM532 1274q0 -29 21.5 -51.5t50.5 -22.5q34 0 64 28.5t30 63.5 q0 29 -21.5 49.5t-49.5 20.5q-36 0 -65.5 -26.5t-29.5 -61.5z" />
<glyph horiz-adv-x="911" d="M18 0l508 1042h103l215 -1042h-99l-61 303h-420l-147 -303h-99zM301 385h369l-109 537zM303 1214q36 55 92 87t121 32q40 0 111 -26.5t110 -26.5q76 0 113 61l72 -38q-78 -109 -185 -109q-41 0 -114 27.5t-113 27.5q-30 0 -51 -7t-30.5 -14.5t-27 -25.5t-28.5 -28z" />
<glyph horiz-adv-x="882" d="M90 -2l148 1046h348q97 0 161 -59t64 -154q0 -70 -35 -134.5t-92 -108.5q69 -28 108 -95t39 -145q0 -84 -44 -165t-120 -133t-161 -52h-416zM201 82h311q84 0 151.5 82t67.5 168q0 73 -44 131.5t-114 58.5h-311zM274 608h248q76 0 136.5 66t60.5 143q0 63 -42.5 104.5 t-105.5 41.5h-247z" />
<glyph horiz-adv-x="1011" d="M100 438q0 119 48 232.5t128.5 199t192 137.5t231.5 52q79 0 160.5 -27.5t122.5 -81.5l-57 -82q-91 99 -236 99q-129 0 -242.5 -73.5t-179 -192t-65.5 -248.5q0 -161 101 -269t261 -108q69 0 142.5 26t119.5 70l35 -82q-123 -108 -313 -108q-195 0 -322 130t-127 326z " />
<glyph horiz-adv-x="1009" d="M100 440q0 119 48 232.5t128.5 198t192 136.5t231.5 52q78 0 159 -28t122 -81l-57 -82q-38 46 -104 72.5t-130 26.5q-130 0 -244 -73t-179.5 -191t-65.5 -248q0 -162 101 -270.5t263 -108.5q64 0 140.5 27.5t119.5 68.5l35 -82q-54 -50 -142.5 -78t-168.5 -28 q-21 0 -31 1l-133 -218l-96 2l131 232q-145 40 -232.5 159.5t-87.5 279.5z" />
<glyph horiz-adv-x="937" d="M90 -2l148 1046h305q88 0 159.5 -37t115.5 -99.5t67.5 -139.5t23.5 -162q0 -82 -24 -168t-70.5 -164.5t-108 -140.5t-143 -98.5t-168.5 -36.5h-305zM201 90h141h74q85 3 160.5 53t124 125.5t76.5 163t28 168.5q0 66 -16 127.5t-48 113t-86.5 82.5t-124.5 31h-206z" />
<glyph horiz-adv-x="892" d="M90 -2l148 1046h626l-12 -92h-528l-52 -354h430l-12 -90h-430l-59 -418h530l-14 -92h-627z" />
<glyph horiz-adv-x="890" d="M90 0l148 1044h624l-12 -90h-528l-52 -358h428l-10 -88h-430l-59 -418h530l-12 -90h-627zM516 1200l121 225h121l-148 -225h-94z" />
<glyph horiz-adv-x="890" d="M90 0l148 1044h624l-12 -90h-528l-52 -358h428l-10 -88h-430l-59 -418h530l-12 -90h-627zM428 1188l141 239h103l71 -239h-81l-54 162l-96 -162h-84z" />
<glyph horiz-adv-x="890" d="M90 0l148 1044h624l-12 -90h-528l-52 -358h428l-10 -88h-430l-59 -418h530l-12 -90h-627zM332 1241q0 34 25 59t57 25q28 0 45.5 -17.5t17.5 -45.5q0 -32 -25 -56t-59 -24q-26 0 -43.5 16.5t-17.5 42.5zM692 1243q0 32 26 57t60 25q26 0 44 -17.5t18 -45.5q0 -32 -25 -56 t-57 -24q-27 0 -46.5 17t-19.5 44z" />
<glyph horiz-adv-x="890" d="M90 0l148 1044h624l-12 -90h-528l-52 -358h428l-10 -88h-430l-59 -418h530l-12 -90h-627zM449 1415h120l60 -225h-94z" />
<glyph horiz-adv-x="804" d="M86 827l10 66h84l10 68h-86l11 63h94q47 117 149.5 191.5t225.5 74.5q46 0 114.5 -22t77.5 -56l-43 -59l-8 -6q-70 67 -152 67q-89 0 -163.5 -53t-112.5 -137h258l-8 -63h-275q-8 -46 -8 -68h273l-9 -64h-256q19 -84 78.5 -133t143.5 -49q77 0 168 66l8 2l28 -66 q-20 -33 -93.5 -54.5t-123.5 -21.5q-117 0 -198.5 69.5t-98.5 184.5h-98z" />
<glyph horiz-adv-x="892" d="M90 -2l148 1049h634l-14 -93h-534l-50 -352h428l-12 -92h-430l-72 -512h-98z" />
<glyph horiz-adv-x="1038" d="M100 442q0 119 49 233t130 198.5t193.5 136t232.5 51.5q87 0 168 -29t137 -88l-62 -84q-48 50 -114.5 79.5t-135.5 29.5q-130 0 -244.5 -73t-181.5 -191t-67 -246q0 -164 104 -274.5t266 -110.5q62 0 122 24t102 68l47 338h98l-53 -371q-2 -14 -21 -33 q-63 -57 -147 -87.5t-172 -30.5q-197 0 -324 131t-127 329z" />
<glyph horiz-adv-x="974" d="M90 -2l148 1046h98l-62 -442h512l62 442h100l-147 -1046h-101l72 512h-512l-72 -512h-98z" />
<glyph horiz-adv-x="364" d="M90 -2l148 1046h98l-148 -1046h-98z" />
<glyph horiz-adv-x="391" d="M90 0l148 1044h96l-148 -1044h-96zM260 1190l121 225h121l-148 -225h-94z" />
<glyph horiz-adv-x="360" d="M90 0l148 1044h96l-148 -1044h-96zM150 1188l139 239h102l72 -239h-82l-51 162l-99 -162h-81z" />
<glyph horiz-adv-x="487" d="M92 1241q0 34 24 59t58 25q28 0 45 -17.5t17 -45.5q0 -32 -25 -56t-57 -24q-27 0 -44.5 16.5t-17.5 42.5zM121 0l147 1044h97l-148 -1044h-96zM451 1243q0 32 26.5 57t59.5 25q26 0 43.5 -17.5t17.5 -45.5q0 -32 -25 -56t-57 -24q-27 0 -46 17t-19 44z" />
<glyph horiz-adv-x="385" d="M90 0l148 1044h96l-148 -1044h-96zM176 1415h121l59 -225h-92z" />
<glyph horiz-adv-x="784" d="M92 66l55 88l7 -4q41 -38 79 -56t89 -18q70 0 122 40.5t77.5 97t35.5 126.5l98 702h101l-70 -499q-13 -94 -33 -217q-24 -146 -112 -247.5t-228 -101.5q-56 0 -124 24.5t-97 64.5z" />
<glyph horiz-adv-x="882" d="M90 -2l148 1046h98l-60 -421l469 421h121l-510 -471l418 -575h-121l-391 518l-74 -518h-98z" />
<glyph horiz-adv-x="583" d="M90 -2l148 1046h98l-135 -954h354l-12 -92h-453z" />
<glyph horiz-adv-x="1193" d="M90 -2l148 1046h102l297 -458l428 458h100l-147 -1046h-96l125 897l-431 -459l-301 457l-125 -895h-100z" />
<glyph horiz-adv-x="974" d="M90 -2l148 1046h102l389 -860l121 860h98l-147 -1046h-105l-385 854l-121 -854h-100z" />
<glyph horiz-adv-x="980" d="M90 -2l148 1046h102l389 -860l121 860h98l-147 -1046h-105l-385 854l-121 -854h-100zM319 1223q32 55 90.5 86.5t122.5 31.5q39 0 111 -26.5t111 -26.5t64.5 14t47.5 48l72 -39q-28 -51 -77 -80t-107 -29q-40 0 -113.5 27.5t-112.5 27.5q-30 0 -51 -7t-30.5 -14.5 t-27.5 -25.5t-30 -28z" />
<glyph horiz-adv-x="1038" d="M100 418q0 114 37.5 227.5t104 207t169 152t222.5 58.5q92 0 165 -36.5t118 -98.5t68.5 -140.5t23.5 -166.5q0 -114 -36.5 -227t-102 -205t-167 -149.5t-221.5 -57.5q-124 0 -211.5 60t-128.5 157t-41 219zM207 424q0 -57 10 -107.5t32 -96t54.5 -78t81.5 -51.5t109 -19 q80 0 148.5 33.5t116 89t81 126.5t49.5 146t16 149q0 57 -9.5 107.5t-31 96.5t-54 79t-81 52.5t-108.5 19.5q-81 0 -150.5 -34t-117 -89.5t-81.5 -127.5t-49.5 -147t-15.5 -149z" />
<glyph horiz-adv-x="1628" d="M100 432q0 114 37 227.5t102.5 207t167.5 152t222 58.5q110 0 193 -56.5t126 -158.5l25 182h626l-12 -90h-530l-51 -358h430l-13 -86h-430l-59 -420h532l-14 -90h-627l29 207q-147 -209 -385 -209q-74 0 -135 23.5t-104 64t-72.5 95.5t-43.5 118.5t-14 132.5zM203 440 q0 -71 16 -132.5t49 -112t89.5 -80t131.5 -29.5q100 0 181.5 51t131 132.5t75.5 175.5t26 188q0 72 -16 134t-49 112.5t-90 80t-132 29.5q-81 0 -150 -34t-116.5 -90t-81 -128t-49.5 -147.5t-16 -149.5z" />
<glyph horiz-adv-x="1036" d="M100 420q0 89 23 180t69 173.5t109 147t148.5 102.5t181.5 38q92 0 165 -36.5t118 -99t68.5 -141t23.5 -166.5q0 -114 -36.5 -226t-102.5 -203.5t-167.5 -148t-220.5 -56.5q-123 0 -210.5 60.5t-128 157.5t-40.5 218zM203 424q0 -72 16 -133t49.5 -111.5t90.5 -79 t133 -28.5q100 0 181.5 50.5t130.5 131.5t75 174.5t26 187.5q0 72 -16 133.5t-49 112.5t-90 80.5t-132 30.5q-81 0 -150 -34t-117 -89.5t-82 -127.5t-50 -148t-16 -150zM588 1190l123 225h120l-149 -225h-94z" />
<glyph horiz-adv-x="1038" d="M100 418q0 114 37.5 227.5t104 207t169 152t222.5 58.5q92 0 165 -36.5t118 -98.5t68.5 -140.5t23.5 -166.5q0 -114 -36.5 -227t-102 -205t-167 -149.5t-221.5 -57.5q-124 0 -211.5 60t-128.5 157t-41 219zM207 424q0 -57 10 -107.5t32 -96t54.5 -78t81.5 -51.5t109 -19 q80 0 148.5 33.5t116 89t81 126.5t49.5 146t16 149q0 57 -9.5 107.5t-31 96.5t-54 79t-81 52.5t-108.5 19.5q-81 0 -150.5 -34t-117 -89.5t-81.5 -127.5t-49.5 -147t-15.5 -149zM494 1184l139 237h100l74 -237h-80l-55 162l-97 -162h-81z" />
<glyph horiz-adv-x="1038" d="M100 418q0 114 37.5 227.5t104 207t169 152t222.5 58.5q92 0 165 -36.5t118 -98.5t68.5 -140.5t23.5 -166.5q0 -114 -36.5 -227t-102 -205t-167 -149.5t-221.5 -57.5q-124 0 -211.5 60t-128.5 157t-41 219zM207 424q0 -57 10 -107.5t32 -96t54.5 -78t81.5 -51.5t109 -19 q80 0 148.5 33.5t116 89t81 126.5t49.5 146t16 149q0 57 -9.5 107.5t-31 96.5t-54 79t-81 52.5t-108.5 19.5q-81 0 -150.5 -34t-117 -89.5t-81.5 -127.5t-49.5 -147t-15.5 -149zM408 1260q0 32 24.5 57.5t56.5 25.5q28 0 46 -17.5t18 -45.5q0 -32 -25 -57t-59 -25 q-26 0 -43.5 18t-17.5 44zM770 1260q0 33 25.5 58t58.5 25q26 0 43.5 -17.5t17.5 -45.5q0 -32 -24.5 -57t-56.5 -25q-26 0 -45 18t-19 44z" />
<glyph horiz-adv-x="1038" d="M100 418q0 114 37.5 227.5t104 207t169 152t222.5 58.5q92 0 165 -36.5t118 -98.5t68.5 -140.5t23.5 -166.5q0 -114 -36.5 -227t-102 -205t-167 -149.5t-221.5 -57.5q-124 0 -211.5 60t-128.5 157t-41 219zM207 424q0 -57 10 -107.5t32 -96t54.5 -78t81.5 -51.5t109 -19 q80 0 148.5 33.5t116 89t81 126.5t49.5 146t16 149q0 57 -9.5 107.5t-31 96.5t-54 79t-81 52.5t-108.5 19.5q-81 0 -150.5 -34t-117 -89.5t-81.5 -127.5t-49.5 -147t-15.5 -149zM535 1417h122l60 -225h-94z" />
<glyph horiz-adv-x="1040" d="M100 416q0 114 37.5 227.5t104 207t169 152t222.5 58.5q92 0 165 -36.5t118 -99t68.5 -141t23.5 -166.5q0 -114 -36.5 -226.5t-102 -204t-167 -148.5t-221.5 -57q-123 0 -211 60t-129 156.5t-41 217.5zM207 422q0 -56 10 -106.5t32 -96t54.5 -78t81.5 -52t109 -19.5 q80 0 148.5 34t116 89.5t81 127t49.5 146.5t16 149q0 71 -15.5 132.5t-48 112.5t-89 80.5t-131.5 29.5q-81 0 -150.5 -34t-117 -89.5t-81.5 -127.5t-49.5 -148t-15.5 -150zM350 1214q36 54 93 86.5t120 32.5q40 0 111 -26.5t110 -26.5q75 0 113 61l74 -38 q-74 -109 -185 -109q-43 0 -116.5 26.5t-112.5 26.5q-83 0 -137 -73l-4 2z" />
<glyph horiz-adv-x="919" d="M90 -2l148 1046h413q105 0 171.5 -81t66.5 -187q0 -51 -25 -121q-19 -47 -42.5 -84.5t-52.5 -63t-57.5 -43.5t-67 -27.5t-70.5 -15t-78 -6.5t-79 -0.5t-84.5 2t-84.5 1.5l-60 -420h-98zM260 510h311q85 0 153.5 80.5t68.5 167.5q0 74 -43.5 135t-114.5 61h-311z" />
<glyph horiz-adv-x="1036" d="M100 416q0 90 23 182t69 175t108.5 148t148.5 103.5t182 38.5q92 0 164.5 -35.5t118 -97t69 -139.5t23.5 -166q0 -120 -36 -236.5t-114 -217t-186 -148.5l157 -230h-122l-140 201q-39 -10 -94 -10q-92 0 -164.5 34.5t-117 95t-67 137.5t-22.5 165zM207 426 q0 -71 16 -132.5t49 -111.5t89.5 -79t130.5 -29q80 0 148.5 33.5t115.5 88.5t80.5 126t49 146t15.5 148q0 71 -16 132.5t-48.5 112t-89 79.5t-131.5 29q-98 0 -178.5 -51t-129.5 -132t-75 -174.5t-26 -185.5z" />
<glyph horiz-adv-x="923" d="M90 -2l148 1046h421q103 0 168.5 -69.5t65.5 -171.5q0 -114 -80.5 -215t-191.5 -113l227 -477h-119l-219 471h-256l-66 -471h-98zM266 557h320q82 0 144.5 73t62.5 156q0 71 -41.5 121.5t-110.5 50.5h-317z" />
<glyph horiz-adv-x="868" d="M86 90l64 88q134 -102 249 -102q108 0 190.5 65t82.5 170q0 40 -19.5 73t-52 54t-73.5 42t-83.5 37t-83.5 38t-73.5 47t-52 63t-19.5 85q0 98 58 171t143 107.5t180 34.5q67 0 138 -22t106 -64l-47 -84q-34 36 -89.5 56t-111.5 20q-46 0 -93 -12.5t-88.5 -36.5t-67.5 -64 t-26 -90q0 -37 25 -67t65 -50.5t88.5 -40.5t97.5 -43.5t89 -53t65 -75.5t25 -104q0 -101 -53 -182.5t-138.5 -124.5t-185.5 -43q-67 0 -173.5 32.5t-135.5 75.5z" />
<glyph horiz-adv-x="974" d="M172 954l12 90h803l-12 -90h-352l-134 -956h-98l135 956h-354z" />
<glyph horiz-adv-x="931" d="M94 289q0 21 15 133l88 622h100l-100 -700q0 -6 -1 -19.5t-1 -19.5q0 -95 62.5 -160t156.5 -65q108 0 193.5 78.5t99.5 185.5l100 700h96l-98 -700q-22 -150 -138.5 -256t-265.5 -106q-133 0 -220 87t-87 220z" />
<glyph d="M94 289q0 25 15 133l88 622h96l-98 -700q0 -5 -1 -16.5t-1 -16.5q0 -99 61.5 -165t159.5 -66q107 0 193 79t100 185l98 700h96l-88 -622q-2 -14 -6 -43.5t-6 -44.5q-25 -147 -139 -248.5t-261 -101.5q-132 0 -219.5 86.5t-87.5 218.5zM520 1190l121 225h121l-150 -225 h-92z" />
<glyph d="M94 289q0 25 15 133l88 620h96l-86 -620q-14 -91 -14 -117q0 -95 63 -160t158 -65q108 0 193.5 78.5t99.5 185.5l98 700h96l-88 -622q-2 -14 -6 -43.5t-6 -44.5q-25 -147 -139 -248.5t-261 -101.5q-132 0 -219.5 86.5t-87.5 218.5zM414 1188l137 239h102l74 -239h-82 l-53 162l-98 -162h-80z" />
<glyph d="M94 289q0 25 15 133l88 620h96l-86 -620q-14 -91 -14 -117q0 -95 63 -160t158 -65q108 0 193.5 78.5t99.5 185.5l98 700h96l-88 -622q-2 -14 -6 -43.5t-6 -44.5q-25 -147 -139 -248.5t-261 -101.5q-132 0 -219.5 86.5t-87.5 218.5zM324 1239q0 34 25 59t59 25 q26 0 43.5 -17.5t17.5 -45.5q0 -32 -25 -57t-57 -25q-26 0 -44.5 17.5t-18.5 43.5zM686 1241q0 32 26 57t58 25q28 0 46 -17.5t18 -45.5q0 -32 -25 -57t-59 -25q-27 0 -45.5 18t-18.5 45z" />
<glyph d="M94 289q0 25 15 133l88 622h96l-98 -700q0 -5 -1 -16.5t-1 -16.5q0 -99 61.5 -165t159.5 -66q107 0 193 79t100 185l98 700h96l-88 -622q-2 -14 -6 -43.5t-6 -44.5q-25 -147 -139 -248.5t-261 -101.5q-132 0 -219.5 86.5t-87.5 218.5zM461 1415h123l59 -225h-94z" />
<glyph horiz-adv-x="980" d="M170 1044h109l184 -872l430 872h111l-515 -1046h-104z" />
<glyph horiz-adv-x="1705" d="M168 1044h108l185 -878l434 870h104l191 -870l430 878h109l-512 -1046h-103l-188 879l-434 -879h-105z" />
<glyph horiz-adv-x="1050" d="M53 -2l449 567l-252 479h110l215 -403l336 403h113l-397 -479l291 -567h-113l-252 489l-389 -489h-111z" />
<glyph horiz-adv-x="878" d="M98 1044h109l229 -438l361 438h104l-428 -540l-70 -506h-100l72 506z" />
<glyph horiz-adv-x="876" d="M96 1044h107l233 -440l357 440h106l-428 -540l-72 -504h-96l72 504zM274 1241q0 34 24 59t58 25q28 0 46 -17.5t18 -45.5q0 -32 -25.5 -56t-58.5 -24q-27 0 -44.5 16.5t-17.5 42.5zM633 1243q0 32 26 57t60 25q26 0 43.5 -17.5t17.5 -45.5q0 -32 -25 -56t-57 -24 q-27 0 -46 17t-19 44z" />
<glyph horiz-adv-x="972" d="M90 -2l12 86l707 874h-555l12 86h678l-12 -81l-705 -875h582l-12 -90h-707z" />
<glyph horiz-adv-x="1021" d="M94 264q0 131 91.5 236.5t224.5 161.5q-37 91 -37 155q0 76 48 135.5t117.5 88t143.5 28.5q51 0 104 -17.5t91 -47.5q-23 -26 -56 -76q-8 18 -65 32.5t-88 14.5q-69 0 -129 -43t-60 -111q0 -140 277 -528q111 150 131 315h100q-30 -217 -172 -395q84 -118 168 -217h-137 q-22 25 -60.5 75t-50.5 64q-70 -70 -156.5 -111.5t-179.5 -41.5q-127 0 -216 78t-89 204zM195 283q0 -89 62.5 -146t152.5 -57q137 0 270 133q-150 205 -236 367q-103 -39 -176 -118t-73 -179z" />
<glyph horiz-adv-x="706" d="M104 868q0 92 37 178.5t109 148.5t164 75l16 112h86l-16 -110q116 -14 176 -88l-55 -68q-16 32 -70.5 54t-95.5 22q-105 0 -182.5 -97t-77.5 -204q0 -88 50 -156.5t134 -68.5q42 0 102.5 23t85.5 52l37 -67q-82 -73 -201 -86l-16 -117h-86l16 117q-103 17 -158 95 t-55 185z" />
<glyph horiz-adv-x="802" d="M94 676l103 90q-31 54 -31 119q0 108 72 200l-74 86l72 64l73 -84q74 53 170 53q94 0 158 -55l100 86l54 -64l-103 -90q27 -50 27 -110q0 -113 -74 -203l80 -92l-72 -62l-80 91q-73 -54 -166 -54q-96 0 -153 51l-100 -88zM242 901q0 -71 50.5 -122.5t121.5 -51.5 q90 0 155.5 69.5t65.5 159.5q0 73 -46.5 121.5t-119.5 48.5q-86 0 -156.5 -69.5t-70.5 -155.5z" />
<glyph horiz-adv-x="770" d="M104 872q0 102 40.5 191t121.5 146t185 57q88 0 163 -56l39 283h86l-127 -905h-86l6 39q-80 -52 -176 -52q-124 0 -188 84t-64 213zM195 877q0 -44 9.5 -83t29.5 -71t54.5 -51t80.5 -19q47 0 96 22t82 56l53 383q-27 33 -70.5 51.5t-87.5 18.5q-112 0 -179.5 -95.5 t-67.5 -211.5z" />
<glyph horiz-adv-x="628" d="M90 657l49 60q29 -29 76.5 -49.5t87.5 -20.5q68 0 120 43t52 111q0 40 -31 68t-74.5 46.5t-87.5 38t-75 53.5t-31 83q0 82 60 136.5t145 67.5l10 76h70l-10 -74q43 -2 84.5 -16.5t64.5 -42.5l-43 -59q-16 23 -56.5 36t-74.5 13q-66 0 -120 -33.5t-54 -95.5q0 -31 31 -54 t75 -40.5t88.5 -38t75.5 -59t31 -91.5q0 -87 -58 -150.5t-145 -78.5l-12 -78h-68l11 72q-46 2 -107 24t-84 53z" />
<glyph horiz-adv-x="921" d="M94 305q0 128 76 239.5t195 162.5q-54 34 -82.5 92t-28.5 125q0 146 108 250t256 104q120 0 197.5 -72.5t77.5 -191.5q0 -94 -49.5 -178.5t-132.5 -128.5q83 -40 127.5 -118t44.5 -171q0 -183 -132 -310.5t-315 -127.5q-150 0 -246 88.5t-96 236.5zM197 324 q0 -111 71 -179.5t181 -68.5q130 0 230.5 96t100.5 225q0 102 -74 179t-176 77q-80 0 -158 -47.5t-126.5 -124.5t-48.5 -157zM354 942q0 -84 53.5 -136t137.5 -52q99 0 173.5 76t74.5 176q0 81 -52.5 132.5t-134.5 51.5q-100 0 -176 -74.5t-76 -173.5z" />
<glyph horiz-adv-x="954" d="M90 -106l68 86q56 -47 132.5 -78t145.5 -31q145 0 253 107.5t108 252.5q0 44 -10.5 80t-27 61.5t-44 45t-54.5 32t-65.5 20.5t-69.5 11.5t-74.5 5t-72.5 1t-71 -1.5t-64 -1l94 557h588l-13 -94h-495l-64 -362l150 2q85 0 156 -19t127.5 -58t88 -105t31.5 -154 q0 -131 -65 -242t-176 -176t-242 -65q-83 0 -176.5 35t-157.5 90z" />
<glyph horiz-adv-x="1044" d="M90 121l12 88l709 833h119l-117 -827h203l-15 -94h-202l-45 -332h-109l47 332h-602zM223 215h484l94 678z" />
<glyph horiz-adv-x="677" d="M90 590l127 905h86l-45 -319q76 92 191 92q98 0 148 -56t50 -155q0 -36 -6 -76l-55 -391h-84l47 342q8 62 8 94q0 154 -135 154q-44 0 -81 -23.5t-60 -62t-36.5 -79.5t-19.5 -83l-49 -342h-86z" />
<glyph horiz-adv-x="677" d="M90 590l92 665h88l-12 -79q76 92 188 92q100 0 150.5 -54.5t50.5 -154.5q0 -37 -6 -74l-55 -395h-84l47 344q8 58 8 88q0 158 -135 158q-46 0 -83 -23t-59.5 -61t-35.5 -78.5t-19 -83.5l-49 -344h-86z" />
<glyph horiz-adv-x="937" d="M94 598q0 125 63 230t169 165t231 60q156 0 254 -91t98 -245q0 -143 -102 -289q-45 -64 -461 -649h-117l367 514q-76 -31 -158 -31q-150 -2 -247 92t-97 244zM199 614q0 -117 72 -188.5t188 -71.5q141 0 244.5 103t103.5 243q0 115 -73.5 185.5t-188.5 70.5 q-140 0 -243 -101.5t-103 -240.5z" />
<glyph horiz-adv-x="698" d="M90 -4l12 94h236l117 830l-246 -107l-14 94q21 9 73 33t81 37t73 31t80 30h78l-134 -948h236l-12 -94h-580z" />
<glyph horiz-adv-x="423" d="M80 592l94 663h86l-10 -77q35 42 83.5 67t100.5 25q61 0 80 -17l-37 -61q-7 -4 -15 -5.5t-18.5 -2.5t-17.5 -2l-2 -4l-14 2q-45 0 -81.5 -24t-59 -63t-35.5 -79.5t-19 -83.5l-47 -338h-88z" />
<glyph horiz-adv-x="626" d="M90 651l53 76q77 -70 162 -70q60 0 108 36.5t48 94.5q0 35 -30 61.5t-72.5 44.5t-84.5 37.5t-72 52t-30 77.5q0 91 78.5 149t173.5 58q41 0 103.5 -18t70.5 -48l-47 -65q-65 55 -137 55q-51 0 -101.5 -34.5t-50.5 -84.5q0 -28 30 -50.5t72.5 -40.5t85.5 -39t73 -56.5 t30 -83.5q0 -103 -74.5 -164t-179.5 -61q-20 0 -40 3t-32.5 6t-34 12.5t-28.5 12.5t-33.5 17.5t-32.5 17.5z" />
<glyph horiz-adv-x="774" d="M37 -211l663 1159h-567l14 94h678l-12 -92l-663 -1161h-113z" />
<glyph horiz-adv-x="933" d="M94 315q0 145 103 289q304 434 460 649h117l-368 -514q70 33 157 33q153 0 249.5 -92t96.5 -244q0 -125 -63 -230t-169.5 -165.5t-230.5 -60.5q-155 0 -253.5 90.5t-98.5 244.5zM199 334q0 -116 73 -187t189 -71q139 0 242.5 102.5t103.5 241.5q0 115 -73 187.5 t-189 72.5q-139 0 -242.5 -103t-103.5 -243z" />
<glyph horiz-adv-x="665" d="M94 588l10 74h27q38 0 74 84.5t49 148.5h-117l10 68h117q7 56 26 108t50.5 98t80 73.5t107.5 27.5q45 0 87 -13.5t42 -46.5q0 -2 -10 -16t-20.5 -29.5t-12.5 -19.5q-27 27 -48 39t-52 12q-39 0 -70.5 -23.5t-51 -61.5t-31 -74.5t-17.5 -73.5h160l-10 -68h-162 q-33 -159 -88 -233h288l-10 -74h-428z" />
<glyph horiz-adv-x="501" d="M94 1174l12 77h87l26 185h84l-24 -185h192l-10 -77h-193q-4 -30 -19.5 -120t-24.5 -160.5t-9 -121.5q0 -117 78 -117q59 0 84 29l22 -72q-58 -37 -123 -37q-77 0 -112 53t-35 134q0 23 4 63l49 349h-88z" />
<glyph horiz-adv-x="999" d="M90 -86l64 80q53 -55 136 -89t159 -34q154 0 259 94.5t105 245.5q0 45 -14.5 81t-35.5 59.5t-56.5 40t-66.5 25t-76.5 13t-75.5 5.5t-74 1l12 92l414 420h-545l12 94h672l-12 -94l-398 -416q154 0 252.5 -77.5t98.5 -225.5q0 -128 -66.5 -234.5t-176.5 -166t-237 -59.5 q-92 0 -190 40t-160 105z" />
<glyph horiz-adv-x="948" d="M90 0l10 76q13 97 59 174.5t109.5 128t137 92t144.5 75t129 68.5t94 82.5t36 106.5q0 44 -18.5 77t-50.5 50.5t-68.5 26t-77.5 8.5q-82 0 -178 -31.5t-166 -79.5l-27 86q172 125 389 125q128 0 218 -68t90 -194q0 -58 -21 -107.5t-57.5 -86.5t-84 -70t-101 -61.5 t-108 -57t-106 -61t-93.5 -68.5t-72 -85t-41 -106h634l-14 -100h-766z" />
<glyph horiz-adv-x="684" d="M170 1257h84l143 -268l221 268h89l-263 -325h119l-8 -66h-133l-2 -24h131l-8 -64h-133l-27 -188h-80l27 188h-131l8 64h133l2 24h-131l8 66h119z" />
<glyph horiz-adv-x="993" d="M104 418q0 71 15.5 145.5t44.5 147t73.5 136.5t98.5 112.5t124.5 77t147.5 28.5q71 0 130.5 -25.5t100 -68.5t68.5 -100.5t41 -120.5t13 -129q0 -85 -21.5 -174.5t-65 -173t-102.5 -149t-141 -105t-174 -39.5q-73 0 -132.5 24.5t-100 66.5t-68 98.5t-40 119t-12.5 129.5z M209 428q0 -53 8.5 -102t28 -94.5t49 -79t75.5 -54t103 -20.5q92 0 168 52.5t122 134t70.5 172t24.5 175.5q0 52 -8 100.5t-27 95t-48 81t-74.5 55.5t-102.5 21q-75 0 -140 -34.5t-109.5 -90.5t-77 -127.5t-47.5 -144t-15 -140.5z" />
</font>
</defs>
</svg>
