<?xml version="1.0" standalone="no"?>
<!DOCTYPE svg PUBLIC "-//W3C//DTD SVG 1.1//EN" "http://www.w3.org/Graphics/SVG/1.1/DTD/svg11.dtd" >
<svg xmlns="http://www.w3.org/2000/svg" xmlns:xlink="http://www.w3.org/1999/xlink" version="1.1">
<metadata></metadata>
<defs>
<font id="visionheavy" horiz-adv-x="1220" >
<font-face units-per-em="2048" ascent="1638" descent="-410" />
<missing-glyph horiz-adv-x="512" />
<glyph unicode="&#xfb00;" horiz-adv-x="1599" d="M31 831v240h162q0 166 107 284t271 118q67 0 139.5 -18.5t116.5 -55.5l-86 -180q-45 22 -102 22q-80 0 -128 -46t-48 -124h301h2h158q0 166 107.5 284t271.5 118q67 0 140.5 -18.5t115.5 -55.5l-86 -180q-43 22 -103 22q-78 0 -126 -46t-48 -124h301v-240h-305v-831h-268 v831h-158h-2h-303v-831h-268v831h-162z" />
<glyph unicode="&#xfb01;" horiz-adv-x="1193" d="M31 831v240h159q0 105 47.5 196.5t134.5 147t193 55.5q65 0 141.5 -18.5t118.5 -52.5l-86 -180q-46 24 -98 24q-76 0 -127 -48t-51 -124h575v-1071h-276v831h-301v-831h-271v831h-159z" />
<glyph unicode="&#xfb02;" horiz-adv-x="1390" d="M31 831v240h162q0 166 107 284t271 118q113 0 199 -39h262v-990v-7q0 -31 0.5 -49.5t5.5 -51.5t14 -52.5t28 -35t46 -15.5q50 0 93 31l96 -213q-102 -71 -242 -71q-82 0 -142.5 27.5t-94.5 70t-54.5 106t-27 122t-6.5 132.5v393h-287v-831h-268v831h-162zM463 1071h285 v160l-7 -12q-45 22 -102 22q-80 0 -128 -46t-48 -124z" />
<glyph unicode="&#xfb04;" horiz-adv-x="2111" d="M31 831v240h162q0 167 106.5 284.5t271.5 117.5q66 0 139 -18.5t115 -55.5l-84 -180q-45 22 -104 22q-78 0 -126 -46t-48 -124h299h2h160q0 167 107 284.5t272 117.5q111 0 197 -39h251l2 -990v-7q0 -31 0.5 -49.5t5.5 -51.5t14 -52.5t28 -35t46 -15.5q49 0 92 31 l97 -213q-102 -71 -242 -71q-83 0 -144 29t-95 73.5t-54.5 110.5t-26.5 125.5t-6 134.5v378h-276v-831h-268v831h-160h-2h-301v-831h-268v831h-162zM1194 1071h274v150q-43 20 -100 20q-78 0 -126 -46t-48 -124z" />
<glyph unicode="ffj" horiz-adv-x="1945" d="M31 831v240h162q0 166 107 284t271 118q67 0 139.5 -18.5t116.5 -55.5l-86 -180q-45 22 -102 22q-80 0 -128 -46t-48 -124h303h160q0 166 107.5 284t271.5 118q67 0 139.5 -18.5t116.5 -55.5l-86 -180q-45 22 -103 22q-79 0 -127 -46.5t-47 -123.5h301h283v-856 q0 -66 -6 -128.5t-20.5 -134.5t-42.5 -130.5t-68 -108t-101.5 -77t-138.5 -27.5q-67 0 -146 18.5t-122 55.5l98 202q19 -19 55.5 -29t63.5 -10q26 0 47.5 10.5t36 32t25 43t17 55.5t10.5 57.5t5.5 60.5t1.5 53v45v12l2 616h-305v-831h-268v831h-160h-305v-831h-268v831h-162 z" />
<glyph unicode="fft" horiz-adv-x="2295" d="M31 831v240h162q0 108 47 199.5t133.5 147t195.5 55.5q67 0 140.5 -18.5t115.5 -55.5l-84 -180q-50 24 -104 24q-78 0 -126 -47t-48 -125h295h6h156q0 167 106.5 284.5t271.5 117.5q66 0 139 -18.5t115 -55.5l-84 -180q-50 24 -104 24q-78 0 -126 -47t-48 -125h299h2h158 v270h268v-270h303v-240h-303v-385v-27v-31t1 -29.5t3.5 -31.5t6.5 -27.5t10.5 -26.5t15.5 -19t22 -14t29 -4q48 0 98 36l90 -209q-61 -42 -113 -61.5t-118 -19.5q-81 0 -142.5 28.5t-98 79.5t-54.5 116.5t-18 143.5v481h-158h-2h-301v-831h-268v831h-156h-6h-297v-831h-268 v831h-162z" />
<glyph unicode="fj" horiz-adv-x="1204" d="M31 831v240h162q5 173 101.5 287.5t266.5 114.5q70 0 147 -19.5t117 -58.5l-77 -164q-60 43 -136 43q-131 0 -149 -203h295h8h274v-856q0 -66 -6 -128.5t-20 -134.5t-42 -130.5t-67.5 -108t-101 -77t-137.5 -27.5q-68 0 -147 18.5t-122 55.5l97 202q21 -20 56.5 -29.5 t63.5 -9.5q27 0 48.5 11t36 34.5t25.5 46t17 59t10 60.5t5.5 62.5t1.5 52v43.5v616h-297v-831h-268v831h-162z" />
<glyph unicode="ft" horiz-adv-x="1570" d="M31 831v240h162q0 166 107 284t271 118q67 0 139.5 -18.5t114.5 -55.5l-84 -180q-45 22 -104 22q-78 0 -126 -46t-48 -124h301h2h158v270h270v-270h301v-240h-301v-385v-27v-31t1 -29.5t3.5 -31.5t6.5 -27.5t10.5 -26.5t15.5 -19t22 -14t29 -4q50 0 96 36l92 -209 q-61 -42 -113.5 -61.5t-119.5 -19.5q-157 0 -235 102.5t-78 265.5v481h-158h-2h-303v-831h-268v831h-162z" />
<glyph unicode="tf" horiz-adv-x="1634" d="M31 831v240h162v270h268v-270h301v-240h-301v-385v-27v-31t1 -29.5t3.5 -31.5t6.5 -27.5t10.5 -26.5t15.5 -19t22 -14t29 -4q50 0 96 36l92 -209q-61 -42 -113.5 -61.5t-119.5 -19.5q-157 0 -234 101.5t-77 266.5v481h-162zM764 831v240h160q0 166 108 284t273 118 q66 0 139 -18.5t115 -55.5l-84 -180q-45 22 -105 22q-78 0 -126 -46t-48 -124h301v-240h-303v-831h-270v831h-160z" />
<glyph horiz-adv-x="0" />
<glyph horiz-adv-x="682" />
<glyph horiz-adv-x="0" />
<glyph horiz-adv-x="0" />
<glyph unicode="&#xd;" horiz-adv-x="512" />
<glyph unicode=" "  horiz-adv-x="512" />
<glyph unicode="&#x09;" horiz-adv-x="512" />
<glyph unicode="&#xa0;" horiz-adv-x="512" />
<glyph unicode="!" horiz-adv-x="606" d="M92 1485h422l-96 -1063h-232zM137 135q0 66 49.5 112t116.5 46q66 0 114 -46t48 -112q0 -65 -48 -110t-114 -45q-67 0 -116.5 45t-49.5 110z" />
<glyph unicode="&#x22;" horiz-adv-x="763" d="M109 1350h225l-49 -432h-125zM430 1350h225l-51 -432h-125z" />
<glyph unicode="#" horiz-adv-x="1499" d="M109 279l57 237h166l37 213h-183l58 238h164l47 286h288l-47 -286h230l47 286h289l-48 -286h177l-56 -238h-161l-35 -213h174l-58 -237h-155l-45 -281h-291l47 281h-229l-47 -281h-289l47 281h-184zM602 500h262l41 245h-262z" />
<glyph unicode="$" horiz-adv-x="1214" d="M137 102l117 260q52 -35 162.5 -74.5t175.5 -39.5q35 0 72.5 11t69.5 40t32 70q0 39 -30.5 69t-78.5 51t-106.5 42.5t-117.5 50.5t-107 67.5t-78.5 102t-30.5 145.5q0 144 87 237t239 121v162h172v-151q96 -5 193 -35.5t157 -85.5l-94 -217q-40 35 -123.5 58.5 t-145.5 23.5q-40 0 -79 -9.5t-71 -36.5t-32 -67q0 -38 30.5 -66t80 -47t108.5 -38.5t118.5 -47t109 -64t80 -98t30.5 -141.5q0 -152 -101.5 -263t-260.5 -146v-162h-172v151q-103 5 -218.5 38.5t-187.5 88.5z" />
<glyph unicode="%" horiz-adv-x="1609" d="M102 940q0 87 29 161.5t92.5 125.5t151.5 51t150.5 -51t90 -125.5t27.5 -161.5q0 -63 -16 -120.5t-48 -106t-85 -77t-121 -28.5q-88 0 -151 49.5t-91.5 123t-28.5 159.5zM291 940q0 -23 3.5 -45t11.5 -46t26 -39t43 -15q32 0 52 27t25 56t5 60q0 23 -4 46.5t-12.5 48.5 t-26 41t-41.5 16t-41.5 -15.5t-25.5 -40t-11.5 -48t-3.5 -46.5zM391 0l582 1253h248l-580 -1253h-250zM969 309q0 87 28 161.5t91.5 125.5t152.5 51q66 0 118.5 -29t84 -77.5t47.5 -107.5t16 -122q0 -64 -16 -122t-47.5 -106t-84.5 -77t-120 -29q-88 0 -151 50t-91 123 t-28 159zM1157 309q0 -23 3 -45t11.5 -46t25.5 -39t42 -15q32 0 52 27.5t25 56.5t5 59q0 34 -5.5 65.5t-25.5 60t-51 28.5q-24 0 -41.5 -15.5t-25.5 -41t-11.5 -49t-3.5 -46.5z" />
<glyph unicode="&#x26;" horiz-adv-x="1454" d="M102 391q0 132 75.5 240.5t201.5 161.5q-49 100 -49 184q0 77 34.5 136t91.5 93t124 51t139 17t144.5 -16t117.5 -46l-90 -186q-21 17 -59.5 26t-69.5 9q-58 0 -95.5 -32.5t-37.5 -78.5q0 -43 34.5 -112t91 -146t95 -125.5t78.5 -95.5q53 114 53 270h238 q0 -271 -123 -460q186 -203 262 -281h-361q-32 32 -94 98q-147 -102 -334 -102q-70 0 -137 16t-127 49t-105 79t-71.5 111t-26.5 140zM354 414q0 -80 66 -133.5t151 -53.5q89 0 168 54q-144 164 -245 315q-61 -23 -100.5 -72t-39.5 -110z" />
<glyph unicode="'" horiz-adv-x="471" d="M92 1350h287l-64 -432h-157z" />
<glyph unicode="(" horiz-adv-x="888" d="M92 563q0 313 140.5 589.5t394.5 461.5q9 -12 73 -101.5t97 -136.5q-196 -142 -305 -355.5t-109 -455.5q0 -243 109.5 -457.5t304.5 -355.5q-28 -40 -170 -235q-254 185 -394.5 459.5t-140.5 586.5z" />
<glyph unicode=")" horiz-adv-x="888" d="M92 -248q196 143 305 357t109 456q0 243 -108.5 455.5t-305.5 355.5l172 238q253 -184 393 -460.5t140 -590.5q0 -312 -140 -587t-393 -459z" />
<glyph unicode="*" horiz-adv-x="882" d="M92 758l172 119l-172 120l103 142l159 -111v215h176v-215l160 111l101 -142l-170 -120l170 -119l-101 -142l-160 109v-217h-176v217l-159 -109z" />
<glyph unicode="+" horiz-adv-x="1026" d="M92 459v262h277v291h290v-291h275v-262h-275v-289h-290v289h-277z" />
<glyph unicode="," horiz-adv-x="598" d="M92 178q0 88 63 143.5t148 55.5q51 0 91.5 -22t64 -58.5t35.5 -77.5t12 -84q0 -111 -70 -231t-162 -158l-92 137q33 17 63.5 49.5t37.5 65.5q-84 -3 -137.5 49t-53.5 131z" />
<glyph unicode="-" horiz-adv-x="1026" d="M92 449v260h842v-260h-842z" />
<glyph unicode="." horiz-adv-x="569" d="M92 172q0 80 57 137.5t136 57.5t135.5 -57.5t56.5 -137.5t-56.5 -136t-135.5 -56q-78 0 -135.5 56.5t-57.5 135.5z" />
<glyph unicode="/" horiz-adv-x="800" d="M10 -111l531 1532h250l-531 -1532h-250z" />
<glyph unicode="0" horiz-adv-x="1064" d="M92 535q0 104 27.5 202t80 180t139.5 131.5t196 49.5q88 0 161.5 -32.5t124 -87.5t85.5 -128t51 -152.5t16 -162.5q0 -81 -15.5 -159t-50.5 -150.5t-85 -126.5t-124 -86.5t-163 -32.5t-163.5 32.5t-125.5 86.5t-86.5 126t-51.5 150t-16 160zM354 535q0 -39 4 -75.5 t16 -79t31 -74t53 -52.5t79 -21q54 0 91.5 29.5t54.5 79t23.5 94t6.5 94.5q0 41 -4 79.5t-15.5 81.5t-30.5 74.5t-52 52t-76 20.5q-53 0 -91 -29.5t-56.5 -78.5t-26 -96.5t-7.5 -98.5z" />
<glyph unicode="1" horiz-adv-x="1007" d="M92 938l309 133h267v-811h229v-260h-772v260h252v526l-238 -88z" />
<glyph unicode="2" horiz-adv-x="1099" d="M111 0v111q0 61 28.5 118.5t73.5 102t100 86.5t110 81t100 77t73.5 81.5t28.5 87.5q0 95 -152 95q-39 0 -80.5 -10.5t-73 -25t-56.5 -29.5t-39 -25l-13 -11l-88 213q5 6 15 15.5t47 34t80 43t116 34t154 15.5q193 0 294 -90.5t101 -235.5q0 -50 -22.5 -106t-51.5 -100 t-77.5 -97t-79 -81.5t-78 -71t-54.5 -48.5h422v-264h-878z" />
<glyph unicode="3" horiz-adv-x="1099" d="M111 -80l84 211q144 -74 270 -74q36 0 71.5 7t72.5 22.5t60 47.5t23 75q0 31 -13.5 56t-33 40.5t-52 26.5t-60 16t-67.5 7.5t-64 2t-60.5 -1t-46.5 -0.5v213l285 256h-412v246h739v-246l-233 -227q39 -3 80.5 -18t84 -46.5t75.5 -75.5t54 -109.5t21 -143.5 q0 -111 -69 -206t-177.5 -148.5t-226.5 -53.5q-106 0 -216.5 33.5t-188.5 89.5z" />
<glyph unicode="4" horiz-adv-x="1208" d="M111 113v204l454 754h365v-715h186v-243h-186v-295h-291v295h-528zM401 356h238v418z" />
<glyph unicode="5" horiz-adv-x="1093" d="M111 -84l94 240q64 -39 142 -66t140 -27q82 0 140.5 48.5t58.5 128.5q0 38 -16 67.5t-40.5 47.5t-63 30.5t-73.5 18t-82 8t-78.5 1.5t-73.5 -2t-58 -1l22 661h666v-246h-445l-4 -176q157 14 278.5 -28t193 -140.5t71.5 -240.5q0 -134 -67 -237t-172.5 -154.5 t-229.5 -51.5q-96 0 -207.5 33t-195.5 86z" />
<glyph unicode="6" horiz-adv-x="1071" d="M111 383q0 46 7 92.5t24.5 98t31 87.5t44 94.5t43.5 83t50 89t45 78.5l136 247h288l-243 -479q15 6 47 6q172 0 274.5 -105t102.5 -280q0 -191 -118.5 -303t-307.5 -112q-186 0 -305 109.5t-119 293.5zM373 389q0 -76 45 -129t121 -53q75 0 118 52.5t43 129.5t-43 133 t-118 56q-76 0 -121 -55.5t-45 -133.5z" />
<glyph unicode="7" horiz-adv-x="987" d="M92 821v250h785q2 -37 -2 -145t-11 -123l-430 -985h-303l451 1003h-490z" />
<glyph unicode="8" horiz-adv-x="1083" d="M111 369q0 108 50.5 194.5t145.5 138.5q-127 91 -127 254q0 146 105 235t256 89q152 0 257 -89t105 -239q0 -76 -31.5 -141.5t-91.5 -108.5q95 -52 145 -138t50 -193q0 -179 -126.5 -286.5t-307.5 -107.5q-86 0 -164 27.5t-137 76.5t-94 124t-35 164zM381 379 q0 -67 46 -113.5t116 -46.5t117 46.5t47 115.5q0 71 -47 121.5t-113 50.5q-68 0 -117 -52.5t-49 -121.5zM418 926q0 -52 35.5 -88.5t89.5 -36.5t91.5 37.5t37.5 91.5t-36.5 91.5t-88.5 37.5q-55 0 -92 -39t-37 -94z" />
<glyph unicode="9" horiz-adv-x="1073" d="M111 686q0 184 119 294t307 110t307 -109.5t119 -292.5q0 -54 -13 -114.5t-26.5 -103.5t-47.5 -113t-48.5 -97.5t-59 -105.5t-51.5 -91l-137 -247h-299l243 481q-16 -8 -53 -8q-158 0 -259 113t-101 284zM371 680q0 -76 44.5 -132t119.5 -56q76 0 119.5 55.5t43.5 132.5 q0 75 -44.5 129.5t-118.5 54.5t-119 -54t-45 -130z" />
<glyph unicode=":" horiz-adv-x="653" d="M133 172q0 80 57 137.5t136 57.5q81 0 137.5 -57.5t56.5 -137.5q0 -79 -57 -135.5t-137 -56.5q-78 0 -135.5 56.5t-57.5 135.5zM133 844q0 79 56.5 135.5t136.5 56.5t137 -56.5t57 -135.5q0 -80 -56.5 -136.5t-137.5 -56.5q-80 0 -136.5 56.5t-56.5 136.5z" />
<glyph unicode=";" horiz-adv-x="681" d="M133 844q0 79 56.5 135.5t136.5 56.5t137 -56.5t57 -135.5q0 -80 -56.5 -136.5t-137.5 -56.5q-80 0 -136.5 56.5t-56.5 136.5zM135 121q0 84 58 141t147 57q97 0 153 -70.5t56 -166.5q0 -73 -32 -154.5t-86 -147t-114 -89.5l-94 135q36 20 65.5 51.5t35.5 63.5 q-82 -3 -135.5 49t-53.5 131z" />
<glyph unicode="&#x3c;" horiz-adv-x="921" d="M92 553v227l737 377v-280l-442 -209l442 -209v-283z" />
<glyph unicode="=" horiz-adv-x="1026" d="M92 324v260h842v-260h-842zM92 754v258h842v-258h-842z" />
<glyph unicode="&#x3e;" horiz-adv-x="931" d="M92 156v280l443 236l-443 233v281l748 -402v-227z" />
<glyph unicode="?" horiz-adv-x="948" d="M92 1376q54 44 170 70.5t207 26.5q105 0 191.5 -39t141 -121t54.5 -193v-12q-12 -257 -235 -360q-85 -39 -125 -39v-279h-246v459h106q76 0 138.5 53t62.5 127q0 71 -56.5 114.5t-125.5 43.5q-45 0 -106 -20.5t-99 -45.5zM207 135q0 67 48.5 112.5t115.5 45.5 t115.5 -45.5t48.5 -112.5q-1 -65 -50 -110t-114 -45q-67 0 -115.5 45t-48.5 110z" />
<glyph unicode="@" horiz-adv-x="1677" d="M102 543q0 204 97.5 372.5t269.5 265.5t383 97q144 0 274.5 -47.5t230.5 -132t159 -211.5t59 -277q0 -86 -19.5 -170.5t-57.5 -159.5t-104 -121t-149 -46q-75 0 -146.5 32.5t-101.5 83.5q-41 -59 -108.5 -87.5t-138.5 -28.5q-105 0 -187 64.5t-123 160t-41 199.5 q0 71 21 138.5t60 123.5t102 89.5t141 33.5q68 0 135.5 -26t102.5 -71v76h243v-317q0 -10 -1 -44.5t-1 -62.5t1.5 -67.5t8 -69t17 -57.5t30.5 -43t46 -15q46 0 82 46t54.5 115t28 134t9.5 117q0 119 -52 222.5t-139 173.5t-200 109.5t-234 39.5q-136 0 -257.5 -50.5 t-208.5 -136.5t-138 -204.5t-51 -249.5q0 -129 50 -248t133 -204t195.5 -136t233.5 -51q164 0 326 75l43 -90q-72 -38 -168.5 -60t-190.5 -22q-196 0 -361 97.5t-261.5 267.5t-96.5 373zM631 528q0 -85 46.5 -144.5t131.5 -59.5q65 0 108.5 37.5t43.5 101.5v117 q0 62 -46 99.5t-112 37.5q-78 0 -125 -53t-47 -136z" />
<glyph unicode="A" horiz-adv-x="1359" d="M102 0l371 1253h412l372 -1253h-292l-91 279h-389l-90 -279h-293zM553 541h254l-127 440z" />
<glyph unicode="B" horiz-adv-x="1267" d="M156 0v1253h483q166 0 277.5 -89.5t111.5 -243.5q0 -138 -92 -240q95 -35 144.5 -116t49.5 -195q0 -99 -37.5 -172t-104 -115t-148.5 -62t-181 -20h-503zM446 229h236q61 0 104 46.5t43 111.5q0 63 -41.5 106.5t-105.5 43.5h-236v-308zM446 776h154q70 0 112 30t42 95 q0 64 -40.5 95.5t-103.5 31.5h-164v-252z" />
<glyph unicode="C" horiz-adv-x="1273" d="M137 629q0 181 74 327.5t214.5 233t322.5 86.5q101 0 218 -36.5t185 -98.5l-117 -244q-47 41 -122.5 68.5t-139.5 27.5q-156 0 -246 -103t-90 -261q0 -160 89.5 -262.5t246.5 -102.5q64 0 139.5 28t122.5 70l117 -245q-68 -62 -184.5 -97.5t-218.5 -35.5 q-182 0 -322.5 86t-214.5 232t-74 327z" />
<glyph unicode="D" horiz-adv-x="1333" d="M156 0v1253h417q299 0 461 -158.5t162 -457.5q0 -184 -77.5 -329t-219.5 -226.5t-326 -81.5h-417zM449 279h106q156 0 240 99t84 259q0 164 -81 251t-243 87h-106v-696z" />
<glyph unicode="E" horiz-adv-x="1212" d="M156 0v1253h901v-278h-611v-205h482v-248h-482v-243h611v-279h-901z" />
<glyph unicode="F" horiz-adv-x="1193" d="M156 0v1253h901v-278h-611v-205h435v-278h-435v-492h-290z" />
<glyph unicode="G" horiz-adv-x="1343" d="M137 627q0 183 82.5 331t229.5 232t331 84q118 0 242.5 -34.5t198.5 -102.5l-117 -246q-45 42 -122.5 71t-141.5 29q-158 0 -270.5 -103.5t-112.5 -260.5q0 -179 102.5 -272t284.5 -93q51 0 86 25v375h289v-539q-11 -15 -56 -41q-178 -102 -383 -102q-285 0 -464 180.5 t-179 466.5z" />
<glyph unicode="H" horiz-adv-x="1327" d="M156 0v1253h290v-446h433v446h292v-1253h-292v528h-433v-528h-290z" />
<glyph unicode="I" horiz-adv-x="604" d="M156 0v1253h293v-1253h-293z" />
<glyph unicode="J" horiz-adv-x="999" d="M102 109l123 245q34 -33 91 -55.5t106 -22.5h4q40 0 68 18q30 19 44 53.5t19.5 69t5.5 77.5v759h293v-630q0 -74 -2 -126.5t-10.5 -124.5t-24 -122.5t-45 -105t-70.5 -88t-103 -55t-140 -21.5q-212 0 -359 129z" />
<glyph unicode="K" horiz-adv-x="1314" d="M156 0v1253h293v-432l362 432h336l-432 -555l485 -698h-348l-403 584v-584h-293z" />
<glyph unicode="L" horiz-adv-x="974" d="M156 0v1253h293v-974h370v-279h-663z" />
<glyph unicode="M" horiz-adv-x="1603" d="M156 0v1253h266l381 -444l379 444h266v-1253h-291v840l-354 -434l-357 428v-834h-290z" />
<glyph unicode="N" horiz-adv-x="1327" d="M156 0v1253h293l430 -729v729h292v-1253h-294l-431 711v-711h-290z" />
<glyph unicode="O" horiz-adv-x="1458" d="M137 621q0 135 41 254t116.5 207.5t188.5 140t250 51.5q136 0 248 -51t185.5 -139.5t114 -207t40.5 -253.5q0 -134 -39.5 -250.5t-113.5 -204t-186.5 -138t-250.5 -50.5t-251.5 50.5t-187.5 137.5t-114.5 203.5t-40.5 249.5zM457 621q0 -55 7.5 -106.5t27 -104t49.5 -91 t79.5 -62.5t112.5 -24q78 0 134 35t84.5 94t40.5 121t12 133q0 58 -8 112.5t-27.5 107.5t-50 92.5t-78.5 63.5t-109 24q-75 0 -131 -35.5t-85.5 -95.5t-43.5 -125.5t-14 -138.5z" />
<glyph unicode="P" horiz-adv-x="1247" d="M156 0v1253h559q114 0 206 -62t140.5 -159t48.5 -205q0 -111 -51 -212t-143 -164.5t-201 -63.5h-269v-387h-290zM446 666h236q65 0 106 43t41 106q0 65 -43 112.5t-104 47.5h-236v-309z" />
<glyph unicode="Q" horiz-adv-x="1458" d="M137 623q0 179 70 325t207.5 234t318.5 88q180 0 315.5 -88.5t204 -236t68.5 -331.5q0 -87 -16.5 -168t-51 -156.5t-93.5 -138.5t-138 -104l264 -293h-364l-203 228h-20q-123 0 -227 46q-112 51 -184 140.5t-111.5 206.5t-39.5 248zM457 616q0 -55 7.5 -106.5t27 -103.5 t49.5 -90.5t79.5 -62.5t112.5 -24q77 0 133 35t84.5 94t41 121.5t12.5 132.5q0 58 -8 112.5t-27.5 107.5t-50 92.5t-78.5 63.5t-109 24q-75 0 -131 -35.5t-86 -95t-43.5 -126t-13.5 -139.5z" />
<glyph unicode="R" horiz-adv-x="1333" d="M156 0v1253h561q170 0 280.5 -110.5t110.5 -276.5q0 -113 -55 -208t-152 -138l295 -520h-338l-246 469h-166v-469h-290zM446 711h232q65 0 105 41t40 104t-42 107.5t-103 44.5h-232v-297z" />
<glyph unicode="S" horiz-adv-x="1214" d="M137 109l115 260q52 -36 162.5 -75.5t175.5 -39.5q61 0 116.5 33t55.5 88q0 36 -30 65t-78 50.5t-106 43.5t-116.5 53t-106.5 71.5t-78 105t-30 147.5q0 92 36 162.5t99.5 113t143.5 64t174 21.5q110 0 218 -29.5t175 -91.5l-94 -217q-40 35 -122.5 58.5t-144.5 23.5 q-41 0 -80 -9.5t-71.5 -36.5t-32.5 -67q0 -38 31 -66t80 -47t109 -38.5t119.5 -47t108.5 -64t80 -98t31 -141.5q0 -123 -67.5 -220t-178.5 -149t-243 -52q-109 0 -240 34t-211 95z" />
<glyph unicode="T" horiz-adv-x="1239" d="M102 983v270h1035v-270h-371v-983h-291v983h-373z" />
<glyph unicode="U" horiz-adv-x="1271" d="M143 494v759h285v-759q0 -102 55 -170t154 -68q98 0 152.5 68.5t54.5 169.5v759h284v-759q0 -233 -131 -373.5t-366 -140.5q-232 0 -360 138.5t-128 375.5z" />
<glyph unicode="V" horiz-adv-x="1361" d="M102 1253h308l272 -868l272 868h306l-408 -1253h-340z" />
<glyph unicode="W" horiz-adv-x="2228" d="M102 1253h301l281 -866l283 854h293l288 -854l277 866h301l-410 -1253h-338l-262 807l-264 -807h-338z" />
<glyph unicode="X" horiz-adv-x="1394" d="M115 0l379 655l-344 598h294l252 -415l256 415h293l-346 -598l381 -655h-295l-289 436l-286 -436h-295z" />
<glyph unicode="Y" horiz-adv-x="1353" d="M102 1253h293l281 -462l282 462h293l-430 -723v-530h-291v530z" />
<glyph unicode="Z" horiz-adv-x="1300" d="M156 0v268l608 715h-578v270h959v-270l-598 -715h598v-268h-989z" />
<glyph unicode="[" horiz-adv-x="669" d="M92 -350v2042h486v-262h-195v-1520h195v-260h-486z" />
<glyph unicode="\" horiz-adv-x="901" d="M25 1438h292l560 -1618h-293z" />
<glyph unicode="]" horiz-adv-x="669" d="M92 -162h195v1520h-195v260h486v-2042h-486v262z" />
<glyph unicode="^" horiz-adv-x="1294" d="M293 698l219 678h295l219 -678h-244l-123 449l-122 -449h-244z" />
<glyph unicode="_" horiz-adv-x="1404" d="M92 -86h1221v-260h-1221v260z" />
<glyph unicode="`" horiz-adv-x="655" d="M141 1526h277l98 -258h-225z" />
<glyph unicode="a" d="M70 540q0 79 13.5 154.5t44.5 147.5t76.5 126t115.5 87t155 33q77 0 158.5 -40.5t129.5 -103.5v123h269v-462q0 -194 11 -268q5 -34 11.5 -57t19.5 -46t36 -34.5t56 -11.5l-72 -210q-107 0 -166 34.5t-116 125.5q-51 -72 -142.5 -115.5t-182.5 -43.5q-105 0 -188 51.5 t-131.5 135t-73 179.5t-24.5 195zM372 547q0 -56 10.5 -104.5t33 -91.5t65.5 -68t101 -25q33 0 73.5 14t74 43.5t33.5 64.5v301q0 57 -63.5 105t-118.5 48q-53 0 -94.5 -26t-65.5 -68.5t-36.5 -91.5t-12.5 -101z" />
<glyph unicode="b" horiz-adv-x="1214" d="M137 0v1434h269v-437q34 46 116.5 71.5t159.5 25.5q82 0 153 -32.5t121 -87.5t86 -126t53 -148.5t17 -154.5q-1 -81 -20.5 -161.5t-59 -153.5t-95 -128.5t-133 -88.5t-167.5 -33q-73 0 -119 23.5t-112 86.5v-90h-269zM406 336q29 -37 77 -60.5t103 -23.5 q106 0 170.5 84.5t64.5 200.5q0 121 -66 210t-175 89q-54 0 -102 -22.5t-72 -61.5v-416z" />
<glyph unicode="c" horiz-adv-x="1091" d="M102 543q0 235 144.5 392t369.5 157q115 0 224 -42.5t170 -117.5l-97 -193q-36 43 -102 67.5t-129 24.5q-122 0 -208.5 -85t-86.5 -207q0 -119 81.5 -202t199.5 -83q64 0 133 26.5t112 69.5l97 -194q-70 -79 -181 -127.5t-227 -48.5q-109 0 -203 45t-158.5 122 t-101.5 179.5t-37 216.5z" />
<glyph unicode="d" horiz-adv-x="1214" d="M102 569q0 105 28.5 198.5t82.5 167.5t141 117.5t195 43.5q84 0 155.5 -25t104.5 -70v433h268v-1434h-268v90q-53 -59 -109 -84.5t-129 -25.5q-110 0 -200.5 50.5t-148 134.5t-89 188.5t-31.5 215.5zM416 526q0 -71 20.5 -134t71 -109.5t123.5 -46.5q55 0 102 24.5 t76 63.5v411q-22 38 -71 61t-101 23q-102 0 -161.5 -86.5t-59.5 -206.5z" />
<glyph unicode="e" horiz-adv-x="1132" d="M102 549q0 108 32 205.5t92 173t153 120t207 44.5q204 0 324 -136t120 -358q0 -74 -2 -123h-641q0 -110 71 -180t179 -70q78 0 155.5 35t122.5 94l105 -209q-57 -80 -168.5 -122.5t-228.5 -42.5q-150 0 -270 75.5t-185.5 205.5t-65.5 288zM399 680h375q0 79 -53 131.5 t-129 52.5q-79 0 -136 -54t-57 -130z" />
<glyph unicode="f" horiz-adv-x="868" d="M31 831v240h162q0 166 107 284t271 118q67 0 139.5 -18.5t116.5 -55.5l-86 -180q-45 22 -102 22q-80 0 -128 -46t-48 -124h303v-240h-305v-831h-268v831h-162z" />
<glyph unicode="g" horiz-adv-x="1204" d="M102 582q0 140 52.5 256t153.5 186t231 70q83 0 156 -29t102 -84v90h270v-795q0 -98 -15 -189.5t-51 -179.5t-90 -153t-138 -105t-189 -40q-102 0 -223 29.5t-179 82.5l113 230q54 -31 124 -50.5t128 -19.5q111 0 180.5 73t69.5 183q-77 -74 -234 -74q-142 0 -249 73.5 t-159.5 189.5t-52.5 256zM399 590q0 -99 56.5 -175.5t154.5 -76.5q54 0 110.5 21.5t76.5 66.5v305l-2 2q-2 4 -7 12.5t-10.5 16t-11.5 14.5q-46 60 -145 60q-102 0 -162 -73t-60 -173z" />
<glyph unicode="h" horiz-adv-x="1187" d="M156 0v1434h278v-512q26 75 107.5 123.5t179.5 48.5q78 0 137.5 -33t95 -90.5t53 -129.5t17.5 -155v-686h-274v565q0 207 -152 207q-85 0 -124.5 -60t-39.5 -147v-565h-278z" />
<glyph unicode="i" horiz-adv-x="634" d="M156 1352q0 65 47.5 109t113.5 44t114 -44t48 -109t-48.5 -110.5t-113.5 -45.5t-113 45.5t-48 110.5zM178 0v1071h277v-1071h-277z" />
<glyph unicode="j" horiz-adv-x="765" d="M-76 -332l103 209q44 -24 104 -24q35 0 62 15t44 34.5t29 56.5t17.5 62t8.5 71.5t3 64v58.5v856h283v-895q-1 -87 -12.5 -164.5t-40.5 -153t-73.5 -129.5t-116 -87t-163.5 -33q-153 0 -248 59zM281 1354q0 65 47 109t112 44q66 0 114 -44t48 -109t-48.5 -110.5 t-113.5 -45.5t-112 45.5t-47 110.5z" />
<glyph unicode="k" horiz-adv-x="1204" d="M137 0v1434h271v-676l272 313h338l-400 -450l490 -621h-336l-364 453v-453h-271z" />
<glyph unicode="l" horiz-adv-x="718" d="M76 438v996h282v-990v-28.5t1 -31.5t3.5 -36.5t6.5 -33t11.5 -33t17 -24.5t24.5 -18.5t33 -5.5q47 0 90 31l98 -213q-102 -71 -244 -71q-81 0 -141 27.5t-94.5 70t-54.5 105.5t-26.5 122t-6.5 133z" />
<glyph unicode="m" horiz-adv-x="1779" d="M156 0v1071h276v-147q28 75 109 122.5t178 47.5q92 0 163.5 -48t106.5 -147q33 98 111 146.5t182 48.5q87 0 153 -34t104.5 -92.5t57.5 -129.5t19 -152v-686h-277v565q0 207 -149 207q-83 0 -123.5 -59t-40.5 -146v-567h-278v565q0 207 -150 207q-85 0 -125.5 -60 t-40.5 -147v-565h-276z" />
<glyph unicode="n" horiz-adv-x="1187" d="M156 0v1071h276v-149q28 75 110 123.5t183 48.5q79 0 138 -32t93.5 -89.5t51 -129t16.5 -157.5v-686h-276v565q0 207 -150 207q-59 0 -98 -31.5t-53.5 -76t-14.5 -99.5v-565h-276z" />
<glyph unicode="o" horiz-adv-x="1234" d="M102 520q0 153 63 279.5t182 203t271 76.5t271 -77t181.5 -203.5t62.5 -278.5q0 -151 -61.5 -276t-180.5 -201t-273 -76q-153 0 -272 75.5t-181.5 201t-62.5 276.5zM401 518q0 -53 11.5 -104.5t35 -99.5t68.5 -77.5t105 -29.5q59 0 102.5 29.5t66.5 78t33.5 99.5 t10.5 106q0 56 -10.5 108t-33.5 100.5t-66 78t-101 29.5q-59 0 -103.5 -30t-69.5 -78.5t-37 -101.5t-12 -108z" />
<glyph unicode="p" horiz-adv-x="1212" d="M137 -371v1442h269v-92q57 63 108.5 89t126.5 26q109 0 200 -51t148.5 -134t89 -184.5t31.5 -206.5q0 -98 -27 -191.5t-79.5 -172t-139.5 -126.5t-196 -48q-81 0 -153 26.5t-109 83.5v-461h-269zM406 319q23 -40 70.5 -63t101.5 -23q74 0 129.5 45t82.5 112.5t27 144.5 q0 118 -62 205t-169 87q-56 0 -104 -25.5t-76 -64.5v-418z" />
<glyph unicode="q" horiz-adv-x="1214" d="M102 532q0 104 28 201t81.5 178.5t142.5 131t201 49.5q79 0 134 -25.5t120 -85.5v90h268v-1442h-268v461q-38 -57 -110.5 -83.5t-153.5 -26.5q-109 0 -195.5 48t-139.5 128t-80.5 176.5t-27.5 199.5zM408 543q0 -119 62.5 -202t166.5 -83q53 0 102 23t70 63v385 q-27 40 -75 65t-105 25q-72 -1 -123.5 -41.5t-74.5 -101.5t-23 -133z" />
<glyph unicode="r" horiz-adv-x="907" d="M156 0v1071h278v-149q26 74 105.5 122t171.5 48q68 0 153 -39l-137 -295q-39 24 -106 24q-99 0 -143 -69t-44 -176v-537h-278z" />
<glyph unicode="s" horiz-adv-x="1046" d="M115 86l108 242q52 -39 120 -65.5t124 -26.5q53 0 95 24t42 68q0 30 -23 52.5t-59.5 38t-80.5 32t-88 40.5t-80.5 55.5t-59.5 85.5t-23 124q0 109 54.5 187.5t139.5 114.5t191 36q94 0 195.5 -28t149.5 -85l-84 -195q-34 29 -91 45.5t-104 16.5q-33 0 -62 -6.5t-53 -27 t-24 -52.5q0 -31 23.5 -54.5t61.5 -40.5t84 -34.5t92 -42t84 -56.5t61.5 -84.5t23.5 -119.5q0 -109 -59.5 -190.5t-153.5 -120.5t-207 -39q-97 0 -209.5 27.5t-187.5 78.5z" />
<glyph unicode="t" horiz-adv-x="837" d="M31 831v240h159v270h271v-270h301v-240h-301v-385v-27v-31t1 -29.5t3.5 -31.5t6.5 -27.5t10.5 -26.5t15.5 -19t22 -14t29 -4q50 0 96 36l92 -209q-61 -42 -113.5 -61.5t-119.5 -19.5q-81 0 -142 28.5t-98 79t-55.5 116t-18.5 144.5v481h-159z" />
<glyph unicode="u" horiz-adv-x="1189" d="M164 1071h278v-586q0 -206 152 -206q44 0 77.5 17t52 47t27.5 65.5t9 76.5v586h274v-1071h-274v150q-26 -74 -109.5 -123.5t-182.5 -49.5q-82 0 -143 37.5t-94.5 102t-49 139.5t-15.5 162z" />
<glyph unicode="v" horiz-adv-x="1105" d="M88 1071h279l180 -665l180 665h291l-332 -1071h-276z" />
<glyph unicode="w" horiz-adv-x="1763" d="M88 1071h285l174 -665l180 663h297l182 -663l172 665h297l-332 -1071h-276l-188 680l-195 -680h-274z" />
<glyph unicode="x" horiz-adv-x="1167" d="M96 0l336 567l-282 504h270l170 -287l168 287h282l-290 -504l321 -567h-287l-194 322l-195 -322h-299z" />
<glyph unicode="y" horiz-adv-x="1099" d="M88 1071h297l182 -633l181 633h286q-64 -184 -160 -491.5t-114 -362.5q-23 -72 -41.5 -124t-45.5 -119.5t-52.5 -115t-60 -97t-69.5 -79.5t-79.5 -49.5t-92.5 -19.5q-52 0 -114.5 18.5t-110.5 46.5l96 218q48 -29 95 -29q100 0 141 209z" />
<glyph unicode="z" horiz-adv-x="976" d="M84 0v242l473 594h-434v233h760v-231l-469 -596h479v-242h-809z" />
<glyph unicode="{" horiz-adv-x="892" d="M92 668l223 194v510q0 142 87.5 229t228.5 87h170v-261q-43 0 -75 -5.5t-61 -21t-44 -46t-15 -76.5v-485l-149 -125l149 -125v-488q0 -46 15 -76.5t44 -45t60.5 -20t75.5 -5.5v-262h-170q-141 0 -228.5 87t-87.5 228v514z" />
<glyph unicode="|" horiz-adv-x="475" d="M92 -350v2060h291v-2060h-291z" />
<glyph unicode="}" horiz-adv-x="892" d="M92 -92q43 0 75 5.5t61 21t44 46t15 76.5v488l151 125l-151 125v485q0 87 -52 118.5t-143 31.5v260h170q142 0 229 -87.5t87 -228.5v-510l223 -194l-223 -193v-514q0 -142 -86.5 -228.5t-229.5 -86.5h-170v260z" />
<glyph unicode="~" horiz-adv-x="1239" d="M219 553q43 85 108 140t148 55q49 0 119 -29t104 -29q36 0 67 17t46 47l188 -103q-43 -77 -109 -129.5t-145 -52.5q-49 0 -121 31.5t-106 31.5q-38 0 -74 -21.5t-53 -53.5z" />
<glyph unicode="&#xa1;" horiz-adv-x="606" d="M92 -188l96 1060h232l94 -1060h-422zM141 1161q0 66 48 112t114 46q67 0 116.5 -46t49.5 -112q0 -65 -49.5 -111t-116.5 -46q-66 0 -114 45.5t-48 111.5z" />
<glyph unicode="&#xa2;" horiz-adv-x="1273" d="M137 616q0 163 58.5 297.5t175.5 225.5t278 116v160h172v-155q82 -10 178.5 -46.5t151.5 -85.5l-117 -245q-46 42 -132.5 71t-170.5 23q-133 -8 -213 -104.5t-80 -258.5q0 -161 79 -256t212 -104q86 -6 172.5 23t132.5 71l117 -246q-55 -49 -150.5 -84t-179.5 -45v-172 h-172v176q-161 25 -278 116t-175.5 225.5t-58.5 297.5z" />
<glyph unicode="&#xa3;" horiz-adv-x="1069" d="M94 6v223h27q42 0 76 39.5t52 96.5t27 109.5t9 90.5h-164v166h166q-4 81 6.5 156.5t39 146.5t72.5 124t112.5 84.5t154.5 31.5q85 0 171 -29.5t134 -83.5l-80 -164q-38 27 -89 44.5t-97 17.5q-41 0 -73 -14.5t-51.5 -42t-32.5 -57.5t-18.5 -71t-7.5 -72.5t-2 -70.5h213 v-166h-213q0 -68 -33 -185.5t-75 -150.5h436v-223h-760z" />
<glyph unicode="&#xa4;" horiz-adv-x="1230" d="M92 172l154 150q-39 77 -39 182q0 100 37 184l-152 152l191 190l145 -149q86 47 182 47q101 0 189 -51l149 153l191 -190l-162 -160q35 -71 35 -174t-35 -172l162 -162l-191 -186l-143 145q-91 -51 -193 -51q-92 0 -188 47l-141 -141zM399 504q0 -92 60 -154.5t153 -62.5 q92 0 148.5 62.5t56.5 154.5t-58 155.5t-147 63.5q-91 0 -152 -63.5t-61 -155.5z" />
<glyph unicode="&#xa5;" horiz-adv-x="1353" d="M102 1253h293l281 -444l282 444h293l-391 -655h227v-162h-266v-71h266v-162h-266v-203h-291v203h-266v162h266v71h-266v162h228z" />
<glyph unicode="&#xa6;" horiz-adv-x="475" d="M92 -367v791h291v-791h-291zM92 565v791h291v-791h-291z" />
<glyph unicode="&#xa7;" horiz-adv-x="1284" d="M115 -246l116 260q47 -34 161 -74t179 -40q34 0 70.5 11t68 39.5t31.5 69.5q0 40 -30 69.5t-78.5 50.5t-106.5 42t-116 49.5t-106.5 66.5t-78.5 100.5t-30 144.5q0 99 43.5 179.5t126.5 129.5q-56 74 -56 184q0 93 36 165t100 115t145.5 65t177.5 22q110 0 214 -28.5 t175 -92.5l-94 -217q-37 34 -122 58t-148 24q-39 0 -77.5 -10t-71 -37t-32.5 -66q0 -38 30.5 -66.5t80 -48t108.5 -38.5t118.5 -46t109 -63t80 -96t30.5 -139q0 -93 -40.5 -177t-116.5 -143q43 -65 43 -162q0 -125 -67.5 -224.5t-179 -152.5t-243.5 -53q-108 0 -239 34 t-211 95zM498 537q0 -38 28.5 -65t74.5 -39t84.5 -16.5t76.5 -4.5h26q31 15 50.5 42.5t19.5 57.5q0 61 -70.5 102t-134.5 41q-55 0 -105 -32t-50 -86z" />
<glyph unicode="&#xa8;" horiz-adv-x="925" d="M154 1405q0 54 38.5 91.5t92.5 37.5q53 0 91 -37.5t38 -91.5q0 -55 -37.5 -93t-91.5 -38q-55 0 -93 38.5t-38 92.5zM549 1405q0 54 37.5 91.5t91.5 37.5t92.5 -37.5t38.5 -91.5q0 -55 -37.5 -93t-93.5 -38q-54 0 -91.5 38.5t-37.5 92.5z" />
<glyph unicode="&#xa9;" horiz-adv-x="1556" d="M102 606q0 137 53.5 262.5t144 216t216 144t262.5 53.5t262.5 -53.5t216 -144t144 -216t53.5 -262.5t-53.5 -262.5t-144 -216t-216 -144t-262.5 -53.5t-262.5 53.5t-216 144t-144 216t-53.5 262.5zM166 606q0 -166 82 -307t223 -223t307 -82q165 0 306 82t223 223t82 307 q0 124 -48.5 237t-130.5 195t-195 130.5t-237 48.5q-166 0 -307 -82t-223 -223t-82 -306zM410 610q0 173 105.5 286.5t270.5 113.5q85 0 165 -31t124 -86l-69 -139q-28 31 -77 48t-95 17q-89 0 -153.5 -61t-64.5 -150q0 -87 60 -147t147 -60q47 0 98.5 19t84.5 51l69 -141 q-51 -57 -133 -92t-166 -35q-159 0 -262.5 118t-103.5 289z" />
<glyph unicode="&#xaa;" horiz-adv-x="729" d="M53 799q0 103 69 169t169 66q64 0 119 -28q-18 94 -105 94q-41 0 -92.5 -21t-73.5 -47l-59 137q47 47 111.5 73t132.5 26q67 0 119 -26.5t82.5 -72.5t46.5 -100.5t18 -116.5q0 -8 -0.5 -28t-0.5 -32t1 -32t3 -33.5t6 -30t10.5 -27.5t15.5 -20.5t22 -14.5t29 -5l-70 -143 q-109 0 -157 61q-64 -61 -170 -61q-102 0 -164 58.5t-62 154.5zM231 809q0 -34 27.5 -52t65.5 -18q60 0 92 35l-2 88q-31 31 -86 31q-43 0 -70 -25t-27 -59z" />
<glyph unicode="&#xab;" horiz-adv-x="1165" d="M92 492l225 428h293l-221 -428l221 -429h-293zM557 492l225 428h291l-219 -428l219 -429h-291z" />
<glyph unicode="&#xac;" horiz-adv-x="1042" d="M92 731v260h858v-549h-291v289h-567z" />
<glyph unicode="&#xad;" horiz-adv-x="1026" d="M92 453v260h842v-260h-842z" />
<glyph unicode="&#xae;" horiz-adv-x="1556" d="M102 606q0 137 53.5 262.5t144 216t216 144t262.5 53.5t262.5 -53.5t216 -144t144 -216t53.5 -262.5t-53.5 -262.5t-144 -216t-216 -144t-262.5 -53.5t-262.5 53.5t-216 144t-144 216t-53.5 262.5zM162 604q0 -166 83 -307.5t225 -224t308 -82.5q125 0 239.5 49t197 131 t131.5 196t49 238q0 125 -49 239.5t-131.5 197t-197 131.5t-239.5 49t-238.5 -49t-196.5 -131.5t-132 -197t-49 -239.5zM528 276v672h303q92 0 152.5 -59.5t60.5 -149.5q0 -60 -28 -110t-78 -76l158 -277h-195q-12 15 -37 62.5t-56.5 112t-35.5 73.5h-76v-248h-168zM696 664 h115q31 0 50.5 20t19.5 49q0 31 -20.5 52.5t-49.5 21.5h-115v-143z" />
<glyph unicode="&#xaf;" horiz-adv-x="1595" d="M428 1333v176h842v-176h-842z" />
<glyph unicode="&#xb0;" horiz-adv-x="894" d="M174 1036q0 113 78 188.5t190 75.5q111 0 189 -76t78 -188q0 -111 -77.5 -188.5t-189.5 -77.5q-114 0 -191 76.5t-77 189.5zM317 1038q0 -52 36 -89.5t89 -37.5q52 0 88.5 36.5t36.5 90.5q0 52 -37 88.5t-88 36.5q-53 0 -89 -36.5t-36 -88.5z" />
<glyph unicode="&#xb1;" horiz-adv-x="1030" d="M92 31v260h842v-260h-842zM96 684v260h277v291h291v-291h274v-260h-274v-291h-291v291h-277z" />
<glyph unicode="&#xb2;" horiz-adv-x="563" d="M43 602v53v33q2 38 24.5 75t54.5 65.5t69 58.5t68.5 54t52 51t20.5 52q0 29 -26 46.5t-60 17.5t-68 -15t-52 -29l-17 -15l-64 127q3 4 9 10t27 22t44.5 28t61 22t77.5 10q99 0 167.5 -61.5t68.5 -151.5q0 -43 -18 -82.5t-46.5 -68.5t-57.5 -52.5t-56 -46t-37 -37.5h233 v-166h-475z" />
<glyph unicode="&#xb3;" horiz-adv-x="563" d="M43 664l53 131q8 -3 26.5 -11t28.5 -11.5t25 -9t28.5 -7.5t26.5 -2q37 0 71 14t34 45q0 14 -7 24t-20.5 15.5t-27.5 9t-34 4.5t-33 1t-31 -0.5t-23 -0.5h-23v129l111 103h-174v155h405v-145l-96 -98q63 -20 100 -76t37 -125q0 -102 -76.5 -160.5t-183.5 -58.5 q-113 0 -217 74z" />
<glyph unicode="&#xb4;" horiz-adv-x="813" d="M246 1266l98 258h277l-150 -258h-225z" />
<glyph unicode="&#xb6;" horiz-adv-x="1030" d="M72 1012q0 114 80 194t194 80h653v-172h-141v-1278h-182v1278h-150v-1278h-180v903q-114 0 -194 79.5t-80 193.5z" />
<glyph unicode="&#xb8;" horiz-adv-x="1595" d="M526 -248l185 352h178l-109 -372z" />
<glyph unicode="&#xb9;" horiz-adv-x="393" d="M37 1184l170 69h143v-653h-182v469l-98 -37z" />
<glyph unicode="&#xba;" horiz-adv-x="747" d="M53 924q0 144 89.5 245t232.5 101q141 0 230 -100.5t89 -245.5q0 -144 -88.5 -244t-230.5 -100q-143 0 -232.5 100t-89.5 244zM254 922q0 -40 10.5 -76.5t39 -65t71.5 -28.5q33 0 57 16t37 42t19 54.5t6 59.5q0 32 -6 60.5t-18.5 54.5t-36.5 41.5t-56 15.5 q-42 0 -71 -28.5t-40.5 -66t-11.5 -79.5z" />
<glyph unicode="&#xbb;" horiz-adv-x="1165" d="M92 66l219 428l-219 428h291l225 -428l-225 -428h-291zM557 66l219 428l-219 428h291l225 -428l-225 -428h-291z" />
<glyph unicode="&#xbf;" horiz-adv-x="948" d="M92 162v12q12 260 236 361q83 38 125 38v279h243v-459h-104q-76 0 -138.5 -53t-62.5 -127q0 -70 56.5 -114t123.5 -44q45 0 107.5 20.5t99.5 45.5l78 -215q-57 -44 -171 -71.5t-204 -27.5q-78 0 -148 23.5t-124 67t-85.5 112t-31.5 152.5zM414 1147q0 65 48.5 110.5 t115.5 45.5q66 0 114.5 -45.5t48.5 -110.5q0 -67 -48 -112.5t-115 -45.5t-115.5 45.5t-48.5 112.5z" />
<glyph unicode="&#xc0;" horiz-adv-x="1359" d="M102 0l371 1253h412l372 -1253h-292l-91 279h-389l-90 -279h-293zM440 1700h275l98 -258h-225zM553 541h254l-127 440z" />
<glyph unicode="&#xc1;" horiz-adv-x="1359" d="M102 0l371 1253h412l372 -1253h-292l-91 279h-389l-90 -279h-293zM506 1440l98 258h275l-148 -258h-225zM553 541h254l-127 440z" />
<glyph unicode="&#xc2;" horiz-adv-x="1359" d="M102 0l371 1253h412l372 -1253h-292l-91 279h-389l-90 -279h-293zM430 1427l121 275h256l121 -275h-176l-72 138l-70 -138h-180zM553 541h254l-127 440z" />
<glyph unicode="&#xc3;" horiz-adv-x="1359" d="M102 0l371 1253h412l372 -1253h-292l-91 279h-389l-90 -279h-293zM301 1546q30 76 103 123t151 47q46 0 128.5 -27.5t129.5 -27.5q69 0 100 59l189 -96q-29 -75 -87 -125.5t-138 -50.5q-48 0 -134 31.5t-133 31.5q-90 0 -135 -77zM553 541h254l-127 440z" />
<glyph unicode="&#xc4;" horiz-adv-x="1359" d="M102 0l371 1253h412l372 -1253h-292l-91 279h-389l-90 -279h-293zM350 1546q0 54 38.5 92.5t92.5 38.5q53 0 91 -38t38 -93q0 -54 -37.5 -92.5t-91.5 -38.5q-55 0 -93 39t-38 92zM553 541h254l-127 440zM745 1546q0 55 37.5 93t91.5 38t93 -38t39 -93q0 -54 -39 -91.5 t-93 -37.5q-55 0 -92 37.5t-37 91.5z" />
<glyph unicode="&#xc5;" horiz-adv-x="1359" d="M102 0l371 1253h412l372 -1253h-292l-91 279h-389l-90 -279h-293zM500 1526q0 75 52.5 126.5t125.5 51.5q74 0 127 -52t53 -126q0 -73 -52 -125.5t-128 -52.5q-75 0 -126.5 52t-51.5 126zM553 541h254l-127 440zM600 1528q0 -31 23 -54.5t55 -23.5t56 23t24 55t-24.5 55 t-55.5 23q-32 0 -55 -23.5t-23 -54.5z" />
<glyph unicode="&#xc6;" horiz-adv-x="1736" d="M102 0l404 1253h1075v-278h-610v-205h481v-248h-481v-243h610v-279h-901v279h-195l-90 -279h-293zM553 541h127v440z" />
<glyph unicode="&#xc7;" horiz-adv-x="1273" d="M137 625q0 183 74 331t209.5 234t308.5 86q114 0 234.5 -36t187.5 -99l-117 -244q-46 41 -124.5 68.5t-151.5 27.5q-146 0 -233 -103.5t-87 -262.5q0 -158 86 -260.5t232 -102.5q75 0 153.5 27.5t124.5 70.5l117 -245q-59 -54 -166.5 -90t-196.5 -41l-75 -252l-252 20 l129 250q-146 36 -249.5 128.5t-153.5 218t-50 274.5z" />
<glyph unicode="&#xc8;" horiz-adv-x="1212" d="M156 0v1253h901v-278h-608v-205h481v-248h-481v-243h608v-279h-901zM420 1700h276l97 -258h-226z" />
<glyph unicode="&#xc9;" horiz-adv-x="1212" d="M156 0v1253h901v-278h-608v-205h481v-248h-481v-243h608v-279h-901zM444 1440l99 258h274l-147 -258h-226z" />
<glyph unicode="&#xca;" horiz-adv-x="1212" d="M156 0v1253h901v-278h-608v-205h481v-248h-481v-243h608v-279h-901zM373 1430l121 274h256l120 -274h-176l-73 135l-70 -135h-178z" />
<glyph unicode="&#xcb;" horiz-adv-x="1212" d="M156 0v1253h901v-278h-608v-205h481v-248h-481v-243h608v-279h-901zM291 1546q0 54 37.5 91.5t91.5 37.5t92.5 -37.5t38.5 -91.5t-38.5 -92.5t-92.5 -38.5t-91.5 38.5t-37.5 92.5zM684 1546q0 54 38.5 91.5t92.5 37.5t92.5 -37.5t38.5 -91.5t-38.5 -92.5t-92.5 -38.5 q-55 0 -93 38.5t-38 92.5z" />
<glyph unicode="&#xcc;" horiz-adv-x="581" d="M33 1700h274l99 -258h-226zM135 0v1253h291v-1253h-291z" />
<glyph unicode="&#xcd;" horiz-adv-x="606" d="M156 0v1253h290v-1253h-290zM201 1440l98 258h274l-147 -258h-225z" />
<glyph unicode="&#xce;" horiz-adv-x="563" d="M33 1430l121 274h256l120 -274h-176l-73 135l-70 -135h-178zM135 0v1253h291v-1253h-291z" />
<glyph unicode="&#xcf;" horiz-adv-x="450" d="M-102 1546q0 54 38.5 91.5t92.5 37.5q53 0 91 -37.5t38 -91.5t-37.5 -92.5t-91.5 -38.5q-55 0 -93 38.5t-38 92.5zM80 0v1253h291v-1253h-291zM293 1546q0 54 37.5 91.5t91.5 37.5t92.5 -37.5t38.5 -91.5t-38.5 -92.5t-92.5 -38.5q-55 0 -92 38t-37 93z" />
<glyph unicode="&#xd0;" horiz-adv-x="1439" d="M31 530v213h153v510h496q287 0 455 -161t168 -433q0 -140 -47 -262.5t-129 -209.5t-198 -137t-249 -50h-496v530h-153zM477 279h203q147 0 227 104.5t80 259.5q0 149 -78 240.5t-229 91.5h-203v-232h201v-213h-201v-251z" />
<glyph unicode="&#xd1;" horiz-adv-x="1327" d="M156 0v1253h293l430 -729v729h292v-1253h-294l-431 711v-711h-290zM262 1546q28 76 101.5 123t152.5 47q46 0 128 -27.5t128 -27.5q71 0 100 59l189 -96q-27 -74 -85.5 -125t-137.5 -51q-48 0 -135 31.5t-134 31.5q-90 0 -135 -77z" />
<glyph unicode="&#xd2;" horiz-adv-x="1458" d="M137 621q0 135 41 254t116.5 207.5t188.5 140t250 51.5q136 0 248 -51t185.5 -139.5t114 -207t40.5 -253.5q0 -134 -39.5 -250.5t-113.5 -204t-186.5 -138t-250.5 -50.5t-251.5 50.5t-187.5 137.5t-114.5 203.5t-40.5 249.5zM457 621q0 -55 7.5 -106.5t27 -104t49.5 -91 t79.5 -62.5t112.5 -24q78 0 134 35t84.5 94t40.5 121t12 133q0 58 -8 112.5t-27.5 107.5t-50 92.5t-78.5 63.5t-109 24q-75 0 -131 -35.5t-85.5 -95.5t-43.5 -125.5t-14 -138.5zM532 1700h277l98 -258h-225z" />
<glyph unicode="&#xd3;" horiz-adv-x="1458" d="M137 621q0 135 41 254t116.5 207.5t188.5 140t250 51.5q136 0 248 -51t185.5 -139.5t114 -207t40.5 -253.5q0 -134 -39.5 -250.5t-113.5 -204t-186.5 -138t-250.5 -50.5t-251.5 50.5t-187.5 137.5t-114.5 203.5t-40.5 249.5zM457 621q0 -55 7.5 -106.5t27 -104t49.5 -91 t79.5 -62.5t112.5 -24q78 0 134 35t84.5 94t40.5 121t12 133q0 58 -8 112.5t-27.5 107.5t-50 92.5t-78.5 63.5t-109 24q-75 0 -131 -35.5t-85.5 -95.5t-43.5 -125.5t-14 -138.5zM551 1440l98 258h277l-150 -258h-225z" />
<glyph unicode="&#xd4;" horiz-adv-x="1458" d="M137 621q0 135 41 254t116.5 207.5t188.5 140t250 51.5q136 0 248 -51t185.5 -139.5t114 -207t40.5 -253.5q0 -134 -39.5 -250.5t-113.5 -204t-186.5 -138t-250.5 -50.5t-251.5 50.5t-187.5 137.5t-114.5 203.5t-40.5 249.5zM457 621q0 -55 7.5 -106.5t27 -104t49.5 -91 t79.5 -62.5t112.5 -24q78 0 134 35t84.5 94t40.5 121t12 133q0 58 -8 112.5t-27.5 107.5t-50 92.5t-78.5 63.5t-109 24q-75 0 -131 -35.5t-85.5 -95.5t-43.5 -125.5t-14 -138.5zM481 1430l121 274h256l121 -274h-176l-74 135l-70 -135h-178z" />
<glyph unicode="&#xd5;" horiz-adv-x="1458" d="M137 621q0 135 41 254t116.5 207.5t188.5 140t250 51.5q136 0 248 -51t185.5 -139.5t114 -207t40.5 -253.5q0 -134 -39.5 -250.5t-113.5 -204t-186.5 -138t-250.5 -50.5t-251.5 50.5t-187.5 137.5t-114.5 203.5t-40.5 249.5zM352 1546q28 76 101.5 123t152.5 47 q46 0 128 -27.5t128 -27.5q72 0 101 59l188 -96q-27 -74 -85.5 -125t-137.5 -51q-50 0 -135.5 31.5t-130.5 31.5q-90 0 -138 -77zM457 621q0 -55 7.5 -106.5t27 -104t49.5 -91t79.5 -62.5t112.5 -24q78 0 134 35t84.5 94t40.5 121t12 133q0 58 -8 112.5t-27.5 107.5 t-50 92.5t-78.5 63.5t-109 24q-75 0 -131 -35.5t-85.5 -95.5t-43.5 -125.5t-14 -138.5z" />
<glyph unicode="&#xd6;" horiz-adv-x="1458" d="M137 621q0 135 41 254t116.5 207.5t188.5 140t250 51.5q136 0 248 -51t185.5 -139.5t114 -207t40.5 -253.5q0 -134 -39.5 -250.5t-113.5 -204t-186.5 -138t-250.5 -50.5t-251.5 50.5t-187.5 137.5t-114.5 203.5t-40.5 249.5zM401 1550q0 54 37.5 92.5t91.5 38.5t93 -38.5 t39 -92.5t-38.5 -92.5t-93.5 -38.5q-54 0 -91.5 38.5t-37.5 92.5zM457 621q0 -55 7.5 -106.5t27 -104t49.5 -91t79.5 -62.5t112.5 -24q78 0 134 35t84.5 94t40.5 121t12 133q0 58 -8 112.5t-27.5 107.5t-50 92.5t-78.5 63.5t-109 24q-75 0 -131 -35.5t-85.5 -95.5 t-43.5 -125.5t-14 -138.5zM795 1550q0 54 38.5 92.5t92.5 38.5t92.5 -38.5t38.5 -92.5t-38.5 -92.5t-92.5 -38.5q-55 0 -93 38.5t-38 92.5z" />
<glyph unicode="&#xd7;" horiz-adv-x="974" d="M92 854l184 180l211 -209l205 205l191 -188l-207 -207l194 -195l-182 -182l-194 195l-207 -207l-189 190l207 205z" />
<glyph unicode="&#xd8;" horiz-adv-x="1458" d="M137 621q0 183 70 331.5t205 237t311 88.5q74 0 151 -23l62 160h170l-80 -215q151 -84 223 -233t72 -332q0 -184 -67.5 -330.5t-200.5 -233.5t-312 -87q-89 0 -159 20l-54 -139h-170l74 194q-150 85 -222.5 234t-72.5 328zM457 623q0 -179 73 -281l256 666q-27 10 -61 10 q-73 0 -127.5 -35.5t-84 -95t-43 -125.5t-13.5 -139zM668 250q30 -12 71 -12q75 0 129.5 35t82.5 94.5t40.5 123t12.5 134.5q0 187 -78 293z" />
<glyph unicode="&#xd9;" horiz-adv-x="1273" d="M143 494v759h285v-759q0 -102 55 -170t154 -68q98 0 152.5 68.5t54.5 169.5v759h286v-759q0 -233 -131.5 -373.5t-365.5 -140.5q-233 0 -361.5 138.5t-128.5 375.5zM412 1700h276l96 -258h-225z" />
<glyph unicode="&#xda;" horiz-adv-x="1273" d="M143 494v759h285v-759q0 -102 55 -170t154 -68q98 0 152.5 68.5t54.5 169.5v759h286v-759q0 -233 -131.5 -373.5t-365.5 -140.5q-233 0 -361.5 138.5t-128.5 375.5zM461 1440l98 258h277l-150 -258h-225z" />
<glyph unicode="&#xdb;" horiz-adv-x="1273" d="M143 494v759h285v-759q0 -102 55 -170t154 -68q98 0 152.5 68.5t54.5 169.5v759h286v-759q0 -233 -131.5 -373.5t-365.5 -140.5q-233 0 -361.5 138.5t-128.5 375.5zM387 1430l121 274h256l121 -274h-176l-74 135l-70 -135h-178z" />
<glyph unicode="&#xdc;" horiz-adv-x="1273" d="M143 494v759h285v-759q0 -102 55 -170t154 -68q98 0 152.5 68.5t54.5 169.5v759h286v-759q0 -233 -131.5 -373.5t-365.5 -140.5q-233 0 -361.5 138.5t-128.5 375.5zM309 1546q0 53 37.5 91t91.5 38t92.5 -37.5t38.5 -91.5q0 -55 -38.5 -93t-92.5 -38t-91.5 38.5 t-37.5 92.5zM702 1546q0 54 38.5 91.5t93.5 37.5q54 0 92.5 -37.5t38.5 -91.5q0 -55 -38.5 -93t-92.5 -38q-56 0 -94 38t-38 93z" />
<glyph unicode="&#xdd;" horiz-adv-x="1353" d="M102 1253h293l281 -462l282 462h293l-430 -723v-530h-291v530zM565 1440l97 258h276l-147 -258h-226z" />
<glyph unicode="&#xde;" horiz-adv-x="1267" d="M-19042 420h67v-332q24 0 80 1t87.5 1t85.5 -2.5t87 -7.5t79 -16t74.5 -27t60.5 -41.5t49.5 -58t29.5 -77.5t12 -100q0 -81 -24.5 -141.5t-66.5 -94.5t-98 -56t-119 -27.5t-129.5 -9t-129.5 0.5q-18 0 -27.5 0.5t-24 0.5h-26.5v-371h-67v1358zM-18975 23v-525h234 q56 0 103.5 7t93 25.5t77.5 47t51 74t19 104.5t-19.5 106t-52 76.5t-78 49t-93 27.5t-101.5 8h-234zM176 0v1360h277v-244q32 0 86.5 0.5t89 0.5t53.5 -1q141 -3 244.5 -61.5t153.5 -152t50 -208.5q0 -182 -121.5 -304t-326.5 -128q-19 -1 -53.5 -1t-89 0.5t-86.5 0.5v-262 h-277zM453 541h145h21h47.5t45.5 2.5t45 8t37 16t31.5 25.5t18.5 39t8 54q0 28 -5.5 50.5t-18 38t-24.5 26.5t-33.5 18t-37 11t-42.5 5.5t-41.5 2t-43.5 0.5h-8h-145v-297z" />
<glyph unicode="&#xdf;" horiz-adv-x="1232" d="M137 0v813q0 214 118 336.5t329 122.5q71 0 141.5 -15t136.5 -45.5t107 -86.5t41 -130q0 -50 -19 -100t-42.5 -84t-42.5 -73t-19 -68q0 -35 25 -67.5t60.5 -61.5t71.5 -61.5t61 -80.5t25 -106q0 -68 -33.5 -128t-86.5 -99.5t-119.5 -62.5t-132.5 -23q-64 0 -134 19 t-120 52l82 199q84 -41 133 -41q50 0 86.5 37.5t36.5 87.5q0 41 -28.5 74t-69 56.5t-80.5 47.5t-68.5 60t-28.5 81q0 35 17 65.5t41.5 54l49 47t41.5 54t17 64.5q0 57 -40.5 83t-98.5 26q-94 0 -138 -65.5t-44 -162.5v-819h-275z" />
<glyph unicode="&#xe0;" d="M70 540q0 79 13.5 154.5t44.5 147.5t76.5 126t115.5 87t155 33q77 0 158.5 -40.5t129.5 -103.5v123h269v-462q0 -194 11 -268q5 -34 11.5 -57t19.5 -46t36 -34.5t56 -11.5l-72 -210q-107 0 -166 34.5t-116 125.5q-51 -72 -142.5 -115.5t-182.5 -43.5q-105 0 -188 51.5 t-131.5 135t-73 179.5t-24.5 195zM348 1509h277l98 -258h-225zM372 547q0 -56 10.5 -104.5t33 -91.5t65.5 -68t101 -25q33 0 73.5 14t74 43.5t33.5 64.5v301q0 57 -63.5 105t-118.5 48q-53 0 -94.5 -26t-65.5 -68.5t-36.5 -91.5t-12.5 -101z" />
<glyph unicode="&#xe1;" d="M70 540q0 79 13.5 154.5t44.5 147.5t76.5 126t115.5 87t155 33q77 0 158.5 -40.5t129.5 -103.5v123h269v-462q0 -194 11 -268q5 -34 11.5 -57t19.5 -46t36 -34.5t56 -11.5l-72 -210q-107 0 -166 34.5t-116 125.5q-51 -72 -142.5 -115.5t-182.5 -43.5q-105 0 -188 51.5 t-131.5 135t-73 179.5t-24.5 195zM372 547q0 -56 10.5 -104.5t33 -91.5t65.5 -68t101 -25q33 0 73.5 14t74 43.5t33.5 64.5v301q0 57 -63.5 105t-118.5 48q-53 0 -94.5 -26t-65.5 -68.5t-36.5 -91.5t-12.5 -101zM460 1253l98 258h277l-150 -258h-225z" />
<glyph unicode="&#xe2;" d="M70 540q0 79 13.5 154.5t44.5 147.5t76.5 126t115.5 87t155 33q77 0 158.5 -40.5t129.5 -103.5v123h269v-462q0 -194 11 -268q5 -34 11.5 -57t19.5 -46t36 -34.5t56 -11.5l-72 -210q-107 0 -166 34.5t-116 125.5q-51 -72 -142.5 -115.5t-182.5 -43.5q-105 0 -188 51.5 t-131.5 135t-73 179.5t-24.5 195zM372 547q0 -56 10.5 -104.5t33 -91.5t65.5 -68t101 -25q33 0 73.5 14t74 43.5t33.5 64.5v301q0 57 -63.5 105t-118.5 48q-53 0 -94.5 -26t-65.5 -68.5t-36.5 -91.5t-12.5 -101zM376 1260l121 274h256l121 -274h-176l-74 137l-70 -137h-178z " />
<glyph unicode="&#xe3;" d="M70 540q0 79 13.5 154.5t44.5 147.5t76.5 126t115.5 87t155 33q77 0 158.5 -40.5t129.5 -103.5v123h269v-462q0 -194 11 -268q5 -34 11.5 -57t19.5 -46t36 -34.5t56 -11.5l-72 -210q-107 0 -166 34.5t-116 125.5q-51 -72 -142.5 -115.5t-182.5 -43.5q-105 0 -188 51.5 t-131.5 135t-73 179.5t-24.5 195zM190 1381q29 75 102 122.5t150 47.5q46 0 128.5 -27.5t129.5 -27.5q70 0 100 57l188 -94q-27 -75 -85.5 -126.5t-139.5 -51.5q-48 0 -133.5 32t-132.5 32q-91 0 -135 -76zM372 547q0 -56 10.5 -104.5t33 -91.5t65.5 -68t101 -25 q33 0 73.5 14t74 43.5t33.5 64.5v301q0 57 -63.5 105t-118.5 48q-53 0 -94.5 -26t-65.5 -68.5t-36.5 -91.5t-12.5 -101z" />
<glyph unicode="&#xe4;" d="M70 540q0 79 13.5 154.5t44.5 147.5t76.5 126t115.5 87t155 33q77 0 158.5 -40.5t129.5 -103.5v123h269v-462q0 -194 11 -268q5 -34 11.5 -57t19.5 -46t36 -34.5t56 -11.5l-72 -210q-107 0 -166 34.5t-116 125.5q-51 -72 -142.5 -115.5t-182.5 -43.5q-105 0 -188 51.5 t-131.5 135t-73 179.5t-24.5 195zM297 1368q0 54 38.5 91.5t92.5 37.5q53 0 91 -37.5t38 -91.5q0 -55 -37.5 -93t-91.5 -38q-55 0 -93 38.5t-38 92.5zM372 547q0 -56 10.5 -104.5t33 -91.5t65.5 -68t101 -25q33 0 73.5 14t74 43.5t33.5 64.5v301q0 57 -63.5 105t-118.5 48 q-53 0 -94.5 -26t-65.5 -68.5t-36.5 -91.5t-12.5 -101zM693 1368q0 54 37.5 91.5t91.5 37.5t92.5 -37.5t38.5 -91.5q0 -56 -37.5 -93.5t-93.5 -37.5q-54 0 -91.5 38.5t-37.5 92.5z" />
<glyph unicode="&#xe5;" d="M70 540q0 79 13.5 154.5t44.5 147.5t76.5 126t115.5 87t155 33q77 0 158.5 -40.5t129.5 -103.5v123h269v-462q0 -194 11 -268q5 -34 11.5 -57t19.5 -46t36 -34.5t56 -11.5l-72 -210q-107 0 -166 34.5t-116 125.5q-51 -72 -142.5 -115.5t-182.5 -43.5q-105 0 -188 51.5 t-131.5 135t-73 179.5t-24.5 195zM372 547q0 -56 10.5 -104.5t33 -91.5t65.5 -68t101 -25q33 0 73.5 14t74 43.5t33.5 64.5v301q0 57 -63.5 105t-118.5 48q-53 0 -94.5 -26t-65.5 -68.5t-36.5 -91.5t-12.5 -101zM405 1411q0 75 52.5 126.5t125.5 51.5q74 0 127 -52t53 -126 t-52 -126t-128 -52q-75 0 -126.5 52t-51.5 126zM505 1413q0 -32 23 -55t55 -23t56 23t24 55t-24.5 55t-55.5 23q-32 0 -55 -23.5t-23 -54.5z" />
<glyph unicode="&#xe6;" horiz-adv-x="1716" d="M82 326q0 163 106.5 269.5t255.5 106.5q58 0 127.5 -17.5t110.5 -45.5q0 1 -12 53q-18 78 -61.5 115t-125.5 37q-128 0 -264 -101l-90 195q74 74 175 115t204 41q204 0 323 -156q65 75 156 114.5t193 39.5q199 0 316.5 -136.5t117.5 -351.5q0 -12 -1 -57t-1 -72h-641 q0 -100 68.5 -175t179.5 -75q72 0 152 34t128 95l105 -209q-58 -81 -175.5 -123t-228.5 -42q-103 0 -199 38.5t-149 112.5q-60 -68 -180.5 -109.5t-229.5 -41.5q-161 0 -260.5 96t-99.5 250zM350 338q0 -60 45.5 -96.5t112.5 -36.5q52 0 105.5 22t84.5 60q-9 74 -12 149 q-28 31 -76.5 46.5t-87.5 15.5q-71 0 -121.5 -47t-50.5 -113zM983 680h375q0 82 -52 136t-130 54q-81 0 -137 -55.5t-56 -134.5z" />
<glyph unicode="&#xe7;" horiz-adv-x="1091" d="M102 532q0 157 64.5 283.5t182.5 199t267 72.5q116 0 225.5 -42t168.5 -117l-97 -193q-36 44 -101.5 68t-129.5 24q-122 0 -207.5 -84.5t-85.5 -207.5q0 -119 80.5 -202t198.5 -83q66 0 133.5 26t111.5 70l97 -194q-53 -58 -136 -102t-167 -64l-78 -262l-252 22l125 244 q-188 45 -294 194.5t-106 347.5z" />
<glyph unicode="&#xe8;" horiz-adv-x="1132" d="M102 549q0 108 32 205.5t92 173t153 120t207 44.5q204 0 324 -136t120 -358q0 -74 -2 -123h-641q0 -110 71 -180t179 -70q78 0 155.5 35t122.5 94l105 -209q-57 -80 -168.5 -122.5t-228.5 -42.5q-150 0 -270 75.5t-185.5 205.5t-65.5 288zM362 1526h275l98 -258h-225z M399 680h375q0 79 -53 131.5t-129 52.5q-79 0 -136 -54t-57 -130z" />
<glyph unicode="&#xe9;" horiz-adv-x="1132" d="M102 549q0 146 54.5 268t166 198.5t261.5 76.5q205 0 325.5 -136t120.5 -358q0 -8 -1 -51.5t-1 -71.5h-641q-1 -109 70.5 -179.5t179.5 -70.5q77 0 155 35t123 94l105 -209q-57 -80 -168.5 -122.5t-228.5 -42.5q-151 0 -271 75.5t-185 205t-65 288.5zM397 680h377 q0 78 -54 131t-130 53q-77 0 -134.5 -54t-58.5 -130zM504 1266l96 258h277l-148 -258h-225z" />
<glyph unicode="&#xea;" horiz-adv-x="1132" d="M102 549q0 108 32 205.5t92 173t153 120t207 44.5q204 0 324 -136t120 -358q0 -74 -2 -123h-641q0 -110 71 -180t179 -70q78 0 155.5 35t122.5 94l105 -209q-57 -80 -168.5 -122.5t-228.5 -42.5q-150 0 -270 75.5t-185.5 205.5t-65.5 288zM330 1253l121 275h256l120 -275 h-176l-71 138l-70 -138h-180zM399 680h375q0 79 -53 131.5t-129 52.5q-79 0 -136 -54t-57 -130z" />
<glyph unicode="&#xeb;" horiz-adv-x="1132" d="M102 549q0 108 32 205.5t92 173t153 120t207 44.5q204 0 324 -136t120 -358q0 -74 -2 -123h-641q0 -110 71 -180t179 -70q78 0 155.5 35t122.5 94l105 -209q-57 -80 -168.5 -122.5t-228.5 -42.5q-150 0 -270 75.5t-185.5 205.5t-65.5 288zM252 1384q0 54 37.5 93t91.5 39 t92.5 -38.5t38.5 -93.5q0 -54 -38.5 -92.5t-92.5 -38.5q-53 0 -91 39t-38 92zM399 680h375q0 79 -53 131.5t-129 52.5q-79 0 -136 -54t-57 -130zM645 1384q0 55 37.5 93.5t91.5 38.5t93.5 -38.5t39.5 -93.5q0 -54 -38.5 -91.5t-94.5 -37.5q-54 0 -91.5 37.5t-37.5 91.5z" />
<glyph unicode="&#xec;" horiz-adv-x="583" d="M33 1526h274l99 -258h-226zM152 0v1071h276v-1071h-276z" />
<glyph unicode="&#xed;" horiz-adv-x="595" d="M156 0v1071h274v-1071h-274zM190 1266l97 258h276l-147 -258h-226z" />
<glyph unicode="&#xee;" horiz-adv-x="561" d="M33 1253l121 275h254l120 -275h-157l-90 148l-91 -148h-157zM143 0v1071h275v-1071h-275z" />
<glyph unicode="&#xef;" horiz-adv-x="491" d="M-82 1384q0 54 38.5 93t92.5 39q53 0 92 -38.5t39 -93.5q0 -54 -38.5 -92.5t-92.5 -38.5q-55 0 -93 39t-38 92zM109 0v1071h274v-1071h-274zM313 1384q0 55 37.5 93.5t91.5 38.5t92.5 -38.5t38.5 -93.5q0 -54 -38 -91.5t-93 -37.5q-54 0 -91.5 37.5t-37.5 91.5z" />
<glyph unicode="&#xf0;" horiz-adv-x="1024" d="M102 444q0 110 37.5 202t118.5 152t193 60q36 0 53 -10l-98 172l-140 -92l-80 119l152 102l-145 266h288q39 -70 72 -121l131 86l80 -118l-133 -88q131 -209 180 -304q131 -255 131 -444q0 -85 -26 -164t-75 -142.5t-128.5 -101.5t-177.5 -38q-129 0 -228.5 62.5 t-152 168t-52.5 233.5zM352 428q0 -61 16 -114.5t56 -92.5t98 -39t96 39.5t52 93t14 117.5q0 32 -3.5 61t-14.5 60t-28.5 54t-47 37.5t-68.5 14.5q-47 0 -82 -21.5t-53 -57.5t-26.5 -74t-8.5 -78z" />
<glyph unicode="&#xf1;" horiz-adv-x="1187" d="M156 0v1071h278v-149q26 75 108 123.5t183 48.5q79 0 138 -32t93.5 -89.5t51 -129t16.5 -157.5v-686h-274v565q0 207 -152 207q-85 0 -124.5 -60t-39.5 -147v-565h-278zM193 1382q30 75 102.5 122.5t150.5 47.5q46 0 128 -27.5t128 -27.5q73 0 101 57l188 -94 q-27 -76 -85 -127t-138 -51q-48 0 -134 32t-132 32q-91 0 -135 -76z" />
<glyph unicode="&#xf2;" horiz-adv-x="1236" d="M102 520q0 114 37.5 216t104 178t164.5 120.5t213 44.5q152 0 271 -77t181 -203.5t62 -278.5q0 -151 -62 -276.5t-180.5 -201t-271.5 -75.5q-116 0 -214.5 44t-164.5 119.5t-103 176t-37 213.5zM399 1526h275l98 -258h-225zM403 518q0 -53 11 -104.5t35 -99.5t68.5 -77.5 t103.5 -29.5q60 0 103.5 29.5t66.5 78t33 99.5t10 106q0 56 -10.5 108t-33.5 100.5t-66 78t-101 29.5t-103 -30t-69 -78.5t-36 -101.5t-12 -108z" />
<glyph unicode="&#xf3;" horiz-adv-x="1236" d="M102 520q0 114 37.5 216t104 178t164.5 120.5t213 44.5q152 0 271 -77t181 -203.5t62 -278.5q0 -151 -62 -276.5t-180.5 -201t-271.5 -75.5q-115 0 -213.5 44t-164.5 119.5t-103.5 176.5t-37.5 213zM403 518q0 -53 11.5 -104.5t35 -99.5t68.5 -77.5t105 -29.5 q59 0 102.5 29.5t66 78t32.5 99.5t10 106q0 56 -10.5 108t-33 100.5t-66 78t-101.5 29.5t-103 -30t-69 -78.5t-36 -101.5t-12 -108zM500 1266l96 258h276l-147 -258h-225z" />
<glyph unicode="&#xf4;" horiz-adv-x="1236" d="M102 520q0 114 37.5 216t104 178t164.5 120.5t213 44.5q152 0 271 -77t181 -203.5t62 -278.5q0 -151 -62 -276.5t-180.5 -201t-271.5 -75.5q-116 0 -214.5 44t-164.5 119.5t-103 176t-37 213.5zM371 1253l121 275h256l120 -275h-174l-73 138l-70 -138h-180zM403 518 q0 -53 11 -104.5t35 -99.5t68.5 -77.5t103.5 -29.5q60 0 103.5 29.5t66.5 78t33 99.5t10 106q0 56 -10.5 108t-33.5 100.5t-66 78t-101 29.5t-103 -30t-69 -78.5t-36 -101.5t-12 -108z" />
<glyph unicode="&#xf5;" horiz-adv-x="1236" d="M102 520q0 114 37.5 216t104 178t164.5 120.5t213 44.5q152 0 271 -77t181 -203.5t62 -278.5q0 -151 -62 -276.5t-180.5 -201t-271.5 -75.5q-116 0 -214.5 44t-164.5 119.5t-103 176t-37 213.5zM244 1372q30 75 103.5 122.5t150.5 47.5q46 0 128 -27.5t128 -27.5 q72 0 102 57l188 -94q-29 -76 -87.5 -127t-137.5 -51q-48 0 -133.5 31.5t-132.5 31.5q-91 0 -135 -75zM403 518q0 -53 11 -104.5t35 -99.5t68.5 -77.5t103.5 -29.5q60 0 103.5 29.5t66.5 78t33 99.5t10 106q0 56 -10.5 108t-33.5 100.5t-66 78t-101 29.5t-103 -30t-69 -78.5 t-36 -101.5t-12 -108z" />
<glyph unicode="&#xf6;" horiz-adv-x="1236" d="M102 520q0 114 37.5 216t104 178t164.5 120.5t213 44.5q152 0 271 -77t181 -203.5t62 -278.5q0 -151 -62 -276.5t-180.5 -201t-271.5 -75.5q-116 0 -214.5 44t-164.5 119.5t-103 176t-37 213.5zM291 1384q0 54 38.5 93t92.5 39t92.5 -38.5t38.5 -93.5q0 -54 -38.5 -92.5 t-92.5 -38.5q-55 0 -93 39t-38 92zM403 518q0 -53 11 -104.5t35 -99.5t68.5 -77.5t103.5 -29.5q60 0 103.5 29.5t66.5 78t33 99.5t10 106q0 56 -10.5 108t-33.5 100.5t-66 78t-101 29.5t-103 -30t-69 -78.5t-36 -101.5t-12 -108zM686 1384q0 55 37.5 93.5t91.5 38.5 t92.5 -38.5t38.5 -93.5q0 -54 -38 -91.5t-93 -37.5q-54 0 -91.5 37.5t-37.5 91.5z" />
<glyph unicode="&#xf7;" horiz-adv-x="1091" d="M92 494v260h907v-260h-907zM391 162q0 66 46 113t112 47q65 0 111.5 -47t46.5 -113q0 -64 -46.5 -111t-111.5 -47q-66 0 -112 46.5t-46 111.5zM391 1038q0 66 46 112t112 46q65 0 111.5 -46t46.5 -112q0 -64 -46.5 -110.5t-111.5 -46.5q-66 0 -112 46t-46 111z" />
<glyph unicode="&#xf8;" horiz-adv-x="1236" d="M102 522q0 154 62.5 283t180.5 207t267 78q56 0 119 -17l90 285h105l-101 -316q152 -67 231 -202t79 -305q0 -115 -36.5 -217t-101.5 -178t-161 -120.5t-209 -44.5q-70 0 -138 19l-73 -227h-105l86 262q-147 68 -221 198.5t-74 294.5zM403 524q0 -148 70 -235l186 547 q-24 8 -45 8q-56 0 -98.5 -30t-66 -78.5t-35 -102t-11.5 -109.5zM559 227q27 -12 66 -12q58 0 100.5 29.5t65 78.5t33 101t10.5 108q0 177 -82 259z" />
<glyph unicode="&#xf9;" horiz-adv-x="1189" d="M164 1071h278v-586q0 -206 152 -206q44 0 77.5 17t52 47t27.5 65.5t9 76.5v586h274v-1071h-274v150q-26 -74 -109.5 -123.5t-181.5 -49.5q-82 0 -143 37.5t-95 102t-49.5 139.5t-15.5 162zM373 1526h274l98 -258h-225z" />
<glyph unicode="&#xfa;" horiz-adv-x="1189" d="M164 1071h278v-586q0 -206 152 -206q44 0 77.5 17t52 47t27.5 65.5t9 76.5v586h274v-1071h-274v150q-26 -74 -109.5 -123.5t-181.5 -49.5q-82 0 -143 37.5t-95 102t-49.5 139.5t-15.5 162zM463 1266l98 258h277l-150 -258h-225z" />
<glyph unicode="&#xfb;" horiz-adv-x="1189" d="M164 1071h278v-586q0 -206 152 -206q44 0 77.5 17t52 47t27.5 65.5t9 76.5v586h274v-1071h-274v150q-26 -74 -109.5 -123.5t-181.5 -49.5q-82 0 -143 37.5t-95 102t-49.5 139.5t-15.5 162zM362 1253l121 275h256l121 -275h-176l-74 138l-69 -138h-179z" />
<glyph unicode="&#xfc;" horiz-adv-x="1189" d="M164 1071h278v-586q0 -206 152 -206q44 0 77.5 17t52 47t27.5 65.5t9 76.5v586h274v-1071h-274v150q-26 -74 -109.5 -123.5t-181.5 -49.5q-82 0 -143 37.5t-95 102t-49.5 139.5t-15.5 162zM283 1384q0 54 38.5 93t92.5 39t92.5 -38.5t38.5 -93.5q0 -54 -38.5 -92.5 t-92.5 -38.5q-55 0 -93 39t-38 92zM678 1384q0 55 37.5 93.5t91.5 38.5t92.5 -38.5t38.5 -93.5q0 -54 -38 -91.5t-93 -37.5q-54 0 -91.5 37.5t-37.5 91.5z" />
<glyph unicode="&#xfd;" horiz-adv-x="1099" d="M88 1071h297l182 -633l181 633h286q-64 -184 -160 -491.5t-114 -362.5q-23 -72 -41.5 -124t-45.5 -119.5t-52.5 -115t-60 -97t-69.5 -79.5t-79.5 -49.5t-92.5 -19.5q-52 0 -114.5 18.5t-110.5 46.5l96 218q48 -29 95 -29q100 0 141 209zM426 1266l96 258h277l-148 -258 h-225z" />
<glyph unicode="&#xfe;" horiz-adv-x="1216" d="M137 -297v1731h271v-437q33 44 115.5 70.5t160.5 26.5q81 0 152 -32.5t121 -86.5t86 -124.5t53.5 -148t17.5 -155.5q0 -82 -19.5 -162.5t-59 -153.5t-94 -129t-131.5 -89t-165 -33q-74 0 -127.5 25.5t-109.5 84.5v-387h-271zM408 338q63 -86 180 -86q109 0 172 84t63 201 q0 120 -65.5 209.5t-175.5 89.5q-54 0 -102 -22.5t-72 -61.5v-414z" />
<glyph unicode="&#xff;" horiz-adv-x="1099" d="M88 1071h297l182 -633l181 633h286q-64 -184 -160 -491.5t-114 -362.5q-23 -72 -41.5 -124t-45.5 -119.5t-52.5 -115t-60 -97t-69.5 -79.5t-79.5 -49.5t-92.5 -19.5q-52 0 -114.5 18.5t-110.5 46.5l96 218q48 -29 95 -29q100 0 141 209zM223 1384q0 54 38.5 93t92.5 39 q53 0 91 -38.5t38 -93.5q0 -54 -37.5 -92.5t-91.5 -38.5q-55 0 -93 39t-38 92zM618 1384q0 55 38 93.5t92 38.5t92.5 -38.5t38.5 -93.5q0 -54 -38 -91.5t-93 -37.5q-54 0 -92 37.5t-38 91.5z" />
<glyph unicode="&#x152;" horiz-adv-x="2076" d="M137 625q0 180 69.5 328t201.5 236.5t303 88.5q174 0 309 -98v73h901v-278h-610v-205h481v-246h-481v-245h610v-279h-901v80q-132 -96 -309 -96q-173 0 -305.5 86.5t-200.5 231t-68 323.5zM457 625q0 -55 7.5 -106.5t27 -103.5t49.5 -90.5t79.5 -62.5t112.5 -24 q77 0 133 35t84.5 94t41 121.5t12.5 132.5q0 58 -8 112t-27.5 107t-50 91.5t-78.5 62.5t-109 24t-109.5 -24t-78.5 -62.5t-50 -91t-28 -105.5t-8 -110z" />
<glyph unicode="&#x153;" horiz-adv-x="1880" d="M102 520q0 114 37.5 216t103.5 178t163.5 120.5t211.5 44.5q215 0 359 -147q134 160 354 160q205 0 326 -136t121 -358q0 -8 -1 -51.5t-1 -71.5h-641q0 -110 70.5 -180t178.5 -70q77 0 155.5 35t123.5 94l104 -209q-57 -80 -168.5 -122.5t-228.5 -42.5q-223 0 -369 157 q-69 -80 -167 -125t-216 -45q-153 0 -272 75.5t-181.5 201t-62.5 276.5zM403 518q0 -53 11 -104.5t35 -99.5t68.5 -77.5t103.5 -29.5q60 0 103.5 29.5t66.5 78t33 99.5t10 106q0 56 -10.5 108t-33.5 100.5t-66 78t-101 29.5t-103 -30t-69 -78.5t-36 -101.5t-12 -108z M1147 680h375q0 79 -54 131.5t-131 52.5t-133.5 -54t-56.5 -130z" />
<glyph unicode="&#x178;" horiz-adv-x="1353" d="M102 1253h293l281 -462l282 462h293l-430 -723v-530h-291v530zM348 1546q0 54 37.5 91.5t91.5 37.5t92.5 -37.5t38.5 -91.5t-38 -92.5t-93 -38.5q-54 0 -91.5 38.5t-37.5 92.5zM741 1546q0 54 38.5 91.5t92.5 37.5t93 -37.5t39 -91.5t-39 -92.5t-93 -38.5q-55 0 -93 38.5 t-38 92.5z" />
<glyph unicode="&#x2c6;" horiz-adv-x="1105" d="M307 1253l121 275h256l121 -275h-176l-74 138l-70 -138h-178z" />
<glyph unicode="&#x2dc;" horiz-adv-x="993" d="M104 1393q29 75 102 122.5t150 47.5q46 0 128.5 -28t129.5 -28q70 0 101 58l188 -95q-27 -75 -85.5 -126.5t-139.5 -51.5q-48 0 -133.5 32t-132.5 32q-92 0 -136 -76z" />
<glyph unicode="&#x2000;" horiz-adv-x="860" />
<glyph unicode="&#x2001;" horiz-adv-x="1720" />
<glyph unicode="&#x2002;" horiz-adv-x="860" />
<glyph unicode="&#x2003;" horiz-adv-x="1720" />
<glyph unicode="&#x2004;" horiz-adv-x="573" />
<glyph unicode="&#x2005;" horiz-adv-x="430" />
<glyph unicode="&#x2006;" horiz-adv-x="286" />
<glyph unicode="&#x2007;" horiz-adv-x="286" />
<glyph unicode="&#x2008;" horiz-adv-x="215" />
<glyph unicode="&#x2009;" horiz-adv-x="344" />
<glyph unicode="&#x200a;" horiz-adv-x="95" />
<glyph unicode="&#x2010;" horiz-adv-x="1026" d="M92 449v260h842v-260h-842z" />
<glyph unicode="&#x2011;" horiz-adv-x="1026" d="M92 449v260h842v-260h-842z" />
<glyph unicode="&#x2012;" horiz-adv-x="1026" d="M92 449v260h842v-260h-842z" />
<glyph unicode="&#x2013;" horiz-adv-x="1206" d="M92 449v260h1022v-260h-1022z" />
<glyph unicode="&#x2014;" horiz-adv-x="1560" d="M92 449v260h1376v-260h-1376z" />
<glyph unicode="&#x2018;" horiz-adv-x="419" d="M43 1067q0 90 56.5 188.5t131.5 128.5l74 -110q-29 -15 -53.5 -42t-30.5 -56q67 4 111.5 -38.5t44.5 -105.5q0 -70 -50.5 -117t-119.5 -47q-78 0 -121 61t-43 138z" />
<glyph unicode="&#x2019;" horiz-adv-x="419" d="M43 1169q0 67 47 113.5t117 46.5q79 0 124.5 -57.5t45.5 -136.5q0 -92 -57 -190t-132 -128l-73 111q29 15 53.5 41.5t30.5 54.5q-68 -3 -112 38.5t-44 106.5z" />
<glyph unicode="&#x201a;" horiz-adv-x="499" d="M43 236q0 83 59 138.5t148 55.5q97 0 152 -69.5t55 -165.5q0 -73 -31 -155t-85 -147.5t-114 -89.5l-94 136q34 20 64.5 51.5t35.5 62.5q-84 -1 -137 51t-53 132z" />
<glyph unicode="&#x201c;" horiz-adv-x="1007" d="M43 1149q0 59 21 113t69 92.5t115 38.5q86 0 147.5 -56.5t61.5 -142.5q0 -75 -49 -128.5t-125 -53.5h-15q6 -33 37 -65.5t64 -49.5l-95 -137q-60 24 -114.5 89.5t-85.5 146.5t-31 153zM551 1149q0 59 21 113t69 92.5t115 38.5q86 0 147.5 -56.5t61.5 -142.5 q0 -75 -49 -128.5t-125 -53.5h-15q6 -33 37 -65.5t64 -49.5l-95 -137q-60 24 -114.5 89.5t-85.5 146.5t-31 153z" />
<glyph unicode="&#x201d;" horiz-adv-x="1001" d="M43 1188q0 88 63 143t148 55q67 0 114.5 -38.5t68 -91.5t20.5 -111q0 -111 -70 -231t-162 -156l-94 135q35 20 64.5 51.5t35.5 63.5q-83 -3 -135.5 49t-52.5 131zM545 1188q0 88 63 143t148 55q51 0 91.5 -22t63.5 -58t35 -77t12 -84q0 -111 -69.5 -231t-159.5 -156 l-94 135q34 20 63.5 51.5t36.5 63.5q-84 -3 -137 49t-53 131z" />
<glyph unicode="&#x201e;" horiz-adv-x="1101" d="M92 236q0 83 58.5 138.5t146.5 55.5q98 0 153.5 -69.5t55.5 -165.5q0 -113 -70 -234.5t-162 -157.5l-92 136q34 20 64 51.5t37 62.5q-84 -1 -137.5 51t-53.5 132zM596 236q0 83 58.5 138.5t146.5 55.5q98 0 153.5 -69.5t55.5 -165.5q0 -113 -70 -234.5t-162 -157.5 l-92 136q34 20 63 51.5t35 62.5q-83 -1 -135.5 51t-52.5 132z" />
<glyph unicode="&#x2022;" horiz-adv-x="581" d="M92 641q0 82 58 140.5t141 58.5t140.5 -58.5t57.5 -140.5q0 -83 -58 -141t-140 -58q-83 0 -141 58t-58 141z" />
<glyph unicode="&#x2026;" horiz-adv-x="1888" d="M92 172q0 80 57 137.5t136 57.5t135.5 -57.5t56.5 -137.5t-56.5 -136t-135.5 -56q-78 0 -135.5 56.5t-57.5 135.5zM752 172q0 80 56.5 137.5t135.5 57.5t136 -57.5t57 -137.5q0 -79 -56.5 -135.5t-136.5 -56.5t-136 56t-56 136zM1409 172q0 80 57 137.5t138 57.5 q79 0 135.5 -57.5t56.5 -137.5q0 -79 -57 -135.5t-135 -56.5q-80 0 -137.5 56.5t-57.5 135.5z" />
<glyph unicode="&#x202f;" horiz-adv-x="344" />
<glyph unicode="&#x2039;" horiz-adv-x="702" d="M92 492l227 428h291l-221 -428l221 -429h-291z" />
<glyph unicode="&#x203a;" horiz-adv-x="702" d="M92 61l219 428l-219 429h291l227 -429l-227 -428h-291z" />
<glyph unicode="&#x2044;" horiz-adv-x="815" d="M25 -111l524 1512h244l-523 -1512h-245z" />
<glyph unicode="&#x205f;" horiz-adv-x="430" />
<glyph unicode="&#x2070;" horiz-adv-x="632" d="M39 926q0 89 29 164.5t93.5 126.5t155.5 51q92 0 156.5 -51.5t92.5 -126.5t28 -164q0 -88 -28 -162.5t-92.5 -125t-156.5 -50.5q-134 0 -206 99t-72 239zM219 928q0 -30 4 -58t13.5 -58.5t30 -49.5t50.5 -19t51.5 19t31 49.5t13 57.5t3.5 55q0 29 -4 57.5t-13.5 59.5 t-30.5 50t-51 19t-51 -18.5t-30.5 -49.5t-13 -58t-3.5 -56z" />
<glyph unicode="&#x2074;" horiz-adv-x="620" d="M43 745v123l238 385h208v-352h95v-156h-95v-145h-182v145h-264zM217 901h90v148z" />
<glyph unicode="&#x2075;" horiz-adv-x="563" d="M43 659l61 152q92 -55 148 -55q35 0 59.5 18t24.5 49q0 18 -10 32t-28.5 21.5t-38.5 12t-46.5 5.5t-45.5 1t-43 -1t-32 -1l12 360h369v-155h-221l-2 -51q122 0 196 -58t74 -162q0 -102 -76.5 -169.5t-173.5 -67.5q-54 0 -120.5 19.5t-106.5 49.5z" />
<glyph unicode="&#x2076;" horiz-adv-x="571" d="M43 803q0 28 6.5 59.5t14 54.5t23 56t23.5 48t26.5 47.5t21.5 37.5l82 147h198l-121 -231q1 0 7 1t12 1q79 0 130.5 -66.5t51.5 -154.5q0 -98 -67.5 -158.5t-171.5 -60.5q-103 0 -169.5 60.5t-66.5 158.5zM211 809q0 -32 19 -55t51 -23q31 0 49 23t18 55q0 33 -18.5 56.5 t-50.5 23.5q-31 0 -49.5 -23.5t-18.5 -56.5z" />
<glyph unicode="&#x2077;" horiz-adv-x="514" d="M41 602l221 492h-219v159h428v-131l-225 -520h-205z" />
<glyph unicode="&#x2078;" horiz-adv-x="555" d="M43 795q0 110 88 170q-51 48 -51 127q0 80 57 129t142 49q86 0 145 -48t59 -130q0 -76 -51 -127q42 -27 65 -71.5t23 -96.5q0 -98 -70 -156.5t-169 -58.5t-168.5 59t-69.5 154zM201 795q0 -35 23 -60.5t59 -25.5q35 0 58.5 26t23.5 62q0 35 -23.5 58.5t-58.5 23.5 q-34 0 -58 -25t-24 -59zM221 1079q0 -25 18 -45t44 -20t43.5 19.5t17.5 45.5t-17.5 44t-43.5 18q-25 0 -43.5 -18t-18.5 -44z" />
<glyph unicode="&#x2079;" horiz-adv-x="561" d="M43 1053q0 98 68 158.5t172 60.5q103 0 169 -60.5t66 -158.5q0 -28 -6.5 -59.5t-14 -54.5t-23 -56t-23.5 -48t-26.5 -47.5t-21.5 -37.5l-81 -148h-199l121 232q-1 0 -7 -1.5t-12 -1.5q-79 0 -130.5 67t-51.5 155zM213 1047q0 -33 19 -56.5t51 -23.5q31 0 49 23.5t18 56.5 q0 32 -18.5 54.5t-50.5 22.5q-31 0 -49.5 -22.5t-18.5 -54.5z" />
<glyph unicode="&#x207d;" horiz-adv-x="356" d="M43 938q0 110 53 206.5t144 162.5q50 -66 73 -99q-133 -108 -133 -268q0 -167 133 -264q-36 -59 -71 -107q-92 66 -145.5 162.5t-53.5 206.5z" />
<glyph unicode="&#x207e;" horiz-adv-x="358" d="M43 672h2q133 97 133 264q0 162 -133 268l72 101q92 -68 145 -164.5t53 -206.5q0 -100 -43 -187.5t-116 -150.5q-32 -24 -39 -31z" />
<glyph unicode="&#x2080;" horiz-adv-x="632" d="M39 317q0 89 29 164.5t93.5 126.5t155.5 51q92 0 156.5 -51.5t92.5 -126.5t28 -164q0 -66 -16.5 -125t-49 -107t-87 -76.5t-124.5 -28.5q-134 0 -206 98.5t-72 238.5zM219 319q0 -29 4 -57t13.5 -59t30 -49.5t50.5 -18.5t51.5 18.5t31 49t13 57.5t3.5 55t-4 56t-13.5 59 t-30.5 50.5t-51 19.5t-51 -19t-30.5 -49.5t-13 -57.5t-3.5 -55z" />
<glyph unicode="&#x2081;" horiz-adv-x="393" d="M37 584l170 69h143v-653h-182v469l-98 -37z" />
<glyph unicode="&#x2082;" horiz-adv-x="561" d="M43 -2v53v33q3 45 33.5 88t72.5 76.5t83.5 65t70.5 64t29 62.5q0 29 -26 46.5t-60 17.5t-68 -15t-52 -30l-17 -15l-64 127q3 4 9 10t27 22t44.5 28.5t61 22.5t77.5 10q99 0 167.5 -61.5t68.5 -151.5q0 -43 -18 -82.5t-46.5 -68.5t-57.5 -52.5t-56 -46t-37 -37.5h233v-166 h-475z" />
<glyph unicode="&#x2083;" horiz-adv-x="565" d="M43 53l55 133q92 -43 135 -43q35 0 70 15t35 45q0 14 -8.5 24.5t-23.5 16t-31.5 9t-38.5 4t-37.5 0.5t-34.5 -0.5t-25 -0.5v129l109 102h-174v156h407v-145l-98 -97q64 -22 101.5 -77t37.5 -125q0 -102 -77.5 -160.5t-182.5 -58.5q-117 0 -219 73z" />
<glyph unicode="&#x2084;" horiz-adv-x="618" d="M43 145v123l236 383h208v-350h95v-156h-95v-145h-182v145h-262zM217 301h88v148z" />
<glyph unicode="&#x2085;" horiz-adv-x="565" d="M43 49l61 152q90 -54 148 -54q36 0 60 17.5t24 48.5q0 19 -10 33t-28.5 21.5t-38.5 12.5t-46.5 6t-45 1t-42.5 -1t-31 -1h-2l12 358h369v-156h-221l-2 -51q122 0 197 -59t75 -160q0 -100 -77.5 -168.5t-174.5 -68.5q-54 0 -120.5 19.5t-106.5 49.5z" />
<glyph unicode="&#x2086;" horiz-adv-x="569" d="M43 199q0 28 6.5 59.5t14 54.5t23 56t23.5 48t26.5 47.5t21.5 37.5l82 147h198l-121 -231q1 0 7 1t12 1q79 0 130.5 -66.5t51.5 -154.5q0 -98 -67.5 -158.5t-171.5 -60.5q-103 0 -169.5 60.5t-66.5 158.5zM211 205q0 -32 19 -55t51 -23q31 0 49 23t18 55q0 33 -18.5 56.5 t-50.5 23.5q-31 0 -49.5 -23.5t-18.5 -56.5z" />
<glyph unicode="&#x2087;" horiz-adv-x="507" d="M41 0l221 492h-219v159h428v-131l-225 -520h-205z" />
<glyph unicode="&#x2088;" horiz-adv-x="555" d="M43 193q0 109 88 172q-51 48 -51 124q0 80 57 130.5t142 50.5t144.5 -49.5t59.5 -131.5q0 -73 -51 -124q88 -60 88 -170q0 -98 -69.5 -155.5t-169.5 -57.5q-99 0 -168.5 58t-69.5 153zM201 193q0 -34 23 -59t59 -25q35 0 58.5 25.5t23.5 60.5t-23.5 58t-58.5 23 q-34 0 -58 -24t-24 -59zM221 479q0 -25 18 -45t44 -20t43.5 19.5t17.5 45.5t-17.5 44t-43.5 18q-25 0 -43.5 -18t-18.5 -44z" />
<glyph unicode="&#x2089;" horiz-adv-x="561" d="M43 451q0 98 68 158.5t172 60.5q103 0 169 -60.5t66 -158.5q0 -28 -6.5 -59.5t-14 -54.5t-23.5 -57t-23 -48t-26.5 -48t-21.5 -37l-81 -147h-199l121 231q-1 0 -7 -1t-12 -1q-79 0 -130.5 67t-51.5 155zM213 444q0 -33 19 -56t51 -23q31 0 49 23t18 56t-18.5 55.5 t-50.5 22.5q-31 0 -49.5 -23t-18.5 -55z" />
<glyph unicode="&#x208d;" horiz-adv-x="358" d="M43 317q0 211 197 367l2 2l71 -102q-133 -105 -133 -267q0 -167 135 -266l-73 -104q-199 151 -199 370z" />
<glyph unicode="&#x208e;" horiz-adv-x="358" d="M43 49q135 101 135 266q0 81 -34 151t-99 116l72 102q92 -68 145 -164t53 -207q0 -109 -53 -203.5t-145 -162.5z" />
<glyph unicode="&#x20ac;" horiz-adv-x="1325" d="M31 440v135h155q-3 40 0 80h-155v136h170q47 217 208.5 348t370.5 131q114 0 235 -38t187 -102l-119 -243q-46 43 -124 71.5t-150 28.5q-95 0 -172.5 -51t-116.5 -145h281v-136h-316v-30q0 -34 2 -50h314v-135h-277q39 -86 116.5 -134t168.5 -48q71 0 148 26t122 68 l115 -248q-66 -61 -185 -95t-227 -34q-206 0 -368 129.5t-209 335.5h-174z" />
<glyph unicode="&#x25fc;" horiz-adv-x="1075" d="M0 0v1075h1075v-1075h-1075z" />
<glyph unicode="&#xfb03;" horiz-adv-x="1933" d="M31 831v240h162q0 166 107 284t271 118q67 0 139.5 -18.5t116.5 -55.5l-86 -180q-45 22 -102 22q-80 0 -128 -46t-48 -124h303h162q0 167 107 284.5t272 117.5q66 0 139 -18.5t115 -55.5l-84 -180q-45 22 -105 22q-78 0 -126 -46t-48 -124h303v-240h-305v-831h-268v831 h-162h-305v-831h-268v831h-162zM1503 0v1071h275v-1071h-275z" />
<glyph horiz-adv-x="1210" d="M102 0l349 1071h311l346 -1071h-268l-76 236h-315l-78 -236h-269zM508 469h194l-98 336z" />
<glyph horiz-adv-x="1210" d="M102 0l347 1071h313l346 -1071h-268l-78 236h-313l-78 -236h-269zM508 469h192l-96 332zM510 1266l94 250h275l-146 -250h-223z" />
<glyph horiz-adv-x="1210" d="M102 0l347 1071h311l348 -1071h-268l-78 236h-316l-75 -236h-269zM362 1237l117 268h254l117 -268h-174l-70 129l-65 -129h-179zM508 469h194l-98 336z" />
<glyph horiz-adv-x="1210" d="M102 0l347 1071h311l348 -1071h-268l-78 236h-316l-75 -236h-269zM287 1366q0 54 37.5 91.5t91.5 37.5q53 0 91 -37.5t38 -91.5t-37.5 -91.5t-91.5 -37.5t-91.5 38t-37.5 91zM508 469h194l-98 336zM668 1366q0 54 37 91.5t90 37.5q54 0 92.5 -37.5t38.5 -91.5 t-38.5 -91.5t-92.5 -37.5q-53 0 -90 38t-37 91z" />
<glyph horiz-adv-x="1208" d="M102 0l347 1071h311l346 -1071h-266l-78 236h-316l-75 -236h-269zM344 1491h274l95 -252h-226zM508 469h194l-98 336z" />
<glyph horiz-adv-x="1210" d="M102 0l347 1071h311l348 -1071h-268l-78 236h-316l-75 -236h-269zM432 1346q0 73 51.5 123.5t122.5 50.5q72 0 123 -50t51 -122t-50.5 -123t-123.5 -51t-123.5 50t-50.5 122zM508 469h194l-98 336zM530 1348q0 -31 22 -53.5t54 -22.5q31 0 53.5 22.5t22.5 53.5t-23 53 t-53 22q-31 0 -53.5 -22t-22.5 -53z" />
<glyph horiz-adv-x="1208" d="M102 0l347 1071h311l346 -1071h-266l-78 236h-316l-75 -236h-269zM217 1376q27 73 98.5 119.5t147.5 46.5q44 0 124 -26.5t124 -26.5q71 0 96 57l188 -96q-26 -73 -83 -123.5t-134 -50.5q-44 0 -129 30.5t-133 30.5q-82 0 -127 -73zM508 469h194l-98 336z" />
<glyph horiz-adv-x="1126" d="M156 0v1071h413q143 0 237.5 -77t94.5 -210q0 -115 -80 -202q168 -61 168 -260q0 -147 -92 -234.5t-246 -87.5h-495zM406 199h198q56 0 91.5 38.5t35.5 92.5q0 55 -37 91t-90 36h-198v-258zM406 664h143q129 0 129 102q0 54 -34 83.5t-87 29.5h-151v-215z" />
<glyph horiz-adv-x="1126" d="M137 539q0 154 63 279.5t179.5 198.5t263.5 73q98 0 200 -30t161 -83l-99 -211q-42 36 -108.5 59t-128.5 23q-124 0 -198.5 -88t-74.5 -223t73.5 -221.5t197.5 -86.5q65 0 132.5 23t106.5 59l99 -211q-58 -54 -160 -84t-201 -30q-147 0 -263.5 73.5t-179.5 199t-63 280.5 z" />
<glyph horiz-adv-x="1128" d="M137 539q0 154 62.5 280.5t175 199.5t252.5 73q100 0 219.5 -32.5t159.5 -82.5l-101 -213q-43 39 -105 61.5t-126 22.5q-126 0 -201.5 -88t-75.5 -223q0 -133 72 -220.5t190 -87.5q65 0 141.5 24t104.5 58l101 -211q-117 -97 -304 -112l-73 -248l-248 20l125 245 q-169 48 -269 193.5t-100 340.5z" />
<glyph horiz-adv-x="1181" d="M156 0v1071h356q255 0 393.5 -136.5t138.5 -379.5q0 -252 -146.5 -403.5t-385.5 -151.5h-356zM406 240h106q125 0 192.5 90t67.5 225q0 132 -68.5 204t-205.5 72h-92v-591z" />
<glyph horiz-adv-x="1083" d="M156 0v1071h772v-240h-520v-172h409v-213h-409v-206h520v-240h-772z" />
<glyph horiz-adv-x="1083" d="M156 0v1071h772v-240h-520v-172h409v-215h-409v-202h520v-242h-772zM381 1255l94 250h275l-146 -250h-223z" />
<glyph horiz-adv-x="1083" d="M156 0v1071h772v-240h-520v-172h409v-215h-409v-202h520v-242h-772zM319 1237l117 268h254l117 -268h-174l-70 129l-65 -129h-179z" />
<glyph horiz-adv-x="1083" d="M156 0v1071h772v-240h-520v-172h409v-215h-409v-202h520v-242h-772zM242 1366q0 53 37.5 90t91.5 37q53 0 91 -37t38 -90q0 -54 -38 -91.5t-91 -37.5q-54 0 -91.5 37.5t-37.5 91.5zM621 1366q0 54 37.5 90.5t91.5 36.5t91.5 -36.5t37.5 -90.5t-37.5 -91.5t-91.5 -37.5 t-91.5 37.5t-37.5 91.5z" />
<glyph horiz-adv-x="1083" d="M156 0v1071h772v-240h-520v-172h409v-215h-409v-202h520v-242h-772zM301 1509h274l95 -249h-224z" />
<glyph horiz-adv-x="735" d="M45 811v94h92v41h-92v92h105q29 111 116 176.5t201 65.5q61 0 121.5 -19t101.5 -55q-9 -17 -31 -64.5t-36 -72.5q-62 55 -142 55q-46 0 -86 -22.5t-63 -63.5h182v-92h-209l-2 -16l2 -25h209v-94h-176q50 -74 143 -74q81 0 142 54l67 -138q-41 -35 -101.5 -54t-119.5 -19 q-110 0 -197.5 62.5t-119.5 168.5h-107z" />
<glyph horiz-adv-x="1064" d="M156 0v1071h772v-240h-520v-163h370v-240h-370v-428h-252z" />
<glyph horiz-adv-x="1185" d="M137 526q0 243 155.5 401t393.5 158q102 0 208.5 -28t168.5 -86l-100 -213q-40 37 -108.5 61.5t-133.5 24.5q-126 0 -218.5 -93t-92.5 -241q0 -137 86.5 -212t232.5 -75q60 0 84 21v319h250v-461q-6 -5 -17 -13t-50 -29t-83.5 -37.5t-116.5 -29.5t-149 -13 q-137 0 -253.5 69.5t-186.5 195.5t-70 281z" />
<glyph horiz-adv-x="1181" d="M156 0v1071h252v-381h366v381h252v-1071h-252v451h-366v-451h-252z" />
<glyph horiz-adv-x="561" d="M156 0v1071h250v-1071h-250z" />
<glyph horiz-adv-x="581" d="M156 0v1071h252v-1071h-252zM180 1251l94 250h275l-146 -250h-223z" />
<glyph horiz-adv-x="555" d="M33 1237l117 268h253l119 -268h-176l-70 129l-65 -129h-178zM152 0v1071h251v-1071h-251z" />
<glyph horiz-adv-x="514" d="M-61 1366q0 52 37.5 89.5t89.5 37.5q54 0 91.5 -36.5t37.5 -90.5t-37.5 -91.5t-91.5 -37.5t-90.5 37.5t-36.5 91.5zM131 0v1071h252v-1071h-252zM317 1366q0 54 37.5 90.5t91.5 36.5q53 0 91 -37t38 -90q0 -54 -37.5 -91.5t-91.5 -37.5t-91.5 37.5t-37.5 91.5z" />
<glyph horiz-adv-x="563" d="M33 1501h274l96 -250h-225zM156 0v1071h252v-1071h-252z" />
<glyph horiz-adv-x="888" d="M102 92l103 213q31 -28 80.5 -47.5t91.5 -19.5q27 0 48 8.5t33.5 25.5t20.5 35.5t11.5 44.5t4.5 45.5t1 46.5v627h249v-573q0 -58 -2.5 -104.5t-11 -101.5t-23 -97.5t-40 -84t-60 -68.5t-85.5 -43.5t-115 -16.5q-184 0 -306 110z" />
<glyph horiz-adv-x="1163" d="M156 0v1071h250v-366l309 366h289l-369 -453l414 -618h-299l-344 498v-498h-250z" />
<glyph horiz-adv-x="880" d="M156 0v1071h252v-831h317v-240h-569z" />
<glyph horiz-adv-x="1400" d="M156 0v1071h227l319 -379l320 379h223v-1071h-246v717l-297 -371l-301 363v-709h-245z" />
<glyph horiz-adv-x="1179" d="M156 0v1071h252l366 -612v612h250v-1071h-252l-366 602v-602h-250z" />
<glyph horiz-adv-x="1181" d="M156 0v1071h252l366 -608v608h252v-1071h-254l-364 600v-600h-252zM229 1370q29 73 99.5 119.5t146.5 46.5q45 0 125.5 -26.5t124.5 -26.5q34 0 57 12t39 45l187 -96q-25 -72 -82.5 -123t-132.5 -51q-46 0 -132 30.5t-133 30.5q-76 0 -127 -74z" />
<glyph horiz-adv-x="1288" d="M137 530q0 156 60 282t177 202t271 76q155 0 271.5 -76t175.5 -202t59 -282q0 -154 -58 -277t-174.5 -197t-273.5 -74t-273.5 74t-175.5 197t-59 277zM412 530q0 -60 11 -114t36 -104.5t73.5 -80.5t114.5 -30t113.5 29.5t71.5 79.5t34.5 103t10.5 113q0 63 -11.5 119.5 t-36.5 108t-72.5 82t-111.5 30.5t-111.5 -30t-73 -81t-37 -107t-11.5 -118z" />
<glyph horiz-adv-x="1826" d="M137 539q0 155 59.5 281t173 201t261.5 75q149 0 268 -82v57h772v-240h-520v-172h412v-213h-412v-204h520v-242h-772v68q-116 -80 -266 -80q-149 0 -263.5 74.5t-173.5 199t-59 277.5zM414 537q0 -60 11 -113.5t36 -104t73.5 -80.5t114.5 -30t113 29.5t70.5 79.5 t34 102.5t10.5 111.5q0 64 -11 120.5t-36 108t-72 81.5t-111 30t-111.5 -30t-73 -80.5t-37 -106.5t-11.5 -118z" />
<glyph horiz-adv-x="1288" d="M137 530q0 155 60.5 281t178 202.5t271.5 76.5t270 -76.5t175 -202.5t59 -281q0 -153 -58 -276t-174.5 -197.5t-273.5 -74.5q-117 0 -213.5 42.5t-160.5 117t-99 174.5t-35 214zM414 530q0 -47 6.5 -90.5t23 -87.5t42 -76.5t67.5 -52.5t96 -20q53 0 94 20t66 51.5 t40.5 75.5t21.5 86.5t6 89.5q0 63 -11.5 119.5t-36.5 107.5t-71.5 81t-110.5 30t-111.5 -30t-73 -80t-37 -106t-11.5 -118zM512 1251l94 250h275l-146 -250h-223z" />
<glyph horiz-adv-x="1288" d="M137 530q0 155 60.5 281t178 202.5t271.5 76.5t270 -76.5t175 -202.5t59 -281q0 -153 -58 -276t-174.5 -197.5t-273.5 -74.5q-117 0 -213.5 42.5t-160.5 117t-99 174.5t-35 214zM408 1200l116 266h254l117 -266h-174l-70 127l-65 -127h-178zM414 530q0 -47 6.5 -90.5 t23 -87.5t42 -76.5t67.5 -52.5t96 -20q53 0 94 20t66 51.5t40.5 75.5t21.5 86.5t6 89.5q0 63 -11.5 119.5t-36.5 107.5t-71.5 81t-110.5 30t-111.5 -30t-73 -80t-37 -106t-11.5 -118z" />
<glyph horiz-adv-x="1288" d="M137 530q0 155 60.5 281t178 202.5t271.5 76.5q153 0 269 -76.5t175.5 -202.5t59.5 -281q0 -153 -58.5 -276t-175 -197.5t-272.5 -74.5q-157 0 -273.5 74t-175.5 197t-59 277zM330 1368q0 54 37.5 91.5t91.5 37.5q53 0 91 -37t38 -90q0 -54 -38 -92.5t-91 -38.5 q-54 0 -91.5 38t-37.5 91zM414 530q0 -60 11 -114t36 -104t72.5 -79.5t113.5 -29.5t113.5 29t71.5 79t34.5 102.5t10.5 112.5q0 63 -11.5 119.5t-36.5 107.5t-72.5 81t-111.5 30t-111 -30t-72 -80t-36.5 -106t-11.5 -118zM709 1368q0 54 37.5 91.5t91.5 37.5t91.5 -37.5 t37.5 -91.5q0 -53 -37.5 -91t-91.5 -38t-91.5 38t-37.5 91z" />
<glyph horiz-adv-x="1288" d="M137 530q0 155 60.5 281t178 202.5t271.5 76.5t270 -76.5t175 -202.5t59 -281q0 -153 -58 -276t-174.5 -197.5t-273.5 -74.5q-117 0 -213.5 42.5t-160.5 117t-99 174.5t-35 214zM410 1503h272l96 -252h-225zM414 530q0 -47 6.5 -90.5t23 -87.5t42 -76.5t67.5 -52.5 t96 -20q53 0 94 20t66 51.5t40.5 75.5t21.5 86.5t6 89.5q0 63 -11.5 119.5t-36.5 107.5t-71.5 81t-110.5 30t-111.5 -30t-73 -80t-37 -106t-11.5 -118z" />
<glyph horiz-adv-x="1290" d="M137 524q0 155 60.5 282t178 203t271.5 76t270.5 -76t176 -202t59.5 -281q0 -153 -58.5 -276.5t-175 -198t-272.5 -74.5q-157 0 -274 74t-176.5 197t-59.5 276zM256 1368q29 73 99.5 119.5t146.5 46.5q45 0 126 -26.5t126 -26.5q32 0 54 12t40 45l186 -96 q-26 -73 -82.5 -123.5t-134.5 -50.5q-45 0 -130.5 30.5t-131.5 30.5q-79 0 -127 -74zM414 526q0 -60 11 -114t36 -104.5t73.5 -80.5t114.5 -30q53 0 94 20t66 52t40.5 76t21.5 87t6 90q0 63 -11 119.5t-36 107.5t-72 81t-111 30t-111.5 -30t-73 -80.5t-37 -106t-11.5 -117.5 z" />
<glyph horiz-adv-x="1105" d="M156 0v1071h477q97 0 175.5 -53t119.5 -135.5t41 -175.5q0 -95 -43 -181.5t-121.5 -141t-171.5 -54.5h-230v-330h-247zM403 569h201q56 0 91.5 36t35.5 91q0 56 -36.5 95.5t-90.5 39.5h-201v-262z" />
<glyph horiz-adv-x="1288" d="M137 543q0 151 60 275t177.5 200t272.5 76q154 0 270 -76.5t175 -203.5t59 -284q0 -158 -63.5 -288.5t-196.5 -198.5l254 -281h-340l-197 222q-110 1 -201 48.5t-149 126t-89.5 178t-31.5 206.5zM424 535q0 -57 10.5 -108.5t34.5 -100t69.5 -77t108.5 -28.5t107.5 28 t67.5 76t32.5 98.5t9.5 108.5q0 59 -10.5 112t-34 101.5t-68.5 77.5t-106 29t-106 -28.5t-69 -76.5t-35 -100.5t-11 -111.5z" />
<glyph horiz-adv-x="1181" d="M156 0v1071h479q146 0 241 -94.5t95 -237.5q0 -96 -46.5 -177t-129.5 -118l249 -444h-290l-207 401h-144v-401h-247zM403 606h199q54 0 88.5 36.5t34.5 88.5q0 54 -35.5 91.5t-87.5 37.5h-199v-254z" />
<glyph horiz-adv-x="1079" d="M137 92l101 223q45 -30 139.5 -63t152.5 -33q21 0 43.5 5t45.5 15t38 29.5t15 44.5q0 33 -25.5 59.5t-66.5 45.5t-90.5 38.5t-99.5 46t-91 60.5t-66.5 89.5t-25.5 125.5q0 78 31 138.5t85 97t123 55t150 18.5q219 0 336 -104l-82 -186q-33 29 -104 49t-125 20 q-56 0 -105 -23t-49 -71q0 -29 20.5 -51.5t54 -36.5t76 -29.5t87 -30t87 -39t76 -54.5t54 -78t20.5 -109q0 -158 -123 -260t-299 -102q-93 0 -202.5 28.5t-180.5 81.5z" />
<glyph horiz-adv-x="1089" d="M102 838v233h885v-233h-317v-838h-250v838h-318z" />
<glyph horiz-adv-x="1132" d="M143 422v649h248v-649q0 -86 46 -138.5t130 -52.5q85 0 131.5 52.5t46.5 138.5v649h244v-649q0 -199 -112 -319.5t-314 -120.5q-198 0 -309 119t-111 321z" />
<glyph horiz-adv-x="1134" d="M143 440v631h248v-649q0 -84 47.5 -136.5t132.5 -52.5q89 0 131.5 57t42.5 150v631h246l-2 -631q0 -209 -108 -333.5t-318 -124.5q-207 0 -313.5 123t-106.5 335zM455 1251l96 250h272l-143 -250h-225z" />
<glyph horiz-adv-x="1132" d="M143 440v631h248v-647q0 -87 45 -139t129 -52t131 52.5t47 138.5v647h246v-631q0 -209 -109 -333.5t-319 -124.5q-206 0 -312 123t-106 335zM322 1237l116 268h254l119 -268h-176l-70 129l-65 -129h-178z" />
<glyph horiz-adv-x="1134" d="M143 440v631h248v-647q0 -87 46 -139t130 -52t131 52.5t47 138.5v647h246v-631q0 -209 -109 -333.5t-319 -124.5q-207 0 -313.5 123t-106.5 335zM250 1364q0 54 37 91.5t90 37.5q54 0 92.5 -37.5t38.5 -91.5q0 -53 -38.5 -91t-92.5 -38q-53 0 -90 38t-37 91zM629 1364 q0 54 37.5 91.5t91.5 37.5t91.5 -37.5t37.5 -91.5q0 -53 -37.5 -91t-91.5 -38t-91.5 38t-37.5 91z" />
<glyph horiz-adv-x="1134" d="M143 440v631h248v-649q0 -84 47.5 -136.5t132.5 -52.5q89 0 131.5 57t42.5 150v631h246l-2 -631q0 -209 -108 -333.5t-318 -124.5q-207 0 -313.5 123t-106.5 335zM352 1501h275l94 -250h-223z" />
<glyph horiz-adv-x="1196" d="M102 1071h287l211 -635l207 635h287l-351 -1071h-290z" />
<glyph horiz-adv-x="1935" d="M102 1071h287l209 -670l229 643h281l231 -643l205 670h289l-350 -1071h-291l-225 647l-222 -647h-292z" />
<glyph horiz-adv-x="1226" d="M115 0l323 559l-293 512h254l215 -352l215 352h254l-297 -512l326 -559h-254l-244 371l-245 -371h-254z" />
<glyph horiz-adv-x="1189" d="M102 1071h254l238 -381l242 381h251l-366 -618v-453h-252v453z" />
<glyph horiz-adv-x="1191" d="M102 1071h254l240 -379l240 379h254l-367 -618v-453h-254v453zM276 1366q0 54 38 91.5t92 37.5q53 0 91 -37.5t38 -91.5q0 -52 -38.5 -90.5t-90.5 -38.5q-54 0 -92 38t-38 91zM655 1366q0 54 37.5 91.5t91.5 37.5q53 0 91 -37.5t38 -91.5q0 -53 -37.5 -91t-91.5 -38 t-91.5 38t-37.5 91z" />
<glyph horiz-adv-x="1159" d="M156 0v217l520 637h-492v217h820v-217l-510 -637h510v-217h-848z" />
<glyph horiz-adv-x="690" d="M66 930q0 128 70 221.5t194 114.5v100h121v-102q50 -10 100 -36.5t78 -62.5l-64 -123q-22 29 -70 46.5t-87 17.5q-67 0 -112.5 -54.5t-45.5 -121.5q0 -66 46 -117t112 -51q38 0 83.5 17t73.5 44l64 -125q-68 -77 -178 -104v-100h-121v98q-123 23 -193.5 116t-70.5 222z " />
<glyph horiz-adv-x="733" d="M31 733l96 94q-23 45 -23 111q0 64 21 117l-94 94l125 127l92 -92q60 26 117 26q60 0 114 -28l96 94l127 -127l-104 -100q20 -47 20 -109t-20 -106l104 -101l-127 -125l-94 92q-55 -30 -116 -30t-119 28l-90 -90zM233 940q0 -55 38 -93t94 -38q54 0 88 38.5t34 92.5 q0 55 -35.5 94t-89.5 39t-91.5 -38.5t-37.5 -94.5z" />
<glyph horiz-adv-x="808" d="M94 942q0 140 77 233t218 93q71 0 129 -33v233h197v-876h-197v22q-54 -32 -129 -32q-88 0 -156.5 51.5t-103.5 133t-35 175.5zM319 918q0 -61 26.5 -111.5t78.5 -50.5q27 0 56.5 12.5t37.5 26.5v245q-7 17 -34.5 29t-53.5 12q-51 0 -81 -50.5t-30 -112.5z" />
<glyph horiz-adv-x="612" d="M51 651l64 146q4 -2 18 -10t19 -10.5t17.5 -9.5t18.5 -9.5t17.5 -7.5t19.5 -7.5t18.5 -5t20 -3.5t19.5 -1q40 0 72 16t32 48q0 23 -21.5 40.5t-53.5 28t-69.5 27t-69.5 36t-53.5 57.5t-21.5 89q0 73 40.5 122.5t113.5 68.5v84h147v-80q95 -11 152 -62l-49 -127 q-28 22 -69.5 37t-76.5 15q-36 0 -66 -14.5t-30 -43.5q0 -23 22.5 -39t55.5 -25.5t72.5 -24.5t72.5 -33t55.5 -54t22.5 -86q0 -74 -46 -132.5t-116 -80.5v-88h-147v72q-131 8 -201 67z" />
<glyph horiz-adv-x="1083" d="M111 369q0 108 50.5 194.5t145.5 138.5q-127 91 -127 254q0 146 105 235t256 89q152 0 257 -89t105 -239q0 -76 -31.5 -141.5t-91.5 -108.5q95 -52 145 -138t50 -193q0 -179 -126.5 -286.5t-307.5 -107.5q-86 0 -164 27.5t-137 76.5t-94 124t-35 164zM381 379 q0 -67 46 -113.5t116 -46.5t117 46.5t47 115.5q0 71 -47 121.5t-113 50.5q-68 0 -117 -52.5t-49 -121.5zM418 926q0 -52 35.5 -88.5t89.5 -36.5t91.5 37.5t37.5 91.5t-36.5 91.5t-88.5 37.5q-55 0 -92 -39t-37 -94z" />
<glyph horiz-adv-x="1093" d="M111 -84l94 240q64 -39 142 -66t140 -27q82 0 140.5 48.5t58.5 128.5q0 38 -16 67.5t-40.5 47.5t-63 30.5t-73.5 18t-82 8t-78.5 1.5t-73.5 -2t-58 -1l22 661h666v-246h-445l-4 -176q157 14 278.5 -28t193 -140.5t71.5 -240.5q0 -134 -67 -237t-172.5 -154.5 t-229.5 -51.5q-96 0 -207.5 33t-195.5 86z" />
<glyph horiz-adv-x="1208" d="M111 113v204l454 754h365v-715h186v-243h-186v-295h-291v295h-528zM401 356h238v418z" />
<glyph horiz-adv-x="782" d="M100 594v876h203v-262q50 58 148 58q63 0 106 -25.5t64.5 -71t29.5 -94t8 -110.5v-371h-202v348q0 46 -16 79.5t-56 33.5q-56 0 -68 -70q-8 -9 -12.5 -46.5t-5 -90t0 -101t2 -96t1.5 -57.5h-203z" />
<glyph horiz-adv-x="714" d="M78 594v659h203v-45q55 58 147 58q102 0 155.5 -72t53.5 -182v-418h-201v305v14v37.5t-3.5 36.5t-10 35.5t-19.5 22.5t-32 10q-26 0 -45 -17t-28 -43.5t-13 -50.5t-4 -45v-305h-203z" />
<glyph horiz-adv-x="1073" d="M111 686q0 184 119 294t307 110t307 -109.5t119 -292.5q0 -54 -13 -114.5t-26.5 -103.5t-47.5 -113t-48.5 -97.5t-59 -105.5t-51.5 -91l-137 -247h-299l243 481q-16 -8 -53 -8q-158 0 -259 113t-101 284zM371 680q0 -76 44.5 -132t119.5 -56q76 0 119.5 55.5t43.5 132.5 q0 75 -44.5 129.5t-118.5 54.5t-119 -54t-45 -130z" />
<glyph horiz-adv-x="1007" d="M92 938l309 133h267v-811h229v-260h-772v260h252v526l-238 -88z" />
<glyph horiz-adv-x="581" d="M72 592v661h200v-45q58 58 144 58q91 0 114 -31q-16 -37 -51 -111q-9 -16 -20 -34.5t-18 -31t-11 -24.5q-35 23 -65 23q-49 0 -71 -40t-22 -93v-332h-200z" />
<glyph horiz-adv-x="759" d="M115 655l73 158q32 -19 77.5 -34t78.5 -15q28 0 49 12.5t21 34.5q0 23 -26 42t-63 36t-74 38.5t-63 59t-26 86.5q0 65 42.5 111t102 66t125.5 20q55 0 114 -16t93 -48l-59 -131q-72 35 -127 35q-30 0 -52 -12.5t-22 -36.5t27.5 -44.5t66.5 -39.5t78 -42t66.5 -62.5 t27.5 -90.5q0 -91 -76.5 -145.5t-189.5 -54.5q-136 0 -264 73z" />
<glyph horiz-adv-x="987" d="M92 821v250h785q2 -37 -2 -145t-11 -123l-430 -985h-303l451 1003h-490z" />
<glyph horiz-adv-x="1071" d="M111 383q0 46 7 92.5t24.5 98t31 87.5t44 94.5t43.5 83t50 89t45 78.5l136 247h288l-243 -479q15 6 47 6q172 0 274.5 -105t102.5 -280q0 -191 -118.5 -303t-307.5 -112q-186 0 -305 109.5t-119 293.5zM373 389q0 -76 45 -129t121 -53q75 0 118 52.5t43 129.5t-43 133 t-118 56q-76 0 -121 -55.5t-45 -133.5z" />
<glyph horiz-adv-x="681" d="M72 590v147h34q32 3 48 48t16 83h-98v113h100v23q0 108 58.5 186t162.5 78q38 0 73.5 -9t58.5 -22t41 -26t26 -22l8 -9l-53 -109q-53 53 -121 53q-94 0 -94 -143h127v-113h-127q-4 -89 -41 -131h256v-147h-475z" />
<glyph horiz-adv-x="561" d="M43 1087v166h96v162h197v-162h182v-166h-180v-223q0 -110 43 -110q13 0 35.5 8.5t25.5 15.5l62 -139q-77 -59 -158 -59q-101 0 -154 66t-53 167v274h-96z" />
<glyph horiz-adv-x="1099" d="M111 -80l84 211q144 -74 270 -74q36 0 71.5 7t72.5 22.5t60 47.5t23 75q0 31 -13.5 56t-33 40.5t-52 26.5t-60 16t-67.5 7.5t-64 2t-60.5 -1t-46.5 -0.5v213l285 256h-412v246h739v-246l-233 -227q39 -3 80.5 -18t84 -46.5t75.5 -75.5t54 -109.5t21 -143.5 q0 -111 -69 -206t-177.5 -148.5t-226.5 -53.5q-106 0 -216.5 33.5t-188.5 89.5z" />
<glyph horiz-adv-x="1099" d="M111 0v111q0 61 28.5 118.5t73.5 102t100 86.5t110 81t100 77t73.5 81.5t28.5 87.5q0 95 -152 95q-39 0 -80.5 -10.5t-73 -25t-56.5 -29.5t-39 -25l-13 -11l-88 213q5 6 15 15.5t47 34t80 43t116 34t154 15.5q193 0 294 -90.5t101 -235.5q0 -50 -22.5 -106t-51.5 -100 t-77.5 -97t-79 -81.5t-78 -71t-54.5 -48.5h422v-264h-878z" />
<glyph horiz-adv-x="751" d="M72 1255h157l146 -231l147 231h158l-203 -342h117v-88h-139v-34h139v-89h-139v-104h-158v104h-137v89h137v34h-137v88h114z" />
<glyph horiz-adv-x="1064" d="M92 535q0 104 27.5 202t80 180t139.5 131.5t196 49.5q88 0 161.5 -32.5t124 -87.5t85.5 -128t51 -152.5t16 -162.5q0 -81 -15.5 -159t-50.5 -150.5t-85 -126.5t-124 -86.5t-163 -32.5t-163.5 32.5t-125.5 86.5t-86.5 126t-51.5 150t-16 160zM354 535q0 -39 4 -75.5 t16 -79t31 -74t53 -52.5t79 -21q54 0 91.5 29.5t54.5 79t23.5 94t6.5 94.5q0 41 -4 79.5t-15.5 81.5t-30.5 74.5t-52 52t-76 20.5q-53 0 -91 -29.5t-56.5 -78.5t-26 -96.5t-7.5 -98.5z" />
<glyph horiz-adv-x="1288" d="M102 338q0 106 60.5 200.5t175.5 143.5q-41 84 -41 156q0 116 93 186t245 70q148 0 227 -54l2 -2l-80 -166l-6 5q-39 28 -106 28q-48 0 -78.5 -26.5t-30.5 -63.5q0 -102 248 -401q43 94 43 223v2h213v-2q0 -234 -104 -393q185 -200 223 -238l6 -6h-322l-2 2 q-15 14 -41 42t-36 38q-127 -86 -285 -86q-182 0 -293 100t-111 242zM328 356q0 -61 51.5 -108t128.5 -47q70 0 137 43q-130 147 -205 262q-52 -20 -82 -61.5t-30 -88.5z" />
<glyph d="M70 540q0 79 13.5 154.5t44.5 147.5t76.5 126t115.5 87t155 33q77 0 158.5 -40.5t129.5 -103.5v123h269v-462q0 -194 11 -268q5 -34 11.5 -57t19.5 -46t36 -34.5t56 -11.5l-72 -210q-107 0 -166 34.5t-116 125.5q-51 -72 -142.5 -115.5t-182.5 -43.5q-105 0 -188 51.5 t-131.5 135t-73 179.5t-24.5 195zM372 547q0 -56 10.5 -104.5t33 -91.5t65.5 -68t101 -25q33 0 73.5 14t74 43.5t33.5 64.5v301q0 57 -63.5 105t-118.5 48q-53 0 -94.5 -26t-65.5 -68.5t-36.5 -91.5t-12.5 -101z" />
<glyph d="M70 540q0 79 13.5 154.5t44.5 147.5t76.5 126t115.5 87t155 33q77 0 158.5 -40.5t129.5 -103.5v123h269v-462q0 -194 11 -268q5 -34 11.5 -57t19.5 -46t36 -34.5t56 -11.5l-72 -210q-107 0 -166 34.5t-116 125.5q-51 -72 -142.5 -115.5t-182.5 -43.5q-105 0 -188 51.5 t-131.5 135t-73 179.5t-24.5 195zM372 547q0 -56 10.5 -104.5t33 -91.5t65.5 -68t101 -25q33 0 73.5 14t74 43.5t33.5 64.5v301q0 57 -63.5 105t-118.5 48q-53 0 -94.5 -26t-65.5 -68.5t-36.5 -91.5t-12.5 -101zM460 1253l98 258h277l-150 -258h-225z" />
<glyph d="M70 540q0 79 13.5 154.5t44.5 147.5t76.5 126t115.5 87t155 33q77 0 158.5 -40.5t129.5 -103.5v123h269v-462q0 -194 11 -268q5 -34 11.5 -57t19.5 -46t36 -34.5t56 -11.5l-72 -210q-107 0 -166 34.5t-116 125.5q-51 -72 -142.5 -115.5t-182.5 -43.5q-105 0 -188 51.5 t-131.5 135t-73 179.5t-24.5 195zM372 547q0 -56 10.5 -104.5t33 -91.5t65.5 -68t101 -25q33 0 73.5 14t74 43.5t33.5 64.5v301q0 57 -63.5 105t-118.5 48q-53 0 -94.5 -26t-65.5 -68.5t-36.5 -91.5t-12.5 -101zM376 1260l121 274h256l121 -274h-176l-74 137l-70 -137h-178z " />
<glyph d="M70 540q0 79 13.5 154.5t44.5 147.5t76.5 126t115.5 87t155 33q77 0 158.5 -40.5t129.5 -103.5v123h269v-462q0 -194 11 -268q5 -34 11.5 -57t19.5 -46t36 -34.5t56 -11.5l-72 -210q-107 0 -166 34.5t-116 125.5q-51 -72 -142.5 -115.5t-182.5 -43.5q-105 0 -188 51.5 t-131.5 135t-73 179.5t-24.5 195zM297 1368q0 54 38.5 91.5t92.5 37.5q53 0 91 -37.5t38 -91.5q0 -55 -37.5 -93t-91.5 -38q-55 0 -93 38.5t-38 92.5zM372 547q0 -56 10.5 -104.5t33 -91.5t65.5 -68t101 -25q33 0 73.5 14t74 43.5t33.5 64.5v301q0 57 -63.5 105t-118.5 48 q-53 0 -94.5 -26t-65.5 -68.5t-36.5 -91.5t-12.5 -101zM693 1368q0 54 37.5 91.5t91.5 37.5t92.5 -37.5t38.5 -91.5q0 -56 -37.5 -93.5t-93.5 -37.5q-54 0 -91.5 38.5t-37.5 92.5z" />
<glyph d="M70 540q0 79 13.5 154.5t44.5 147.5t76.5 126t115.5 87t155 33q77 0 158.5 -40.5t129.5 -103.5v123h269v-462q0 -194 11 -268q5 -34 11.5 -57t19.5 -46t36 -34.5t56 -11.5l-72 -210q-107 0 -166 34.5t-116 125.5q-51 -72 -142.5 -115.5t-182.5 -43.5q-105 0 -188 51.5 t-131.5 135t-73 179.5t-24.5 195zM348 1509h277l98 -258h-225zM372 547q0 -56 10.5 -104.5t33 -91.5t65.5 -68t101 -25q33 0 73.5 14t74 43.5t33.5 64.5v301q0 57 -63.5 105t-118.5 48q-53 0 -94.5 -26t-65.5 -68.5t-36.5 -91.5t-12.5 -101z" />
<glyph d="M70 540q0 79 13.5 154.5t44.5 147.5t76.5 126t115.5 87t155 33q77 0 158.5 -40.5t129.5 -103.5v123h269v-462q0 -194 11 -268q5 -34 11.5 -57t19.5 -46t36 -34.5t56 -11.5l-72 -210q-107 0 -166 34.5t-116 125.5q-51 -72 -142.5 -115.5t-182.5 -43.5q-105 0 -188 51.5 t-131.5 135t-73 179.5t-24.5 195zM372 547q0 -56 10.5 -104.5t33 -91.5t65.5 -68t101 -25q33 0 73.5 14t74 43.5t33.5 64.5v301q0 57 -63.5 105t-118.5 48q-53 0 -94.5 -26t-65.5 -68.5t-36.5 -91.5t-12.5 -101zM405 1411q0 75 52.5 126.5t125.5 51.5q74 0 127 -52t53 -126 t-52 -126t-128 -52q-75 0 -126.5 52t-51.5 126zM505 1413q0 -32 23 -55t55 -23t56 23t24 55t-24.5 55t-55.5 23q-32 0 -55 -23.5t-23 -54.5z" />
<glyph d="M70 540q0 79 13.5 154.5t44.5 147.5t76.5 126t115.5 87t155 33q77 0 158.5 -40.5t129.5 -103.5v123h269v-462q0 -194 11 -268q5 -34 11.5 -57t19.5 -46t36 -34.5t56 -11.5l-72 -210q-107 0 -166 34.5t-116 125.5q-51 -72 -142.5 -115.5t-182.5 -43.5q-105 0 -188 51.5 t-131.5 135t-73 179.5t-24.5 195zM190 1381q29 75 102 122.5t150 47.5q46 0 128.5 -27.5t129.5 -27.5q70 0 100 57l188 -94q-27 -75 -85.5 -126.5t-139.5 -51.5q-48 0 -133.5 32t-132.5 32q-91 0 -135 -76zM372 547q0 -56 10.5 -104.5t33 -91.5t65.5 -68t101 -25 q33 0 73.5 14t74 43.5t33.5 64.5v301q0 57 -63.5 105t-118.5 48q-53 0 -94.5 -26t-65.5 -68.5t-36.5 -91.5t-12.5 -101z" />
</font>
</defs>
</svg>
