<?xml version="1.0" standalone="no"?>
<!DOCTYPE svg PUBLIC "-//W3C//DTD SVG 1.1//EN" "http://www.w3.org/Graphics/SVG/1.1/DTD/svg11.dtd" >
<svg xmlns="http://www.w3.org/2000/svg" xmlns:xlink="http://www.w3.org/1999/xlink" version="1.1">
<metadata></metadata>
<defs>
<font id="visionbold_italic" horiz-adv-x="1046" >
<font-face units-per-em="2048" ascent="1638" descent="-410" />
<missing-glyph horiz-adv-x="524" />
<glyph unicode="&#xfb00;" horiz-adv-x="1394" d="M-31 -371l172 1235h-155l28 199h156q15 106 70 197t146 148.5t198 57.5q60 -2 122.5 -18.5t98.5 -48.5l-92 -152q-48 25 -99 25q-85 0 -146.5 -61.5t-72.5 -147.5h285h20h136q15 106 69.5 197t145.5 148.5t198 57.5q60 -2 123 -18.5t98 -48.5l-92 -152q-45 25 -96 25 q-85 0 -147 -61.5t-74 -147.5h307l-29 -199h-309l-172 -1235h-221l170 1235h-133h-21h-291l-169 -1235h-224z" />
<glyph unicode="&#xfb01;" horiz-adv-x="1062" d="M106 -369l173 1233h-156l29 199h153q24 164 142.5 280.5t279.5 116.5q141 0 213 -61l-92 -152q-52 25 -94 25q-90 0 -151 -59.5t-73 -149.5h533l-148 -1063h-229l123 864h-309l-170 -1233h-224z" />
<glyph unicode="&#xfb02;" horiz-adv-x="1243" d="M109 -371l172 1235h-156l29 199h153q16 106 71 197t146 148.5t199 57.5q92 -2 163 -32h224l-141 -1006q-8 -70 -8 -104q0 -134 92 -134q54 0 104 31l57 -176q-102 -65 -241 -65q-250 0 -250 303q0 64 10 139l63 442h-294l-172 -1235h-221zM532 1063h292l26 185v-1 q-45 25 -96 25q-85 0 -147.5 -61.5t-74.5 -147.5z" />
<glyph unicode="&#xfb04;" horiz-adv-x="1873" d="M31 -371l172 1235h-154l27 199h155q15 106 70 197t146 148.5t198 57.5q60 -2 123 -18.5t98 -48.5l-92 -152q-45 25 -96 25q-85 0 -147 -61.5t-74 -147.5h286h21h135q15 106 70 197t146 148.5t198 57.5q84 -2 155 -29v5h234l-139 -1006q-9 -52 -9 -104q0 -133 91 -133 q56 0 104 30l57 -176q-102 -65 -241 -65q-248 0 -248 303q0 64 10 139l61 434h-296l-170 -1235h-224l172 1235h-135h-20h-289l-172 -1235h-223zM1124 1063h291l26 184q-48 25 -98 25q-85 0 -146.5 -61.5t-72.5 -147.5z" />
<glyph unicode="ffj" horiz-adv-x="1767" d="M106 -371l175 1235h-156l29 199h155q15 106 70 197t146 148.5t198 57.5q60 -2 123 -18.5t98 -48.5l-92 -152q-52 25 -107 25q-88 0 -142.5 -59t-67.5 -150h305h2h153q15 106 70 197t146 148.5t198 57.5q58 0 122 -17t99 -50l-92 -152q-52 25 -106 25q-88 0 -143 -59 t-68 -150h307h231l-119 -850q-9 -65 -23 -126t-37 -133t-56.5 -131t-77 -108.5t-104.5 -77.5t-132 -28q-111 0 -192 37l-2 -17h-223l174 1235h-154h-309l-174 -1235h-224zM1046 -154h1q20 -20 59 -29.5t74 -9.5q44 0 79.5 27t57 67.5t37 93t24 97.5t14.5 86v3.5t0.5 3.5 t0.5 3l104 676h-307z" />
<glyph unicode="fft" horiz-adv-x="2039" d="M31 -371l172 1235h-154l27 199h155q15 106 70 197t146 148.5t198 57.5q60 -2 123 -18.5t98 -48.5l-92 -152q-45 25 -96 25q-85 0 -147 -61.5t-74 -147.5h286h21h135q15 106 70 197t146 148.5t198 57.5q60 -2 122.5 -18.5t98.5 -48.5l-92 -152q-48 25 -99 25 q-85 0 -146.5 -61.5t-72.5 -147.5h297h9h147l39 276h221l-37 -276h303l-26 -201h-305l-62 -434q-8 -74 -8 -113q0 -58 20 -91.5t74 -33.5q42 0 102 37l52 -174q-115 -73 -230 -73q-123 0 -186.5 79.5t-63.5 206.5q0 37 7 88l71 508h-153v2h-303l-170 -1235h-224l172 1235 h-135h-20h-289l-172 -1235h-223z" />
<glyph unicode="fj" horiz-adv-x="1077" d="M104 -373l177 1237h-156l29 199h155q18 109 69 198.5t139 147t198 57.5q61 0 127.5 -18t101.5 -53l-86 -140q-47 41 -125 41q-45 0 -81 -20.5t-58.5 -57t-36.5 -74t-22 -81.5h296h11h221l-119 -850q-11 -81 -28.5 -154.5t-52 -159t-79 -147t-114.5 -102.5t-154 -41 q-106 0 -186 33l-2 -15h-224zM358 -158q54 -32 138 -32q26 0 48.5 8.5t39.5 20.5t32.5 34.5t26 41.5t20.5 49.5t15.5 51t11.5 55t8.5 51t7 50t5.5 41.5l92 651h-299z" />
<glyph unicode="ft" horiz-adv-x="1452" d="M129 -371l170 1235h-154l27 199h156q15 106 69.5 197t145.5 148.5t198 57.5q62 -2 124.5 -18.5t97.5 -48.5l-93 -152q-45 25 -96 25q-85 0 -147 -61.5t-74 -147.5h299h8h146l38 276h224l-39 -276h305l-29 -201h-303l-61 -434q-11 -102 -11 -113q0 -125 95 -125 q47 0 102 37l53 -174q-118 -73 -229 -73q-123 0 -186.5 79.5t-63.5 206.5q0 44 6 88l72 508h-156l1 2h-302l-172 -1235h-221z" />
<glyph unicode="tf" horiz-adv-x="1552" d="M104 864l29 199h154l39 278h223l-39 -278h305h156q15 106 69.5 197t145.5 148.5t198 57.5q61 -2 124 -18.5t98 -48.5l-93 -152q-45 25 -96 25q-86 0 -147 -61t-74 -148h307l-28 -199h-310l-172 -1235h-223l172 1235h-154l27 199l-29 -199h-303l-61 -436q-10 -93 -10 -111 q0 -58 20 -91t74 -33q51 0 102 34l54 -174q-115 -73 -230 -73q-123 0 -186.5 80.5t-63.5 207.5q0 42 6 88l72 508h-156z" />
<glyph horiz-adv-x="0" />
<glyph horiz-adv-x="682" />
<glyph horiz-adv-x="0" />
<glyph horiz-adv-x="0" />
<glyph unicode="&#xd;" horiz-adv-x="512" />
<glyph unicode=" "  horiz-adv-x="524" />
<glyph unicode="&#x09;" horiz-adv-x="524" />
<glyph unicode="&#xa0;" horiz-adv-x="524" />
<glyph unicode="!" horiz-adv-x="550" d="M88 98q0 62 50.5 109t113.5 47q52 0 88.5 -33.5t36.5 -85.5q0 -63 -50 -109t-114 -46q-52 0 -88.5 32.5t-36.5 85.5zM174 391l80 1096h344l-229 -1096h-195z" />
<glyph unicode="&#x22;" horiz-adv-x="598" d="M80 901l16 432h197l-103 -432h-110zM391 901l19 432h194l-104 -432h-109z" />
<glyph unicode="#" horiz-adv-x="1447" d="M78 299l76 197h182l78 254h-195l76 198h180l92 305h248l-94 -305h256l94 305h246l-92 -305h196l-73 -198h-185l-78 -254h195l-76 -197h-178l-92 -301h-246l90 301h-256l-90 -301h-248l92 301h-198zM567 483h281l86 279h-281z" />
<glyph unicode="$" horiz-adv-x="1107" d="M66 104l131 215q43 -37 144.5 -75.5t156.5 -38.5t109 18t95 60t41 100q0 36 -21.5 65t-56.5 48t-79.5 39t-91 37.5t-91 43.5t-79.5 56.5t-56.5 78t-21.5 105.5q0 160 105 268.5t267 135.5l23 161h147l-20 -153q87 -3 179.5 -32t142.5 -81l-103 -182q-37 36 -113.5 59 t-134.5 23q-37 0 -77 -9t-78.5 -26.5t-63 -49.5t-24.5 -73q0 -35 22 -62t58 -44.5t82 -36t94 -34.5t94 -40.5t82 -54.5t58 -77t22 -106q0 -115 -59 -214t-153.5 -160.5t-207.5 -81.5l-23 -158h-147l20 149q-97 5 -201 38.5t-171 88.5z" />
<glyph unicode="%" horiz-adv-x="1415" d="M104 877q0 69 22 138.5t61.5 128t102 95.5t136.5 37q110 0 166.5 -77.5t56.5 -192.5q0 -69 -21 -138.5t-60 -128t-100.5 -95t-135.5 -36.5q-112 0 -170 76.5t-58 192.5zM268 897q0 -52 19.5 -90.5t66.5 -38.5q44 0 75.5 39t44.5 86t13 90q0 51 -19.5 92t-66.5 41 q-44 0 -75.5 -40t-44.5 -88t-13 -91zM281 0l723 1253h210l-722 -1253h-211zM846 250q0 69 21.5 138.5t60.5 128t101 95.5t136 37q112 0 168 -77.5t56 -192.5q0 -69 -21.5 -138t-60 -127.5t-100.5 -95t-136 -36.5q-112 0 -168.5 76t-56.5 192zM1010 270q0 -32 6.5 -58.5 t26 -48.5t51.5 -22q44 0 75.5 39t44.5 86t13 90q0 31 -6 58.5t-26 51t-52 23.5q-44 0 -75.5 -40t-44.5 -88t-13 -91z" />
<glyph unicode="&#x26;" horiz-adv-x="1302" d="M104 330q0 149 102 276t249 185q-33 90 -33 153q0 80 38.5 145t101 104t136 60t148.5 21q61 0 129 -17t106 -49l-98 -155q-47 39 -143 39q-67 0 -119.5 -44t-52.5 -110q0 -126 262 -504q89 129 112 301h199q-37 -272 -192 -463q130 -172 215 -272h-299q-16 19 -48.5 58 t-48.5 59q-171 -125 -366 -125q-102 0 -191 37.5t-148 116.5t-59 184zM319 375q0 -83 63 -136t146 -53q110 0 226 86q-154 212 -226 355q-85 -32 -147 -100.5t-62 -151.5z" />
<glyph unicode="'" horiz-adv-x="374" d="M139 899l8 432h242l-115 -432h-135z" />
<glyph unicode="(" horiz-adv-x="708" d="M47 387q0 359 186.5 680.5t495.5 525.5q8 -13 115 -194q-252 -166 -401.5 -427.5t-149.5 -555.5q0 -203 80.5 -380.5t234.5 -301.5q-27 -33 -83.5 -98.5t-84.5 -98.5q-192 156 -292.5 376.5t-100.5 473.5z" />
<glyph unicode=")" horiz-adv-x="669" d="M-135 -262q250 164 399.5 427t149.5 556q0 203 -81 380.5t-235 301.5l170 196q192 -156 291.5 -376t99.5 -473q0 -360 -185 -682t-494 -527z" />
<glyph unicode="*" horiz-adv-x="845" d="M104 752l207 127l-170 131l105 123l162 -123l32 235h154l-33 -235l195 123l69 -123l-204 -131l167 -127l-102 -125l-162 123l-35 -240h-151l33 240l-197 -123z" />
<glyph unicode="+" horiz-adv-x="882" d="M53 483l31 215h289l41 301h241l-43 -301h289l-31 -215h-286l-43 -301h-242l43 301h-289z" />
<glyph unicode="," horiz-adv-x="505" d="M117 129q0 77 63 131.5t142 54.5q70 0 106.5 -51t36.5 -125q0 -68 -36.5 -149t-97.5 -146t-126 -86l-58 117q38 16 71.5 49.5t43.5 69.5q-65 -3 -105 33.5t-40 101.5z" />
<glyph unicode="-" d="M104 475l31 215h817l-30 -215h-818z" />
<glyph unicode="." horiz-adv-x="501" d="M106 121q0 75 58 131.5t133 56.5q61 0 101 -39.5t40 -101.5q0 -75 -56.5 -131.5t-131.5 -56.5q-61 0 -102.5 40t-41.5 101z" />
<glyph unicode="/" horiz-adv-x="944" d="M16 -84l715 1466h211l-715 -1466h-211z" />
<glyph unicode="0" horiz-adv-x="1036" d="M109 416q0 90 21.5 183.5t65.5 181t105 156t146.5 109.5t183.5 41q118 0 202.5 -64.5t123 -161.5t38.5 -212q0 -91 -21 -184t-64.5 -180t-104 -155t-146.5 -109t-184 -41q-90 0 -161.5 36t-115 98t-66.5 139t-23 163zM330 440q0 -48 8.5 -89t27 -78t54.5 -58.5t86 -21.5 q72 0 127 43.5t84.5 112t44 138.5t14.5 136q0 47 -8 88t-26.5 79t-54 60t-85.5 22q-71 0 -126.5 -44t-85.5 -113t-45 -139.5t-15 -135.5z" />
<glyph unicode="1" horiz-adv-x="819" d="M80 -2l29 215h247l86 610l-247 -94l-15 201q92 45 206.5 88t176.5 43h154l-119 -848h231l-30 -215h-719z" />
<glyph unicode="2" horiz-adv-x="1015" d="M80 0l12 104q11 87 52.5 159.5t98 121t123 88.5t130.5 71.5t116.5 61t84.5 65.5t32 77q0 66 -51 96t-123 30q-62 0 -147.5 -26.5t-137.5 -61.5l-49 172q175 127 416 127q134 0 241 -90t107 -229q0 -74 -31 -136.5t-78.5 -104t-107.5 -82t-115 -71t-103.5 -71.5t-70.5 -82 h479l-30 -219h-848z" />
<glyph unicode="3" horiz-adv-x="1044" d="M80 -82l100 176q54 -38 125.5 -63t132.5 -25q40 0 79.5 7t78 23.5t68 40.5t47.5 61t18 81q0 33 -12.5 59t-29.5 42.5t-48.5 28.5t-55 17.5t-64.5 8.5t-62 3t-62.5 -0.5t-50.5 -0.5l27 180l346 303h-449l29 203h721l-29 -203l-301 -280q124 0 206.5 -93.5t82.5 -220.5 q0 -142 -75 -252.5t-195 -167.5t-261 -57q-93 0 -195 35t-171 94z" />
<glyph unicode="4" horiz-adv-x="1118" d="M80 115l24 174l601 774h299l-107 -746h193l-29 -202h-191l-43 -305h-241l43 305h-549zM352 317h305l68 490z" />
<glyph unicode="5" horiz-adv-x="1015" d="M86 -90l111 199q58 -42 133.5 -69.5t140.5 -27.5q98 0 179 68t81 164q0 43 -15 75.5t-38.5 53t-60.5 34t-71.5 19t-81 7.5t-80 1t-77.5 -2.5t-65 -1.5l110 633h645l-28 -203h-459l-37 -227q69 2 124.5 -1t117 -13.5t106.5 -34t83 -59.5t57.5 -93.5t19.5 -132.5 q0 -141 -70.5 -258.5t-190.5 -184.5t-261 -67q-91 0 -195.5 33.5t-177.5 87.5z" />
<glyph unicode="6" horiz-adv-x="980" d="M104 315q0 143 93 308q57 98 125.5 198.5t169.5 240t137 191.5h239l-325 -489q28 14 69 14q153 0 247.5 -84.5t94.5 -236.5q0 -203 -138 -340t-341 -137q-161 0 -266 88.5t-105 246.5zM324 348q0 -81 47.5 -131.5t128.5 -50.5q100 0 168.5 77.5t68.5 178.5 q0 82 -46.5 135t-127.5 53q-101 0 -170 -79.5t-69 -182.5z" />
<glyph unicode="7" horiz-adv-x="903" d="M55 -190l613 1046h-510l28 207h756l-27 -197q-64 -112 -608 -1056h-252z" />
<glyph unicode="8" horiz-adv-x="1005" d="M104 307q0 128 69.5 233.5t186.5 161.5q-100 77 -100 209q0 79 33 148.5t88 117.5t127 75.5t149 27.5q129 0 218.5 -73.5t89.5 -200.5q0 -92 -44.5 -173t-121.5 -131q75 -42 115 -114.5t40 -161.5q0 -96 -39.5 -180.5t-105.5 -143t-153 -92t-181 -33.5q-156 0 -263.5 89 t-107.5 241zM322 346q0 -81 50 -129.5t130 -48.5q98 0 170.5 70.5t72.5 167.5q0 77 -52.5 132.5t-129.5 55.5q-93 0 -167 -77.5t-74 -170.5zM436 934q0 -65 46.5 -109.5t113.5 -44.5q79 0 146 63t67 142q0 69 -48 109.5t-118 40.5q-84 0 -145.5 -58.5t-61.5 -142.5z" />
<glyph unicode="9" horiz-adv-x="995" d="M104 608q0 202 139.5 336.5t342.5 134.5q160 0 264 -89t104 -247q0 -148 -92 -305q-58 -99 -124 -197t-173 -247t-135 -189h-250l328 490q-38 -12 -74 -12q-146 -2 -238 88.5t-92 236.5zM322 639q0 -84 46.5 -136t129.5 -52q100 0 168.5 79t68.5 181q0 81 -47.5 131.5 t-128.5 50.5q-101 0 -169 -76t-68 -178z" />
<glyph unicode=":" horiz-adv-x="589" d="M123 121q0 75 57 131.5t131 56.5q62 0 103 -40t41 -101q0 -75 -57.5 -131.5t-131.5 -56.5q-62 0 -102.5 40t-40.5 101zM219 807q0 74 57.5 130t131.5 56q62 0 102.5 -39t40.5 -100q0 -75 -57.5 -131.5t-131.5 -56.5q-62 0 -102.5 40t-40.5 101z" />
<glyph unicode=";" horiz-adv-x="587" d="M115 84q0 70 55 129t125 59q23 0 39 -8q64 -7 97.5 -56.5t33.5 -115.5q0 -104 -81 -224.5t-179 -152.5l-58 117q38 16 71.5 49.5t43.5 69.5q-66 -5 -106.5 31t-40.5 102zM215 807q0 75 58 130.5t133 55.5q61 0 101 -39t40 -100q0 -75 -57 -131.5t-132 -56.5 q-62 0 -102.5 40t-40.5 101z" />
<glyph unicode="&#x3c;" horiz-adv-x="907" d="M80 592l24 184l775 354l-33 -233l-500 -213l440 -213l-32 -233z" />
<glyph unicode="=" horiz-adv-x="991" d="M80 348l29 213h817l-29 -213h-817zM137 772l31 215h817l-31 -215h-817z" />
<glyph unicode="&#x3e;" horiz-adv-x="919" d="M80 219l33 236l501 231l-436 232l33 233l678 -373l-25 -184z" />
<glyph unicode="?" horiz-adv-x="851" d="M80 98q0 62 50 109t112 47q53 0 89 -33.5t36 -85.5q0 -63 -49.5 -109t-112.5 -46q-52 0 -88.5 32.5t-36.5 85.5zM147 1368q56 42 166 69t191 27q149 0 247.5 -76t98.5 -221q0 -25 -8 -75q-25 -129 -103 -220t-202 -139q-74 -28 -125 -28l-43 -302h-205l63 459q1 0 61 -1 t60 1q97 6 171.5 75.5t74.5 164.5q0 74 -55 114.5t-131 40.5q-45 0 -111.5 -21.5t-108.5 -47.5z" />
<glyph unicode="@" horiz-adv-x="1644" d="M104 467q0 168 69 324t183.5 270t271 182t324.5 68q132 0 248.5 -38t206.5 -108.5t142.5 -181t52.5 -246.5q0 -71 -16.5 -150t-51 -158t-82.5 -142t-117.5 -102.5t-148.5 -39.5q-58 0 -116.5 33t-80.5 84q-50 -58 -125 -86.5t-157 -28.5q-90 0 -159.5 50.5t-103.5 128 t-34 166.5q0 117 49 221.5t144 172.5t214 68q63 0 127.5 -25t97.5 -71l11 76h202q-5 -31 -20.5 -127.5t-24.5 -157.5t-17.5 -143.5t-8.5 -138.5q0 -19 1.5 -33.5t6 -31.5t13 -28t23.5 -18.5t36 -7.5q57 0 106.5 56.5t78.5 136.5t45.5 156t16.5 126q0 118 -47 214t-126.5 157 t-182 94t-215.5 33q-144 0 -281 -60.5t-238 -160.5t-162.5 -236.5t-61.5 -280.5q0 -158 73.5 -285t201.5 -197.5t286 -70.5q132 0 313 76l27 -84q-74 -38 -171.5 -61t-181.5 -23q-183 0 -329 79.5t-229 223.5t-83 326zM606 520q0 -84 48.5 -139t131.5 -55q79 0 136 42.5 t69 118.5q1 11 11 74t10 96q0 59 -51 92t-113 33q-108 -1 -175 -77t-67 -185z" />
<glyph unicode="A" horiz-adv-x="1183" d="M14 0l564 1253h333l213 -1253h-243l-58 301h-422l-143 -301h-244zM489 520h308l-84 498z" />
<glyph unicode="B" horiz-adv-x="1128" d="M86 0l176 1253h465q138 0 231 -73.5t93 -208.5q0 -160 -138 -285q80 -30 122 -98t42 -156q0 -177 -119 -295.5t-296 -132.5q-31 -4 -95 -4h-481zM354 193h275q79 0 138.5 67t59.5 146q0 66 -40.5 111.5t-106.5 45.5h-274zM434 762h182q89 0 146 46t57 134 q0 60 -39.5 91.5t-101.5 31.5h-201z" />
<glyph unicode="C" horiz-adv-x="1202" d="M96 516q0 148 54 286.5t147 243t227 167.5t285 63q95 0 203 -35.5t166 -97.5l-125 -203q-43 45 -118 73.5t-140 28.5q-128 0 -232 -69t-159.5 -179.5t-55.5 -236.5q0 -154 89 -248t241 -94q68 0 151.5 29.5t135.5 72.5l69 -204q-72 -59 -189.5 -95t-217.5 -36 q-234 0 -382.5 150t-148.5 384z" />
<glyph unicode="D" horiz-adv-x="1210" d="M86 0l176 1253h402q240 0 378 -127.5t138 -365.5q0 -148 -50.5 -285.5t-139.5 -242.5t-220 -168.5t-283 -63.5h-401zM358 229h127q24 0 78 4q66 7 123.5 39.5t98.5 81t71 109t44.5 125t14.5 127.5q0 159 -79.5 234t-237.5 75h-127z" />
<glyph unicode="E" horiz-adv-x="1144" d="M86 0l176 1253h858l-30 -229h-619l-39 -274h492l-29 -205h-492l-45 -316h619l-33 -229h-858z" />
<glyph unicode="F" horiz-adv-x="1105" d="M86 0l176 1253h858l-30 -229h-619l-39 -270h457l-33 -230h-457l-73 -524h-240z" />
<glyph unicode="G" horiz-adv-x="1259" d="M96 520q0 150 57.5 288.5t155.5 241t234.5 163.5t287.5 61q110 0 225.5 -34.5t180.5 -102.5l-127 -203q-41 44 -120.5 75t-143.5 31q-199 0 -342.5 -143.5t-143.5 -341.5q0 -164 101.5 -253t269.5 -89q83 0 141 49l56 383h237l-71 -514q-45 -62 -196.5 -106.5 t-246.5 -44.5q-245 0 -400 148t-155 392z" />
<glyph unicode="H" horiz-adv-x="1253" d="M86 0l176 1253h240l-66 -471h488l65 471h242l-176 -1253h-242l78 553h-488l-77 -553h-240z" />
<glyph unicode="I" horiz-adv-x="526" d="M86 0l176 1253h242l-176 -1253h-242z" />
<glyph unicode="J" horiz-adv-x="952" d="M51 98l131 207q32 -35 86.5 -58.5t102.5 -23.5q50 0 88.5 21t62.5 58t38 78t20 89l108 782h242l-90 -633q-8 -57 -14.5 -98.5t-18.5 -98t-25 -98t-33.5 -90.5t-44.5 -84t-58 -69.5t-73.5 -55.5t-91 -34t-110.5 -13q-91 0 -175 30.5t-145 90.5z" />
<glyph unicode="K" horiz-adv-x="1142" d="M86 0l176 1253h242l-64 -454l463 454h281l-537 -557l418 -696h-289l-364 598l-84 -598h-242z" />
<glyph unicode="L" horiz-adv-x="768" d="M86 0l176 1253h240l-144 -1024h387l-32 -229h-627z" />
<glyph unicode="M" horiz-adv-x="1527" d="M86 0l176 1253h225l330 -475l463 475h225l-176 -1253h-242l127 909l-444 -469l-315 465l-127 -905h-242z" />
<glyph unicode="N" horiz-adv-x="1253" d="M86 0l176 1253h244l368 -819l115 819h242l-176 -1253h-246l-371 803l-112 -803h-240z" />
<glyph unicode="O" horiz-adv-x="1296" d="M96 502q0 145 48.5 283t133.5 247t214.5 175.5t279.5 66.5q226 0 360 -147.5t134 -376.5q0 -147 -47.5 -284.5t-132 -246t-213.5 -174t-281 -65.5q-228 0 -362 145.5t-134 376.5zM360 516q0 -67 14 -123.5t43.5 -103t81.5 -73t122 -26.5q79 0 145 34.5t108.5 90t72 127.5 t42 144.5t12.5 144.5q0 66 -13.5 122.5t-42.5 104t-80.5 74.5t-121.5 27q-79 0 -144.5 -35t-109 -91t-73.5 -128t-43 -145t-13 -144z" />
<glyph unicode="P" horiz-adv-x="1148" d="M86 0l176 1253h541q145 0 234 -104t89 -250q0 -114 -59 -224.5t-162 -182.5t-219 -72h-299l-59 -420h-242zM418 649h274q81 0 141 65.5t60 147.5q0 65 -42.5 113.5t-105.5 48.5h-274z" />
<glyph unicode="Q" horiz-adv-x="1294" d="M96 496q0 117 30 230t88.5 211.5t139 173.5t189 118t229.5 43q113 0 206.5 -40t156 -110.5t97 -166.5t34.5 -207q0 -144 -43 -280t-135 -252t-220 -175l213 -287h-299l-168 230q-28 -3 -55 -3q-87 0 -161 27q-99 35 -164.5 105t-101.5 169t-36 214zM358 514 q0 -67 14.5 -123.5t44.5 -103t82 -73t122 -26.5q79 0 144.5 34t108 89.5t72 127t42.5 144t13 144.5q0 53 -8 100t-27.5 89.5t-48.5 73.5t-73.5 49t-100.5 18q-78 0 -144 -35t-109.5 -91t-74 -128t-44 -145t-13.5 -144z" />
<glyph unicode="R" horiz-adv-x="1167" d="M86 0l176 1253h545q143 0 233 -88.5t90 -230.5q0 -131 -77.5 -246.5t-200.5 -152.5l235 -535h-280l-203 498h-209l-69 -498h-240zM424 696h276q78 0 135.5 62.5t57.5 140.5q0 63 -40.5 107.5t-102.5 44.5h-277z" />
<glyph unicode="S" horiz-adv-x="1107" d="M66 109l131 213q46 -36 146.5 -75.5t154.5 -39.5q94 0 166.5 46t78.5 134v8q0 33 -23 61q-26 30 -69.5 52t-97 42.5t-107.5 46.5t-99 58.5t-73 84.5t-28 118q0 102 41.5 182.5t111.5 130t157.5 75.5t184.5 26q98 0 196 -28t153 -87l-103 -180q-37 36 -113.5 59t-134.5 23 q-39 0 -79.5 -9.5t-78 -28t-61.5 -52t-24 -76.5q0 -35 28 -62.5t73.5 -47t100 -38t109 -43.5t100 -56.5t73.5 -82.5t28 -117q0 -100 -45 -188t-118 -148t-166.5 -95t-189.5 -35q-110 0 -230 33t-193 96z" />
<glyph unicode="T" horiz-adv-x="1181" d="M162 1030l31 223h1011l-30 -223h-386l-145 -1030h-242l146 1030h-385z" />
<glyph unicode="U" horiz-adv-x="1191" d="M104 381q0 20 9 90l108 782h238l-111 -782q-4 -32 -4 -47q0 -94 55.5 -154.5t149.5 -60.5q107 0 182.5 76.5t89.5 185.5l111 782h235l-108 -782q-31 -218 -178 -354.5t-365 -136.5q-191 0 -301.5 105.5t-110.5 295.5z" />
<glyph unicode="V" horiz-adv-x="1191" d="M150 1253h268l164 -882l409 882h271l-594 -1253h-277z" />
<glyph unicode="W" horiz-adv-x="2060" d="M150 1253h264l170 -872l424 860h258l186 -860l412 872h264l-592 -1253h-279l-178 840l-411 -840h-277z" />
<glyph unicode="X" horiz-adv-x="1337" d="M57 0l490 662l-271 591h246l213 -436l340 436h246l-442 -591l303 -662h-246l-248 479l-383 -479h-248z" />
<glyph unicode="Y" horiz-adv-x="1144" d="M117 1253h245l236 -483l371 483h243l-526 -700l-76 -553h-241l77 553z" />
<glyph unicode="Z" horiz-adv-x="1232" d="M86 0l31 221l749 809h-604l31 223h917l-30 -223l-742 -809h627l-31 -221h-948z" />
<glyph unicode="[" horiz-adv-x="608" d="M29 -356l286 2044h439l-31 -218h-197l-227 -1609h199l-31 -217h-438z" />
<glyph unicode="\" horiz-adv-x="657" d="M47 1458h244l344 -1681h-244z" />
<glyph unicode="]" horiz-adv-x="608" d="M-76 -412l31 217h197l227 1608h-199l31 217h438l-287 -2042h-438z" />
<glyph unicode="^" horiz-adv-x="811" d="M80 711l328 678h235l137 -678h-205l-79 475l-213 -475h-203z" />
<glyph unicode="_" horiz-adv-x="1312" d="M80 -328l29 215h1175l-29 -215h-1175z" />
<glyph unicode="`" horiz-adv-x="761" d="M416 1522h235l64 -258h-191z" />
<glyph unicode="a" horiz-adv-x="1206" d="M109 432q0 90 21.5 182t65.5 177.5t104.5 152t146 106.5t182.5 40q78 0 155 -35.5t109 -100.5l14 107h246l-76 -531q-18 -126 -18 -208q0 -34 3.5 -58t13 -48t31.5 -36.5t56 -11.5l-76 -188q-190 0 -268 163q-141 -163 -352 -163q-71 0 -131 26.5t-101.5 70.5t-70 103 t-42 122.5t-13.5 129.5zM358 469q0 -111 56 -183.5t164 -72.5q39 0 88.5 16.5t92.5 49.5t50 71q28 129 51 361l2 8q0 43 -33.5 77.5t-77.5 51t-85 16.5q-72 0 -132.5 -37t-97.5 -95.5t-57.5 -127t-20.5 -135.5z" />
<glyph unicode="b" horiz-adv-x="1136" d="M80 0l201 1434h223l-64 -449q48 46 130.5 72t156.5 26q92 0 165.5 -35.5t119 -97t69 -139.5t23.5 -166q0 -90 -24 -183.5t-71.5 -179.5t-111.5 -153.5t-151.5 -108t-184.5 -40.5q-83 0 -133.5 23.5t-114.5 84.5l-12 -88h-221zM344 301q29 -44 80 -70t104 -26 q75 0 139 35.5t106 92.5t65.5 127.5t23.5 141.5q0 115 -63.5 192.5t-175.5 77.5q-54 0 -117.5 -27t-93.5 -67z" />
<glyph unicode="c" horiz-adv-x="1083" d="M109 436q0 170 76 317.5t215.5 238.5t310.5 91q96 0 194.5 -39.5t147.5 -111.5l-107 -160q-33 46 -98.5 71t-128.5 25q-96 0 -182.5 -54.5t-137.5 -142.5t-51 -184q0 -120 72.5 -201t191.5 -81q68 0 143 28t126 72l61 -162q-73 -72 -184.5 -117.5t-212.5 -45.5 q-129 0 -229 60.5t-153.5 164t-53.5 231.5z" />
<glyph unicode="d" horiz-adv-x="1212" d="M109 436q0 126 37.5 242t107 207.5t177 146.5t237.5 55q63 0 131 -27t98 -73l64 447h223l-203 -1434h-221l12 88q-73 -58 -132.5 -83t-145.5 -25q-120 0 -209.5 67.5t-132.5 169.5t-43 219zM367 463q0 -115 56 -192.5t167 -77.5q56 0 114 28t97 72l65 471 q-17 41 -75.5 67.5t-108.5 26.5q-74 0 -135.5 -36t-99.5 -93.5t-59 -126.5t-21 -139z" />
<glyph unicode="e" horiz-adv-x="1044" d="M109 422q0 98 26 194t76.5 180.5t118.5 149t160 102t194 37.5q143 0 236.5 -82t93.5 -223q0 -84 -39 -150t-102.5 -105t-138.5 -59t-154 -20q-134 0 -224 56v-19q0 -61 11 -111t35.5 -94t70.5 -69t111 -25q74 0 154 34.5t134 88.5l60 -172q-68 -72 -180 -113.5 t-217 -41.5q-197 0 -311.5 122t-114.5 320zM393 664q27 -20 74.5 -29.5t89.5 -9.5q40 0 77.5 6.5t74.5 22.5t59.5 47t22.5 75q0 55 -42 86t-100 31q-176 0 -256 -229z" />
<glyph unicode="f" horiz-adv-x="817" d="M109 -371l172 1235h-156l29 199h153q16 106 71 197t146 148.5t199 57.5q60 -2 122.5 -18.5t98.5 -48.5l-94 -152q-45 25 -96 25q-85 0 -147.5 -61.5t-74.5 -147.5h308l-29 -199h-309l-172 -1235h-221z" />
<glyph unicode="g" horiz-adv-x="1181" d="M109 -274l122 188q31 -32 115 -56t139 -24q119 0 207.5 88t106.5 211q-99 -78 -258 -78q-188 0 -293 119.5t-105 310.5q0 153 64.5 289t188.5 223.5t280 87.5q70 0 137 -28t102 -82l13 88h223l-111 -795q-14 -99 -40.5 -188.5t-73.5 -177t-108.5 -151.5t-150 -103 t-194.5 -39q-90 0 -202.5 31t-161.5 86zM389 526q0 -103 56 -175t157 -72q66 0 134 26t98 76q5 36 19 121t23 155.5t9 116.5q0 10 -15 25q-59 73 -180 73q-132 0 -216.5 -105t-84.5 -241z" />
<glyph unicode="h" horiz-adv-x="1048" d="M80 0l201 1434h229l-76 -533q38 77 124.5 130.5t172.5 53.5q145 0 217 -83.5t72 -229.5q0 -34 -8 -100l-94 -672h-228l80 557q6 43 6 84q0 180 -160 180q-100 0 -157.5 -77.5t-71.5 -186.5l-78 -557h-229z" />
<glyph unicode="i" horiz-adv-x="509" d="M82 0l149 1063h228l-150 -1063h-227zM244 1300q0 61 47 105.5t108 44.5q50 0 85.5 -32.5t35.5 -82.5q0 -60 -48.5 -104.5t-109.5 -44.5q-50 0 -84 32t-34 82z" />
<glyph unicode="j" horiz-adv-x="638" d="M-215 -336l109 176q45 -28 104 -28q28 0 53 9.5t43.5 22.5t35 37.5t27.5 43.5t21 53t15.5 54t12 56.5t8.5 51t7 48.5l125 875h232l-129 -928q-12 -80 -33 -152t-58 -142t-85.5 -120t-120 -81t-156.5 -31q-53 0 -113 14t-98 41zM362 1300q0 62 48.5 106t109.5 44 q51 0 86 -31.5t35 -81.5q0 -61 -48.5 -106t-109.5 -45q-52 0 -86.5 32t-34.5 82z" />
<glyph unicode="k" horiz-adv-x="1071" d="M104 0l203 1434h223l-98 -701l363 330h284l-483 -442l430 -621h-283l-346 483l-69 -483h-224z" />
<glyph unicode="l" horiz-adv-x="624" d="M104 283q0 66 13 139l141 1012h234l-140 -1006q-10 -58 -10 -104q0 -134 92 -134q55 0 105 31l57 -176q-102 -65 -242 -65q-250 0 -250 303z" />
<glyph unicode="m" horiz-adv-x="1658" d="M80 0l149 1063h228l-21 -154q40 74 125.5 125t169.5 51q236 0 279 -204q47 97 135 150.5t198 53.5q144 0 215.5 -86.5t71.5 -232.5q0 -32 -8 -94l-94 -672h-228l80 557q6 43 6 84q0 180 -157 180q-98 0 -157.5 -75.5t-72.5 -180.5l-79 -565h-230l80 557q6 43 6 84 q0 180 -160 180q-100 0 -157.5 -77.5t-71.5 -186.5l-80 -557h-227z" />
<glyph unicode="n" horiz-adv-x="1048" d="M80 0l149 1063h228l-23 -162q38 77 124.5 130.5t172.5 53.5q146 0 217.5 -80t71.5 -227q0 -36 -8 -106l-94 -672h-228l80 557q6 43 6 84q0 180 -160 180q-100 0 -157.5 -77.5t-71.5 -186.5l-78 -557h-229z" />
<glyph unicode="o" horiz-adv-x="1169" d="M109 422q0 123 43.5 241t119 209.5t186.5 147t238 55.5q193 0 311.5 -129t118.5 -323q0 -124 -43 -242t-117.5 -209.5t-186 -147t-238.5 -55.5q-194 0 -313 128t-119 325zM358 446q0 -71 19.5 -131t69 -102.5t122.5 -42.5q61 0 113 27.5t87 72.5t60 101.5t36.5 114.5 t11.5 112q0 53 -11 99.5t-34.5 86.5t-65.5 63t-98 23q-73 0 -134 -41.5t-98.5 -106t-57.5 -136.5t-20 -140z" />
<glyph unicode="p" horiz-adv-x="1187" d="M80 -371l201 1434h223l-15 -94q79 63 135.5 89.5t143.5 26.5q73 0 136.5 -25.5t108.5 -69.5t77 -102.5t47.5 -125t15.5 -135.5q0 -91 -22 -182t-67 -175t-106.5 -148.5t-147.5 -103t-183 -38.5q-79 0 -150.5 26.5t-109.5 83.5l-66 -461h-221zM393 285q19 -42 77 -69.5 t108 -27.5q77 0 141 37t104 96.5t62 131t22 143.5q0 115 -61.5 191.5t-173.5 76.5q-54 0 -112.5 -28.5t-98.5 -71.5z" />
<glyph unicode="q" horiz-adv-x="1161" d="M109 414q0 91 22 185t67 181t107.5 155t149.5 109t186 41q84 0 139 -26t117 -88l14 92h222l-201 -1434h-223l65 461q-52 -55 -128 -82.5t-157 -27.5q-124 0 -211.5 59.5t-128 155.5t-40.5 219zM362 465q0 -109 62 -182.5t170 -73.5q54 0 118.5 27t92.5 67l63 455 q-28 44 -78.5 72t-103.5 28q-74 0 -136.5 -35t-102.5 -92t-62.5 -126t-22.5 -140z" />
<glyph unicode="r" horiz-adv-x="800" d="M76 0l149 1063h230l-25 -162q38 76 125 129t172 53q13 0 24.5 -0.5t23 -2.5t20 -3.5t21 -5t19 -5.5t21 -6.5t21.5 -6.5l-148 -242q-52 20 -90 20q-60 0 -108 -25t-78 -69t-48 -93.5t-26 -106.5l-74 -537h-229z" />
<glyph unicode="s" horiz-adv-x="995" d="M80 88l121 199q49 -41 114.5 -69t122.5 -28q70 0 127.5 39t57.5 105q0 30 -21.5 53t-55.5 39.5t-75 33t-82.5 38t-75.5 49t-55.5 71t-21.5 99.5q0 112 60.5 197.5t155 128t205.5 42.5q85 0 177.5 -26.5t130.5 -81.5l-95 -162q-33 32 -90.5 50t-107.5 18q-63 0 -120.5 -34 t-57.5 -93q0 -41 41 -71t100 -54t117.5 -53t99.5 -82.5t41 -128.5q0 -88 -38 -162t-101 -122.5t-142 -75.5t-163 -27q-95 0 -199.5 28t-169.5 80z" />
<glyph unicode="t" horiz-adv-x="843" d="M104 864l29 199h154l39 278h223l-39 -278h305l-29 -199h-303l-61 -436q-10 -93 -10 -111q0 -58 20 -91t74 -33q51 0 102 34l54 -174q-115 -73 -230 -73q-123 0 -186.5 80.5t-63.5 207.5q0 42 6 88l72 508h-156z" />
<glyph unicode="u" horiz-adv-x="1048" d="M80 303q0 63 8 115l90 645h230l-82 -574q-7 -51 -7 -83q0 -181 158 -181q53 0 95.5 23t70 62t44.5 84t24 95l82 574h225l-150 -1063h-225l23 162q-38 -76 -126 -130.5t-173 -54.5q-148 0 -217.5 87.5t-69.5 238.5z" />
<glyph unicode="v" horiz-adv-x="991" d="M121 1063h229l113 -721l313 721h240l-488 -1063h-227z" />
<glyph unicode="w" horiz-adv-x="1662" d="M121 1063h235l107 -721l313 719h246l113 -719l307 721h244l-486 -1063h-229l-115 737l-328 -737h-227z" />
<glyph unicode="x" horiz-adv-x="1091" d="M39 0l424 563l-223 500h225l156 -320l243 320h236l-371 -500l256 -563h-240l-178 358l-280 -358h-248z" />
<glyph unicode="y" horiz-adv-x="1034" d="M-23 -322l109 181q51 -33 104 -33q9 0 29 12q96 54 150 221l-201 1004h244l116 -694l310 694h239q-67 -136 -140 -292t-160 -344.5t-136 -293.5q-47 -100 -80 -160q-31 -57 -52.5 -94.5t-61.5 -92t-77 -87.5t-88.5 -57.5t-105.5 -24.5q-42 0 -107 18t-92 43z" />
<glyph unicode="z" horiz-adv-x="1038" d="M80 0l29 201l602 665h-471l26 197h744l-27 -195l-602 -667h520l-29 -201h-792z" />
<glyph unicode="{" horiz-adv-x="665" d="M37 664l217 176l76 542q19 135 113.5 218t230.5 83h137l-31 -217q-46 0 -79.5 -6t-64.5 -21.5t-49.5 -46.5t-25.5 -77l-74 -535l-151 -116l117 -117l-74 -535q-2 -10 -2 -26q0 -41 14 -68t41.5 -39t55 -16t67.5 -4l-31 -217h-137q-120 0 -192 65.5t-72 183.5q0 20 4 52 l78 546z" />
<glyph unicode="|" horiz-adv-x="600" d="M47 -356l289 2056h242l-289 -2056h-242z" />
<glyph unicode="}" horiz-adv-x="710" d="M-76 -356l31 217q46 0 79.5 6t64.5 21.5t49.5 46.5t25.5 77l74 537l151 117l-116 116l73 535q2 8 2 26q0 41 -14 67t-41.5 38t-55 16t-67.5 4l31 218h137q118 0 191 -66t73 -182q0 -22 -4 -54l-78 -542l168 -176l-217 -174l-75 -547q-19 -135 -114 -218t-231 -83h-137z " />
<glyph unicode="~" horiz-adv-x="882" d="M80 715q51 79 122 129.5t154 50.5q42 0 114 -29.5t112 -29.5q80 0 123 65l147 -84q-49 -72 -117.5 -119t-144.5 -47q-52 0 -122 31t-110 31q-42 0 -80.5 -21.5t-62.5 -56.5z" />
<glyph unicode="&#xa1;" horiz-adv-x="550" d="M96 -145l230 1095h192l-78 -1095h-344zM319 1206q0 64 49 110t113 46q52 0 87.5 -32.5t35.5 -84.5q0 -63 -49.5 -110.5t-112.5 -47.5q-53 0 -88 33.5t-35 85.5z" />
<glyph unicode="&#xa2;" horiz-adv-x="1220" d="M109 506q0 182 76 344t218.5 272t323.5 135l23 162h149l-22 -157q82 -9 174 -44t141 -88l-127 -202q-43 44 -117.5 73t-138.5 29q-129 0 -233 -68.5t-160 -179t-56 -237.5q0 -152 90 -246t242 -94q67 0 149.5 29.5t135.5 72.5l70 -205q-61 -51 -161 -85t-190 -42 l-24 -168h-150l25 173q-202 29 -320 174t-118 352z" />
<glyph unicode="&#xa3;" horiz-adv-x="1075" d="M88 4l27 189h26q44 0 86 45t70.5 110t47 125t24.5 102h-181l21 142h180q10 101 43 196t88.5 177.5t142.5 133t193 50.5q76 0 152 -27t114 -80l-88 -139q-33 29 -82.5 46.5t-93.5 17.5q-210 0 -268 -375h237l-20 -142h-238q-11 -79 -65 -214.5t-103 -167.5h471l-26 -189 h-758z" />
<glyph unicode="&#xa4;" horiz-adv-x="1247" d="M121 162l170 147q-27 65 -27 137q0 154 82 273l-127 147l180 158l123 -143q100 59 213 59q115 0 199 -63l168 149l135 -160l-176 -153q22 -56 22 -129q0 -156 -79 -262l135 -160l-178 -156l-125 146q-108 -62 -222 -62q-100 0 -196 57l-162 -141zM428 477q0 -91 60 -152 t151 -61q117 0 198 87.5t81 205.5q0 91 -58 150t-149 59q-114 0 -198.5 -87.5t-84.5 -201.5z" />
<glyph unicode="&#xa5;" horiz-adv-x="1175" d="M150 1253h243l238 -469l368 469h244l-487 -649h231l-18 -139h-264l-11 -78h262l-18 -139h-264l-35 -248h-240l35 248h-262l21 139h260l12 78h-262l20 139h230z" />
<glyph unicode="&#xa6;" horiz-adv-x="681" d="M78 -367l110 791h242l-111 -791h-241zM209 565l110 791h242l-110 -791h-242z" />
<glyph unicode="&#xa7;" horiz-adv-x="1296" d="M80 -250l129 215q44 -36 146 -75.5t155 -39.5q55 0 109 18t95.5 60.5t41.5 100.5q0 40 -27.5 71.5t-71.5 53t-97 42t-106 46t-97 57.5t-71.5 83.5t-27.5 117.5q0 112 56.5 205.5t154.5 146.5q-49 58 -49 139q0 99 43 179t114 129.5t159 75.5t182 26q98 0 194 -27.5 t154 -87.5l-103 -182q-37 36 -113.5 59t-134.5 23q-34 0 -74 -9t-79 -26t-64.5 -47.5t-25.5 -69.5q0 -37 22 -66t58 -47.5t82 -37.5t94 -35t94 -40.5t82 -54t58 -76t22 -104.5q0 -106 -54 -204t-143 -160q31 -50 31 -123q0 -131 -75.5 -239t-192.5 -166t-246 -58 q-110 0 -231.5 33t-192.5 94zM510 535q0 -25 12 -46.5t35.5 -37t48 -27t59 -20.5t58 -14t57 -11t43.5 -8q43 25 71 64.5t28 84.5q0 30 -18 56.5t-39.5 42.5t-60.5 32t-59 22.5t-57 16.5q-70 -10 -124 -50t-54 -105z" />
<glyph unicode="&#xa8;" horiz-adv-x="798" d="M104 1409q0 52 40.5 92.5t93.5 40.5q43 0 72.5 -28.5t29.5 -71.5q0 -54 -40.5 -93.5t-94.5 -39.5q-43 0 -72 28.5t-29 71.5zM508 1409q0 53 40.5 93t94.5 40q43 0 71.5 -28.5t28.5 -71.5q0 -54 -40 -93.5t-93 -39.5q-43 0 -72.5 28t-29.5 72z" />
<glyph unicode="&#xa9;" horiz-adv-x="1513" d="M104 516q0 150 65 291.5t171 246t249.5 167.5t293.5 63q164 0 298.5 -74t211.5 -207t77 -298q0 -150 -64.5 -293t-171 -248t-249.5 -168.5t-293 -63.5q-165 0 -299.5 75.5t-211.5 209.5t-77 299zM168 522q0 -226 152.5 -376t379.5 -150q136 0 266 57.5t226.5 152 t155.5 223.5t59 265q0 226 -153.5 376.5t-381.5 150.5q-136 0 -265.5 -57.5t-225.5 -152t-154.5 -223.5t-58.5 -266zM412 541q0 126 57 234t160.5 172.5t230.5 64.5q73 0 146 -29t110 -82l-78 -117q-26 33 -76.5 51.5t-97.5 18.5q-109 0 -192.5 -83.5t-83.5 -192.5 q0 -90 55.5 -148.5t144.5 -58.5q52 0 108 20t95 53l45 -120q-57 -53 -140 -86t-159 -33q-145 0 -235 95t-90 241z" />
<glyph unicode="&#xaa;" horiz-adv-x="755" d="M72 860q0 96 35 187t110 155t174 64q91 0 164 -76l8 61h154q-5 -39 -22.5 -140.5t-26.5 -178.5t-9 -144q0 -42 13.5 -63.5t52.5 -22.5l-49 -118q-128 0 -166 96q-85 -94 -215 -94q-107 0 -165 81.5t-58 192.5zM229 883q0 -66 34 -109t97 -43q81 0 129 60q7 9 11.5 22 t6 22.5t3 27.5t2.5 24q2 14 9 47t10.5 58.5t3.5 47.5q0 37 -40 61.5t-79 24.5q-88 0 -137.5 -75.5t-49.5 -167.5z" />
<glyph unicode="&#xab;" horiz-adv-x="1069" d="M80 518l289 428h241l-282 -428l161 -428h-241zM510 518l289 428h241l-280 -428l162 -428h-244z" />
<glyph unicode="&#xac;" horiz-adv-x="987" d="M80 731l31 217h850l-72 -506h-238l41 289h-612z" />
<glyph unicode="&#xad;" horiz-adv-x="954" d="M80 494l31 215h817l-31 -215h-817z" />
<glyph unicode="&#xae;" horiz-adv-x="1509" d="M104 516q0 150 65 291.5t171 246t249.5 167.5t293.5 63q164 0 298.5 -74t211.5 -207t77 -298q0 -150 -64.5 -293t-171 -248t-249.5 -168.5t-293 -63.5q-165 0 -299.5 75.5t-211.5 209.5t-77 299zM168 522q0 -226 152.5 -376t379.5 -150q136 0 266 57.5t226.5 152 t155.5 223.5t59 265q0 226 -153.5 376.5t-381.5 150.5q-136 0 -265.5 -57.5t-225.5 -152t-154.5 -223.5t-58.5 -266zM494 268l96 688h299q80 0 130 -49.5t50 -128.5q0 -70 -41 -132.5t-106 -86.5l129 -291h-166l-111 269h-102l-37 -269h-141zM688 657h143q39 0 68 32t29 71 q0 31 -20 52.5t-50 21.5h-143z" />
<glyph unicode="&#xaf;" horiz-adv-x="944" d="M80 1341l20 150h818l-21 -150h-817z" />
<glyph unicode="&#xb0;" horiz-adv-x="716" d="M104 997q0 124 93 213.5t217 89.5q98 0 164.5 -63.5t66.5 -161.5q0 -123 -92 -214t-215 -91q-101 0 -167.5 63.5t-66.5 163.5zM233 1018q0 -52 34.5 -86.5t86.5 -34.5q65 0 114.5 48.5t49.5 113.5q0 53 -35.5 86t-89.5 33q-64 0 -112 -48.5t-48 -111.5z" />
<glyph unicode="&#xb1;" d="M80 45l31 215h817l-31 -215h-817zM170 674l29 213h288l43 301h240l-41 -301h287l-29 -213h-289l-43 -303h-239l41 303h-287z" />
<glyph unicode="&#xb2;" horiz-adv-x="555" d="M31 598q11 79 14 90q13 49 53 94.5t87.5 79.5t93 66t76 66t30.5 67q0 35 -26.5 51t-65.5 16q-72 0 -143 -53l-35 107q42 40 106.5 64t124.5 24q85 0 142 -42.5t57 -125.5q0 -42 -21.5 -84t-57.5 -78t-73 -68t-77 -68.5t-62 -64.5h260l-20 -141h-463z" />
<glyph unicode="&#xb3;" horiz-adv-x="552" d="M31 662l67 114q69 -51 138 -51q47 0 86.5 25t39.5 69q0 16 -8 27.5t-22.5 18t-30 10t-37 4.5t-36.5 1t-35.5 -0.5t-26.5 -0.5l16 114l144 127h-199l18 133h400l-19 -125l-131 -122q58 -15 92.5 -60.5t34.5 -107.5q0 -111 -86.5 -181.5t-199.5 -70.5q-51 0 -112.5 21.5 t-92.5 54.5z" />
<glyph unicode="&#xb4;" horiz-adv-x="604" d="M268 1262l135 258h236l-180 -258h-191z" />
<glyph unicode="&#xb6;" horiz-adv-x="1042" d="M104 981q0 118 92 208.5t210 90.5h628l-20 -150h-142l-184 -1302h-156l183 1302h-174l-183 -1302h-155l131 928q-98 0 -164 64t-66 161z" />
<glyph unicode="&#xb8;" horiz-adv-x="1484" d="M481 -256l221 336h154l-158 -350z" />
<glyph unicode="&#xb9;" horiz-adv-x="344" d="M51 1186q132 67 223 67h74l-92 -655h-156l70 496l-109 -41z" />
<glyph unicode="&#xba;" horiz-adv-x="788" d="M109 864q0 102 46 194.5t131 152t189 59.5q122 0 196 -81t74 -204q0 -104 -45.5 -196t-130.5 -150.5t-190 -58.5q-122 0 -196 80.5t-74 203.5zM279 881q0 -63 29.5 -109.5t90.5 -46.5q56 0 97.5 40t60 93.5t18.5 108.5q0 65 -29.5 109t-90.5 44q-54 0 -96 -40t-61 -93.5 t-19 -105.5z" />
<glyph unicode="&#xbb;" horiz-adv-x="1069" d="M80 94l282 428l-163 428h243l168 -428l-288 -428h-242zM510 94l283 428l-162 428h241l168 -428l-288 -428h-242z" />
<glyph unicode="&#xbf;" horiz-adv-x="899" d="M106 145q0 32 7 76q50 261 307 359q70 28 125 28l41 301h205l-64 -456h-96q-106 0 -188.5 -69t-82.5 -173q0 -74 56 -115t133 -41q44 0 110.5 22t106.5 48l41 -180q-59 -43 -166.5 -70t-189.5 -27q-149 0 -247 76t-98 221zM588 1178q0 63 50 109t114 46q52 0 88.5 -33 t36.5 -86q0 -62 -50.5 -108.5t-113.5 -46.5q-53 0 -89 33.5t-36 85.5z" />
<glyph unicode="&#xc0;" horiz-adv-x="1183" d="M14 0l564 1253h333l213 -1253h-243l-58 301h-422l-143 -301h-244zM489 520h308l-84 498zM582 1698h235l64 -258h-191z" />
<glyph unicode="&#xc1;" horiz-adv-x="1183" d="M14 0l564 1253h333l213 -1253h-243l-58 301h-422l-143 -301h-244zM489 520h308l-84 498zM631 1438l137 258h236l-183 -258h-190z" />
<glyph unicode="&#xc2;" horiz-adv-x="1183" d="M14 0l564 1253h333l213 -1253h-243l-58 301h-422l-143 -301h-244zM489 520h308l-84 498zM541 1430l159 274h215l84 -274h-151l-57 153l-97 -153h-153z" />
<glyph unicode="&#xc3;" horiz-adv-x="1253" d="M14 0l564 1253h333l213 -1253h-243l-58 301h-422l-143 -301h-244zM414 1522q38 70 115 114.5t157 44.5q44 0 121.5 -28.5t120.5 -28.5q80 0 123 62l147 -80q-36 -69 -98 -115.5t-133 -46.5q-57 0 -139.5 31.5t-125.5 31.5q-99 0 -155 -80zM489 520h308l-84 498z" />
<glyph unicode="&#xc4;" horiz-adv-x="1191" d="M14 0l564 1253h333l213 -1253h-243l-58 301h-422l-143 -301h-244zM465 1520q0 53 39.5 93t93.5 40q43 0 71.5 -29t28.5 -72q0 -54 -40 -93.5t-93 -39.5q-43 0 -71.5 29t-28.5 72zM489 520h308l-84 498zM868 1520q0 53 39.5 93t93.5 40q43 0 73 -29t30 -72 q0 -54 -40.5 -93.5t-94.5 -39.5q-43 0 -72 29t-29 72z" />
<glyph unicode="&#xc5;" horiz-adv-x="1179" d="M14 0l564 1253h333l213 -1253h-243l-58 301h-422l-143 -301h-244zM489 520h308l-84 498zM602 1505q0 83 62.5 143t144.5 60q65 0 110.5 -43.5t45.5 -108.5q0 -82 -62 -143t-145 -61q-67 0 -111.5 42.5t-44.5 110.5zM698 1520q0 -31 20.5 -52.5t51.5 -21.5q37 0 67.5 29 t30.5 67q0 30 -21.5 51t-51.5 21q-37 0 -67 -29t-30 -65z" />
<glyph unicode="&#xc6;" horiz-adv-x="1638" d="M14 0l588 1253h1002l-33 -229h-617l-39 -270h492l-29 -205h-491l-45 -320h618l-33 -229h-858l41 301h-211l-141 -301h-244zM489 520h152l72 498z" />
<glyph unicode="&#xc7;" horiz-adv-x="1202" d="M96 516q0 118 34 231.5t98.5 208t151 166.5t197.5 112t232 40q96 0 204 -34.5t165 -96.5l-125 -203q-44 44 -119 73t-139 29q-128 0 -232 -69t-159.5 -179.5t-55.5 -236.5q0 -154 89 -248t241 -94q70 0 150.5 29t136.5 73l69 -204q-65 -54 -180.5 -90t-210.5 -39 l-115 -250l-215 18l166 248q-182 45 -282.5 184.5t-100.5 331.5z" />
<glyph unicode="&#xc8;" horiz-adv-x="1144" d="M86 0l176 1253h858l-30 -229h-619l-39 -274h492l-29 -205h-492l-45 -316h619l-33 -229h-858zM573 1698h236l63 -258h-190z" />
<glyph unicode="&#xc9;" horiz-adv-x="1144" d="M86 0l176 1253h858l-30 -229h-619l-39 -274h492l-29 -205h-492l-45 -316h619l-33 -229h-858zM586 1438l135 258h235l-180 -258h-190z" />
<glyph unicode="&#xca;" horiz-adv-x="1144" d="M86 0l176 1253h858l-30 -229h-619l-39 -274h492l-29 -205h-492l-45 -316h619l-33 -229h-858zM502 1430l160 274h215l84 -274h-152l-57 153l-97 -153h-153z" />
<glyph unicode="&#xcb;" horiz-adv-x="1144" d="M86 0l176 1253h858l-30 -229h-619l-39 -274h492l-29 -205h-492l-45 -316h619l-33 -229h-858zM420 1518q0 52 40 92.5t93 40.5q43 0 72.5 -29t29.5 -72q0 -54 -40.5 -93.5t-94.5 -39.5q-42 0 -71 29.5t-29 71.5zM823 1518q0 53 40.5 93t94.5 40q43 0 73 -29t30 -72 q0 -53 -41 -93t-94 -40q-43 0 -73 28.5t-30 72.5z" />
<glyph unicode="&#xcc;" horiz-adv-x="575" d="M86 0l176 1253h242l-176 -1253h-242zM211 1698h235l64 -258h-191z" />
<glyph unicode="&#xcd;" horiz-adv-x="559" d="M86 0l176 1253h242l-176 -1253h-242zM305 1440l135 258h236l-180 -258h-191z" />
<glyph unicode="&#xce;" horiz-adv-x="546" d="M86 0l176 1253h242l-176 -1253h-242zM178 1430l160 274h217l82 -274h-152l-55 153l-98 -153h-154z" />
<glyph unicode="&#xcf;" horiz-adv-x="557" d="M82 0l176 1253h242l-176 -1253h-242zM98 1518q0 52 40 92.5t93 40.5q43 0 73 -29t30 -72q0 -54 -40.5 -93.5t-94.5 -39.5q-43 0 -72 29t-29 72zM502 1518q0 53 40.5 93t94.5 40q43 0 71.5 -29t28.5 -72q0 -54 -40 -93.5t-93 -39.5q-43 0 -72.5 28.5t-29.5 72.5z" />
<glyph unicode="&#xd0;" horiz-adv-x="1351" d="M86 545l25 178h157l76 530h461q235 0 375.5 -134.5t140.5 -368.5q0 -143 -52.5 -279t-143 -240t-221 -167.5t-275.5 -63.5h-461l76 545h-158zM440 229h222q73 0 137.5 29t111.5 77.5t80.5 111t50.5 131.5t17 137q0 140 -74.5 224.5t-212.5 84.5h-219l-43 -301h244 l-25 -178h-244z" />
<glyph unicode="&#xd1;" horiz-adv-x="1253" d="M86 0l176 1253h244l368 -819l115 819h242l-176 -1253h-246l-371 803l-112 -803h-240zM397 1522q38 70 115.5 114.5t157.5 44.5q44 0 121 -28.5t120 -28.5q42 0 70 14.5t51 47.5l148 -80q-36 -69 -97.5 -115.5t-132.5 -46.5q-55 0 -138.5 31.5t-127.5 31.5q-98 0 -154 -80 z" />
<glyph unicode="&#xd2;" horiz-adv-x="1296" d="M96 502q0 145 48.5 283t133.5 247t214.5 175.5t279.5 66.5q226 0 360 -147.5t134 -376.5q0 -147 -47.5 -284.5t-132 -246t-213.5 -174t-281 -65.5q-228 0 -362 145.5t-134 376.5zM360 516q0 -67 14 -123.5t43.5 -103t81.5 -73t122 -26.5q79 0 145 34.5t108.5 90t72 127.5 t42 144.5t12.5 144.5q0 66 -13.5 122.5t-42.5 104t-80.5 74.5t-121.5 27q-79 0 -144.5 -35t-109 -91t-73.5 -128t-43 -145t-13 -144zM645 1700h236l63 -258h-190z" />
<glyph unicode="&#xd3;" horiz-adv-x="1296" d="M96 502q0 145 48.5 283t133.5 247t214.5 175.5t279.5 66.5q226 0 360 -147.5t134 -376.5q0 -147 -47.5 -284.5t-132 -246t-213.5 -174t-281 -65.5q-228 0 -362 145.5t-134 376.5zM360 516q0 -67 14 -123.5t43.5 -103t81.5 -73t122 -26.5q79 0 145 34.5t108.5 90t72 127.5 t42 144.5t12.5 144.5q0 66 -13.5 122.5t-42.5 104t-80.5 74.5t-121.5 27q-79 0 -144.5 -35t-109 -91t-73.5 -128t-43 -145t-13 -144zM647 1440l135 258h236l-182 -258h-189z" />
<glyph unicode="&#xd4;" horiz-adv-x="1296" d="M96 502q0 145 48.5 283t133.5 247t214.5 175.5t279.5 66.5q226 0 360 -147.5t134 -376.5q0 -147 -47.5 -284.5t-132 -246t-213.5 -174t-281 -65.5q-228 0 -362 145.5t-134 376.5zM360 516q0 -67 14 -123.5t43.5 -103t81.5 -73t122 -26.5q79 0 145 34.5t108.5 90t72 127.5 t42 144.5t12.5 144.5q0 66 -13.5 122.5t-42.5 104t-80.5 74.5t-121.5 27q-79 0 -144.5 -35t-109 -91t-73.5 -128t-43 -145t-13 -144zM565 1430l158 274h217l82 -274h-150l-57 153l-98 -153h-152z" />
<glyph unicode="&#xd5;" horiz-adv-x="1296" d="M96 502q0 145 48.5 283t133.5 247t214.5 175.5t279.5 66.5q226 0 360 -147.5t134 -376.5q0 -147 -47.5 -284.5t-132 -246t-213.5 -174t-281 -65.5q-228 0 -362 145.5t-134 376.5zM360 516q0 -67 14 -123.5t43.5 -103t81.5 -73t122 -26.5q79 0 145 34.5t108.5 90t72 127.5 t42 144.5t12.5 144.5q0 66 -13.5 122.5t-42.5 104t-80.5 74.5t-121.5 27q-79 0 -144.5 -35t-109 -91t-73.5 -128t-43 -145t-13 -144zM436 1522q39 70 117 114.5t158 44.5q43 0 120.5 -28.5t120.5 -28.5q42 0 70 14.5t51 47.5l148 -80q-36 -69 -97.5 -115.5t-132.5 -46.5 q-57 0 -140 31.5t-124 31.5q-100 0 -156 -80z" />
<glyph unicode="&#xd6;" horiz-adv-x="1296" d="M96 502q0 145 48.5 283t133.5 247t214.5 175.5t279.5 66.5q226 0 360 -147.5t134 -376.5q0 -147 -47.5 -284.5t-132 -246t-213.5 -174t-281 -65.5q-228 0 -362 145.5t-134 376.5zM360 516q0 -67 14 -123.5t43.5 -103t81.5 -73t122 -26.5q79 0 145 34.5t108.5 90t72 127.5 t42 144.5t12.5 144.5q0 66 -13.5 122.5t-42.5 104t-80.5 74.5t-121.5 27q-79 0 -144.5 -35t-109 -91t-73.5 -128t-43 -145t-13 -144zM489 1526q0 54 40.5 93.5t93.5 39.5q43 0 72.5 -28t29.5 -72q0 -53 -40.5 -93.5t-94.5 -40.5q-43 0 -72 29t-29 72zM893 1526q0 54 40 93.5 t93 39.5q43 0 72.5 -28t29.5 -72q0 -53 -40.5 -93.5t-94.5 -40.5q-43 0 -71.5 29t-28.5 72z" />
<glyph unicode="&#xd7;" horiz-adv-x="839" d="M53 430l246 213l-186 217l172 152l184 -217l244 213l137 -158l-246 -213l176 -203l-172 -151l-174 202l-246 -213z" />
<glyph unicode="&#xd8;" horiz-adv-x="1296" d="M96 504q0 116 30 228.5t89 210.5t139.5 172.5t188.5 117.5t229 43q83 0 162 -31l96 174h150l-123 -225q107 -70 158 -185.5t51 -254.5q0 -117 -29.5 -230t-88 -211t-138.5 -172t-188 -116.5t-230 -42.5q-83 0 -168 32l-86 -153h-148l113 205q-105 72 -156 186.5 t-51 251.5zM360 524q0 -139 60 -227l411 743q-40 21 -88 21q-78 0 -143 -34t-108.5 -89.5t-74 -126.5t-44 -143.5t-13.5 -143.5zM526 217q44 -24 95 -24q79 0 144.5 34t108 89t72 126.5t42.5 144t13 144.5q0 146 -61 232z" />
<glyph unicode="&#xd9;" horiz-adv-x="1191" d="M104 381q0 20 9 90l108 782h238l-111 -782q-4 -32 -4 -47q0 -94 55.5 -154.5t149.5 -60.5q107 0 182.5 76.5t89.5 185.5l111 782h235l-108 -782q-31 -218 -178 -354.5t-365 -136.5q-191 0 -301.5 105.5t-110.5 295.5zM551 1698h235l64 -258h-191z" />
<glyph unicode="&#xda;" horiz-adv-x="1191" d="M104 381q0 20 9 90l108 782h238l-111 -782q-4 -32 -4 -47q0 -94 55.5 -154.5t149.5 -60.5q107 0 182.5 76.5t89.5 185.5l111 782h235l-108 -782q-31 -218 -178 -354.5t-365 -136.5q-191 0 -301.5 105.5t-110.5 295.5zM575 1438l138 258h235l-182 -258h-191z" />
<glyph unicode="&#xdb;" horiz-adv-x="1191" d="M104 381q0 20 9 90l108 782h238l-111 -782q-4 -32 -4 -47q0 -94 55.5 -154.5t149.5 -60.5q107 0 182.5 76.5t89.5 185.5l111 782h235l-108 -782q-31 -218 -178 -354.5t-365 -136.5q-191 0 -301.5 105.5t-110.5 295.5zM489 1430l160 274h217l82 -274h-151l-58 153 l-96 -153h-154z" />
<glyph unicode="&#xdc;" horiz-adv-x="1191" d="M104 381q0 20 9 90l108 782h238l-111 -782q-4 -32 -4 -47q0 -94 55.5 -154.5t149.5 -60.5q107 0 182.5 76.5t89.5 185.5l111 782h235l-108 -782q-31 -218 -178 -354.5t-365 -136.5q-191 0 -301.5 105.5t-110.5 295.5zM414 1516q0 54 40 94.5t93 40.5q43 0 72.5 -29 t29.5 -72q0 -54 -40.5 -93.5t-94.5 -39.5q-43 0 -71.5 28t-28.5 71zM817 1516q0 54 40 94.5t93 40.5q43 -2 73 -30.5t30 -70.5q0 -54 -40.5 -94.5t-94.5 -40.5q-43 0 -72 29t-29 72z" />
<glyph unicode="&#xdd;" horiz-adv-x="1144" d="M117 1253h245l236 -483l371 483h243l-526 -700l-76 -553h-241l77 553zM596 1440l135 258h236l-181 -258h-190z" />
<glyph unicode="&#xde;" horiz-adv-x="1132" d="M86 0l190 1360h228l-37 -262h242q164 0 270 -88.5t106 -249.5q0 -126 -58.5 -232t-162 -169t-229.5 -68q-47 -2 -281 -2l-41 -289h-227zM387 518h156q38 0 64 1t61.5 5.5t59 12t49.5 22.5t41.5 36t25.5 53t10 73q0 22 -3.5 40.5t-13 32.5t-17.5 25t-24.5 18.5t-27 13 t-32.5 9t-32.5 5t-35.5 2.5t-33.5 1h-34.5h-164z" />
<glyph unicode="&#xdf;" horiz-adv-x="1118" d="M86 0l115 813q28 208 158.5 333.5t336.5 125.5q60 0 118.5 -12.5t114 -38.5t90 -75t34.5 -114q0 -48 -19 -94t-46.5 -81.5t-54.5 -68t-46 -65.5t-19 -61q0 -27 21.5 -54.5t52 -53.5t60.5 -56t51.5 -73t21.5 -93q0 -96 -62.5 -179t-155 -128t-187.5 -45q-57 0 -121.5 18 t-106.5 49l93 170q69 -43 133 -43q67 0 119.5 53t52.5 119q0 40 -24.5 73t-59 56t-69 46.5t-59 56.5t-24.5 73q0 35 15.5 66t39 52.5t51 45.5t51 45.5t39 52t15.5 64.5q0 55 -42.5 79.5t-102.5 24.5q-103 0 -165 -76t-77 -186l-115 -819h-227z" />
<glyph unicode="&#xe0;" horiz-adv-x="1234" d="M109 436q0 88 21.5 179.5t66 176.5t105 151.5t145.5 106.5t180 40q81 0 161 -35.5t111 -100.5l16 107h267l-76 -535q-21 -151 -21 -215q0 -34 3.5 -58t13.5 -48.5t33 -37t57 -11.5l-96 -176q-191 0 -269 163q-73 -83 -158 -123t-196 -40q-89 0 -160 40t-114.5 106 t-66.5 146t-23 164zM367 469q0 -112 55 -184t164 -72q63 0 141.5 40.5t89.5 96.5q21 108 51 361v8q0 64 -62.5 104.5t-129.5 40.5q-73 0 -133.5 -36.5t-97.5 -94.5t-57.5 -126.5t-20.5 -137.5zM610 1524h236l61 -258h-188z" />
<glyph unicode="&#xe1;" horiz-adv-x="1234" d="M109 436q0 88 21.5 179.5t66 176.5t105 151.5t145.5 106.5t180 40q81 0 161 -35.5t111 -100.5l16 107h267l-76 -535q-21 -151 -21 -215q0 -34 3.5 -58t13.5 -48.5t33 -37t57 -11.5l-96 -176q-191 0 -269 163q-73 -83 -158 -123t-196 -40q-89 0 -160 40t-114.5 106 t-66.5 146t-23 164zM367 469q0 -112 55 -184t164 -72q63 0 141.5 40.5t89.5 96.5q21 108 51 361v8q0 64 -62.5 104.5t-129.5 40.5q-73 0 -133.5 -36.5t-97.5 -94.5t-57.5 -126.5t-20.5 -137.5zM659 1253l136 258h235l-180 -258h-191z" />
<glyph unicode="&#xe2;" horiz-adv-x="1234" d="M109 436q0 88 21.5 179.5t66 176.5t105 151.5t145.5 106.5t180 40q81 0 161 -35.5t111 -100.5l16 107h267l-76 -535q-21 -151 -21 -215q0 -34 3.5 -58t13.5 -48.5t33 -37t57 -11.5l-96 -176q-191 0 -269 163q-73 -83 -158 -123t-196 -40q-89 0 -160 40t-114.5 106 t-66.5 146t-23 164zM367 469q0 -112 55 -184t164 -72q63 0 141.5 40.5t89.5 96.5q21 108 51 361v8q0 64 -62.5 104.5t-129.5 40.5q-73 0 -133.5 -36.5t-97.5 -94.5t-57.5 -126.5t-20.5 -137.5zM555 1253l160 275h217l82 -275h-152l-55 154l-98 -154h-154z" />
<glyph unicode="&#xe3;" horiz-adv-x="1280" d="M109 436q0 88 21.5 179.5t66 176.5t105 151.5t145.5 106.5t180 40q81 0 161 -35.5t111 -100.5l16 107h267l-76 -535q-21 -151 -21 -215q0 -34 3.5 -58t13.5 -48.5t33 -37t57 -11.5l-96 -176q-191 0 -269 163q-73 -83 -158 -123t-196 -40q-89 0 -160 40t-114.5 106 t-66.5 146t-23 164zM367 469q0 -112 55 -184t164 -72q63 0 141.5 40.5t89.5 96.5q21 108 51 361v8q0 64 -62.5 104.5t-129.5 40.5q-73 0 -133.5 -36.5t-97.5 -94.5t-57.5 -126.5t-20.5 -137.5zM451 1366q38 70 115 115t159 45q43 0 121 -29t121 -29q41 0 69 14t51 48 l148 -80q-36 -70 -97 -116t-132 -46q-57 0 -140.5 32t-126.5 32q-97 0 -153 -80z" />
<glyph unicode="&#xe4;" horiz-adv-x="1234" d="M109 436q0 88 21.5 179.5t66 176.5t105 151.5t145.5 106.5t180 40q81 0 161 -35.5t111 -100.5l16 107h267l-76 -535q-21 -151 -21 -215q0 -34 3.5 -58t13.5 -48.5t33 -37t57 -11.5l-96 -176q-191 0 -269 163q-73 -83 -158 -123t-196 -40q-89 0 -160 40t-114.5 106 t-66.5 146t-23 164zM367 469q0 -112 55 -184t164 -72q63 0 141.5 40.5t89.5 96.5q21 108 51 361v8q0 64 -62.5 104.5t-129.5 40.5q-73 0 -133.5 -36.5t-97.5 -94.5t-57.5 -126.5t-20.5 -137.5zM496 1370q0 54 39.5 93.5t93.5 39.5q43 0 71.5 -28t28.5 -72q0 -53 -40.5 -93 t-92.5 -40q-43 0 -71.5 28.5t-28.5 71.5zM899 1370q0 54 39.5 93.5t93.5 39.5q43 0 73 -28t30 -72q0 -53 -41 -93t-95 -40q-43 0 -71.5 28.5t-28.5 71.5z" />
<glyph unicode="&#xe5;" horiz-adv-x="1234" d="M109 436q0 88 21.5 179.5t66 176.5t105 151.5t145.5 106.5t180 40q81 0 161 -35.5t111 -100.5l16 107h267l-76 -535q-21 -151 -21 -215q0 -34 3.5 -58t13.5 -48.5t33 -37t57 -11.5l-96 -176q-191 0 -269 163q-73 -83 -158 -123t-196 -40q-89 0 -160 40t-114.5 106 t-66.5 146t-23 164zM367 469q0 -112 55 -184t164 -72q63 0 141.5 40.5t89.5 96.5q21 108 51 361v8q0 64 -62.5 104.5t-129.5 40.5q-73 0 -133.5 -36.5t-97.5 -94.5t-57.5 -126.5t-20.5 -137.5zM602 1348q0 83 61.5 142.5t145.5 59.5q65 0 109.5 -43t44.5 -108 q0 -82 -61.5 -143.5t-143.5 -61.5q-67 0 -111.5 43.5t-44.5 110.5zM698 1362q0 -30 21 -52t51 -22q37 0 67.5 29t30.5 67q0 30 -22 51t-53 21q-37 0 -66 -28.5t-29 -65.5z" />
<glyph unicode="&#xe6;" horiz-adv-x="1677" d="M109 274q0 170 123.5 294t293.5 124q57 0 129 -19.5t109 -49.5q4 28 4 45q0 104 -46.5 155t-148.5 51q-121 0 -272 -104l-53 164q77 68 181 107.5t206 39.5q212 0 297 -180q73 85 173 133.5t208 48.5q144 0 232.5 -84t88.5 -227q0 -81 -40 -145.5t-104 -102.5t-138.5 -58 t-149.5 -20q-125 0 -215 56v-64q0 -102 58 -178t157 -76q79 0 162.5 34t138.5 89l60 -172q-68 -72 -180 -113.5t-218 -41.5q-212 0 -327 147q-73 -68 -189.5 -110t-220.5 -42q-144 0 -231.5 78t-87.5 221zM336 309q0 -68 46.5 -106.5t115.5 -38.5q65 0 130 27t111 73 q-8 83 2 182q-32 36 -86 55t-108 19q-82 0 -146.5 -64.5t-64.5 -146.5zM1024 664q55 -39 166 -39q41 0 78.5 6.5t75 22.5t59.5 47t22 75q0 56 -42 86.5t-101 30.5q-175 0 -258 -229z" />
<glyph unicode="&#xe7;" horiz-adv-x="1083" d="M109 434q0 170 75.5 317.5t215 238.5t311.5 91q96 0 194.5 -39.5t147.5 -111.5l-107 -160q-33 46 -98.5 71t-128.5 25q-97 0 -183.5 -54.5t-137 -142.5t-50.5 -184q0 -120 72.5 -201t191.5 -81q69 0 144 27.5t125 72.5l61 -164q-117 -109 -336 -155l-121 -265l-215 19 l164 252q-155 36 -240 157.5t-85 286.5z" />
<glyph unicode="&#xe8;" d="M109 422q0 98 26 194t76.5 180.5t118.5 149t160 102t194 37.5q139 0 229.5 -84t90.5 -221q0 -82 -38 -148t-100 -105.5t-136 -60t-152 -20.5q-132 0 -222 56v-19q0 -59 10 -108.5t33 -95t67.5 -71.5t106.5 -26q77 0 160.5 35t138.5 90l60 -172q-68 -72 -180 -113.5 t-217 -41.5q-197 0 -311.5 122t-114.5 320zM393 664q27 -20 75 -29.5t91 -9.5q41 0 78.5 6.5t75 22.5t60 47t22.5 75q0 56 -42.5 86.5t-101.5 30.5q-174 0 -258 -229zM492 1524h235l64 -258h-191z" />
<glyph unicode="&#xe9;" d="M109 422q0 98 26 194t76.5 180.5t118.5 149t160 102t194 37.5q139 0 229.5 -84t90.5 -221q0 -82 -38 -148t-100 -105.5t-136 -60t-152 -20.5q-132 0 -222 56v-19q0 -59 10 -108.5t33 -95t67.5 -71.5t106.5 -26q77 0 160.5 35t138.5 90l60 -172q-68 -72 -180 -113.5 t-217 -41.5q-197 0 -311.5 122t-114.5 320zM393 664q27 -20 75 -29.5t91 -9.5q41 0 78.5 6.5t75 22.5t60 47t22.5 75q0 56 -42.5 86.5t-101.5 30.5q-174 0 -258 -229zM625 1262l129 258h241l-180 -258h-190z" />
<glyph unicode="&#xea;" d="M109 422q0 98 26 194t76.5 180.5t118.5 149t160 102t194 37.5q139 0 229.5 -84t90.5 -221q0 -82 -38 -148t-100 -105.5t-136 -60t-152 -20.5q-132 0 -222 56v-19q0 -59 10 -108.5t33 -95t67.5 -71.5t106.5 -26q77 0 160.5 35t138.5 90l60 -172q-68 -72 -180 -113.5 t-217 -41.5q-197 0 -311.5 122t-114.5 320zM393 664q27 -20 75 -29.5t91 -9.5q41 0 78.5 6.5t75 22.5t60 47t22.5 75q0 56 -42.5 86.5t-101.5 30.5q-174 0 -258 -229zM442 1253l160 275h217l82 -275h-151l-56 154l-98 -154h-154z" />
<glyph unicode="&#xeb;" horiz-adv-x="1071" d="M109 422q0 98 26 194t76.5 180.5t118.5 149t160 102t194 37.5q139 0 229.5 -84t90.5 -221q0 -82 -38 -148t-100 -105.5t-136 -60t-152 -20.5q-132 0 -222 56v-19q0 -59 10 -108.5t33 -95t67.5 -71.5t106.5 -26q77 0 160.5 35t138.5 90l60 -172q-68 -72 -180 -113.5 t-217 -41.5q-197 0 -311.5 122t-114.5 320zM352 1370q0 52 40 92.5t93 40.5q43 0 73 -29t30 -71q0 -54 -40.5 -93.5t-94.5 -39.5q-43 0 -72 28.5t-29 71.5zM393 664q27 -20 75 -29.5t91 -9.5q41 0 78.5 6.5t75 22.5t60 47t22.5 75q0 56 -42.5 86.5t-101.5 30.5 q-174 0 -258 -229zM756 1370q0 52 40 92.5t93 40.5q43 0 72.5 -28.5t29.5 -71.5q0 -54 -40.5 -93.5t-94.5 -39.5q-43 0 -71.5 28.5t-28.5 71.5z" />
<glyph unicode="&#xec;" horiz-adv-x="458" d="M82 0l149 1063h228l-150 -1063h-227zM172 1522h236l63 -258h-190z" />
<glyph unicode="&#xed;" horiz-adv-x="499" d="M82 0l149 1063h228l-150 -1063h-227zM287 1262l135 258h235l-180 -258h-190z" />
<glyph unicode="&#xee;" horiz-adv-x="503" d="M82 0l149 1063h228l-150 -1063h-227zM143 1253l160 275h215l82 -275h-137l-68 164l-114 -164h-138z" />
<glyph unicode="&#xef;" horiz-adv-x="530" d="M72 1370q0 52 40 92.5t93 40.5q43 0 72.5 -28.5t29.5 -71.5q0 -54 -40.5 -93.5t-94.5 -39.5q-43 0 -71.5 28.5t-28.5 71.5zM82 0l149 1063h228l-150 -1063h-227zM475 1370q0 53 40.5 93t94.5 40q43 0 72 -28.5t29 -71.5q0 -54 -40 -93.5t-93 -39.5q-43 0 -73 29t-30 71z " />
<glyph unicode="&#xf0;" horiz-adv-x="968" d="M109 348q0 96 29.5 186.5t83 163t137 116.5t182.5 44q36 0 63 -18l-96 211l-164 -101l-53 103l174 106l-111 260h242q11 -27 33.5 -75t29.5 -64l152 92l55 -100l-155 -96l32.5 -65t36 -73.5t32 -69t34.5 -78t28 -71.5t27.5 -79.5t18.5 -72.5t14.5 -79t3.5 -72 q0 -101 -35 -197.5t-96.5 -171.5t-152.5 -121t-195 -46q-156 0 -253 105t-97 263zM317 365q0 -86 41.5 -149.5t122.5 -63.5q60 0 108 32.5t75.5 83.5t42 107.5t14.5 111.5q0 90 -39 146.5t-125 56.5q-58 -1 -105.5 -32t-76 -79.5t-43.5 -104t-15 -109.5z" />
<glyph unicode="&#xf1;" horiz-adv-x="1087" d="M80 0l149 1063h228l-23 -162q38 77 124.5 130.5t172.5 53.5q146 0 217.5 -80t71.5 -227q0 -36 -8 -106l-94 -672h-228l80 557q6 43 6 84q0 180 -160 180q-100 0 -157.5 -77.5t-71.5 -186.5l-78 -557h-229zM305 1366q40 70 117.5 115t157.5 45q43 0 120.5 -29t120.5 -29 q42 0 70 14.5t51 47.5l148 -80q-36 -69 -97.5 -115.5t-132.5 -46.5q-57 0 -140 32t-126 32q-98 0 -154 -80z" />
<glyph unicode="&#xf2;" horiz-adv-x="1169" d="M109 422q0 123 43.5 241t119 209.5t186.5 147t238 55.5q193 0 311.5 -129t118.5 -323q0 -124 -43 -242t-117.5 -209.5t-186 -147t-238.5 -55.5q-194 0 -313 128t-119 325zM358 446q0 -71 19.5 -131t69 -102.5t122.5 -42.5q61 0 113 27.5t87 72.5t60 101.5t36.5 114.5 t11.5 112q0 53 -11 99.5t-34.5 86.5t-65.5 63t-98 23q-73 0 -134 -41.5t-98.5 -106t-57.5 -136.5t-20 -140zM557 1522h236l63 -258h-190z" />
<glyph unicode="&#xf3;" horiz-adv-x="1169" d="M109 422q0 123 43.5 241t119 209.5t186.5 147t238 55.5q193 0 311.5 -129t118.5 -323q0 -124 -43 -242t-117.5 -209.5t-186 -147t-238.5 -55.5q-194 0 -313 128t-119 325zM358 446q0 -71 19.5 -131t69 -102.5t122.5 -42.5q61 0 113 27.5t87 72.5t60 101.5t36.5 114.5 t11.5 112q0 53 -11 99.5t-34.5 86.5t-65.5 63t-98 23q-73 0 -134 -41.5t-98.5 -106t-57.5 -136.5t-20 -140zM618 1262l136 258h235l-180 -258h-191z" />
<glyph unicode="&#xf4;" horiz-adv-x="1169" d="M109 422q0 123 43.5 241t119 209.5t186.5 147t238 55.5q193 0 311.5 -129t118.5 -323q0 -124 -43 -242t-117.5 -209.5t-186 -147t-238.5 -55.5q-194 0 -313 128t-119 325zM358 446q0 -71 19.5 -131t69 -102.5t122.5 -42.5q61 0 113 27.5t87 72.5t60 101.5t36.5 114.5 t11.5 112q0 53 -11 99.5t-34.5 86.5t-65.5 63t-98 23q-73 0 -134 -41.5t-98.5 -106t-57.5 -136.5t-20 -140zM494 1253l159 275h215l84 -275h-151l-58 154l-96 -154h-153z" />
<glyph unicode="&#xf5;" horiz-adv-x="1216" d="M131 422q0 98 27.5 194t80 178.5t123 145.5t163 99t194.5 36q193 0 311.5 -129t118.5 -323q0 -124 -43 -242t-118 -209.5t-186.5 -147t-238.5 -55.5q-194 0 -313 128t-119 325zM379 446q0 -71 20 -131t70 -102.5t123 -42.5q75 0 136 41.5t97 107t55 138t19 141.5 q0 53 -11 99.5t-34.5 86.5t-65.5 63t-98 23q-73 0 -134.5 -41.5t-98.5 -106t-57.5 -136.5t-20.5 -140zM389 1346q38 70 115.5 115.5t157.5 45.5q44 0 121 -29.5t120 -29.5q82 0 121 61l150 -79q-37 -68 -99 -115t-133 -47q-57 0 -139 31.5t-125 31.5q-100 0 -156 -80z" />
<glyph unicode="&#xf6;" horiz-adv-x="1169" d="M109 422q0 123 43.5 241t119 209.5t186.5 147t238 55.5q193 0 311.5 -129t118.5 -323q0 -124 -43 -242t-117.5 -209.5t-186 -147t-238.5 -55.5q-194 0 -313 128t-119 325zM358 446q0 -71 19.5 -131t69 -102.5t122.5 -42.5q61 0 113 27.5t87 72.5t60 101.5t36.5 114.5 t11.5 112q0 53 -11 99.5t-34.5 86.5t-65.5 63t-98 23q-73 0 -134 -41.5t-98.5 -106t-57.5 -136.5t-20 -140zM420 1370q0 52 40 92.5t93 40.5q43 0 72.5 -28.5t29.5 -71.5q0 -54 -40.5 -93.5t-94.5 -39.5q-43 0 -71.5 28.5t-28.5 71.5zM823 1370q0 53 40.5 93t94.5 40 q43 0 72 -28.5t29 -71.5q0 -54 -40 -93.5t-93 -39.5q-43 0 -73 29t-30 71z" />
<glyph unicode="&#xf7;" horiz-adv-x="952" d="M72 506l30 215h867l-29 -215h-868zM322 154q0 63 47.5 110t109.5 47q51 0 86 -33.5t35 -84.5q0 -61 -48.5 -108.5t-111.5 -47.5q-51 0 -84.5 33t-33.5 84zM440 997q0 63 48 110.5t110 47.5q51 0 85 -34t34 -85q0 -63 -47.5 -110t-110.5 -47q-51 0 -85 33.5t-34 84.5z" />
<glyph unicode="&#xf8;" horiz-adv-x="1202" d="M127 430q0 98 27.5 193.5t80 177.5t123 145t163 99t194.5 36q55 0 129 -24l135 276h98l-153 -309q109 -60 164 -164.5t55 -234.5q0 -123 -43 -240t-118 -208t-185.5 -146.5t-237.5 -55.5q-71 0 -141 25l-121 -233h-98l137 268q-104 61 -156.5 164.5t-52.5 230.5zM375 455 q0 -125 59 -203l320 608q-28 17 -68 17q-72 0 -133.5 -41t-99 -105t-58 -136.5t-20.5 -139.5zM506 197q33 -21 82 -21q75 0 136 42t97 108t55 139t19 143q0 135 -64 209z" />
<glyph unicode="&#xf9;" horiz-adv-x="1048" d="M80 303q0 63 8 115l90 645h230l-82 -574q-7 -51 -7 -83q0 -181 158 -181q53 0 95.5 23t70 62t44.5 84t24 95l82 574h225l-150 -1063h-225l23 162q-38 -76 -126 -130.5t-173 -54.5q-148 0 -217.5 87.5t-69.5 238.5zM453 1522h235l64 -258h-191z" />
<glyph unicode="&#xfa;" horiz-adv-x="1048" d="M80 303q0 63 8 115l90 645h230l-82 -574q-7 -51 -7 -83q0 -181 158 -181q53 0 95.5 23t70 62t44.5 84t24 95l82 574h225l-150 -1063h-225l23 162q-38 -76 -126 -130.5t-173 -54.5q-148 0 -217.5 87.5t-69.5 238.5zM508 1262l135 258h236l-181 -258h-190z" />
<glyph unicode="&#xfb;" horiz-adv-x="1048" d="M80 303q0 63 8 115l90 645h230l-82 -574q-7 -51 -7 -83q0 -181 158 -181q53 0 95.5 23t70 62t44.5 84t24 95l82 574h225l-150 -1063h-225l23 162q-38 -76 -126 -130.5t-173 -54.5q-148 0 -217.5 87.5t-69.5 238.5zM403 1253l160 275h217l82 -275h-151l-56 154l-98 -154 h-154z" />
<glyph unicode="&#xfc;" horiz-adv-x="1048" d="M80 303q0 63 8 115l90 645h230l-82 -574q-7 -51 -7 -83q0 -181 158 -181q53 0 95.5 23t70 62t44.5 84t24 95l82 574h225l-150 -1063h-225l23 162q-38 -76 -126 -130.5t-173 -54.5q-148 0 -217.5 87.5t-69.5 238.5zM332 1370q0 52 40 92.5t93 40.5q43 0 72.5 -28.5 t29.5 -71.5q0 -54 -40.5 -93.5t-94.5 -39.5q-43 0 -71.5 28.5t-28.5 71.5zM735 1370q0 53 40.5 93t94.5 40q43 0 72 -28.5t29 -71.5q0 -54 -40 -93.5t-93 -39.5q-43 0 -73 29t-30 71z" />
<glyph unicode="&#xfd;" horiz-adv-x="1034" d="M-23 -322l109 181q51 -33 104 -33q9 0 29 12q96 54 150 221l-201 1004h244l116 -694l310 694h239q-67 -136 -140 -292t-160 -344.5t-136 -293.5q-47 -100 -80 -160q-31 -57 -52.5 -94.5t-61.5 -92t-77 -87.5t-88.5 -57.5t-105.5 -24.5q-42 0 -107 18t-92 43zM537 1262 l135 258h235l-180 -258h-190z" />
<glyph unicode="&#xfe;" horiz-adv-x="1161" d="M61 -291l242 1725h225l-63 -449q42 43 128.5 71.5t154.5 28.5q74 0 136.5 -23.5t107 -64.5t75.5 -96.5t46 -120t15 -135.5q0 -90 -24 -183.5t-71 -179.5t-111 -153.5t-151.5 -108t-184.5 -40.5q-83 0 -134 24.5t-114 87.5l-53 -383h-224zM369 305q27 -45 79 -73.5 t105 -28.5q100 0 178 60t117 150t39 189q0 114 -64.5 192t-175.5 78q-55 0 -118.5 -27.5t-94.5 -68.5z" />
<glyph unicode="&#xff;" horiz-adv-x="1034" d="M-23 -322l109 181q51 -33 104 -33q9 0 29 12q96 54 150 221l-201 1004h244l116 -694l310 694h239q-67 -136 -140 -292t-160 -344.5t-136 -293.5q-47 -100 -80 -160q-31 -57 -52.5 -94.5t-61.5 -92t-77 -87.5t-88.5 -57.5t-105.5 -24.5q-42 0 -107 18t-92 43zM340 1370 q0 52 40 92.5t93 40.5q43 0 72.5 -28.5t29.5 -71.5q0 -54 -40.5 -93.5t-94.5 -39.5q-43 0 -71.5 28.5t-28.5 71.5zM743 1370q0 52 40.5 92.5t93.5 40.5q43 0 72.5 -28.5t29.5 -71.5q0 -54 -40.5 -93.5t-94.5 -39.5q-43 0 -72 28.5t-29 71.5z" />
<glyph unicode="&#x152;" horiz-adv-x="1976" d="M96 508q0 116 30 229t89 211t139.5 173t188.5 118t229 43q185 0 305 -145l17 116h860l-33 -229h-618l-37 -270h491l-28 -205h-492l-45 -320h618l-32 -229h-860l18 131q-153 -143 -344 -143q-228 0 -362 145t-134 375zM358 524q0 -67 14.5 -123t44.5 -102.5t82 -73 t122 -26.5q79 0 144.5 34t108 89t72 126.5t42.5 144t13 144.5q0 53 -8 100t-27.5 89.5t-48.5 73.5t-73.5 49t-100.5 18q-78 0 -144 -35t-109.5 -91t-74 -128t-44 -145t-13.5 -144z" />
<glyph unicode="&#x153;" horiz-adv-x="1835" d="M109 422q0 123 43.5 241t119 209.5t186.5 147t238 55.5q116 0 208 -49t148 -136q164 185 398 185q141 0 235.5 -82.5t94.5 -222.5q0 -83 -39 -148.5t-103 -104.5t-139 -59t-153 -20q-137 0 -224 54v-19q0 -60 10.5 -110.5t35 -94.5t70.5 -69t110 -25q75 0 155.5 34.5 t134.5 90.5l60 -174q-68 -72 -180.5 -114t-217.5 -42q-119 0 -210 47t-145 133q-167 -180 -404 -180q-194 0 -313 128t-119 325zM358 446q0 -71 19.5 -131t69 -102.5t122.5 -42.5q61 0 113 27.5t87 72.5t60 101.5t36.5 114.5t11.5 112q0 53 -11 99.5t-34.5 86.5t-65.5 63 t-98 23q-73 0 -134 -41.5t-98.5 -106t-57.5 -136.5t-20 -140zM1159 653q27 -20 74.5 -29.5t89.5 -9.5q40 0 77.5 7t74 23t59 47.5t22.5 74.5q0 55 -42 87t-99 32q-175 0 -256 -232z" />
<glyph unicode="&#x178;" horiz-adv-x="1144" d="M117 1253h245l236 -483l371 483h243l-526 -700l-76 -553h-241l77 553zM385 1518q0 53 39.5 93t93.5 40q43 0 71.5 -29t28.5 -72q0 -54 -40 -93.5t-93 -39.5q-43 0 -71.5 29t-28.5 72zM788 1518q0 53 40 93t94 40q43 0 72.5 -29t29.5 -72q0 -54 -40.5 -93.5t-94.5 -39.5 q-43 0 -72 28.5t-29 72.5z" />
<glyph unicode="&#x2c6;" horiz-adv-x="1107" d="M504 1253l160 275h215l84 -275h-152l-57 154l-97 -154h-153z" />
<glyph unicode="&#x2dc;" horiz-adv-x="1003" d="M190 1389q39 70 117 114.5t158 44.5q43 0 121 -28.5t121 -28.5t70 13.5t50 47.5l148 -79q-36 -69 -97.5 -115.5t-132.5 -46.5q-57 0 -140 31.5t-126 31.5q-95 0 -153 -80z" />
<glyph unicode="&#x2000;" horiz-adv-x="854" />
<glyph unicode="&#x2001;" horiz-adv-x="1708" />
<glyph unicode="&#x2002;" horiz-adv-x="854" />
<glyph unicode="&#x2003;" horiz-adv-x="1708" />
<glyph unicode="&#x2004;" horiz-adv-x="569" />
<glyph unicode="&#x2005;" horiz-adv-x="427" />
<glyph unicode="&#x2006;" horiz-adv-x="284" />
<glyph unicode="&#x2007;" horiz-adv-x="284" />
<glyph unicode="&#x2008;" horiz-adv-x="213" />
<glyph unicode="&#x2009;" horiz-adv-x="341" />
<glyph unicode="&#x200a;" horiz-adv-x="94" />
<glyph unicode="&#x2010;" d="M104 475l31 215h817l-30 -215h-818z" />
<glyph unicode="&#x2011;" d="M104 475l31 215h817l-30 -215h-818z" />
<glyph unicode="&#x2012;" d="M104 475l31 215h817l-30 -215h-818z" />
<glyph unicode="&#x2013;" horiz-adv-x="1130" d="M80 485l31 215h1001l-29 -215h-1003z" />
<glyph unicode="&#x2014;" horiz-adv-x="1570" d="M80 485l31 215h1437l-30 -215h-1438z" />
<glyph unicode="&#x2018;" horiz-adv-x="425" d="M104 1042q0 90 68.5 192.5t153.5 129.5l45 -98q-35 -12 -64.5 -41.5t-38.5 -63.5q56 5 91.5 -24t35.5 -84q0 -64 -51 -112t-115 -48q-61 0 -93 43t-32 106z" />
<glyph unicode="&#x2019;" horiz-adv-x="425" d="M115 1161q0 57 45 106.5t102 49.5q20 0 37 -10q51 -7 77.5 -47.5t26.5 -94.5q0 -88 -68 -188.5t-151 -126.5l-45 96q34 12 62.5 41t38.5 64q-56 -3 -90.5 26t-34.5 84z" />
<glyph unicode="&#x201a;" horiz-adv-x="505" d="M115 170q0 70 55 129t125 59q23 0 39 -8q64 -7 97.5 -55.5t33.5 -116.5q0 -104 -81.5 -224.5t-178.5 -150.5l-58 115q38 16 71.5 49.5t43.5 71.5q-66 -5 -106.5 30.5t-40.5 100.5z" />
<glyph unicode="&#x201c;" horiz-adv-x="983" d="M104 1094q0 62 23.5 122.5t73 104t114.5 43.5q64 0 110 -39t46 -100q0 -76 -52 -130.5t-126 -54.5h-14q0 -36 24 -69t57 -49l-88 -117q-70 25 -119 117t-49 172zM571 1094q0 62 23.5 122.5t73 104t114.5 43.5q64 0 110 -39t46 -100q0 -76 -52 -130.5t-126 -54.5h-15 q0 -36 24 -69t58 -49l-90 -117q-69 25 -117.5 117t-48.5 172z" />
<glyph unicode="&#x201d;" horiz-adv-x="907" d="M119 1176q0 77 62.5 130.5t140.5 53.5q70 0 106.5 -51.5t36.5 -124.5q0 -68 -36.5 -149t-97.5 -146t-126 -86l-58 117q39 16 72 48.5t43 69.5q-65 -4 -104 33.5t-39 104.5zM575 1176q0 77 63 130.5t142 53.5q70 0 106 -51.5t36 -124.5q0 -68 -36.5 -149t-97.5 -146 t-126 -86l-58 117q38 16 71.5 48.5t45.5 69.5q-66 -4 -106 34t-40 104z" />
<glyph unicode="&#x201e;" horiz-adv-x="944" d="M90 170q0 70 54.5 129t125.5 59q23 0 39 -8q64 -7 96.5 -55.5t32.5 -116.5q0 -104 -81 -224.5t-177 -150.5l-59 115q39 16 73 49.5t44 71.5q-66 -5 -107 30.5t-41 100.5zM547 170q0 70 55 129t125 59q23 0 39 -8q64 -7 97.5 -55.5t33.5 -116.5q0 -104 -81.5 -224.5 t-178.5 -150.5l-57 115q38 16 71 49.5t43 71.5q-66 -5 -106.5 30.5t-40.5 100.5z" />
<glyph unicode="&#x2022;" horiz-adv-x="507" d="M131 621q0 79 61.5 140.5t141.5 61.5q66 0 109.5 -42.5t43.5 -108.5q0 -81 -61 -142t-141 -61q-66 0 -110 43t-44 109z" />
<glyph unicode="&#x2026;" horiz-adv-x="1785" d="M98 121q0 75 58 131.5t133 56.5q60 0 100.5 -40t40.5 -101q0 -75 -56.5 -131.5t-131.5 -56.5q-62 0 -103 40t-41 101zM750 121q0 75 56.5 131.5t131.5 56.5q62 0 102.5 -40t40.5 -101q0 -75 -57.5 -131.5t-132.5 -56.5q-60 0 -100.5 40t-40.5 101zM1399 121 q0 75 57 131.5t131 56.5q62 0 103 -40t41 -101q0 -75 -57.5 -131.5t-131.5 -56.5q-62 0 -102.5 40t-40.5 101z" />
<glyph unicode="&#x202f;" horiz-adv-x="341" />
<glyph unicode="&#x2039;" horiz-adv-x="636" d="M80 518l289 428h241l-282 -428l161 -428h-241z" />
<glyph unicode="&#x203a;" horiz-adv-x="636" d="M80 90l282 428l-163 428h243l168 -428l-288 -428h-242z" />
<glyph unicode="&#x2044;" horiz-adv-x="903" d="M29 -84l706 1450h207l-706 -1450h-207z" />
<glyph unicode="&#x205f;" horiz-adv-x="427" />
<glyph unicode="&#x2070;" horiz-adv-x="606" d="M35 870q0 70 23 140.5t63.5 128.5t103.5 94.5t137 36.5q115 0 171.5 -79.5t56.5 -199.5q0 -70 -22 -140t-62 -127.5t-102.5 -93.5t-137.5 -36q-116 0 -173.5 78t-57.5 198zM186 879q0 -61 22.5 -105.5t76.5 -44.5q41 0 73 27.5t49 69.5t25 84t8 79q0 146 -98 146 q-40 0 -71.5 -27t-49 -68.5t-26.5 -83t-9 -77.5z" />
<glyph unicode="&#x2074;" horiz-adv-x="587" d="M31 750l14 106l313 397h174l-51 -370h97l-19 -133h-98l-21 -152h-153l20 152h-276zM203 883h123l26 188z" />
<glyph unicode="&#x2075;" horiz-adv-x="540" d="M31 655l75 129q78 -55 144 -55q35 0 65 20.5t39 53.5q8 8 8 31q0 19 -10 33.5t-29 22t-39 12.5t-47 6t-46.5 1t-44.5 -1t-33 -1l59 346h360l-20 -133h-229l-17 -80q256 0 256 -180q0 -116 -83.5 -195t-198.5 -79q-52 0 -113 19t-96 50z" />
<glyph unicode="&#x2076;" horiz-adv-x="512" d="M31 770q0 41 19.5 92t57.5 111t67 101.5t76.5 103t57.5 75.5h162l-160 -235q16 4 25 4q75 0 121.5 -52.5t46.5 -129.5q0 -111 -78.5 -183.5t-189.5 -72.5q-91 0 -148 49t-57 137zM176 791q0 -34 21.5 -57t56.5 -23q43 0 72.5 34t29.5 78q0 35 -20.5 57.5t-54.5 22.5 q-43 0 -74 -34t-31 -78z" />
<glyph unicode="&#x2077;" horiz-adv-x="532" d="M31 598l307 520h-238l19 135h416l-15 -108q-45 -81 -98 -173.5t-116 -201.5t-99 -172h-176z" />
<glyph unicode="&#x2078;" horiz-adv-x="520" d="M39 768q0 61 31.5 115.5t83.5 87.5q-35 38 -35 96q0 88 65 146.5t154 58.5q71 0 121.5 -41.5t50.5 -110.5q0 -90 -74 -151q68 -47 68 -138q0 -104 -78 -172.5t-184 -68.5q-86 0 -144.5 47.5t-58.5 130.5zM182 793q0 -35 23 -56.5t57 -21.5q40 0 71.5 30.5t31.5 71.5 q0 32 -23 56t-55 24q-39 0 -72 -32.5t-33 -71.5zM250 1079q0 -23 15 -39t38 -16q29 0 51.5 22.5t22.5 51.5q0 24 -15.5 39.5t-39.5 15.5q-29 0 -50.5 -22.5t-21.5 -51.5z" />
<glyph unicode="&#x2079;" horiz-adv-x="522" d="M39 1012q0 112 78.5 185t189.5 73q90 0 147.5 -50.5t57.5 -138.5q0 -39 -19.5 -90t-58 -111.5t-67 -101.5t-77 -104.5t-57.5 -75.5h-161l159 236q-15 -5 -22 -5q-76 0 -123 53.5t-47 129.5zM186 1028q0 -34 21.5 -57t54.5 -23q44 0 74.5 35.5t30.5 79.5q0 33 -21.5 56.5 t-54.5 23.5q-45 0 -75 -34.5t-30 -80.5z" />
<glyph unicode="&#x207d;" horiz-adv-x="270" d="M45 881q0 127 72.5 240t187.5 192l55 -94q-81 -42 -134.5 -139t-53.5 -191q0 -141 109 -230q-18 -28 -82 -96q-72 60 -113 143t-41 175z" />
<glyph unicode="&#x207e;" horiz-adv-x="286" d="M-2 659q84 56 135 142.5t51 183.5q0 63 -29.5 133t-78.5 99l80 94q73 -59 114 -143t41 -177q0 -127 -72.5 -239t-187.5 -189q-45 72 -53 96z" />
<glyph unicode="&#x2080;" horiz-adv-x="626" d="M57 256q0 71 22.5 142t62.5 130.5t103.5 96.5t137.5 37q114 0 171.5 -79t57.5 -196q0 -97 -36 -187.5t-112 -154t-175 -63.5q-115 0 -173.5 77.5t-58.5 196.5zM207 268q0 -60 23 -103.5t77 -43.5q41 0 72.5 26.5t48 67t25 81.5t8.5 77t-7 66.5t-30 55.5t-59 25 q-41 0 -73 -26t-49.5 -66t-26.5 -81.5t-9 -78.5z" />
<glyph unicode="&#x2081;" horiz-adv-x="335" d="M43 588l168 69h129l-92 -657h-156l70 498l-107 -41z" />
<glyph unicode="&#x2082;" horiz-adv-x="552" d="M31 0q10 74 14 90q12 49 52 94.5t87.5 79t93.5 65t76.5 65.5t30.5 67q0 36 -27 52.5t-65 16.5q-69 0 -143 -55l-37 107q44 40 108 64t123 24q86 0 142.5 -42.5t56.5 -125.5q0 -52 -34 -105t-77 -90t-98 -85t-80 -79h260l-20 -143h-463z" />
<glyph unicode="&#x2083;" horiz-adv-x="552" d="M31 59l67 113q67 -49 138 -49q46 0 86 24.5t40 67.5q0 15 -7.5 26t-23.5 17.5t-30 10.5t-38 5.5t-36.5 2t-35 0t-25.5 -0.5l16 113l142 127h-197l18 135h398l-17 -125l-131 -125q58 -15 92.5 -60.5t34.5 -107.5q0 -111 -86.5 -181t-199.5 -70q-51 0 -112 21t-93 56z" />
<glyph unicode="&#x2084;" horiz-adv-x="587" d="M31 158l14 106l313 393h174l-51 -366h97l-19 -133h-96l-23 -158h-155l22 158h-276zM205 291h121l26 186z" />
<glyph unicode="&#x2085;" horiz-adv-x="540" d="M31 53l75 129q72 -57 144 -57q34 0 64.5 21t39.5 53q8 8 8 30q0 19 -10 33.5t-29 22.5t-39 12.5t-47 6t-46.5 1.5t-44.5 -1t-33 -1l59 348h360l-20 -135h-229l-17 -80q52 0 93.5 -7t80.5 -25.5t60.5 -56t21.5 -91.5q0 -116 -82.5 -195t-199.5 -79q-52 0 -112.5 20 t-96.5 51z" />
<glyph unicode="&#x2086;" horiz-adv-x="520" d="M31 168q0 41 19 92.5t57 112.5t66 102t76.5 105t57.5 77h164l-158 -237q16 4 27 4q77 0 123.5 -49t46.5 -127q0 -114 -77 -190t-191 -76q-92 0 -151.5 48t-59.5 138zM182 193q0 -35 21.5 -58.5t56.5 -23.5q44 0 74.5 34t30.5 78q0 36 -21 60t-57 24q-43 0 -74 -35 t-31 -79z" />
<glyph unicode="&#x2087;" horiz-adv-x="528" d="M31 0l307 518h-242l19 139h415l-16 -114l-293 -506q-17 -29 -20 -37h-170z" />
<glyph unicode="&#x2088;" horiz-adv-x="520" d="M39 166q0 61 32 115.5t85 85.5q-37 40 -37 98q0 88 65 145.5t154 57.5q71 0 121.5 -40.5t50.5 -109.5q0 -90 -74 -151q68 -47 68 -140q0 -103 -78 -172t-184 -69q-86 0 -144.5 48t-58.5 132zM182 188q0 -33 23 -54t57 -21q40 0 71.5 30.5t31.5 69.5q0 32 -23 56t-55 24 q-40 0 -72.5 -32.5t-32.5 -72.5zM252 473q0 -23 15 -37t38 -14q28 0 49 21t21 49q0 23 -15 38t-38 15q-28 0 -49 -22t-21 -50z" />
<glyph unicode="&#x2089;" horiz-adv-x="528" d="M39 412q0 112 79 185t191 73q89 0 146 -50.5t57 -138.5q0 -41 -18.5 -91t-58.5 -112t-66 -99t-78 -104t-58 -75h-161l159 233q-12 -4 -22 -4q-76 0 -123 53.5t-47 129.5zM186 428q0 -34 21.5 -57t54.5 -23q44 0 73.5 35t29.5 80q0 34 -20.5 56t-53.5 22 q-44 0 -74.5 -34.5t-30.5 -78.5z" />
<glyph unicode="&#x208d;" horiz-adv-x="301" d="M45 262q0 129 72 242.5t186 191.5l55 -94q-80 -43 -134 -140t-54 -190q0 -140 109 -229q-23 -34 -80 -96q-73 59 -113.5 141.5t-40.5 173.5z" />
<glyph unicode="&#x208e;" horiz-adv-x="301" d="M-20 35q85 57 135.5 142.5t50.5 182.5q0 63 -30.5 133t-78.5 101l80 92q72 -57 113 -141t41 -176q0 -128 -71.5 -240.5t-186.5 -189.5q-44 70 -53 96z" />
<glyph unicode="&#x20ac;" horiz-adv-x="1368" d="M90 446l16 119h156q0 53 12 103h-153l16 118h168q78 214 262 349t408 135q92 0 201.5 -37t166.5 -98l-129 -203q-42 44 -116.5 74t-136.5 30q-126 0 -231 -68t-163 -182h336l-16 -118h-365q-12 -66 -12 -103h362l-16 -119h-330q26 -112 111 -174.5t201 -62.5 q69 0 151.5 28.5t134.5 71.5l68 -205q-73 -59 -189 -93t-219 -34q-212 0 -358 129t-166 340h-170z" />
<glyph unicode="&#x25fc;" horiz-adv-x="1064" d="M0 0v1065h1065v-1065h-1065z" />
<glyph unicode="&#xfb03;" horiz-adv-x="1746" d="M104 -369l175 1233h-156l29 199h155q15 106 70 197t146 148.5t198 57.5q60 -2 123 -18.5t98 -48.5l-92 -152q-52 25 -107 25q-88 0 -143 -59t-68 -150h306h2h151q24 164 139.5 283.5t274.5 119.5q60 -2 123 -18.5t98 -48.5l-92 -152q-52 25 -107 25q-88 0 -142.5 -59 t-67.5 -150h303h4h223l-150 -1063h-227l122 864h-306l-172 -1233h-223l174 1233h-154h-2h-307l-174 -1233h-224z" />
<glyph horiz-adv-x="1034" d="M14 0l500 1065h258l203 -1065h-225l-50 252h-342l-118 -252h-226zM438 449h238l-66 387z" />
<glyph horiz-adv-x="1032" d="M14 0l500 1065h256l203 -1065h-223l-52 254h-340l-120 -254h-224zM438 449h238l-66 382zM596 1262l127 245h231l-170 -245h-188z" />
<glyph horiz-adv-x="1030" d="M14 0l500 1063h254l201 -1063h-221l-48 254h-346l-118 -254h-222zM434 446h242l-68 390zM444 1225l152 258h213l78 -258h-152l-51 137l-88 -137h-152z" />
<glyph horiz-adv-x="1026" d="M14 0l500 1063h254l201 -1063h-221l-48 254h-346l-118 -254h-222zM379 1321q0 51 39 90t90 39q42 0 71 -27.5t29 -68.5q0 -52 -39.5 -90.5t-91.5 -38.5q-43 0 -70.5 27.5t-27.5 68.5zM434 446h242l-68 390zM756 1321q0 52 39 90.5t90 38.5q42 0 71 -27.5t29 -68.5 q0 -52 -39.5 -90.5t-91.5 -38.5q-43 0 -70.5 26.5t-27.5 69.5z" />
<glyph horiz-adv-x="1030" d="M14 0l500 1063h254l201 -1063h-221l-48 254h-346l-118 -254h-222zM434 446h242l-68 390zM463 1468h233l58 -241h-189z" />
<glyph horiz-adv-x="1024" d="M14 0l500 1063h254l201 -1063h-221l-48 254h-346l-118 -254h-222zM434 446h242l-68 390zM510 1307q0 76 59 133t136 57q62 0 104.5 -40.5t42.5 -102.5q0 -76 -59 -134.5t-136 -58.5q-63 0 -105 41t-42 105zM604 1319q0 -28 18.5 -47t47.5 -19q34 0 62 26.5t28 61.5 q0 27 -21 46.5t-49 19.5q-34 0 -60 -26.5t-26 -61.5z" />
<glyph horiz-adv-x="1085" d="M14 0l500 1063h254l201 -1063h-221l-48 254h-346l-118 -254h-222zM313 1331q54 75 115 114.5t145 39.5q40 0 113 -26.5t113 -26.5q72 0 112 59l146 -80q-4 -6 -24 -32.5t-26 -34t-24 -27.5t-30 -27t-31 -18.5t-39.5 -15t-44.5 -3.5q-47 0 -127 30t-121 30 q-47 0 -79 -17.5t-65 -56.5zM434 446h242l-68 390z" />
<glyph horiz-adv-x="983" d="M86 0l150 1065h395q117 0 195.5 -62.5t78.5 -175.5q0 -141 -110 -245q66 -26 101.5 -82t35.5 -129q0 -157 -108 -264t-265 -107h-473zM319 168h230q66 0 116 56t50 122q0 53 -35.5 91t-87.5 38h-230zM387 649h176q65 0 109.5 41.5t44.5 106.5q0 49 -33.5 76.5t-83.5 27.5 h-178z" />
<glyph horiz-adv-x="1042" d="M96 436q0 170 77 317.5t217.5 237.5t311.5 90q75 0 179 -31t137 -81l-111 -176q-41 42 -98.5 65t-118.5 23q-161 0 -268 -122.5t-107 -285.5q0 -129 75.5 -207t203.5 -78q57 0 130.5 24.5t111.5 61.5l61 -178q-156 -112 -348 -112q-200 0 -326.5 126.5t-126.5 325.5z" />
<glyph horiz-adv-x="1040" d="M96 438q0 169 77 316t217.5 237t311.5 90q75 0 179 -31t137 -81l-111 -176q-39 41 -98.5 64.5t-118.5 23.5q-107 0 -194.5 -57.5t-135 -150.5t-47.5 -200q0 -128 76.5 -206.5t204.5 -78.5q54 0 129.5 25.5t110.5 60.5l61 -178q-65 -50 -152.5 -78.5t-174.5 -31.5 l-113 -238l-205 14l153 244q-141 42 -224 157.5t-83 274.5z" />
<glyph d="M86 0l150 1065h344q204 0 321 -113.5t117 -316.5q0 -125 -43.5 -240t-119.5 -202.5t-187 -140t-238 -52.5h-344zM324 201h106q44 0 64 2q89 10 158.5 74.5t102.5 151t33 175.5q0 117 -60.5 188.5t-176.5 71.5h-133z" />
<glyph horiz-adv-x="991" d="M86 0l150 1065h733l-29 -201h-522l-31 -221h416l-27 -180h-416l-36 -262h524l-29 -201h-733z" />
<glyph horiz-adv-x="991" d="M86 0l150 1065h733l-29 -201h-522l-33 -221h416l-25 -180h-416l-36 -262h522l-27 -201h-733zM494 1239l127 246h233l-172 -246h-188z" />
<glyph horiz-adv-x="991" d="M86 0l150 1065h733l-29 -201h-522l-33 -221h416l-25 -180h-416l-36 -262h522l-29 -201h-731zM424 1225l151 258h211l78 -258h-149l-51 137l-89 -137h-151z" />
<glyph horiz-adv-x="991" d="M86 0l150 1065h733l-29 -201h-522l-33 -221h416l-25 -180h-416l-36 -262h522l-29 -201h-731zM352 1319q0 51 39.5 90t91.5 39q42 0 70.5 -28t28.5 -70q0 -51 -39.5 -90t-91.5 -39q-41 0 -70 28.5t-29 69.5zM727 1319q0 51 39.5 90t91.5 39q42 0 71 -28t29 -70 q0 -51 -40 -90t-91 -39q-43 0 -71.5 27.5t-28.5 70.5z" />
<glyph horiz-adv-x="991" d="M86 0l150 1065h733l-29 -201h-522l-33 -221h416l-25 -180h-416l-36 -262h522l-27 -201h-733zM444 1485h232l59 -244h-188z" />
<glyph horiz-adv-x="811" d="M90 817l12 84h91l6 49h-90l12 84h102q43 111 142 180.5t217 69.5q54 0 115.5 -20.5t88.5 -55.5q-49 -80 -75 -116q-55 55 -138 55q-60 0 -111.5 -30t-82.5 -83h203l-13 -84h-227l-6 -49h227l-12 -84h-199q20 -51 62 -77.5t98 -26.5q19 0 35 2.5t34.5 10t26.5 11.5t31 17 t29 16l41 -119q-34 -33 -102 -53t-124 -20q-112 0 -191.5 64t-96.5 175h-105z" />
<glyph horiz-adv-x="956" d="M86 0l150 1065h737l-29 -201h-526l-31 -213h389l-28 -200h-388l-63 -451h-211z" />
<glyph horiz-adv-x="1091" d="M96 438q0 171 82.5 318.5t227 235t315.5 87.5q95 0 195 -28.5t151 -87.5l-111 -179q-43 43 -103 68t-120 25q-167 0 -287 -120.5t-120 -287.5q0 -140 88 -213.5t231 -73.5q71 0 109 41l45 326h209l-58 -412q-4 -22 -8 -35q-79 -58 -177.5 -90t-197.5 -32 q-208 0 -339.5 125.5t-131.5 332.5z" />
<glyph horiz-adv-x="1085" d="M86 0l150 1065h210l-57 -397h406l57 397h211l-150 -1065h-211l66 467h-406l-65 -467h-211z" />
<glyph horiz-adv-x="468" d="M86 0l150 1065h210l-149 -1065h-211z" />
<glyph horiz-adv-x="495" d="M86 0l150 1065h208l-149 -1065h-209zM279 1235l127 244h231l-170 -244h-188z" />
<glyph horiz-adv-x="491" d="M86 0l150 1065h208l-149 -1065h-209zM143 1225l150 258h213l78 -258h-150l-51 137l-88 -137h-152z" />
<glyph horiz-adv-x="550" d="M88 1319q0 51 39.5 90t91.5 39q42 0 70 -28t28 -70q0 -51 -39.5 -90t-91.5 -39q-41 0 -69.5 28.5t-28.5 69.5zM98 0l150 1065h211l-150 -1065h-211zM463 1319q0 51 39.5 90t91.5 39q42 0 70 -28t28 -70q0 -51 -39.5 -90t-91.5 -39q-42 0 -70 28t-28 70z" />
<glyph horiz-adv-x="489" d="M86 0l150 1065h208l-149 -1065h-209zM174 1479h234l59 -244h-188z" />
<glyph horiz-adv-x="825" d="M51 86l113 178q79 -69 162 -69q143 0 172 204l94 664h209l-74 -522q-7 -50 -12 -84t-15.5 -84.5t-21.5 -86t-28.5 -79.5t-37.5 -74t-49 -61t-63 -49.5t-78.5 -30.5t-95.5 -12q-71 0 -154.5 28t-120.5 78z" />
<glyph horiz-adv-x="985" d="M86 0l150 1065h210l-53 -381l387 381h246l-455 -459l353 -606h-252l-305 502l-70 -502h-211z" />
<glyph horiz-adv-x="675" d="M86 0l150 1065h210l-122 -864h327l-28 -201h-537z" />
<glyph horiz-adv-x="1304" d="M86 0l150 1065h194l272 -401l388 401h192l-149 -1065h-207l108 762l-372 -393l-263 389l-106 -758h-207z" />
<glyph horiz-adv-x="1085" d="M86 0l150 1065h210l310 -680l96 680h211l-150 -1065h-213l-309 670l-94 -670h-211z" />
<glyph horiz-adv-x="1114" d="M86 0l150 1065h210l312 -678l94 678h211l-150 -1065h-213l-309 668l-94 -668h-211zM342 1329q36 68 109.5 111t150.5 43q40 0 113 -26.5t112 -26.5q75 0 113 57l145 -80q-33 -65 -92.5 -110.5t-126.5 -45.5q-47 0 -127 30t-121 30q-48 0 -79 -17t-64 -57z" />
<glyph horiz-adv-x="1122" d="M96 426q0 123 42 240.5t115.5 210t183.5 148.5t237 56q191 0 305.5 -126.5t114.5 -319.5q0 -125 -41 -242t-113.5 -208.5t-182 -147t-237.5 -55.5q-195 0 -309.5 123.5t-114.5 320.5zM328 438q0 -118 52 -195t165 -77q82 0 146 43t99.5 112.5t53.5 145t18 151.5 t-19 135.5t-69 100.5t-127 41q-66 0 -121 -29t-90.5 -76t-60.5 -108t-36 -122.5t-11 -121.5z" />
<glyph horiz-adv-x="1703" d="M96 434q0 124 41 242t113.5 210.5t183 149t238.5 56.5q159 0 262 -119l12 92h733l-26 -201h-525l-30 -221h415l-24 -180h-418l-37 -262h525l-29 -201h-733l16 106q-136 -114 -303 -114q-193 0 -303.5 123t-110.5 319zM326 449q0 -76 19.5 -135t70 -99.5t127.5 -40.5 q67 0 122 29t90.5 75.5t60.5 107t35.5 122t10.5 121.5q0 56 -11 103t-35.5 86.5t-68 62t-102.5 22.5q-65 0 -120 -29t-91 -76t-61 -107.5t-36 -121.5t-11 -120z" />
<glyph horiz-adv-x="1122" d="M96 426q0 123 42 240.5t115.5 210t183.5 148.5t237 56q191 0 304.5 -127t113.5 -321q0 -124 -41 -241t-113.5 -208t-182 -146.5t-237.5 -55.5q-193 0 -307.5 124t-114.5 320zM326 440q0 -56 11.5 -103.5t36 -86.5t68.5 -61.5t103 -22.5q67 0 121.5 28.5t90 74.5t60 106.5 t35 121t10.5 121.5q0 56 -11 103t-35 87t-67.5 63t-101.5 24q-82 0 -146 -43.5t-101 -113.5t-55.5 -146.5t-18.5 -151.5zM580 1235l129 244h231l-172 -244h-188z" />
<glyph horiz-adv-x="1122" d="M96 426q0 123 42 240.5t115.5 210t183.5 148.5t237 56q191 0 305.5 -126.5t114.5 -319.5q0 -125 -41 -242t-113.5 -208.5t-182 -147t-237.5 -55.5q-195 0 -309.5 123.5t-114.5 320.5zM328 438q0 -118 52 -195t165 -77q82 0 146 43t99.5 112.5t53.5 145t18 151.5 t-19 135.5t-69 100.5t-127 41q-66 0 -121 -29t-90.5 -76t-60.5 -108t-36 -122.5t-11 -121.5zM473 1196l152 258h211l77 -258h-147l-53 137l-88 -137h-152z" />
<glyph horiz-adv-x="1122" d="M96 426q0 123 42 240.5t115.5 210t183.5 148.5t237 56q191 0 305.5 -126.5t114.5 -319.5q0 -125 -41 -242t-113.5 -208.5t-182 -147t-237.5 -55.5q-195 0 -309.5 123.5t-114.5 320.5zM328 438q0 -118 52 -195t165 -77q82 0 146 43t99.5 112.5t53.5 145t18 151.5 t-19 135.5t-69 100.5t-127 41q-66 0 -121 -29t-90.5 -76t-60.5 -108t-36 -122.5t-11 -121.5zM410 1325q0 53 39 92t92 39q42 0 70 -28t28 -70q0 -52 -39 -90.5t-92 -38.5q-41 0 -69.5 27.5t-28.5 68.5zM784 1325q0 53 39 92t92 39q42 0 70.5 -28t28.5 -70q0 -52 -39 -90.5 t-92 -38.5q-42 0 -70.5 27.5t-28.5 68.5z" />
<glyph horiz-adv-x="1122" d="M96 426q0 123 42 240.5t115.5 210t183.5 148.5t237 56q191 0 305.5 -126.5t114.5 -319.5q0 -125 -41 -242t-113.5 -208.5t-182 -147t-237.5 -55.5q-195 0 -309.5 123.5t-114.5 320.5zM328 438q0 -118 52 -195t165 -77q82 0 146 43t99.5 112.5t53.5 145t18 151.5 t-19 135.5t-69 100.5t-127 41q-66 0 -121 -29t-90.5 -76t-60.5 -108t-36 -122.5t-11 -121.5zM516 1479h234l59 -244h-188z" />
<glyph horiz-adv-x="1132" d="M96 422q0 98 26 194t77 179t120 147t161 100.5t194 36.5q191 0 305.5 -127t114.5 -321q0 -125 -41 -242.5t-113.5 -209t-182 -147t-237.5 -55.5q-195 0 -309.5 124t-114.5 321zM328 436q0 -56 11.5 -103.5t36 -86.5t67.5 -61.5t102 -22.5q82 0 146 43t99.5 112.5 t53.5 145.5t18 153q0 55 -11 102t-35 87t-67.5 63t-101.5 23q-66 0 -121 -29t-90.5 -76t-60.5 -108t-36 -122t-11 -120zM342 1325q57 76 116.5 115t143.5 39q39 0 112 -27t111 -27q40 0 66 13.5t47 46.5l147 -80q-4 -6 -24 -32.5t-26 -34t-24 -27.5t-30 -27t-31 -18.5 t-39.5 -15t-44.5 -3.5q-49 0 -129.5 30t-118.5 30q-90 0 -143 -74q-51 33 -133 92z" />
<glyph horiz-adv-x="1001" d="M86 0l150 1065h460q118 0 195.5 -86.5t77.5 -206.5q0 -140 -89.5 -261.5t-224.5 -148.5q-45 -9 -94.5 -11t-121.5 0.5t-95 2.5l-49 -354h-209zM373 555h229q66 0 116 53.5t50 120.5q0 55 -34.5 95t-88.5 40h-229z" />
<glyph horiz-adv-x="1122" d="M96 428q0 123 41.5 241t115 210.5t183.5 149t238 56.5q190 0 304 -124.5t114 -317.5q0 -124 -35.5 -240t-113.5 -214.5t-187 -151.5l198 -266h-282l-158 215l-27 -2q-93 0 -168 36t-123 97t-74 141t-26 170zM336 446q0 -115 50.5 -189.5t160.5 -74.5q64 0 116.5 28 t86.5 72.5t58 102.5t34 116.5t10 116.5q0 54 -11 100t-34 84.5t-64.5 60.5t-97.5 22q-63 0 -116 -28t-88 -73.5t-59 -104t-35 -117.5t-11 -116z" />
<glyph horiz-adv-x="1011" d="M86 0l150 1065h464q119 0 196 -75.5t77 -194.5q0 -111 -64 -208.5t-168 -133.5l201 -453h-248l-168 418h-172l-59 -418h-209zM379 594h229q65 0 112.5 51t47.5 117q0 52 -33.5 88.5t-85.5 36.5h-229z" />
<glyph horiz-adv-x="958" d="M68 92l112 189q160 -101 256 -101q78 0 141.5 39.5t63.5 114.5q0 29 -18 52t-47.5 38t-67.5 31.5t-77 30.5t-77 35.5t-67.5 47.5t-47.5 66t-18 90q0 87 34.5 156.5t93.5 112t133.5 65t158.5 22.5q82 0 171.5 -24t129.5 -74l-92 -162q-33 33 -95 52.5t-116 19.5 q-45 0 -88.5 -12.5t-78 -45t-34.5 -79.5q0 -30 23.5 -53t61.5 -39t83.5 -31t91 -35t83.5 -46t61.5 -69t23.5 -98q0 -172 -131.5 -287.5t-306.5 -115.5q-91 0 -197 28.5t-163 81.5z" />
<glyph horiz-adv-x="1028" d="M162 868l26 197h863l-27 -197h-326l-120 -868h-211l122 868h-327z" />
<glyph horiz-adv-x="1034" d="M106 317q0 29 9 117l90 631h207l-95 -664q-2 -12 -2 -39q0 -75 47.5 -123.5t122.5 -48.5q92 0 154 59.5t74 151.5l94 664h205l-92 -664q-27 -186 -152 -302.5t-311 -116.5q-160 0 -255.5 88.5t-95.5 246.5z" />
<glyph horiz-adv-x="1034" d="M106 317q0 29 9 117l90 631h205l-93 -664l-2 -14q0 -197 170 -197q89 0 152.5 61t75.5 150l94 664h205l-90 -631q-28 -203 -146.5 -327.5t-318.5 -124.5q-160 0 -255.5 88.5t-95.5 246.5zM537 1235l127 244h233l-172 -244h-188z" />
<glyph horiz-adv-x="1034" d="M106 317q0 29 9 117l90 629h205l-88 -629q-1 -7 -4 -32.5t-3 -39.5q0 -75 47.5 -123.5t122.5 -48.5q89 0 152.5 60.5t75.5 150.5l94 664h205l-90 -631q-28 -203 -146.5 -327.5t-318.5 -124.5q-160 0 -255.5 88.5t-95.5 246.5zM410 1225l149 258h213l80 -258h-152l-51 137 l-88 -137h-151z" />
<glyph horiz-adv-x="1034" d="M106 317q0 29 9 117l90 629h205l-88 -629q-1 -7 -4 -32.5t-3 -39.5q0 -75 47.5 -123.5t122.5 -48.5q89 0 152.5 60.5t75.5 150.5l94 664h205l-90 -631q-28 -203 -146.5 -327.5t-318.5 -124.5q-160 0 -255.5 88.5t-95.5 246.5zM344 1317q0 52 39 91.5t90 39.5 q43 0 71.5 -27.5t28.5 -70.5q0 -52 -39.5 -90.5t-91.5 -38.5q-41 0 -69.5 27.5t-28.5 68.5zM719 1317q0 53 39.5 92t91.5 39q42 0 70 -28t28 -70q0 -52 -39 -90.5t-92 -38.5q-41 0 -69.5 27.5t-28.5 68.5z" />
<glyph horiz-adv-x="1034" d="M106 317q0 29 9 117l90 631h205l-93 -664l-2 -14q0 -197 170 -197q89 0 152.5 61t75.5 150l94 664h205l-90 -631q-28 -203 -146.5 -327.5t-318.5 -124.5q-160 0 -255.5 88.5t-95.5 246.5zM471 1479h234l59 -244h-189z" />
<glyph horiz-adv-x="1030" d="M150 1065h239l137 -698l332 698h240l-504 -1065h-242z" />
<glyph horiz-adv-x="1765" d="M150 1065h239l133 -725l348 702h234l156 -702l333 725h240l-502 -1065h-241l-150 707l-344 -707h-242z" />
<glyph horiz-adv-x="1155" d="M57 0l416 561l-231 504h217l178 -367l285 367h217l-377 -504l258 -561h-217l-207 401l-322 -401h-217z" />
<glyph horiz-adv-x="987" d="M119 1065h215l196 -395l312 395h213l-447 -598l-65 -467h-211l65 467z" />
<glyph horiz-adv-x="985" d="M117 1065h215l198 -397l310 397h215l-449 -598l-65 -467h-209l65 467zM322 1319q0 52 39 91.5t90 39.5q42 0 71 -28t29 -70q0 -52 -39.5 -90.5t-91.5 -38.5q-41 0 -69.5 27.5t-28.5 68.5zM696 1319q0 52 39 91.5t90 39.5q43 0 72 -28t29 -70q0 -52 -39.5 -90.5 t-91.5 -38.5q-42 0 -70.5 27.5t-28.5 68.5z" />
<glyph horiz-adv-x="1067" d="M86 0l25 180l634 703h-507l24 182h782l-24 -180l-627 -703h529l-27 -182h-809z" />
<glyph horiz-adv-x="1157" d="M104 285q0 131 86 240t213 161q-22 68 -22 131q0 71 33.5 127.5t88.5 90.5t119 51.5t130 17.5q43 0 117 -17.5t89 -42.5q-16 -18 -31 -42.5t-32.5 -56t-26.5 -46.5q-11 18 -52.5 27.5t-72.5 9.5q-53 0 -96 -36.5t-43 -90.5q0 -109 219 -422q75 119 90 254h185 q-28 -228 -164 -401q95 -132 188 -242h-274q-42 48 -80 98q-145 -104 -315 -104q-91 0 -168.5 32t-129 100.5t-51.5 160.5zM303 328q0 -69 51.5 -112.5t122.5 -43.5q97 0 185 68q-129 173 -191 295q-70 -27 -119 -83t-49 -124z" />
<glyph horiz-adv-x="731" d="M109 870q0 144 87 259.5t226 138.5l16 104h111l-17 -106q48 -8 96.5 -33.5t73.5 -61.5l-75 -108q-17 29 -65.5 47t-88.5 18q-82 0 -143.5 -72t-61.5 -155q0 -67 41.5 -115.5t108.5 -48.5q42 0 92 18.5t80 45.5l45 -109q-80 -77 -197 -100l-14 -105h-111l15 103 q-105 20 -162 95.5t-57 184.5z" />
<glyph horiz-adv-x="860" d="M104 717l109 94q-16 40 -16 82q0 89 49 170l-80 92l125 111l78 -92q61 34 133 34q70 0 125 -37l106 95l92 -111l-112 -96q14 -38 14 -80q0 -91 -49 -164l86 -98l-123 -107l-82 90q-61 -34 -133 -34q-74 0 -125 32l-102 -88zM313 915q0 -55 36.5 -92t92.5 -37q68 0 117 53 t49 122q0 55 -34 90.5t-89 35.5q-67 0 -119.5 -52.5t-52.5 -119.5z" />
<glyph horiz-adv-x="821" d="M109 872q0 105 42 194.5t124 145.5t188 56q69 0 127 -39l35 246h168l-125 -883h-166l4 26q-63 -38 -150 -38q-117 0 -182 85t-65 207zM297 883q0 -66 29 -111t90 -45q26 0 60.5 15.5t49.5 35.5l41 283q-11 20 -41 33.5t-55 13.5q-80 0 -127 -71t-47 -154z" />
<glyph horiz-adv-x="667" d="M80 653l74 121q34 -22 52.5 -32.5t50 -21.5t60.5 -11q47 0 87 25t40 69q0 28 -27.5 48t-66.5 35t-78 33.5t-66.5 52t-27.5 81.5q0 85 52 143.5t137 77.5l12 82h125l-10 -78q37 -4 82 -20.5t63 -40.5l-61 -109q-19 22 -61 36.5t-75 14.5q-47 0 -85 -22.5t-38 -67.5 q0 -23 28.5 -39.5t68.5 -29.5t80.5 -30.5t69 -51.5t28.5 -82q0 -85 -56 -151.5t-141 -88.5l-12 -84h-125l10 70q-43 2 -109 23t-81 48z" />
<glyph horiz-adv-x="1005" d="M104 307q0 128 69.5 233.5t186.5 161.5q-100 77 -100 209q0 79 33 148.5t88 117.5t127 75.5t149 27.5q129 0 218.5 -73.5t89.5 -200.5q0 -92 -44.5 -173t-121.5 -131q75 -42 115 -114.5t40 -161.5q0 -96 -39.5 -180.5t-105.5 -143t-153 -92t-181 -33.5q-156 0 -263.5 89 t-107.5 241zM322 346q0 -81 50 -129.5t130 -48.5q98 0 170.5 70.5t72.5 167.5q0 77 -52.5 132.5t-129.5 55.5q-93 0 -167 -77.5t-74 -170.5zM436 934q0 -65 46.5 -109.5t113.5 -44.5q79 0 146 63t67 142q0 69 -48 109.5t-118 40.5q-84 0 -145.5 -58.5t-61.5 -142.5z" />
<glyph horiz-adv-x="1015" d="M86 -90l111 199q58 -42 133.5 -69.5t140.5 -27.5q98 0 179 68t81 164q0 43 -15 75.5t-38.5 53t-60.5 34t-71.5 19t-81 7.5t-80 1t-77.5 -2.5t-65 -1.5l110 633h645l-28 -203h-459l-37 -227q69 2 124.5 -1t117 -13.5t106.5 -34t83 -59.5t57.5 -93.5t19.5 -132.5 q0 -141 -70.5 -258.5t-190.5 -184.5t-261 -67q-91 0 -195.5 33.5t-177.5 87.5z" />
<glyph horiz-adv-x="1118" d="M80 115l24 174l601 774h299l-107 -746h193l-29 -202h-191l-43 -305h-241l43 305h-549zM352 317h305l68 490z" />
<glyph horiz-adv-x="712" d="M80 594l123 883h172l-39 -277q63 66 160 66q91 0 138.5 -53.5t47.5 -145.5q0 -32 -8 -98l-53 -375h-170l49 344q4 36 4 51q0 98 -82 98q-55 0 -84 -63q-31 -25 -39 -86l-47 -344h-172z" />
<glyph horiz-adv-x="712" d="M80 592l92 661h170l-6 -55q65 68 162 68q91 0 138.5 -53.5t47.5 -145.5q0 -28 -8 -90l-55 -385h-170l49 346q4 32 4 51q0 98 -82 98q-53 0 -84.5 -45.5t-38.5 -103.5l-49 -346h-170z" />
<glyph horiz-adv-x="995" d="M104 608q0 202 139.5 336.5t342.5 134.5q160 0 264 -89t104 -247q0 -148 -92 -305q-58 -99 -124 -197t-173 -247t-135 -189h-250l328 490q-38 -12 -74 -12q-146 -2 -238 88.5t-92 236.5zM322 639q0 -84 46.5 -136t129.5 -52q100 0 168.5 79t68.5 181q0 81 -47.5 131.5 t-128.5 50.5q-101 0 -169 -76t-68 -178z" />
<glyph horiz-adv-x="819" d="M80 -2l29 215h247l86 610l-247 -94l-15 201q92 45 206.5 88t176.5 43h154l-119 -848h231l-30 -215h-719z" />
<glyph horiz-adv-x="518" d="M76 592l92 661h172l-8 -53q68 68 155 68q88 0 107 -27q-50 -85 -72 -115q-4 -5 -22 -22t-25 -31q-28 14 -51 14q-58 0 -90 -48t-41 -113l-47 -334h-170z" />
<glyph horiz-adv-x="686" d="M80 653l84 135q32 -22 75.5 -37.5t79.5 -15.5t66.5 21t30.5 55q0 23 -24.5 42.5t-60 35.5t-71 34.5t-60 48.5t-24.5 68q0 74 45.5 128t110 78t135.5 24q50 0 107 -17t81 -49l-67 -112q-66 41 -129 41q-35 0 -67 -20t-32 -54q0 -23 25.5 -42.5t61.5 -36.5t72 -37t61.5 -54 t25.5 -78q0 -103 -83 -166t-189 -63q-70 0 -126.5 17t-127.5 54z" />
<glyph horiz-adv-x="903" d="M55 -190l613 1046h-510l28 207h756l-27 -197q-64 -112 -608 -1056h-252z" />
<glyph horiz-adv-x="980" d="M104 315q0 143 93 308q57 98 125.5 198.5t169.5 240t137 191.5h239l-325 -489q28 14 69 14q153 0 247.5 -84.5t94.5 -236.5q0 -203 -138 -340t-341 -137q-161 0 -266 88.5t-105 246.5zM324 348q0 -81 47.5 -131.5t128.5 -50.5q100 0 168.5 77.5t68.5 178.5 q0 82 -46.5 135t-127.5 53q-101 0 -170 -79.5t-69 -182.5z" />
<glyph horiz-adv-x="647" d="M104 590l19 127h37q31 0 56 56.5t32 100.5h-103l15 101h104q10 118 82.5 205.5t185.5 87.5q49 0 105 -20.5t65 -59.5q-10 -19 -32 -51.5t-29 -44.5q-20 23 -52.5 38t-64.5 15q-38 0 -66 -30.5t-39.5 -65t-17.5 -74.5h136l-13 -101h-137q-8 -42 -26.5 -86.5t-41.5 -70.5 h267l-19 -127h-463z" />
<glyph horiz-adv-x="600" d="M104 1110l21 143h94l23 168h168l-23 -168h184l-20 -143h-184q-4 -26 -15.5 -93t-17.5 -116.5t-6 -95.5q0 -78 47 -78q33 0 65 25l37 -121q-80 -54 -158 -51q-83 0 -124 51t-41 135q0 46 7.5 105.5t20.5 133t17 105.5h-95z" />
<glyph horiz-adv-x="1044" d="M80 -82l100 176q54 -38 125.5 -63t132.5 -25q40 0 79.5 7t78 23.5t68 40.5t47.5 61t18 81q0 33 -12.5 59t-29.5 42.5t-48.5 28.5t-55 17.5t-64.5 8.5t-62 3t-62.5 -0.5t-50.5 -0.5l27 180l346 303h-449l29 203h721l-29 -203l-301 -280q124 0 206.5 -93.5t82.5 -220.5 q0 -142 -75 -252.5t-195 -167.5t-261 -57q-93 0 -195 35t-171 94z" />
<glyph horiz-adv-x="1015" d="M80 0l12 104q11 87 52.5 159.5t98 121t123 88.5t130.5 71.5t116.5 61t84.5 65.5t32 77q0 66 -51 96t-123 30q-62 0 -147.5 -26.5t-137.5 -61.5l-49 172q175 127 416 127q134 0 241 -90t107 -229q0 -74 -31 -136.5t-78.5 -104t-107.5 -82t-115 -71t-103.5 -71.5t-70.5 -82 h479l-30 -219h-848z" />
<glyph horiz-adv-x="669" d="M150 1255h137l121 -239l190 239h139l-254 -335h119l-12 -84h-137l-4 -31h137l-13 -82h-137l-18 -127h-135l18 127h-137l12 82h135l4 31h-135l13 84h114z" />
<glyph horiz-adv-x="1036" d="M109 416q0 90 21.5 183.5t65.5 181t105 156t146.5 109.5t183.5 41q118 0 202.5 -64.5t123 -161.5t38.5 -212q0 -91 -21 -184t-64.5 -180t-104 -155t-146.5 -109t-184 -41q-90 0 -161.5 36t-115 98t-66.5 139t-23 163zM330 440q0 -48 8.5 -89t27 -78t54.5 -58.5t86 -21.5 q72 0 127 43.5t84.5 112t44 138.5t14.5 136q0 47 -8 88t-26.5 79t-54 60t-85.5 22q-71 0 -126.5 -44t-85.5 -113t-45 -139.5t-15 -135.5z" />
</font>
</defs>
</svg>
