<?xml version="1.0" standalone="no"?>
<!DOCTYPE svg PUBLIC "-//W3C//DTD SVG 1.1//EN" "http://www.w3.org/Graphics/SVG/1.1/DTD/svg11.dtd" >
<svg xmlns="http://www.w3.org/2000/svg" xmlns:xlink="http://www.w3.org/1999/xlink" version="1.1">
<metadata></metadata>
<defs>
<font id="visionblack" horiz-adv-x="1189" >
<font-face units-per-em="2048" ascent="1638" descent="-410" />
<missing-glyph horiz-adv-x="532" />
<glyph unicode="fj" horiz-adv-x="1353" d="M137 799v280h166q6 173 108 287.5t279 114.5q58 0 109.5 -9t83.5 -21.5t56 -25t34 -21.5l10 -9l-90 -189q-63 45 -135 45q-118 -2 -137 -172h292h5h327v-862q0 -293 -106 -450.5t-287 -157.5q-59 0 -112 8t-86.5 20t-58.5 24t-35 20l-11 8l115 235q4 -4 13 -10.5 t42 -17.5t74 -11q120 0 120 332v582h-295v-799h-315v799h-166z" />
<glyph unicode="ft" horiz-adv-x="1835" d="M113 799v280h166q0 172 116 287t283 115q53 0 101 -8.5t79 -20.5t55 -24t35 -20l10 -9l-98 -207q-38 18 -83.5 20t-86 -10t-67.5 -44.5t-27 -78.5h297h166v262h315v-262h299v-280h-299v-336q0 -113 12.5 -148.5t61.5 -35.5q15 0 35 9t33 18l12 9l106 -243 q-68 -47 -123.5 -69.5t-136.5 -22.5q-315 0 -315 366v453h-166h-299v-799h-315v799h-166z" />
<glyph unicode="fft" horiz-adv-x="2619" d="M113 799v280h166q0 172 116 287t283 115q53 0 101 -8.5t79 -20.5t55 -24t35 -20l10 -9l-98 -207q-38 18 -83.5 20t-86 -10t-67.5 -44.5t-27 -78.5h293h4h162q0 172 116 287t283 115q53 0 101 -8.5t79.5 -20.5t55.5 -24t34 -20l11 -9l-99 -207q-38 18 -83.5 20t-86 -10 t-67.5 -44.5t-27 -78.5h293h4h162v262h315v-262h299v-280h-299v-336q0 -113 12.5 -148.5t61.5 -35.5q15 0 35 9t33 18l12 9l106 -243q-68 -47 -123.5 -69.5t-136.5 -22.5q-315 0 -315 366v453h-162h-4h-295v-799h-315v799h-162h-4h-295v-799h-315v799h-166z" />
<glyph unicode="ffj" horiz-adv-x="2717" d="M113 799v280h166q0 172 116 287t283 115q53 0 101 -8.5t79 -20.5t55 -24t35 -20l10 -9l-98 -207q-38 18 -83.5 20t-86 -10t-67.5 -44.5t-27 -78.5h297h166q0 172 116 287t283 115q53 0 101 -8.5t79.5 -20.5t55.5 -24t34 -20l11 -9l-99 -207q-38 18 -83.5 20t-86 -10 t-67.5 -44.5t-27 -78.5h297h332v-862q0 -293 -106 -450.5t-287 -157.5q-59 0 -112 8t-86.5 20t-58.5 24t-35 20l-11 8l114 235q4 -4 13 -10.5t42 -17.5t74 -11q121 0 121 332v582h-299v-799h-315v799h-166h-299v-799h-315v799h-166z" />
<glyph unicode="tf" horiz-adv-x="1884" d="M113 799v280h166v262h315v-262h299v-280h-299v-336q0 -113 12.5 -148.5t61.5 -35.5q15 0 35 9t33 18l12 9l106 -243q-68 -47 -123.5 -69.5t-136.5 -22.5q-315 0 -315 366v453h-166zM895 799v280h166q0 172 116 287t283 115q53 0 101 -8.5t79.5 -20.5t55.5 -24t34 -20 l11 -9l-99 -207q-38 18 -83.5 20t-86 -10t-67.5 -44.5t-27 -78.5h297v-280h-299v-799h-315v799h-166z" />
<glyph horiz-adv-x="0" />
<glyph horiz-adv-x="682" />
<glyph horiz-adv-x="0" />
<glyph horiz-adv-x="0" />
<glyph unicode="&#xd;" horiz-adv-x="512" />
<glyph unicode=" "  horiz-adv-x="532" />
<glyph unicode="&#x09;" horiz-adv-x="532" />
<glyph unicode="&#xa0;" horiz-adv-x="532" />
<glyph unicode="!" horiz-adv-x="741" d="M121 1485h500l-115 -1030h-270zM184 156q0 73 55 125.5t132 52.5q76 0 130 -52t54 -126q0 -73 -53.5 -124.5t-130.5 -51.5t-132 51.5t-55 124.5z" />
<glyph unicode="&#x22;" horiz-adv-x="679" d="M47 1368h256l-57 -432h-140zM377 1368h256l-60 -432h-139z" />
<glyph unicode="#" horiz-adv-x="1536" d="M111 258l67 279h150l28 170h-168l68 278h147l43 268h353l-45 -268h161l46 268h350l-43 -268h157l-65 -278h-139l-29 -170h156l-68 -279h-133l-43 -260h-352l43 260h-162l-43 -260h-352l43 260h-170zM655 516h203l35 211h-201z" />
<glyph unicode="$" horiz-adv-x="1169" d="M92 100l133 306q25 -13 65 -31.5t125.5 -50t127.5 -31.5q78 0 122 26t44 72q0 28 -29 49.5t-75.5 38t-102 34.5t-111.5 46t-102.5 66t-75.5 101t-29 144q0 148 82 249t246 132v160h195v-149q73 -4 137 -18.5t103.5 -32t68.5 -34.5t41 -29l12 -11l-108 -252q0 3 -35 21.5 t-101.5 38.5t-130.5 20q-67 0 -111 -25t-44 -68q0 -28 23 -49t61 -34t86.5 -28.5t98.5 -29.5t98.5 -40t86.5 -59t61 -86.5t23 -121.5q0 -169 -105.5 -285t-264.5 -153v-168h-195v155q-76 4 -147 18.5t-118.5 32.5t-84 35.5t-53.5 28.5z" />
<glyph unicode="%" horiz-adv-x="1695" d="M129 942q0 62 16 119.5t47.5 107t86 79.5t124.5 30t124 -30t85 -79.5t46.5 -107t15.5 -119.5t-15.5 -119.5t-46.5 -106.5t-85 -78.5t-124 -29.5q-71 0 -125.5 29.5t-86 78.5t-47 106.5t-15.5 119.5zM344 942q0 -121 59 -121q58 0 58 121q0 123 -58 123q-59 0 -59 -123z M403 0l615 1253h289l-615 -1253h-289zM1032 309q0 62 16 119.5t48 107t86.5 79.5t124.5 30t124 -30t84.5 -79.5t46 -107t15.5 -119.5t-15.5 -119.5t-46 -106.5t-84.5 -78.5t-124 -29.5q-71 0 -125.5 29.5t-86 78.5t-47.5 106.5t-16 119.5zM1247 309q0 -121 60 -121 q57 0 57 121q0 123 -57 123q-60 0 -60 -123z" />
<glyph unicode="&#x26;" horiz-adv-x="1486" d="M92 389q0 146 72.5 251t191.5 155q-39 89 -39 155q0 78 29.5 138t73.5 94t103.5 56t111.5 29t106 7q74 0 137 -15t89 -30l26 -15l-102 -217q-3 3 -10.5 8.5t-37.5 14t-69 8.5q-46 0 -76 -29.5t-30 -85.5q0 -92 262 -403q37 93 37 238h274q0 -272 -119 -459 q65 -72 133.5 -144t104.5 -109l35 -36h-420q-31 29 -78 78q-142 -78 -326 -78q-67 0 -133.5 14t-129.5 45.5t-110.5 76t-76.5 110t-29 143.5zM385 422q0 -62 56.5 -109t129.5 -47t138 23q-130 147 -220 278q-45 -16 -74.5 -53.5t-29.5 -91.5z" />
<glyph unicode="'" horiz-adv-x="425" d="M47 1366h332l-76 -432h-180z" />
<glyph unicode="(" horiz-adv-x="839" d="M47 563q0 309 140 592.5t405 476.5q53 -72 201 -278q-197 -143 -300.5 -352t-103.5 -439t104 -439.5t300 -352.5q-123 -172 -201 -277q-265 193 -405 476t-140 593z" />
<glyph unicode=")" horiz-adv-x="839" d="M47 -233q196 143 300 352.5t104 439.5t-103.5 439t-300.5 352l203 278q265 -193 404 -476t139 -593q0 -311 -139 -593.5t-404 -475.5z" />
<glyph unicode="*" horiz-adv-x="806" d="M47 766l154 108l-154 109l115 162l141 -98v194h201v-194l141 98l115 -162l-154 -109l154 -108l-115 -162l-141 98v-196h-201v196l-141 -98z" />
<glyph unicode="+" horiz-adv-x="960" d="M47 436v305h262v281h342v-281h262v-305h-262v-280h-342v280h-262z" />
<glyph unicode="," horiz-adv-x="696" d="M111 221q0 94 74.5 155.5t162.5 61.5q104 0 171 -79t67 -209q0 -79 -31.5 -156t-76.5 -129.5t-82.5 -85.5t-61.5 -45l-113 155q90 64 101 111q-94 0 -152.5 60t-58.5 161z" />
<glyph unicode="-" horiz-adv-x="960" d="M47 410v305h866v-305h-866z" />
<glyph unicode="." horiz-adv-x="536" d="M47 201q0 92 64.5 157.5t156.5 65.5t156.5 -65.5t64.5 -157.5q0 -91 -64.5 -156t-156.5 -65t-156.5 65t-64.5 156z" />
<glyph unicode="/" horiz-adv-x="864" d="M10 -135l555 1595h289l-555 -1595h-289z" />
<glyph unicode="0" horiz-adv-x="1118" d="M125 543q0 124 29.5 224t75.5 161.5t106.5 103t118.5 58t116 16.5q57 0 114.5 -16t118 -57t106 -102.5t75 -162t29.5 -225.5t-28.5 -224.5t-73.5 -161.5t-105 -103t-118 -57.5t-118 -16.5t-118.5 16.5t-118.5 57.5t-105.5 103t-74.5 161.5t-29 224.5zM430 543 q0 -264 141 -264q75 0 107.5 68t32.5 196q0 258 -140 258q-41 0 -70 -22.5t-44 -62t-21 -81.5t-6 -92z" />
<glyph unicode="1" horiz-adv-x="1087" d="M164 946l319 133h316v-774h227v-305h-825v305h256v445l-240 -82z" />
<glyph unicode="2" horiz-adv-x="1079" d="M88 0v111q0 69 27.5 127t71.5 99.5t97.5 77t107 66.5t97.5 61.5t71.5 68t27.5 79.5q0 44 -34 80.5t-105 36.5q-72 0 -148 -26t-102 -44l-101 236q6 5 18 14t55 31t92.5 39t130 31t167.5 14q165 0 272 -90t107 -242q0 -69 -21.5 -130t-60.5 -111t-74 -84.5t-84 -76 t-67 -59.5h362v-309h-907z" />
<glyph unicode="3" horiz-adv-x="1118" d="M72 -78l92 246q141 -59 239 -59q103 0 162.5 29t59.5 85q0 54 -63 82.5t-159 28.5h-167v246l266 213h-375v286h758v-286l-205 -177q6 -1 16.5 -4t41 -15t58 -29t61.5 -48.5t58.5 -70.5t41 -98t16.5 -128q0 -188 -139.5 -303t-366.5 -115q-96 0 -195 29.5t-150 58.5z" />
<glyph unicode="4" horiz-adv-x="1232" d="M113 111v237l417 731h433v-684h182v-284h-182v-285h-342v285h-508zM451 395h170v346z" />
<glyph unicode="5" horiz-adv-x="1075" d="M61 -78l105 283q17 -10 46.5 -24.5t104.5 -39t132 -24.5q65 0 115 34t50 103q0 31 -12.5 54.5t-38 38t-52.5 23.5t-66.5 13t-68 5t-69.5 1h-151l24 690h688v-286h-430l-2 -127q25 2 70 2q241 0 349 -111t108 -315q0 -180 -141.5 -308.5t-342.5 -128.5q-96 0 -200.5 29.5 t-160.5 58.5z" />
<glyph unicode="6" horiz-adv-x="1071" d="M49 391q0 61 13.5 125.5t30.5 116t54 126.5t62.5 122t77.5 137l129 235h334l-230 -471h4q81 0 149 -22t122.5 -67.5t85 -122.5t30.5 -179q0 -91 -27.5 -163.5t-71 -117.5t-101.5 -75.5t-114.5 -42.5t-113.5 -12q-59 0 -115.5 11.5t-115.5 41t-103 74.5t-72 118t-28 166z M350 391q0 -71 37.5 -114.5t95.5 -43.5q56 0 92.5 43.5t36.5 114.5q0 67 -32 116.5t-97 49.5t-99 -50t-34 -116z" />
<glyph unicode="7" horiz-adv-x="1019" d="M113 786v293h815v-276l-428 -977h-355l437 960h-469z" />
<glyph unicode="8" horiz-adv-x="1030" d="M41 371q0 219 192 329q-122 95 -122 248q0 69 22.5 125.5t59.5 94.5t86 63.5t100 37t104 11.5t104.5 -11.5t101 -37t86.5 -63.5t60 -94.5t23 -125.5q0 -157 -117 -248q187 -108 187 -329q0 -82 -27.5 -149.5t-72.5 -112t-104 -75t-119.5 -44t-121.5 -13.5t-121 13.5 t-118.5 44t-103 75t-72 112t-27.5 149.5zM336 389q0 -66 40.5 -109.5t108.5 -43.5t111 44t43 109q0 61 -41.5 110.5t-112.5 49.5q-63 0 -106 -49t-43 -111zM381 920q0 -47 29 -78t75 -31q47 0 78 31.5t31 77.5q0 41 -29.5 75.5t-79.5 34.5q-43 0 -73.5 -33.5t-30.5 -76.5z " />
<glyph unicode="9" horiz-adv-x="1136" d="M113 688q0 91 27.5 163.5t71 118t101.5 76t115 42.5t115 12t114.5 -11.5t115.5 -41t103.5 -74.5t72.5 -118.5t28 -166.5q0 -61 -14 -126t-30.5 -115t-55 -127.5t-62.5 -121t-78 -137.5l-129 -235h-348l229 471h-10q-65 0 -127.5 22.5t-117 67.5t-88 123t-33.5 178z M412 688q0 -67 33 -116.5t98 -49.5t98 49.5t33 116.5q0 71 -37 114.5t-94 43.5q-58 0 -94.5 -43.5t-36.5 -114.5z" />
<glyph unicode=":" horiz-adv-x="708" d="M133 201q0 92 64.5 157.5t156.5 65.5t156.5 -65.5t64.5 -157.5q0 -91 -64.5 -156t-156.5 -65t-156.5 65t-64.5 156zM133 858q0 92 64.5 156.5t156.5 64.5t156.5 -64.5t64.5 -156.5t-64.5 -156.5t-156.5 -64.5t-156.5 64.5t-64.5 156.5z" />
<glyph unicode=";" horiz-adv-x="741" d="M133 152q0 94 75 156.5t163 62.5q104 0 170.5 -80t66.5 -211q0 -78 -31.5 -155t-76 -129.5t-82.5 -86t-62 -45.5l-112 156q89 63 100 110q-94 0 -152.5 60.5t-58.5 161.5zM133 858q0 92 64.5 156.5t156.5 64.5t156.5 -64.5t64.5 -156.5t-64.5 -156.5t-156.5 -64.5 t-156.5 64.5t-64.5 156.5z" />
<glyph unicode="&#x3c;" horiz-adv-x="845" d="M47 516v270l752 400v-330l-418 -205l418 -205v-329z" />
<glyph unicode="=" horiz-adv-x="960" d="M47 301v303h866v-303h-866zM47 735v303h866v-303h-866z" />
<glyph unicode="&#x3e;" horiz-adv-x="858" d="M47 90v330l418 235l-418 236v330l764 -430v-271z" />
<glyph unicode="?" horiz-adv-x="999" d="M113 1384q6 4 18 10.5t51 23t81 29.5t107 23.5t130 10.5q187 0 297 -98t110 -257q0 -70 -19 -130.5t-49.5 -101.5t-67 -74.5t-73 -53t-67 -32.5t-49.5 -18l-19 -5v-252h-284v456h112q55 0 109.5 47t54.5 103q0 54 -49.5 91.5t-114.5 37.5q-36 0 -83 -15t-76 -29l-29 -15z M231 156q0 73 55 125.5t132 52.5q76 0 130 -52t54 -126q0 -73 -53.5 -124.5t-130.5 -51.5t-132 51.5t-55 124.5z" />
<glyph unicode="@" horiz-adv-x="1673" d="M100 598q0 159 60 298t160.5 234t235 149t280.5 54q210 0 378 -86t263.5 -240.5t95.5 -349.5q0 -221 -101.5 -355t-261.5 -134q-59 0 -134.5 33.5t-106.5 83.5q-87 -117 -254 -117q-83 0 -159 56.5t-121.5 150.5t-45.5 198q0 175 86.5 289.5t233.5 114.5q43 0 81.5 -10 t62.5 -24t42 -28t25 -24l8 -10v75h282v-317q0 -73 1 -114.5t4 -87t9 -68t17 -43t27 -28t39 -7.5q56 0 109.5 105.5t53.5 260.5q0 171 -85.5 303t-229.5 201.5t-319 69.5q-128 0 -245.5 -50.5t-202 -135t-135 -202t-50.5 -245.5q0 -129 50.5 -246t135.5 -202t202 -135 t245 -50q59 0 133.5 18.5t118.5 36.5l45 19l45 -94q-6 -3 -17.5 -9t-48.5 -20.5t-75 -25.5t-93 -20t-108 -9q-154 0 -291 58t-234.5 156.5t-154 234.5t-56.5 288zM659 586q0 -79 37.5 -125.5t104.5 -46.5q36 0 62 12t38 29t18.5 34t7.5 29l1 12v97q0 5 -1.5 12.5t-9 27 t-20 34.5t-38 27.5t-58.5 12.5q-68 0 -105 -42t-37 -113z" />
<glyph unicode="A" horiz-adv-x="1409" d="M104 0l355 1253h489l357 -1253h-342l-80 254h-357l-80 -254h-342zM604 563h201l-100 381z" />
<glyph unicode="B" horiz-adv-x="1261" d="M137 0v1253h502q184 0 298 -95.5t114 -266.5q0 -117 -84 -217q186 -70 186 -287q0 -132 -62 -220t-169 -127.5t-256 -39.5h-529zM479 268h195q57 0 91 36.5t34 84.5q0 55 -33.5 88t-91.5 33h-195v-242zM479 791h125q125 0 125 100t-125 100h-125v-200z" />
<glyph unicode="C" horiz-adv-x="1277" d="M129 631q0 103 21 192t57 154t85.5 117.5t104 86t115 56t116.5 32t111 9.5q72 0 141 -14t116.5 -34t85 -40.5t55.5 -34.5l18 -14l-135 -287q-4 4 -12 10t-34.5 22t-54 28t-68.5 22t-81 10q-136 0 -212.5 -84.5t-76.5 -230.5q0 -149 76.5 -232.5t212.5 -83.5 q64 0 126.5 23.5t93.5 46.5l30 23l135 -289q-7 -5 -19 -14.5t-53.5 -32.5t-86.5 -41t-115 -32.5t-142 -14.5q-55 0 -111 9.5t-116.5 32t-115 56t-104 86t-85.5 117.5t-57 154t-21 192z" />
<glyph unicode="D" horiz-adv-x="1347" d="M137 0v1253h432q652 0 652 -614q0 -130 -37 -237.5t-99.5 -180.5t-146.5 -124t-177 -74t-192 -23h-432zM479 328h90q93 0 157.5 43.5t93 112t28.5 155.5q0 287 -279 287h-90v-598z" />
<glyph unicode="E" horiz-adv-x="1245" d="M137 0v1253h944v-327h-602v-146h471v-288h-471v-164h602v-328h-944z" />
<glyph unicode="F" horiz-adv-x="1198" d="M137 0v1253h944v-327h-602v-140h414v-327h-414v-459h-342z" />
<glyph unicode="G" horiz-adv-x="1345" d="M129 627q0 124 36 230.5t98 182t144.5 129t176 79.5t192.5 26q89 0 169 -14t130.5 -34t88 -40.5t53.5 -34.5l16 -14l-133 -287q-12 10 -34 25.5t-87.5 41t-128.5 25.5q-142 0 -244 -87.5t-102 -227.5q0 -157 84 -236.5t266 -79.5h39v367h340v-563q-8 -5 -23 -14.5 t-63 -32.5t-98.5 -41t-124.5 -32.5t-146 -14.5q-97 0 -188.5 22.5t-176 73.5t-147 124.5t-100 183.5t-37.5 243z" />
<glyph unicode="H" horiz-adv-x="1337" d="M137 0v1253h342v-422h379v422h342v-1253h-342v504h-379v-504h-342z" />
<glyph unicode="I" horiz-adv-x="669" d="M164 0v1253h342v-1253h-342z" />
<glyph unicode="J" horiz-adv-x="1001" d="M76 117l141 286q10 -8 28 -20.5t67 -33.5t91 -21q37 0 61.5 15t36.5 43t16.5 58.5t4.5 71.5v737h342v-626q0 -121 -9 -211.5t-35 -176t-70 -140t-116.5 -87t-172.5 -32.5q-72 0 -138 14t-109 34t-75.5 40.5t-47.5 34.5z" />
<glyph unicode="K" horiz-adv-x="1259" d="M125 0v1253h342v-407l326 407h391l-404 -551l453 -702h-408l-358 569v-569h-342z" />
<glyph unicode="L" horiz-adv-x="1005" d="M164 0v1253h342v-925h356v-328h-698z" />
<glyph unicode="M" horiz-adv-x="1617" d="M137 0v1253h309l363 -413l362 413h310v-1253h-342v770l-330 -399l-330 391v-762h-342z" />
<glyph unicode="N" horiz-adv-x="1337" d="M137 0v1253h342l379 -641v641h342v-1253h-342l-379 618v-618h-342z" />
<glyph unicode="O" horiz-adv-x="1474" d="M129 627q0 103 21 192t57 154t85.5 117.5t104 86t115 56t116.5 32t111 9.5t110.5 -9t116 -31.5t115 -56t103.5 -85.5t84.5 -117t56.5 -154.5t21 -193.5q0 -144 -39 -258.5t-101 -185.5t-144 -118.5t-162 -66t-161 -18.5t-161 18.5t-163 66t-145 118.5t-101.5 185.5 t-39.5 258.5zM504 627q0 -166 59 -258.5t176 -92.5q232 0 232 351q0 52 -6.5 98.5t-23 92.5t-42 79t-66.5 53.5t-94 20.5t-94.5 -20.5t-67 -53.5t-42.5 -79t-24 -93t-7 -98z" />
<glyph unicode="P" horiz-adv-x="1253" d="M137 0v1253h578q176 0 293.5 -131.5t117.5 -318.5q0 -182 -123 -315.5t-288 -133.5h-236v-354h-342zM479 682h195q59 0 92 33t33 88q0 54 -37 88.5t-88 34.5h-195v-244z" />
<glyph unicode="Q" horiz-adv-x="1474" d="M129 623q0 103 21 192t57 154t85.5 117.5t104 86t115 56t116.5 32t111 9.5t110.5 -9t116 -31.5t115 -56t103.5 -85.5t84.5 -117t56.5 -154.5t21 -193.5q0 -216 -81 -357t-214 -213l276 -301h-430l-203 225q-79 5 -154.5 27.5t-151.5 72t-132 120.5t-91.5 181t-35.5 245z M504 623q0 -166 59 -258.5t176 -92.5q232 0 232 351q0 52 -6.5 98.5t-23 92.5t-42 79t-66.5 53.5t-94 20.5t-94.5 -20.5t-67 -53.5t-42.5 -79t-24 -93t-7 -98z" />
<glyph unicode="R" horiz-adv-x="1280" d="M137 0v1253h578q180 0 295.5 -112.5t115.5 -294.5q0 -112 -50 -200.5t-136 -141.5l279 -504h-398l-217 442h-125v-442h-342zM479 723h189q59 0 92 33.5t33 89.5q0 53 -37 87t-88 34h-189v-244z" />
<glyph unicode="S" horiz-adv-x="1275" d="M160 109l133 305q25 -13 64.5 -31.5t125 -50t127.5 -31.5q78 0 122 26t44 72q0 28 -29 49.5t-75 38t-102 34.5t-112 46.5t-102 66t-75 101t-29 144.5q0 179 117.5 286t351.5 107q84 0 157.5 -13t119 -32t78.5 -37.5t47 -31.5l14 -13l-109 -252q0 3 -35 21.5t-101 38.5 t-130 20q-67 0 -111.5 -24.5t-44.5 -67.5q0 -28 23 -49t61 -34t86.5 -28.5t99 -30t99 -40.5t86.5 -59t61 -86.5t23 -121.5q0 -103 -43.5 -190t-114.5 -143.5t-160 -87.5t-182 -31q-87 0 -169 13.5t-137 32t-97 37.5t-62 33z" />
<glyph unicode="T" horiz-adv-x="1341" d="M143 936v317h1055v-317h-356v-936h-342v936h-357z" />
<glyph unicode="U" horiz-adv-x="1316" d="M145 516v737h334v-737q0 -103 49 -158t131 -55q81 0 130 55t49 158v737h333v-737q0 -113 -30 -208.5t-90.5 -169.5t-160.5 -116t-231 -42q-136 0 -237.5 41.5t-160.5 116.5t-87.5 169t-28.5 209z" />
<glyph unicode="V" horiz-adv-x="1413" d="M104 1253h383l222 -737l217 737h383l-402 -1253h-399z" />
<glyph unicode="W" horiz-adv-x="2275" d="M104 1253h377l228 -721l245 707h367l250 -707l223 721h377l-402 -1253h-399l-233 664l-230 -664h-399z" />
<glyph unicode="X" horiz-adv-x="1413" d="M104 0l363 647l-334 606h342l232 -393l231 393h342l-336 -606l365 -647h-342l-260 393l-261 -393h-342z" />
<glyph unicode="Y" horiz-adv-x="1413" d="M104 1253h342l261 -442l260 442h342l-432 -743v-510h-342v510z" />
<glyph unicode="Z" horiz-adv-x="1304" d="M137 0v315l582 621h-551v317h999v-317l-567 -621h567v-315h-1030z" />
<glyph unicode="[" horiz-adv-x="753" d="M111 -346v2042h532v-305h-190v-1432h190v-305h-532z" />
<glyph unicode="\" horiz-adv-x="929" d="M25 1417h342l538 -1552h-342z" />
<glyph unicode="]" horiz-adv-x="753" d="M111 -131h190v1431h-190v306h532v-2042h-532v305z" />
<glyph unicode="^" horiz-adv-x="856" d="M47 684l205 678h352l205 -678h-283l-98 426l-100 -426h-281z" />
<glyph unicode="_" horiz-adv-x="1361" d="M47 -59h1268v-306h-1268v306z" />
<glyph unicode="`" horiz-adv-x="548" d="M82 1528h315l97 -258h-261z" />
<glyph unicode="a" horiz-adv-x="1243" d="M74 543q0 158 43 283t136 203t225 78q48 0 93.5 -13.5t75.5 -32.5t53 -38t34 -33l10 -13v102h314v-460q0 -173 12 -255.5t38 -110.5t81 -28l-86 -243q-70 0 -119 10t-83.5 33.5t-54.5 47.5t-47 67q-5 -6 -14 -17t-39.5 -38t-64.5 -48t-87.5 -38t-109.5 -17 q-126 0 -221 81t-142 207t-47 273zM420 547q0 -111 44 -175.5t133 -64.5q68 0 107.5 36t39.5 69v243q0 37 -40 90.5t-107 53.5q-81 0 -129 -75.5t-48 -176.5z" />
<glyph unicode="b" horiz-adv-x="1220" d="M113 0v1434h315v-424q23 39 102.5 65.5t141.5 26.5q129 0 232 -76t159.5 -205t56.5 -286q0 -124 -40 -230.5t-105 -176t-146.5 -109t-164.5 -39.5q-53 0 -96.5 11.5t-68 27.5t-42 32t-23.5 27l-6 12v-90h-315zM428 373q6 -8 17 -20.5t45 -33t69 -20.5q37 0 73.5 12.5 t71 38.5t55.5 75t21 114q0 116 -65 188t-156 72q-88 0 -131 -74v-352z" />
<glyph unicode="c" horiz-adv-x="1155" d="M100 543q0 116 33.5 211.5t88 158.5t127 106t148 62t152.5 19q72 0 138.5 -17.5t109.5 -42.5t75.5 -50t47.5 -42l14 -18l-108 -223q-3 4 -8.5 9.5t-25.5 21t-43 27t-60 21t-78 9.5q-123 0 -199 -75t-76 -177q0 -98 71 -170t185 -72q39 0 78 9.5t66 23.5t48 28t32 24l10 9 l108 -227q-6 -8 -18.5 -20.5t-53 -45t-84.5 -57t-111.5 -45t-135.5 -20.5q-69 0 -140 19t-142 63t-126 107t-89 160t-34 214z" />
<glyph unicode="d" horiz-adv-x="1220" d="M100 535q0 263 127.5 416t360.5 153q53 0 117 -24t88 -66v420h315v-1434h-315v90q-2 -4 -6.5 -11.5t-23 -26.5t-42.5 -33.5t-67.5 -26.5t-96.5 -12q-83 0 -164.5 39.5t-147 109t-105.5 176t-40 230.5zM469 539q0 -120 52 -189t143 -69q35 0 67 18.5t47 36.5l15 18v351 q-38 73 -129 73q-86 0 -140.5 -69.5t-54.5 -169.5z" />
<glyph unicode="e" d="M115 541q0 129 39.5 235.5t107 176.5t158 108.5t192.5 38.5q197 0 328 -128.5t131 -340.5l-2 -168h-620q0 -67 33.5 -113t82 -65t107.5 -19q48 0 94 13.5t77 33t55.5 39.5t35.5 34l12 13l119 -243q-5 -7 -14.5 -19t-45.5 -42.5t-78 -53.5t-112.5 -42t-148.5 -19 q-163 0 -290.5 77t-194 204t-66.5 280zM463 700h309q0 62 -50.5 98t-107.5 36q-61 0 -106 -42.5t-45 -91.5z" />
<glyph unicode="f" horiz-adv-x="1067" d="M113 799v280h166q0 172 116 287t283 115q53 0 101 -8.5t79 -20.5t55 -24t35 -20l10 -9l-98 -207q-38 18 -84 20h-12q-39 0 -74 -10q-40 -12 -67 -44.5t-27 -78.5h297v-280h-299v-799h-315v799h-166z" />
<glyph unicode="g" horiz-adv-x="1206" d="M100 596q0 138 51.5 251t159.5 184t256 71q51 0 94 -14.5t66.5 -34.5t36.5 -38t14 -28v92h316v-796q0 -95 -16 -186.5t-53.5 -181t-94 -156.5t-145 -108.5t-197.5 -41.5q-74 0 -143 11t-114.5 27t-81 32t-51.5 27l-16 11l129 271q13 -7 35.5 -17t87 -26.5t121.5 -16.5 q28 0 56 5.5t59 20.5t54 37.5t38.5 61.5t15.5 88q-69 -69 -211 -69q-120 0 -213 47t-146.5 124.5t-80.5 167t-27 185.5zM451 596q0 -84 47 -143.5t112 -59.5q37 0 68 8t49 19t30 22t17 19l4 8v231q0 4 -2 10.5t-11.5 24t-24.5 30.5t-46.5 23.5t-72.5 10.5q-74 0 -122 -60.5 t-48 -142.5z" />
<glyph unicode="h" horiz-adv-x="1169" d="M133 0v1434h326v-494q25 70 101 116t149 46q70 0 126 -22.5t92 -60.5t59.5 -90.5t33.5 -108.5t10 -120v-700h-323v571q0 150 -121 150q-57 0 -92 -36t-35 -114v-571h-326z" />
<glyph unicode="i" horiz-adv-x="595" d="M113 1386q0 74 54 125.5t130 51.5q77 0 131.5 -52t54.5 -125t-54.5 -125.5t-131.5 -52.5q-76 0 -130 52t-54 126zM135 0v1079h324v-1079h-324z" />
<glyph unicode="j" horiz-adv-x="774" d="M-57 -330l118 246q46 -25 97 -25q35 0 61.5 13.5t43.5 39.5t28 56t16.5 69.5t7.5 73t2 74.5v862h332v-862q0 -298 -114.5 -453t-331.5 -155q-70 0 -135 15.5t-95 30.5zM305 1389q0 73 53.5 124.5t130.5 51.5t132 -51.5t55 -124.5t-55 -126t-132 -53q-76 0 -130 52.5 t-54 126.5z" />
<glyph unicode="k" horiz-adv-x="1208" d="M113 0v1434h317v-652l232 297h391l-379 -458l461 -621h-390l-315 422v-422h-317z" />
<glyph unicode="l" horiz-adv-x="780" d="M113 455v979h333v-971q0 -106 16 -146.5t56 -40.5q20 0 41 8t32 16l11 7l115 -248q-115 -79 -281 -79q-169 0 -246 114.5t-77 360.5z" />
<glyph unicode="m" horiz-adv-x="1712" d="M113 0v1079h325v-139q25 70 101 116t149 46q215 0 285 -184q60 184 289 184q70 0 126 -24.5t92 -64t59.5 -93t33.5 -108t10 -112.5v-700h-323v571q0 150 -119 150q-58 0 -93.5 -36t-35.5 -114v-571h-326v571q0 150 -121 150q-57 0 -92 -36t-35 -114v-571h-325z" />
<glyph unicode="n" horiz-adv-x="1138" d="M113 0v1079h325v-139q25 70 101 116t149 46q88 0 152 -31t100 -87.5t53 -126.5t17 -157v-700h-324v571q0 150 -121 150q-57 0 -92 -36t-35 -114v-571h-325z" />
<glyph unicode="o" horiz-adv-x="1261" d="M100 524q0 116 34.5 212.5t89.5 159.5t126 107t142.5 63t140.5 19t140 -19t141.5 -63t124.5 -107t88 -159.5t34 -212.5t-33 -212.5t-86.5 -159.5t-123.5 -107t-142 -63t-143 -19t-143.5 19t-143 63t-125 107t-88 159.5t-33.5 212.5zM455 524q0 -132 45 -206t133 -74 q87 0 130.5 73.5t43.5 206.5q0 53 -8 98t-26.5 87t-54 66t-85.5 24q-48 0 -84 -24.5t-56 -65.5t-29 -87t-9 -98z" />
<glyph unicode="p" horiz-adv-x="1220" d="M113 -371v1450h315v-90q2 5 6.5 12.5t23 27t42.5 34.5t67.5 27t96.5 12q83 0 164.5 -39.5t146.5 -110t105 -177t40 -230.5q0 -158 -53 -285.5t-156 -203.5t-239 -76q-80 0 -147.5 27.5t-96.5 82.5v-461h-315zM428 352q41 -76 131 -76t152.5 73.5t62.5 191.5 q0 53 -13.5 96t-35.5 70.5t-50.5 46t-57.5 26.5t-58 8q-35 0 -67.5 -19t-47.5 -37l-16 -19v-361z" />
<glyph unicode="q" horiz-adv-x="1220" d="M100 545q0 251 126 403t315 152q53 0 98 -11.5t72 -28t47 -32.5t28 -28l7 -11v90h315v-1450h-315v461q-29 -55 -96.5 -82.5t-147.5 -27.5q-136 0 -239.5 76t-156.5 203.5t-53 285.5zM459 541q0 -101 58.5 -167.5t146.5 -66.5q92 0 129 76v319q-2 3 -6 8t-17 18.5 t-27 23.5t-35.5 18t-43.5 8q-38 0 -71.5 -11t-65 -36.5t-50 -74t-18.5 -115.5z" />
<glyph unicode="r" horiz-adv-x="919" d="M113 0v1079h325v-139q25 70 100.5 115t149.5 45q42 0 77 -4.5t54.5 -11t33.5 -13.5t19 -11l5 -5l-164 -348q-37 28 -111 28q-76 0 -120 -44t-44 -154v-537h-325z" />
<glyph unicode="s" horiz-adv-x="1058" d="M100 86l125 283q14 -10 37.5 -25t87 -40t115.5 -25q44 0 75 19t31 54q0 22 -21 38t-55 28t-75.5 25.5t-82.5 36t-75 54t-55 85.5t-21 124q0 75 24.5 139.5t73 114t127.5 77.5t181 28q72 0 135.5 -12.5t102 -30t67 -34.5t39.5 -29l12 -13l-96 -225q0 3 -20 15.5t-67.5 27 t-102.5 14.5q-107 0 -107 -57q0 -27 22 -48t58 -36t78.5 -31t85.5 -39.5t79 -54.5t58 -82.5t22 -118.5q0 -72 -24.5 -132.5t-66 -103.5t-97 -73t-117.5 -44.5t-127 -14.5q-75 0 -146.5 11t-120 26.5t-86 31t-55.5 26.5z" />
<glyph unicode="t" horiz-adv-x="1089" d="M147 799v280h166v262h316v-262h299v-280h-299v-336q0 -114 12 -149t61 -35q15 0 35 9t33 18l12 9l107 -243q-68 -47 -123.5 -69.5t-136.5 -22.5q-316 0 -316 366v453h-166z" />
<glyph unicode="u" horiz-adv-x="1140" d="M129 420v659h326v-598q0 -149 120 -149q58 0 94 35.5t36 113.5v598h323v-1079h-323v139q-25 -70 -101.5 -116t-150.5 -46q-88 0 -152.5 35t-101 97.5t-53.5 139.5t-17 171z" />
<glyph unicode="v" horiz-adv-x="1196" d="M117 1079h325l150 -612l147 612h340l-325 -1079h-324z" />
<glyph unicode="w" horiz-adv-x="1859" d="M125 1079h336l139 -612l148 612h350l149 -612l139 612h349l-326 -1079h-324l-159 623l-164 -623h-324z" />
<glyph unicode="x" horiz-adv-x="1150" d="M74 0l323 571l-270 508h315l140 -256l137 256h330l-281 -508l309 -571h-336l-159 285l-158 -285h-350z" />
<glyph unicode="y" d="M100 1079h349l151 -571l148 571h337q-233 -735 -309 -977q-20 -64 -43 -122t-62.5 -129t-83.5 -121.5t-107 -85.5t-132 -35q-53 0 -112.5 17.5t-93.5 34.5l-33 17l108 254q48 -26 109 -26q76 0 108 184z" />
<glyph unicode="z" horiz-adv-x="1048" d="M113 0v281l432 524h-395v272h776v-270l-428 -526h438v-281h-823z" />
<glyph unicode="{" horiz-adv-x="970" d="M92 672l254 213v477q0 149 90.5 239.5t239.5 90.5h203v-306h-48q-65 0 -104 -39t-39 -104v-440l-168 -131l168 -133v-441q0 -64 39 -103.5t104 -39.5h48v-305h-203q-149 0 -239.5 90.5t-90.5 239.5v481z" />
<glyph unicode="|" horiz-adv-x="428" d="M43 -346v2064h342v-2064h-342z" />
<glyph unicode="}" horiz-adv-x="970" d="M92 -43h47q65 0 104.5 39.5t39.5 103.5v441l168 133l-168 131v440q0 65 -39.5 104.5t-104.5 39.5h-47v305h203q149 0 239.5 -90.5t90.5 -239.5v-477l254 -213l-254 -211v-481q0 -149 -90.5 -239.5t-239.5 -90.5h-203v305z" />
<glyph unicode="~" horiz-adv-x="1181" d="M176 389q49 97 117 154t153 57q46 0 114 -27.5t95 -27.5q34 0 64.5 17.5t42.5 43.5l217 -119q-46 -84 -117.5 -141t-150.5 -57q-45 0 -117 30.5t-102 30.5q-35 0 -69 -21.5t-48 -49.5z" />
<glyph unicode="&#xa1;" horiz-adv-x="737" d="M119 -231l114 1028h271l114 -1028h-499zM184 1098q0 73 54 124.5t131 51.5t131.5 -51.5t54.5 -124.5t-54.5 -125.5t-131.5 -52.5q-76 0 -130.5 52t-54.5 126z" />
<glyph unicode="&#xa2;" horiz-adv-x="1175" d="M80 614q0 124 30.5 227.5t80 172.5t117 120.5t135 79t141.5 39.5v158h194v-154q91 -12 173 -45.5t119 -60.5l36 -27l-135 -286q-4 4 -12 10t-34.5 22t-54 28t-68.5 22t-81 10q-136 0 -212.5 -85t-76.5 -231q0 -149 76 -232t213 -83q40 0 80.5 9.5t69.5 23t52.5 27 t35.5 23.5l12 9l135 -289q-5 -4 -14.5 -11.5t-42 -26.5t-68 -35t-91 -32.5t-112.5 -23.5v-176h-194v180q-61 10 -118 31.5t-115 55.5t-106 86t-85.5 117t-58.5 154t-21 193z" />
<glyph unicode="&#xa3;" horiz-adv-x="1218" d="M104 8v260h29q67 0 111.5 90.5t44.5 198.5h-150v188h152q-4 83 5.5 158t38 144t73.5 119t115.5 80t160.5 30q59 0 112.5 -12.5t88.5 -30t61.5 -35.5t38.5 -30l12 -13l-88 -186q-10 6 -27 15.5t-65 25.5t-90 16q-33 0 -59 -10t-42.5 -24.5t-28.5 -40t-17.5 -46t-8.5 -54.5 t-3.5 -53t-0.5 -53h189v-188h-189q0 -75 -34 -169t-66 -120h401v-260h-764z" />
<glyph unicode="&#xa4;" horiz-adv-x="1318" d="M92 180l156 152q-25 68 -25 164q0 84 25 161l-156 154l221 223l150 -151q84 35 162 35q87 0 166 -39l153 155l221 -223l-166 -164q23 -65 23 -151q0 -91 -23 -150l166 -166l-221 -217l-145 146q-85 -39 -174 -39q-81 0 -168 34l-144 -141zM444 496q0 -94 56 -140.5 t125 -46.5q67 0 120.5 46.5t53.5 140.5q0 47 -17 84.5t-43.5 58t-55.5 31t-58 10.5q-30 0 -60 -10.5t-58 -31t-45.5 -58t-17.5 -84.5z" />
<glyph unicode="&#xa5;" horiz-adv-x="1427" d="M135 1253h342l260 -419l260 419h342l-385 -661h224v-184h-271v-68h271v-184h-271v-156h-342v156h-268v184h268v68h-268v184h221z" />
<glyph unicode="&#xa6;" horiz-adv-x="774" d="M225 -367v791h342v-791h-342zM225 565v791h342v-791h-342z" />
<glyph unicode="&#xa7;" horiz-adv-x="1320" d="M100 -242l133 305q25 -13 65 -31.5t125.5 -49.5t127.5 -31q78 0 122 26t44 72q0 39 -60 68q-27 13 -86 33t-108 36.5t-105.5 50t-91.5 76.5q-73 87 -73 215q0 224 174 326q-39 67 -39 160q0 179 117.5 286t351.5 107q84 0 157.5 -13t118.5 -31.5t78.5 -37.5t46.5 -32 l14 -13l-108 -252q0 3 -35 21.5t-101 38.5t-130 20q-67 0 -111.5 -24.5t-44.5 -67.5q0 -15 6 -28t20.5 -24t29 -19t40 -17t44 -14.5t52 -15t52.5 -15.5q49 -16 85.5 -31t78.5 -41.5t68.5 -57.5t44.5 -79t18 -107q0 -106 -45 -193.5t-123 -148.5q32 -62 32 -143 q0 -83 -28 -156t-76.5 -126.5t-112.5 -92.5t-136 -58.5t-146 -19.5q-87 0 -169 13.5t-137 32.5t-97.5 37.5t-62.5 31.5zM547 530q0 -41 42.5 -67.5t96.5 -26.5q78 0 122 26.5t44 72.5q0 38 -42 63t-108 25q-67 0 -111 -25t-44 -68z" />
<glyph unicode="&#xa8;" horiz-adv-x="882" d="M127 1384q0 60 42 102t101 42q60 0 103 -42t43 -102q0 -61 -43 -103t-103 -42q-59 0 -101 42t-42 103zM512 1384q0 60 41.5 102t101.5 42t103 -42t43 -102q0 -61 -43 -103t-103 -42t-101.5 42t-41.5 103z" />
<glyph unicode="&#xa9;" horiz-adv-x="1902" d="M274 602q0 136 53 261t143 216t215.5 145t264.5 54q137 0 262 -53t215.5 -143t144.5 -215.5t54 -264.5t-54 -264.5t-145 -215.5t-216 -143t-261 -53q-135 0 -262 54q-189 79 -301.5 249t-112.5 373zM340 602q0 -165 82 -305.5t222.5 -222.5t305.5 -82t306 82t223 222.5 t82 305.5q0 166 -82 306.5t-223 222t-306 81.5t-305.5 -81.5t-222.5 -222t-82 -306.5zM584 604q0 83 24 152t63.5 114.5t91.5 77t106.5 45t109.5 13.5q52 0 99.5 -12.5t78.5 -31t54 -36.5t33 -30l11 -13l-77 -160q-6 7 -17 17.5t-51.5 28t-87.5 17.5q-87 0 -142 -54.5 t-55 -127.5q0 -70 51.5 -122t133.5 -52q45 0 87 17t61 34l20 17l77 -164q-5 -5 -13.5 -14.5t-37.5 -32.5t-61 -41t-80.5 -32.5t-97.5 -14.5q-50 0 -100.5 13.5t-101.5 45t-90.5 77t-64 115.5t-24.5 154z" />
<glyph unicode="&#xaa;" horiz-adv-x="757" d="M72 815q0 99 71.5 159t157.5 60q70 0 115 -22q-18 63 -103 63q-69 0 -149 -63l-68 153q49 49 115.5 76t136.5 27q112 0 193.5 -83.5t81.5 -242.5q0 -120 15.5 -156t68.5 -36l-78 -162q-121 0 -172 57q-54 -57 -156 -57q-104 0 -166.5 60t-62.5 167zM276 811q0 -23 20 -36 t48 -13q58 0 78 22v70q-23 23 -78 23q-23 0 -45.5 -18t-22.5 -48z" />
<glyph unicode="&#xab;" horiz-adv-x="1155" d="M47 463l223 428h340l-217 -428l217 -428h-340zM545 463l223 428h340l-217 -428l217 -428h-340z" />
<glyph unicode="&#xac;" horiz-adv-x="1251" d="M240 731v305h866v-594h-342v289h-524z" />
<glyph unicode="&#xad;" horiz-adv-x="1050" d="M92 410v305h866v-305h-866z" />
<glyph unicode="&#xae;" horiz-adv-x="1902" d="M281 602q0 182 89.5 337.5t245 247t340.5 91.5q137 0 262 -53t215.5 -143t144.5 -215.5t54 -264.5t-54 -264.5t-145 -215.5t-216 -143t-261 -53q-135 0 -262 54q-188 79 -300.5 249t-112.5 373zM340 602q0 -167 82.5 -309t224.5 -224.5t309 -82.5q125 0 239.5 49 t197 131.5t131.5 196.5t49 239t-49 238.5t-131.5 196t-197 131.5t-239.5 49t-239 -49t-196.5 -131.5t-131.5 -196t-49 -238.5zM705 285v657h303q95 0 157 -61t62 -156q0 -55 -24.5 -101.5t-67.5 -76.5l145 -262h-223l-111 225h-51v-225h-190zM895 670h88q55 0 55 55 q0 24 -16 38.5t-39 14.5h-88v-108z" />
<glyph unicode="&#xaf;" horiz-adv-x="1705" d="M475 1325v201h866v-201h-866z" />
<glyph unicode="&#xb0;" horiz-adv-x="880" d="M174 1038q0 110 77.5 186t190.5 76q111 0 189 -76t78 -186q0 -114 -78 -191t-189 -77q-113 0 -190.5 76.5t-77.5 191.5zM334 1038q0 -47 31.5 -78.5t74.5 -31.5q46 0 79.5 31.5t33.5 78.5q0 46 -33.5 78.5t-79.5 32.5q-43 0 -74.5 -32.5t-31.5 -78.5z" />
<glyph unicode="&#xb1;" horiz-adv-x="966" d="M47 16v306h866v-306h-866zM53 694v305h262v281h342v-281h263v-305h-263v-280h-342v280h-262z" />
<glyph unicode="&#xb2;" horiz-adv-x="573" d="M43 604v88q0 34 19.5 68.5t49 60.5t63.5 53.5t63.5 50t49 47t19.5 46.5q0 33 -21.5 50t-56.5 17q-25 0 -54 -11.5t-45 -22.5l-17 -11l-66 134q4 4 11 10t30.5 22.5t48.5 29t64.5 22.5t79.5 10q94 0 161.5 -55t67.5 -148q0 -80 -49.5 -145.5t-136.5 -126.5h206v-189h-487z " />
<glyph unicode="&#xb3;" horiz-adv-x="573" d="M43 664l57 151q88 -35 129 -35q16 0 33.5 2t37 11t19.5 24q0 22 -29 28.5t-110 6.5h-53v147l94 76h-147v178h413v-168l-79 -69q58 -24 90 -80t32 -119q0 -106 -78.5 -164.5t-189.5 -58.5q-119 0 -213 65z" />
<glyph unicode="&#xb4;" horiz-adv-x="743" d="M190 1268l97 258h315l-151 -258h-261z" />
<glyph unicode="&#xb6;" horiz-adv-x="1196" d="M82 1008q0 118 84 202t203 84h680v-196h-144v-1254h-207v1254h-125v-1254h-204v879q-119 0 -203 83.5t-84 201.5z" />
<glyph unicode="&#xb8;" horiz-adv-x="1705" d="M537 -242l194 371h201l-107 -395z" />
<glyph unicode="&#xb9;" horiz-adv-x="419" d="M37 1186l170 67h170v-649h-209v440l-98 -32z" />
<glyph unicode="&#xba;" horiz-adv-x="761" d="M68 926q0 89 31.5 158.5t81 109t104 59t108.5 19.5q55 0 109.5 -19.5t104.5 -59t81 -109t31 -158.5q0 -71 -20.5 -130.5t-53.5 -98t-76.5 -65.5t-87.5 -38.5t-88 -11.5q-43 0 -87 11.5t-87.5 38.5t-76.5 65.5t-53.5 98t-20.5 130.5zM299 926q0 -70 24 -109t70 -39 q94 0 94 148q0 145 -94 145q-48 0 -71 -42.5t-23 -102.5z" />
<glyph unicode="&#xbb;" horiz-adv-x="1155" d="M47 35l217 428l-217 428h340l223 -428l-223 -428h-340zM545 35l217 428l-217 428h340l223 -428l-223 -428h-340z" />
<glyph unicode="&#xbf;" horiz-adv-x="1013" d="M117 125q0 55 12 104.5t31.5 86.5t45.5 69t54.5 54.5t57 40.5t54.5 29t45.5 18.5t31.5 10.5l12 3v252h284v-457h-112q-55 0 -109.5 -47t-54.5 -103q0 -54 49.5 -91.5t114.5 -37.5q36 0 83 15t76 30l29 15l90 -250q-6 -4 -18 -10.5t-51 -23.5t-81 -30t-107 -23.5 t-130 -10.5q-187 0 -297 98.5t-110 257.5zM422 1096q0 73 53.5 124.5t130.5 51.5t132 -51.5t55 -124.5t-55 -125.5t-132 -52.5q-76 0 -130 52t-54 126z" />
<glyph unicode="&#xc0;" horiz-adv-x="1409" d="M104 0l355 1253h489l357 -1253h-342l-80 254h-357l-80 -254h-342zM451 1702h315l96 -258h-260zM604 563h201l-100 381z" />
<glyph unicode="&#xc1;" horiz-adv-x="1409" d="M104 0l355 1253h489l357 -1253h-342l-80 254h-357l-80 -254h-342zM498 1442l96 258h315l-151 -258h-260zM604 563h201l-100 381z" />
<glyph unicode="&#xc2;" horiz-adv-x="1409" d="M104 0l355 1253h489l357 -1253h-342l-80 254h-357l-80 -254h-342zM436 1427l121 275h295l121 -275h-201l-67 119l-64 -119h-205zM604 563h201l-100 381z" />
<glyph unicode="&#xc3;" horiz-adv-x="1409" d="M104 0l355 1253h489l357 -1253h-342l-80 254h-357l-80 -254h-342zM319 1571q27 73 101 126.5t170 53.5q40 0 116.5 -26.5t116.5 -26.5q47 0 69 13.5t36 41.5l217 -111q-27 -76 -85 -134t-134 -58q-70 0 -154 31.5t-117 31.5q-95 0 -137 -73zM604 563h201l-100 381z" />
<glyph unicode="&#xc4;" horiz-adv-x="1409" d="M104 0l355 1253h489l357 -1253h-342l-80 254h-357l-80 -254h-342zM367 1559q0 60 42 101.5t101 41.5q60 0 102.5 -41.5t42.5 -101.5q0 -61 -42.5 -103.5t-102.5 -42.5q-59 0 -101 42.5t-42 103.5zM604 563h201l-100 381zM752 1559q0 60 41.5 101.5t101.5 41.5 t102.5 -41.5t42.5 -101.5q0 -61 -42.5 -103.5t-102.5 -42.5t-101.5 42.5t-41.5 103.5z" />
<glyph unicode="&#xc5;" horiz-adv-x="1409" d="M104 0l355 1253h489l357 -1253h-342l-80 254h-357l-80 -254h-342zM524 1526q0 73 53 124.5t128 51.5q74 0 126 -51.5t52 -124.5q0 -76 -52 -128t-126 -52q-75 0 -128 52t-53 128zM604 563h201l-100 381zM633 1526q0 -30 20.5 -51t48.5 -21q30 0 52 21t22 51q0 29 -22 50 t-52 21q-28 0 -48.5 -21t-20.5 -50z" />
<glyph unicode="&#xc6;" horiz-adv-x="1812" d="M104 0l396 1253h1149v-327h-602v-140h471v-288h-471v-170h602v-328h-944v254h-179l-80 -254h-342zM604 563h101v381z" />
<glyph unicode="&#xc7;" horiz-adv-x="1277" d="M92 631q0 103 21 192t57 154t85.5 117.5t104 86t115 56t116.5 32t111 9.5q72 0 141 -14t116.5 -34t85 -40.5t55.5 -34.5l18 -14l-135 -287q-4 4 -12 10t-34.5 22t-54 28t-68.5 22t-81 10q-136 0 -212.5 -84.5t-76.5 -230.5q0 -149 76.5 -232.5t212.5 -83.5 q64 0 126.5 23.5t92.5 46.5l31 23l135 -289q-6 -5 -16 -12.5t-45.5 -28.5t-74 -38t-98.5 -33t-122 -21l-68 -252l-288 24l131 248q-69 18 -130 49t-120 83.5t-101 120t-68 163.5t-26 209z" />
<glyph unicode="&#xc8;" horiz-adv-x="1245" d="M137 0v1253h944v-327h-602v-146h471v-288h-471v-164h602v-328h-944zM416 1702h315l96 -258h-260z" />
<glyph unicode="&#xc9;" horiz-adv-x="1245" d="M137 0v1253h944v-327h-602v-146h471v-288h-471v-164h602v-328h-944zM416 1442l96 258h315l-151 -258h-260z" />
<glyph unicode="&#xca;" horiz-adv-x="1245" d="M137 0v1253h944v-327h-602v-146h471v-288h-471v-164h602v-328h-944zM354 1427l121 275h295l121 -275h-201l-67 119l-64 -119h-205z" />
<glyph unicode="&#xcb;" horiz-adv-x="1245" d="M137 0v1253h944v-327h-602v-146h471v-288h-471v-164h602v-328h-944zM285 1559q0 60 42 101.5t101 41.5q60 0 102.5 -41.5t42.5 -101.5q0 -61 -42.5 -103.5t-102.5 -42.5q-59 0 -101 42.5t-42 103.5zM670 1559q0 60 41.5 101.5t101.5 41.5t102.5 -41.5t42.5 -101.5 q0 -61 -42.5 -103.5t-102.5 -42.5t-101.5 42.5t-41.5 103.5z" />
<glyph unicode="&#xcc;" horiz-adv-x="641" d="M63 1702h316l96 -258h-260zM150 0v1253h342v-1253h-342z" />
<glyph unicode="&#xcd;" horiz-adv-x="641" d="M150 0v1253h342v-1253h-342zM176 1442l96 258h316l-152 -258h-260z" />
<glyph unicode="&#xce;" horiz-adv-x="641" d="M53 1427l121 275h295l121 -275h-201l-67 119l-64 -119h-205zM150 0v1253h342v-1253h-342z" />
<glyph unicode="&#xcf;" horiz-adv-x="641" d="M-16 1559q0 60 42 101.5t101 41.5q60 0 102.5 -41.5t42.5 -101.5q0 -61 -42.5 -103.5t-102.5 -42.5q-59 0 -101 42.5t-42 103.5zM150 0v1253h342v-1253h-342zM369 1559q0 60 41.5 101.5t101.5 41.5t102.5 -41.5t42.5 -101.5q0 -61 -42.5 -103.5t-102.5 -42.5t-101.5 42.5 t-41.5 103.5z" />
<glyph unicode="&#xd0;" horiz-adv-x="1591" d="M133 516v246h152v491h528q304 0 477.5 -157.5t173.5 -456.5q0 -150 -56 -273.5t-148.5 -202t-208 -121t-238.5 -42.5h-528v516h-152zM627 328h186q93 0 157.5 43.5t93 112t28.5 155.5q0 287 -279 287h-186v-164h159v-246h-159v-188z" />
<glyph unicode="&#xd1;" horiz-adv-x="1337" d="M137 0v1253h342l379 -641v641h342v-1253h-342l-379 618v-618h-342zM254 1571q27 73 100.5 126.5t169.5 53.5q40 0 117 -26.5t117 -26.5q47 0 68.5 13.5t35.5 41.5l217 -111q-27 -76 -85 -134t-134 -58q-70 0 -153.5 31.5t-116.5 31.5q-95 0 -137 -73z" />
<glyph unicode="&#xd2;" horiz-adv-x="1474" d="M129 627q0 103 21 192t57 154t85.5 117.5t104 86t115 56t116.5 32t111 9.5t110.5 -9t116 -31.5t115 -56t103.5 -85.5t84.5 -117t56.5 -154.5t21 -193.5q0 -144 -39 -258.5t-101 -185.5t-144 -118.5t-162 -66t-161 -18.5t-161 18.5t-163 66t-145 118.5t-101.5 185.5 t-39.5 258.5zM504 627q0 -166 59 -258.5t176 -92.5q232 0 232 351q0 52 -6.5 98.5t-23 92.5t-42 79t-66.5 53.5t-94 20.5t-94.5 -20.5t-67 -53.5t-42.5 -79t-24 -93t-7 -98zM530 1702h316l96 -258h-260z" />
<glyph unicode="&#xd3;" horiz-adv-x="1474" d="M129 627q0 103 21 192t57 154t85.5 117.5t104 86t115 56t116.5 32t111 9.5t110.5 -9t116 -31.5t115 -56t103.5 -85.5t84.5 -117t56.5 -154.5t21 -193.5q0 -144 -39 -258.5t-101 -185.5t-144 -118.5t-162 -66t-161 -18.5t-161 18.5t-163 66t-145 118.5t-101.5 185.5 t-39.5 258.5zM504 627q0 -166 59 -258.5t176 -92.5q232 0 232 351q0 52 -6.5 98.5t-23 92.5t-42 79t-66.5 53.5t-94 20.5t-94.5 -20.5t-67 -53.5t-42.5 -79t-24 -93t-7 -98zM530 1442l97 258h315l-151 -258h-261z" />
<glyph unicode="&#xd4;" horiz-adv-x="1474" d="M129 627q0 103 21 192t57 154t85.5 117.5t104 86t115 56t116.5 32t111 9.5t110.5 -9t116 -31.5t115 -56t103.5 -85.5t84.5 -117t56.5 -154.5t21 -193.5q0 -144 -39 -258.5t-101 -185.5t-144 -118.5t-162 -66t-161 -18.5t-161 18.5t-163 66t-145 118.5t-101.5 185.5 t-39.5 258.5zM469 1427l121 275h295l121 -275h-201l-68 119l-63 -119h-205zM504 627q0 -166 59 -258.5t176 -92.5q232 0 232 351q0 52 -6.5 98.5t-23 92.5t-42 79t-66.5 53.5t-94 20.5t-94.5 -20.5t-67 -53.5t-42.5 -79t-24 -93t-7 -98z" />
<glyph unicode="&#xd5;" horiz-adv-x="1474" d="M129 627q0 103 21 192t57 154t85.5 117.5t104 86t115 56t116.5 32t111 9.5t110.5 -9t116 -31.5t115 -56t103.5 -85.5t84.5 -117t56.5 -154.5t21 -193.5q0 -144 -39 -258.5t-101 -185.5t-144 -118.5t-162 -66t-161 -18.5t-161 18.5t-163 66t-145 118.5t-101.5 185.5 t-39.5 258.5zM352 1571q27 73 101 126.5t170 53.5q40 0 116.5 -26.5t116.5 -26.5q47 0 69 13.5t36 41.5l217 -111q-27 -76 -85 -134t-135 -58q-70 0 -153.5 31.5t-116.5 31.5q-95 0 -137 -73zM504 627q0 -166 59 -258.5t176 -92.5q232 0 232 351q0 52 -6.5 98.5t-23 92.5 t-42 79t-66.5 53.5t-94 20.5t-94.5 -20.5t-67 -53.5t-42.5 -79t-24 -93t-7 -98z" />
<glyph unicode="&#xd6;" horiz-adv-x="1474" d="M129 627q0 103 21 192t57 154t85.5 117.5t104 86t115 56t116.5 32t111 9.5t110.5 -9t116 -31.5t115 -56t103.5 -85.5t84.5 -117t56.5 -154.5t21 -193.5q0 -144 -39 -258.5t-101 -185.5t-144 -118.5t-162 -66t-161 -18.5t-161 18.5t-163 66t-145 118.5t-101.5 185.5 t-39.5 258.5zM399 1559q0 60 42.5 101.5t101.5 41.5q60 0 102.5 -41.5t42.5 -101.5q0 -61 -42.5 -103.5t-102.5 -42.5q-59 0 -101.5 42.5t-42.5 103.5zM504 627q0 -166 59 -258.5t176 -92.5q232 0 232 351q0 52 -6.5 98.5t-23 92.5t-42 79t-66.5 53.5t-94 20.5t-94.5 -20.5 t-67 -53.5t-42.5 -79t-24 -93t-7 -98zM784 1559q0 60 42 101.5t102 41.5t102.5 -41.5t42.5 -101.5q0 -61 -42.5 -103.5t-102.5 -42.5t-102 42.5t-42 103.5z" />
<glyph unicode="&#xd7;" horiz-adv-x="1249" d="M217 846l215 213l205 -205l199 199l223 -222l-201 -198l186 -187l-215 -213l-184 185l-201 -199l-221 221l201 199z" />
<glyph unicode="&#xd8;" horiz-adv-x="1351" d="M78 631q0 103 21 192t57 154t85.5 117.5t104 86t115 56t116.5 32t111 9.5q58 0 123 -12l49 145h193l-70 -203q66 -34 120 -83t98 -118t68.5 -165t24.5 -211q0 -144 -39 -258.5t-100.5 -185.5t-143.5 -118.5t-162 -66t-161 -18.5q-60 0 -127 12l-45 -127h-190l65 184 q-67 34 -121.5 83.5t-98.5 119t-68.5 165.5t-24.5 210zM453 631q0 -157 53 -246l205 590h-23q-53 0 -94.5 -20.5t-67 -53.5t-42.5 -79t-24 -93t-7 -98zM662 283q8 -2 26 -2q232 0 232 350q0 153 -54 243z" />
<glyph unicode="&#xd9;" horiz-adv-x="1316" d="M145 516v737h334v-737q0 -103 49 -158t131 -55q81 0 130 55t49 158v737h333v-737q0 -113 -30 -208.5t-90.5 -169.5t-160.5 -116t-231 -42q-136 0 -237.5 41.5t-160.5 116.5t-87.5 169t-28.5 209zM416 1702h315l96 -258h-260z" />
<glyph unicode="&#xda;" horiz-adv-x="1316" d="M145 516v737h334v-737q0 -103 49 -158t131 -55q81 0 130 55t49 158v737h333v-737q0 -113 -30 -208.5t-90.5 -169.5t-160.5 -116t-231 -42q-136 0 -237.5 41.5t-160.5 116.5t-87.5 169t-28.5 209zM453 1442l96 258h315l-151 -258h-260z" />
<glyph unicode="&#xdb;" horiz-adv-x="1316" d="M145 516v737h334v-737q0 -103 49 -158t131 -55q81 0 130 55t49 158v737h333v-737q0 -113 -30 -208.5t-90.5 -169.5t-160.5 -116t-231 -42q-136 0 -237.5 41.5t-160.5 116.5t-87.5 169t-28.5 209zM389 1427l121 275h295l121 -275h-201l-68 119l-63 -119h-205z" />
<glyph unicode="&#xdc;" horiz-adv-x="1316" d="M145 516v737h334v-737q0 -103 49 -158t131 -55q81 0 130 55t49 158v737h333v-737q0 -113 -30 -208.5t-90.5 -169.5t-160.5 -116t-231 -42q-136 0 -237.5 41.5t-160.5 116.5t-87.5 169t-28.5 209zM322 1559q0 60 42 101.5t101 41.5q60 0 102.5 -41.5t42.5 -101.5 q0 -61 -42.5 -103.5t-102.5 -42.5q-59 0 -101 42.5t-42 103.5zM707 1559q0 60 41.5 101.5t101.5 41.5t102.5 -41.5t42.5 -101.5q0 -61 -42.5 -103.5t-102.5 -42.5t-101.5 42.5t-41.5 103.5z" />
<glyph unicode="&#xdd;" horiz-adv-x="1413" d="M104 1253h342l261 -442l260 442h342l-432 -743v-510h-342v510zM578 1442l96 258h315l-151 -258h-260z" />
<glyph unicode="&#xde;" horiz-adv-x="1234" d="M139 0v1360h324v-225h276q175 0 292.5 -132.5t117.5 -320.5q0 -118 -57 -221.5t-151.5 -164t-201.5 -60.5h-276v-236h-324zM463 563h235q59 0 91 32.5t32 86.5t-36 89.5t-87 35.5h-235v-244z" />
<glyph unicode="&#xdf;" horiz-adv-x="1353" d="M223 0v813q0 96 24 173.5t66 130t101.5 88t128.5 51.5t149 16q194 0 323.5 -78.5t129.5 -212.5q0 -46 -17.5 -95.5t-38 -85t-38 -79t-17.5 -78.5q0 -32 24 -62t58 -56t68 -55t58 -73.5t24 -97.5q0 -127 -115 -223t-277 -96q-69 0 -135.5 18.5t-98.5 37.5l-32 19l92 230 q0 -2 19.5 -11t51 -18.5t56.5 -9.5q45 0 73 30t28 68q0 35 -28 63.5t-68 49.5t-79.5 44t-67.5 58t-28 80q0 34 17 64t41 52.5t48 44.5t41 51.5t17 63.5q0 46 -32.5 71.5t-94.5 25.5q-70 0 -110.5 -49t-40.5 -144v-819h-320z" />
<glyph unicode="&#xe0;" d="M74 543q0 158 43 283t136 203t225 78q48 0 93.5 -13.5t75.5 -32.5t53 -38t34 -33l10 -13v102h314v-460q0 -173 12 -255.5t38 -110.5t81 -28l-86 -243q-70 0 -119 10t-83.5 33.5t-54.5 47.5t-47 67q-5 -6 -14 -17t-39.5 -38t-64.5 -48t-87.5 -38t-109.5 -17 q-126 0 -221 81t-142 207t-47 273zM332 1512h315l97 -258h-261zM420 547q0 -111 44 -175.5t133 -64.5q68 0 107.5 36t39.5 69v243q0 37 -40 90.5t-107 53.5q-81 0 -129 -75.5t-48 -176.5z" />
<glyph unicode="&#xe1;" d="M74 543q0 158 43 283t136 203t225 78q48 0 93.5 -13.5t75.5 -32.5t53 -38t34 -33l10 -13v102h314v-460q0 -173 12 -255.5t38 -110.5t81 -28l-86 -243q-70 0 -119 10t-83.5 33.5t-54.5 47.5t-47 67q-5 -6 -14 -17t-39.5 -38t-64.5 -48t-87.5 -38t-109.5 -17 q-126 0 -221 81t-142 207t-47 273zM420 547q0 -111 44 -175.5t133 -64.5q68 0 107.5 36t39.5 69v243q0 37 -40 90.5t-107 53.5q-81 0 -129 -75.5t-48 -176.5zM485 1268l96 258h316l-152 -258h-260z" />
<glyph unicode="&#xe2;" d="M74 543q0 158 43 283t136 203t225 78q48 0 93.5 -13.5t75.5 -32.5t53 -38t34 -33l10 -13v102h314v-460q0 -173 12 -255.5t38 -110.5t81 -28l-86 -243q-70 0 -119 10t-83.5 33.5t-54.5 47.5t-47 67q-5 -6 -14 -17t-39.5 -38t-64.5 -48t-87.5 -38t-109.5 -17 q-126 0 -221 81t-142 207t-47 273zM371 1253l121 275h295l121 -275h-201l-67 119l-64 -119h-205zM420 547q0 -111 44 -175.5t133 -64.5q68 0 107.5 36t39.5 69v243q0 37 -40 90.5t-107 53.5q-81 0 -129 -75.5t-48 -176.5z" />
<glyph unicode="&#xe3;" d="M74 543q0 158 43 283t136 203t225 78q48 0 93.5 -13.5t75.5 -32.5t53 -38t34 -33l10 -13v102h314v-460q0 -173 12 -255.5t38 -110.5t81 -28l-86 -243q-70 0 -119 10t-83.5 33.5t-54.5 47.5t-47 67q-5 -6 -14 -17t-39.5 -38t-64.5 -48t-87.5 -38t-109.5 -17 q-126 0 -221 81t-142 207t-47 273zM227 1403q27 73 100.5 126.5t169.5 53.5q40 0 117 -26.5t117 -26.5q47 0 68.5 13.5t35.5 41.5l217 -110q-27 -77 -85 -135t-134 -58q-70 0 -153.5 32t-116.5 32q-94 0 -137 -74zM420 547q0 -111 44 -175.5t133 -64.5q68 0 107.5 36 t39.5 69v243q0 37 -40 90.5t-107 53.5q-81 0 -129 -75.5t-48 -176.5z" />
<glyph unicode="&#xe4;" d="M74 543q0 158 43 283t136 203t225 78q48 0 93.5 -13.5t75.5 -32.5t53 -38t34 -33l10 -13v102h314v-460q0 -173 12 -255.5t38 -110.5t81 -28l-86 -243q-70 0 -119 10t-83.5 33.5t-54.5 47.5t-47 67q-5 -6 -14 -17t-39.5 -38t-64.5 -48t-87.5 -38t-109.5 -17 q-126 0 -221 81t-142 207t-47 273zM303 1384q0 60 42 102t101 42q60 0 103 -42t43 -102q0 -61 -43 -103t-103 -42q-59 0 -101 42t-42 103zM420 547q0 -111 44 -175.5t133 -64.5q68 0 107.5 36t39.5 69v243q0 37 -40 90.5t-107 53.5q-81 0 -129 -75.5t-48 -176.5zM688 1384 q0 60 41.5 102t101.5 42t103 -42t43 -102q0 -61 -43 -103t-103 -42t-101.5 42t-41.5 103z" />
<glyph unicode="&#xe5;" d="M74 543q0 158 43 283t136 203t225 78q48 0 93.5 -13.5t75.5 -32.5t53 -38t34 -33l10 -13v102h314v-460q0 -173 12 -255.5t38 -110.5t81 -28l-86 -243q-70 0 -119 10t-83.5 33.5t-54.5 47.5t-47 67q-5 -6 -14 -17t-39.5 -38t-64.5 -48t-87.5 -38t-109.5 -17 q-126 0 -221 81t-142 207t-47 273zM420 547q0 -111 44 -175.5t133 -64.5q68 0 107.5 36t39.5 69v243q0 37 -40 90.5t-107 53.5q-81 0 -129 -75.5t-48 -176.5zM461 1403q0 73 52.5 124.5t127.5 51.5q74 0 126 -51.5t52 -124.5q0 -76 -52 -128t-126 -52q-75 0 -127.5 52 t-52.5 128zM569 1403q0 -30 21 -51t49 -21q30 0 51.5 21t21.5 51q0 29 -22 50.5t-51 21.5q-28 0 -49 -21.5t-21 -50.5z" />
<glyph unicode="&#xe6;" horiz-adv-x="1763" d="M100 350q0 82 34 152t89 114t120 68.5t130 24.5q96 0 189 -41l26 -13q-11 76 -55.5 115t-138.5 39q-114 0 -244 -96l-105 227q77 77 184 119.5t222 42.5q185 0 311 -129q136 127 340 127q91 0 172.5 -33t142.5 -92.5t96.5 -148.5t35.5 -195l-2 -8v-160h-621 q0 -97 63 -147t144 -50q53 0 102 13.5t82 33t58.5 39.5t36.5 34l12 13l118 -243q-5 -7 -15 -19t-47.5 -42.5t-82 -53.5t-121 -42t-162.5 -19q-110 0 -203 39.5t-137 101.5q-49 -56 -165.5 -98.5t-233.5 -42.5q-172 0 -273.5 99t-101.5 271zM414 348q0 -52 38.5 -79t90.5 -27 q105 0 149 55v129q-42 47 -149 47q-41 0 -85 -35.5t-44 -89.5zM1040 700h310q0 64 -48.5 103t-109.5 39q-51 0 -101.5 -38.5t-50.5 -103.5z" />
<glyph unicode="&#xe7;" horiz-adv-x="1175" d="M117 539q0 116 33.5 211.5t88 158.5t127 106t148 62t152.5 19q72 0 138.5 -17.5t109.5 -42.5t75.5 -50t46.5 -42l15 -18l-109 -224q-3 4 -8.5 10t-25.5 21t-43 27t-60 21.5t-78 9.5q-123 0 -198.5 -75t-75.5 -177q0 -98 71 -170t185 -72q63 0 121 23.5t85 47.5l27 23 l109 -227q-5 -5 -13.5 -14.5t-37.5 -34.5t-61 -46.5t-81.5 -45t-99.5 -35.5l-70 -258l-289 24l125 236q-79 19 -148.5 60.5t-129 106.5t-94.5 163.5t-35 218.5z" />
<glyph unicode="&#xe8;" d="M115 541q0 129 39.5 235.5t107 176.5t158 108.5t192.5 38.5q197 0 328 -128.5t131 -340.5l-2 -168h-620q0 -67 33.5 -113t82 -65t107.5 -19q48 0 94 13.5t77 33t55.5 39.5t35.5 34l12 13l119 -243q-5 -7 -14.5 -19t-45.5 -42.5t-78 -53.5t-112.5 -42t-148.5 -19 q-163 0 -290.5 77t-194 204t-66.5 280zM375 1528h315l96 -258h-260zM463 700h309q0 62 -50.5 98t-107.5 36q-61 0 -106 -42.5t-45 -91.5z" />
<glyph unicode="&#xe9;" d="M115 541q0 129 39.5 235.5t107.5 176.5t158.5 108.5t193.5 38.5q195 0 326 -128.5t131 -340.5l-2 -168h-620q0 -67 33.5 -113t82 -65t107.5 -19q48 0 94 13.5t77 33t55.5 39.5t35.5 34l12 13l119 -243q-5 -7 -14.5 -19t-45.5 -42.5t-78 -53.5t-112.5 -42t-148.5 -19 q-163 0 -290.5 77t-194 204t-66.5 280zM463 700h309q0 62 -50.5 98t-107.5 36q-61 0 -106 -42.5t-45 -91.5zM522 1268l96 258h316l-152 -258h-260z" />
<glyph unicode="&#xea;" d="M115 541q0 129 39.5 235.5t107 176.5t158 108.5t192.5 38.5q197 0 328 -128.5t131 -340.5l-2 -168h-620q0 -67 33.5 -113t82 -65t107.5 -19q48 0 94 13.5t77 33t55.5 39.5t35.5 34l12 13l119 -243q-5 -7 -14.5 -19t-45.5 -42.5t-78 -53.5t-112.5 -42t-148.5 -19 q-163 0 -290.5 77t-194 204t-66.5 280zM340 1253l121 275h295l121 -275h-201l-68 119l-63 -119h-205zM463 700h309q0 62 -50.5 98t-107.5 36q-61 0 -106 -42.5t-45 -91.5z" />
<glyph unicode="&#xeb;" d="M115 541q0 129 39.5 235.5t107 176.5t158 108.5t192.5 38.5q197 0 328 -128.5t131 -340.5l-2 -168h-620q0 -67 33.5 -113t82 -65t107.5 -19q48 0 94 13.5t77 33t55.5 39.5t35.5 34l12 13l119 -243q-5 -7 -14.5 -19t-45.5 -42.5t-78 -53.5t-112.5 -42t-148.5 -19 q-163 0 -290.5 77t-194 204t-66.5 280zM270 1384q0 60 42.5 102t101.5 42q60 0 102.5 -42t42.5 -102q0 -61 -42.5 -103t-102.5 -42q-59 0 -101.5 42t-42.5 103zM463 700h309q0 62 -50.5 98t-107.5 36q-61 0 -106 -42.5t-45 -91.5zM655 1384q0 60 42 102t102 42t102.5 -42 t42.5 -102q0 -61 -42.5 -103t-102.5 -42t-102 42t-42 103z" />
<glyph unicode="&#xec;" horiz-adv-x="583" d="M33 1528h315l96 -258h-260zM147 0v1079h324v-1079h-324z" />
<glyph unicode="&#xed;" horiz-adv-x="600" d="M113 0v1079h323v-1079h-323zM156 1268l96 258h315l-151 -258h-260z" />
<glyph unicode="&#xee;" horiz-adv-x="602" d="M33 1253l121 275h295l120 -275h-180l-88 133l-88 -133h-180zM139 0v1079h324v-1079h-324z" />
<glyph unicode="&#xef;" horiz-adv-x="550" d="M-61 1384q0 60 42 102t101 42q60 0 102.5 -42t42.5 -102q0 -61 -42.5 -103t-102.5 -42q-59 0 -101 42t-42 103zM113 0v1079h323v-1079h-323zM324 1384q0 60 41.5 102t101.5 42t102.5 -42t42.5 -102q0 -61 -42.5 -103t-102.5 -42t-101.5 42t-41.5 103z" />
<glyph unicode="&#xf0;" horiz-adv-x="1040" d="M74 432q0 205 100 315.5t262 110.5h6l-69 133l-129 -86l-92 137l143 97l-143 272h335q17 -32 60 -102l123 82l92 -138l-125 -84q68 -107 108.5 -175t91.5 -167t76 -184t25 -158q0 -118 -28.5 -210t-72 -146.5t-103.5 -89t-115.5 -47t-114.5 -12.5q-57 0 -115 16t-115 52 t-101 87.5t-71.5 128.5t-27.5 168zM365 418q0 -52 13.5 -96.5t46 -75.5t79.5 -31q68 0 99.5 59.5t31.5 143.5q0 44 -4 76t-16.5 66t-40.5 52.5t-70 18.5q-139 0 -139 -213z" />
<glyph unicode="&#xf1;" horiz-adv-x="1138" d="M113 0v1079h325v-139q25 70 101 116t149 46q88 0 152 -31t100 -87.5t53 -126.5t17 -157v-700h-324v571q0 150 -121 150q-57 0 -92 -36t-35 -114v-571h-325zM152 1397q27 73 100.5 126.5t169.5 53.5q40 0 116.5 -26.5t116.5 -26.5q47 0 69 13.5t36 41.5l217 -111 q-27 -76 -85 -134t-134 -58q-70 0 -154 31.5t-117 31.5q-95 0 -137 -73z" />
<glyph unicode="&#xf2;" horiz-adv-x="1257" d="M96 524q0 116 34.5 212.5t89.5 159.5t126 107t142.5 63t140.5 19t140 -19t141.5 -63t124.5 -107t88 -159.5t34 -212.5t-33 -212.5t-86.5 -159.5t-123.5 -107t-142 -63t-143 -19t-143.5 19t-143 63t-125 107t-88 159.5t-33.5 212.5zM389 1528h316l96 -258h-260zM451 524 q0 -132 45 -206t133 -74q87 0 130.5 73.5t43.5 206.5q0 53 -8 98t-26.5 87t-54 66t-85.5 24q-48 0 -84 -24.5t-56 -65.5t-29 -87t-9 -98z" />
<glyph unicode="&#xf3;" horiz-adv-x="1257" d="M72 524q0 116 34.5 212.5t89 159.5t125.5 107t142.5 63t140.5 19t140 -19t141.5 -63t125 -107t88.5 -159.5t34 -212.5t-33 -212.5t-87 -159.5t-124 -107t-142 -63t-143 -19t-143 19t-143 63t-125 107t-87.5 159.5t-33.5 212.5zM426 524q0 -132 45 -206t133 -74 q87 0 130.5 73.5t43.5 206.5q0 53 -8 98t-26.5 87t-54 66t-85.5 24q-48 0 -84 -24.5t-56 -65.5t-29 -87t-9 -98zM465 1268l96 258h316l-152 -258h-260z" />
<glyph unicode="&#xf4;" horiz-adv-x="1257" d="M96 524q0 116 34.5 212.5t89.5 159.5t126 107t142.5 63t140.5 19t140 -19t141.5 -63t124.5 -107t88 -159.5t34 -212.5t-33 -212.5t-86.5 -159.5t-123.5 -107t-142 -63t-143 -19t-143.5 19t-143 63t-125 107t-88 159.5t-33.5 212.5zM360 1253l121 275h295l121 -275h-201 l-67 119l-64 -119h-205zM451 524q0 -132 45 -206t133 -74q87 0 130.5 73.5t43.5 206.5q0 53 -8 98t-26.5 87t-54 66t-85.5 24q-48 0 -84 -24.5t-56 -65.5t-29 -87t-9 -98z" />
<glyph unicode="&#xf5;" horiz-adv-x="1257" d="M96 524q0 116 34.5 212.5t89.5 159.5t126 107t142.5 63t140.5 19t140 -19t141.5 -63t124.5 -107t88 -159.5t34 -212.5t-33 -212.5t-86.5 -159.5t-123.5 -107t-142 -63t-143 -19t-143.5 19t-143 63t-125 107t-88 159.5t-33.5 212.5zM246 1397q27 73 100.5 126.5 t169.5 53.5q40 0 117 -26.5t117 -26.5q47 0 68.5 13.5t35.5 41.5l217 -111q-27 -76 -85 -134t-134 -58q-70 0 -153.5 31.5t-116.5 31.5q-96 0 -138 -73zM451 524q0 -132 45 -206t133 -74q87 0 130.5 73.5t43.5 206.5q0 53 -8 98t-26.5 87t-54 66t-85.5 24q-48 0 -84 -24.5 t-56 -65.5t-29 -87t-9 -98z" />
<glyph unicode="&#xf6;" horiz-adv-x="1257" d="M96 524q0 116 34.5 212.5t89.5 159.5t126 107t142.5 63t140.5 19t140 -19t141.5 -63t124.5 -107t88 -159.5t34 -212.5t-33 -212.5t-86.5 -159.5t-123.5 -107t-142 -63t-143 -19t-143.5 19t-143 63t-125 107t-88 159.5t-33.5 212.5zM291 1384q0 60 42 102t101 42 q60 0 103 -42t43 -102q0 -61 -43 -103t-103 -42q-59 0 -101 42t-42 103zM451 524q0 -132 45 -206t133 -74q87 0 130.5 73.5t43.5 206.5q0 53 -8 98t-26.5 87t-54 66t-85.5 24q-48 0 -84 -24.5t-56 -65.5t-29 -87t-9 -98zM676 1384q0 60 41.5 102t101.5 42t103 -42t43 -102 q0 -61 -43 -103t-103 -42t-101.5 42t-41.5 103z" />
<glyph unicode="&#xf7;" horiz-adv-x="1212" d="M139 481v305h946v-305h-946zM438 152q0 74 52 126t126 52t126.5 -52.5t52.5 -125.5q0 -74 -52.5 -126.5t-126.5 -52.5q-73 0 -125.5 52.5t-52.5 126.5zM438 1061q0 73 52 125.5t126 52.5t126.5 -52.5t52.5 -125.5t-52.5 -125.5t-126.5 -52.5t-126 52.5t-52 125.5z" />
<glyph unicode="&#xf8;" horiz-adv-x="1257" d="M88 537q0 116 34.5 212.5t89.5 159.5t126 107t142.5 63t140.5 19q28 0 90 -8l84 292h110l-92 -321q69 -27 126.5 -70.5t106 -106.5t76 -152t27.5 -195q0 -116 -33 -212.5t-86.5 -160t-123.5 -107.5t-142 -63t-143 -19q-52 0 -115 13l-62 -219h-110l72 251 q-140 60 -229 189.5t-89 327.5zM442 537q0 -139 50 -213l139 487h-10q-64 0 -106 -43t-57.5 -101.5t-15.5 -129.5zM584 260q12 -4 37 -4q87 0 130.5 74t43.5 207q0 162 -66 231z" />
<glyph unicode="&#xf9;" horiz-adv-x="1140" d="M129 420v659h326v-598q0 -149 120 -149q58 0 94 35.5t36 113.5v598h323v-1079h-323v139q-25 -70 -101.5 -116t-150.5 -46q-88 0 -152.5 35t-101 97.5t-53.5 139.5t-17 171zM332 1528h315l96 -258h-260z" />
<glyph unicode="&#xfa;" horiz-adv-x="1140" d="M129 420v659h326v-598q0 -149 120 -149q58 0 94 35.5t36 113.5v598h323v-1079h-323v139q-25 -70 -101.5 -116t-150.5 -46q-88 0 -152.5 35t-101 97.5t-53.5 139.5t-17 171zM424 1268l96 258h316l-152 -258h-260z" />
<glyph unicode="&#xfb;" horiz-adv-x="1140" d="M129 420v659h326v-598q0 -149 120 -149q58 0 94 35.5t36 113.5v598h323v-1079h-323v139q-25 -70 -101.5 -116t-150.5 -46q-88 0 -152.5 35t-101 97.5t-53.5 139.5t-17 171zM324 1253l120 275h295l121 -275h-201l-67 119l-64 -119h-204z" />
<glyph unicode="&#xfc;" horiz-adv-x="1140" d="M129 420v659h326v-598q0 -149 120 -149q58 0 94 35.5t36 113.5v598h323v-1079h-323v139q-25 -70 -101.5 -116t-150.5 -46q-88 0 -152.5 35t-101 97.5t-53.5 139.5t-17 171zM256 1384q0 60 42 102t101 42q60 0 103 -42t43 -102q0 -61 -43 -103t-103 -42q-59 0 -101 42 t-42 103zM641 1384q0 60 41.5 102t101.5 42t103 -42t43 -102q0 -61 -43 -103t-103 -42t-101.5 42t-41.5 103z" />
<glyph unicode="&#xfd;" d="M100 1079h349l151 -571l148 571h337q-233 -735 -309 -977q-20 -64 -43 -122t-62.5 -129t-83.5 -121.5t-107 -85.5t-132 -35q-53 0 -112.5 17.5t-93.5 34.5l-33 17l108 254q48 -26 109 -26q76 0 108 184zM434 1268l96 258h316l-152 -258h-260z" />
<glyph unicode="&#xfe;" horiz-adv-x="1310" d="M225 -303v1737h318v-424q23 39 102 65.5t141 26.5q129 0 232.5 -76t160 -205t56.5 -286q0 -124 -40 -230.5t-105.5 -176t-147 -109t-164.5 -39.5q-53 0 -96.5 11.5t-68 27.5t-41.5 32t-23 27l-6 12v-90v-303h-318zM543 373q6 -8 17 -20.5t45 -33t69 -20.5q37 0 73.5 12.5 t71 38.5t55.5 75t21 114q0 116 -65 188t-156 72q-88 0 -131 -74v-352z" />
<glyph unicode="&#xff;" d="M100 1079h349l151 -571l148 571h337q-233 -735 -309 -977q-20 -64 -43 -122t-62.5 -129t-83.5 -121.5t-107 -85.5t-132 -35q-53 0 -112.5 17.5t-93.5 34.5l-33 17l108 254q48 -26 109 -26q76 0 108 184zM244 1384q0 60 42 102t101 42q60 0 102.5 -42t42.5 -102 q0 -61 -42.5 -103t-102.5 -42q-59 0 -101 42t-42 103zM629 1384q0 60 41.5 102t101.5 42t103 -42t43 -102q0 -61 -43 -103t-103 -42t-101.5 42t-41.5 103z" />
<glyph unicode="&#x152;" horiz-adv-x="2025" d="M141 627q0 143 40.5 258t104 185.5t146.5 118t162.5 66.5t157.5 19q133 0 252 -51v30h944v-327h-602v-140h471v-288h-471v-170h602v-328h-944v29q-118 -49 -252 -49q-81 0 -161.5 18.5t-163 66t-145 118.5t-102 185.5t-39.5 258.5zM516 627q0 -166 59.5 -258.5 t176.5 -92.5q231 0 231 351q0 52 -6.5 98.5t-23 92.5t-41.5 79t-66 53.5t-94 20.5q-65 0 -113 -30t-73.5 -82t-37.5 -109.5t-12 -122.5z" />
<glyph unicode="&#x153;" horiz-adv-x="1916" d="M96 524q0 116 34.5 212.5t89.5 159.5t126 107t142.5 63t140.5 19q88 0 180 -32t166 -96q138 143 346 143q197 0 328 -128.5t131 -340.5l-2 -168h-621q0 -67 33.5 -113t82 -65t107.5 -19q48 0 94 13.5t77.5 33t56 39.5t36.5 34l11 13l119 -243q-5 -7 -15 -19t-45.5 -42.5 t-78 -53.5t-113 -42t-148.5 -19q-219 0 -370 135q-76 -76 -176 -114t-199 -38q-71 0 -143.5 19t-143 63t-125 107t-88 159.5t-33.5 212.5zM451 524q0 -132 45 -206t133 -74q87 0 130.5 73.5t43.5 206.5q0 53 -8 98t-26.5 87t-54 66t-85.5 24q-48 0 -84 -24.5t-56 -65.5 t-29 -87t-9 -98zM1171 700h310q0 62 -50.5 98t-107.5 36q-61 0 -106.5 -42.5t-45.5 -91.5z" />
<glyph unicode="&#x178;" horiz-adv-x="1413" d="M104 1253h342l261 -442l260 442h342l-432 -743v-510h-342v510zM369 1559q0 60 42 101.5t101 41.5q60 0 102.5 -41.5t42.5 -101.5q0 -61 -42.5 -103.5t-102.5 -42.5q-59 0 -101 42.5t-42 103.5zM754 1559q0 60 41.5 101.5t101.5 41.5t102.5 -41.5t42.5 -101.5 q0 -61 -42.5 -103.5t-102.5 -42.5t-101.5 42.5t-41.5 103.5z" />
<glyph unicode="&#x2c6;" horiz-adv-x="1103" d="M287 1253l121 275h294l121 -275h-200l-68 119l-63 -119h-205z" />
<glyph unicode="&#x2dc;" horiz-adv-x="966" d="M82 1397q27 73 100.5 126.5t169.5 53.5q40 0 117 -26.5t117 -26.5q47 0 68.5 13.5t35.5 41.5l217 -111q-27 -76 -85 -134t-134 -58q-70 0 -153.5 31.5t-116.5 31.5q-95 0 -137 -73z" />
<glyph unicode="&#x2000;" horiz-adv-x="876" />
<glyph unicode="&#x2001;" horiz-adv-x="1753" />
<glyph unicode="&#x2002;" horiz-adv-x="876" />
<glyph unicode="&#x2003;" horiz-adv-x="1753" />
<glyph unicode="&#x2004;" horiz-adv-x="584" />
<glyph unicode="&#x2005;" horiz-adv-x="438" />
<glyph unicode="&#x2006;" horiz-adv-x="292" />
<glyph unicode="&#x2007;" horiz-adv-x="292" />
<glyph unicode="&#x2008;" horiz-adv-x="219" />
<glyph unicode="&#x2009;" horiz-adv-x="350" />
<glyph unicode="&#x200a;" horiz-adv-x="97" />
<glyph unicode="&#x2010;" horiz-adv-x="960" d="M47 410v305h866v-305h-866z" />
<glyph unicode="&#x2011;" horiz-adv-x="960" d="M47 410v305h866v-305h-866z" />
<glyph unicode="&#x2012;" horiz-adv-x="960" d="M47 410v305h866v-305h-866z" />
<glyph unicode="&#x2013;" horiz-adv-x="1136" d="M47 410v305h1043v-305h-1043z" />
<glyph unicode="&#x2014;" horiz-adv-x="1406" d="M47 410v305h1313v-305h-1313z" />
<glyph unicode="&#x2018;" horiz-adv-x="471" d="M47 1073q0 63 25 124.5t61 103.5t66 68.5t49 35.5l88 -125q-69 -48 -80 -88q76 0 122 -47.5t46 -128.5q0 -74 -59.5 -123t-128.5 -49q-83 0 -136 63t-53 166z" />
<glyph unicode="&#x2019;" horiz-adv-x="471" d="M47 1174q0 74 59.5 123t129.5 49q83 0 135.5 -63.5t52.5 -166.5q0 -63 -25 -124.5t-61 -103.5t-66 -68.5t-49 -35.5l-88 125q69 48 80 88q-76 0 -122 48t-46 129z" />
<glyph unicode="&#x201a;" horiz-adv-x="569" d="M47 291q0 94 75 155.5t163 61.5q104 0 170.5 -79.5t66.5 -209.5q0 -79 -31.5 -156t-76.5 -129.5t-82.5 -85.5t-61.5 -45l-112 156q35 25 64.5 56t35.5 55q-94 0 -152.5 60t-58.5 161z" />
<glyph unicode="&#x201c;" horiz-adv-x="1187" d="M47 1130q0 130 67 209.5t171 79.5q88 0 162.5 -61.5t74.5 -155.5q0 -101 -58.5 -161t-152.5 -60q11 -47 101 -111l-113 -155q-18 9 -46 30.5t-64.5 61t-67.5 86t-52.5 110t-21.5 127.5zM596 1130q0 130 67 209.5t171 79.5q88 0 162.5 -61.5t74.5 -155.5 q0 -101 -58.5 -161t-152.5 -60q11 -47 101 -111l-113 -155q-18 9 -46 30.5t-64.5 61t-67.5 86t-52.5 110t-21.5 127.5z" />
<glyph unicode="&#x201d;" horiz-adv-x="1118" d="M47 1198q0 94 75 155.5t163 61.5q104 0 170.5 -79.5t66.5 -209.5q0 -64 -21.5 -127.5t-52.5 -110t-67.5 -86t-64.5 -61t-46 -30.5l-112 155q35 25 64.5 56t35.5 55q-94 0 -152.5 60t-58.5 161zM596 1198q0 94 75 155.5t163 61.5q104 0 170.5 -79.5t66.5 -209.5 q0 -64 -21.5 -127.5t-52.5 -110t-67.5 -86t-64.5 -61t-46 -30.5l-112 155q35 25 64.5 56t35.5 55q-94 0 -152.5 60t-58.5 161z" />
<glyph unicode="&#x201e;" horiz-adv-x="1118" d="M47 291q0 94 75 155.5t163 61.5q104 0 170.5 -79.5t66.5 -209.5q0 -79 -31.5 -156t-76.5 -129.5t-82.5 -85.5t-61.5 -45l-112 156q35 25 64.5 56t35.5 55q-94 0 -152.5 60t-58.5 161zM596 291q0 94 75 155.5t163 61.5q104 0 170.5 -79.5t66.5 -209.5q0 -79 -31.5 -156 t-76.5 -129.5t-82.5 -85.5t-61.5 -45l-112 156q35 25 64.5 56t35.5 55q-94 0 -152.5 60t-58.5 161z" />
<glyph unicode="&#x2022;" horiz-adv-x="536" d="M47 635q0 92 64.5 157.5t156.5 65.5t156.5 -65.5t64.5 -157.5q0 -91 -64.5 -156t-156.5 -65t-156.5 65t-64.5 156z" />
<glyph unicode="&#x2026;" horiz-adv-x="1871" d="M47 201q0 92 64.5 157.5t156.5 65.5t156.5 -65.5t64.5 -157.5q0 -91 -64.5 -156t-156.5 -65t-156.5 65t-64.5 156zM715 201q0 92 64.5 157.5t156.5 65.5t156.5 -65.5t64.5 -157.5q0 -91 -64.5 -156t-156.5 -65t-156.5 65t-64.5 156zM1382 201q0 92 65 157.5t157 65.5 t156.5 -65.5t64.5 -157.5q0 -91 -64.5 -156t-156.5 -65t-157 65t-65 156z" />
<glyph unicode="&#x202f;" horiz-adv-x="350" />
<glyph unicode="&#x2039;" horiz-adv-x="657" d="M47 463l223 428h340l-217 -428l217 -428h-340z" />
<glyph unicode="&#x203a;" horiz-adv-x="657" d="M47 35l217 428l-217 428h340l223 -428l-223 -428h-340z" />
<glyph unicode="&#x2044;" horiz-adv-x="835" d="M4 -135l545 1569h282l-544 -1569h-283z" />
<glyph unicode="&#x205f;" horiz-adv-x="438" />
<glyph unicode="&#x2070;" horiz-adv-x="632" d="M43 938q0 33 5 70t23 86t46.5 87t80 64.5t119.5 26.5t119.5 -27t79.5 -65t46 -87t23 -86t5 -69t-5 -68.5t-23 -85t-46 -86t-79.5 -64t-119.5 -26.5t-119.5 26t-80 63.5t-46 86t-23 85t-5.5 69.5zM246 938q0 -154 71 -154q70 0 70 154q-1 22 -1.5 31.5t-3 32.5t-7 35.5 t-11.5 27.5t-19 22t-28 7q-71 0 -71 -156z" />
<glyph unicode="&#x2074;" horiz-adv-x="622" d="M43 743v140l215 370h244v-333h90v-177h-90v-139h-209v139h-250zM238 920h55v108z" />
<glyph unicode="&#x2075;" horiz-adv-x="575" d="M43 662l66 176q89 -54 149 -54q27 0 44 12t17 35q0 29 -34 39.5t-101 10.5h-90l12 372h379v-178h-211l-2 -22q260 0 260 -228q0 -99 -77.5 -165t-180.5 -66q-118 0 -225 63z" />
<glyph unicode="&#x2076;" horiz-adv-x="579" d="M35 817q0 43 14.5 90t29 76t45.5 83.5t42 74.5l65 112h213l-110 -223h2q81 0 130.5 -65t49.5 -148q0 -103 -66.5 -165t-175.5 -62t-174 62t-65 165zM227 817q0 -28 12.5 -44.5t34.5 -16.5t35 16.5t13 44.5q0 29 -12.5 46.5t-35.5 17.5t-35 -17.5t-12 -46.5z" />
<glyph unicode="&#x2077;" horiz-adv-x="534" d="M41 604l211 467h-203v182h443v-153l-216 -496h-235z" />
<glyph unicode="&#x2078;" horiz-adv-x="563" d="M43 811q0 102 82 162q-47 50 -47 119q0 83 58.5 131.5t144.5 48.5q87 0 146.5 -48.5t59.5 -131.5q0 -69 -47 -119q80 -57 80 -162q0 -96 -69 -153.5t-170 -57.5q-99 0 -168.5 57.5t-69.5 153.5zM229 819q0 -25 14.5 -40t39.5 -15t40 15t15 40t-15.5 41.5t-39.5 16.5 q-23 0 -38.5 -17.5t-15.5 -40.5zM248 1083q0 -17 10 -28t23 -11q17 0 26.5 10.5t9.5 28.5q0 14 -10 24.5t-26 10.5q-12 0 -22.5 -11t-10.5 -24z" />
<glyph unicode="&#x2079;" horiz-adv-x="567" d="M35 1040q0 103 66 165.5t175 62.5t174.5 -62.5t65.5 -165.5q0 -43 -14.5 -89.5t-29 -75.5t-45.5 -83t-42 -75l-66 -113h-213l111 223h-2q-81 0 -130.5 65t-49.5 148zM229 1040q0 -29 12 -46t35 -17t35.5 17.5t12.5 45.5t-13 45t-35 17t-34.5 -17t-12.5 -45z" />
<glyph unicode="&#x207d;" horiz-adv-x="370" d="M43 938q0 100 49 199t152 174l82 -115q-125 -97 -125 -258q0 -159 127 -252l-84 -119q-103 75 -152 173t-49 198z" />
<glyph unicode="&#x207e;" horiz-adv-x="370" d="M43 682q127 93 127 252q0 161 -125 258l82 115q103 -75 152 -174t49 -199t-49 -198t-152 -173z" />
<glyph unicode="&#x208d;" horiz-adv-x="370" d="M43 319q0 100 49 199t152 174l82 -114q-125 -97 -125 -259q0 -158 127 -251l-84 -119q-103 75 -152 172.5t-49 197.5z" />
<glyph unicode="&#x208e;" horiz-adv-x="370" d="M43 66q127 93 127 251q0 161 -125 258l82 115q103 -75 152 -174t49 -199t-49 -197.5t-152 -172.5z" />
<glyph unicode="&#x20ac;" horiz-adv-x="1402" d="M92 436v152h156v41v16h-156v152h172q22 104 72 188t111.5 136t136 87t143.5 49t137 13q72 -1 141 -16t116.5 -36t85 -41.5t55.5 -34.5l18 -14l-139 -286q-4 4 -12 10.5t-34 22.5t-53 28.5t-68 23t-81 11.5q-182 0 -256 -141h231v-152h-268v-20v-37h268v-152h-225 q71 -129 242 -129q40 -1 80.5 8t70 22t53.5 26t36 23l12 9l131 -289q-7 -5 -19 -14.5t-54 -32.5t-87.5 -40.5t-115.5 -31t-142 -12.5q-66 1 -133.5 15t-139.5 48.5t-132 85.5t-108.5 131.5t-70.5 180.5h-174z" />
<glyph unicode="&#x25fc;" horiz-adv-x="1075" d="M0 0v1075h1075v-1075h-1075z" />
<glyph unicode="&#xfb01;" horiz-adv-x="1476" d="M141 799v280h166q0 172 116.5 287t283.5 115q53 0 101 -8.5t79 -20.5t55 -24t34 -20l11 -9l-98 -207q-38 18 -83.5 20t-86 -10t-67.5 -44.5t-27 -78.5h618v-1079h-323v799h-297v-799h-316v799h-166z" />
<glyph unicode="&#xfb02;" horiz-adv-x="1583" d="M113 799v280h166q0 172 116 287t283 115q126 0 224 -47h304v-971q0 -106 16 -146.5t56 -40.5q20 0 41 8t32 16l11 7l115 -248q-115 -79 -281 -79q-169 0 -246.5 114.5t-77.5 360.5v344h-278v-799h-315v799h-166zM596 1079h276v139l-12 -26q-38 18 -83.5 20t-86 -10 t-67.5 -44.5t-27 -78.5z" />
<glyph unicode="&#xfb03;" horiz-adv-x="2041" d="M113 799v280h166q0 172 116 287t283 115q53 0 101 -8.5t79 -20.5t55 -24t35 -20l10 -9l-98 -207q-38 18 -83.5 20t-86 -10t-67.5 -44.5t-27 -78.5h297v-280h-299v-799h-315v799h-166zM895 799v280h166q0 172 116 287t283 115q53 0 101 -8.5t79.5 -20.5t55.5 -24t34 -20 l11 -9l-99 -207q-38 18 -83.5 20t-86 -10t-67.5 -44.5t-27 -78.5h297v-280h-299v-799h-315v799h-166zM1679 0v1079h324v-1079h-324z" />
<glyph unicode="&#xfb04;" horiz-adv-x="2498" d="M113 799v280h166q0 172 116 287t283 115q53 0 101 -8.5t79 -20.5t55 -24t35 -20l10 -9l-98 -207q-38 18 -83.5 20t-86 -10t-67.5 -44.5t-27 -78.5h295h2h164q0 172 116 287t283 115q126 0 224 -47h290v-971q0 -106 16 -146.5t56 -40.5q20 0 41 8t32 16l11 7l115 -248 q-115 -79 -281 -79q-169 0 -246.5 114.5t-77.5 360.5v344h-264v-799h-315v799h-164h-2h-297v-799h-315v799h-166zM1374 1079h262v114q-38 17 -83.5 19t-85.5 -10.5t-66.5 -44.5t-26.5 -78z" />
<glyph horiz-adv-x="1748" d="M92 543q0 123 35 222.5t89.5 160.5t126.5 102.5t140 57.5t135 16q118 0 226 -47v24h813v-282h-518v-119h405v-250h-405v-145h518v-283h-813v31q-101 -45 -226 -45q-70 0 -139 16t-140.5 56.5t-125 102t-87.5 160t-34 222.5zM416 543q0 -142 51 -221.5t151 -79.5 q199 0 199 301q0 57 -9.5 106t-30.5 94t-61.5 71t-97.5 26t-98 -26t-62.5 -71t-31.5 -94.5t-10 -105.5z" />
<glyph horiz-adv-x="1236" d="M92 0l342 1079h369l342 -1079h-314l-69 217h-287l-69 -217h-314zM350 1251l121 275h295l121 -275h-201l-68 119l-63 -119h-205zM545 492h147l-74 280z" />
<glyph horiz-adv-x="1236" d="M92 0l342 1079h369l342 -1079h-314l-69 217h-287l-69 -217h-314zM502 1268l96 258h315l-151 -258h-260zM545 492h147l-74 280z" />
<glyph horiz-adv-x="1236" d="M92 0l342 1079h369l342 -1079h-314l-69 217h-287l-69 -217h-314zM281 1397q0 60 42 101.5t101 41.5q60 0 102.5 -41.5t42.5 -101.5q0 -61 -42.5 -103.5t-102.5 -42.5q-59 0 -101 42.5t-42 103.5zM545 492h147l-74 280zM668 1397q0 60 41.5 101.5t101.5 41.5t102.5 -41.5 t42.5 -101.5q0 -61 -42.5 -103.5t-102.5 -42.5t-101.5 42.5t-41.5 103.5z" />
<glyph horiz-adv-x="1236" d="M92 0l342 1079h369l342 -1079h-314l-69 217h-287l-69 -217h-314zM440 1366q0 73 53 124.5t128 51.5q74 0 126 -51.5t52 -124.5q0 -76 -52 -128t-126 -52q-75 0 -128 52t-53 128zM545 492h147l-74 280zM547 1366q0 -32 20.5 -53t50.5 -21q31 0 53.5 21t22.5 53 q0 31 -22.5 52.5t-53.5 21.5q-29 0 -50 -21.5t-21 -52.5z" />
<glyph horiz-adv-x="1067" d="M92 543q0 123 35 221.5t89 160t126 102.5t140 57t136 16q61 0 120.5 -12t100.5 -29t73 -34.5t48 -29.5l15 -12l-115 -248q-10 9 -29 22.5t-75 35.5t-111 22q-118 0 -184 -73t-66 -199q0 -128 66 -199.5t184 -71.5q55 0 108.5 19.5t80.5 38.5l26 20l115 -248 q-5 -4 -13.5 -10.5t-37.5 -23.5t-61 -31.5t-81.5 -28.5t-100.5 -19l-69 -255l-288 24l132 252q-57 17 -107.5 44.5t-98.5 72.5t-82 102.5t-55 138t-21 175.5z" />
<glyph horiz-adv-x="997" d="M92 0v1079h813v-282h-518v-119h406v-250h-406v-145h518v-283h-813zM309 1270l97 258h315l-152 -258h-260z" />
<glyph horiz-adv-x="1099" d="M92 0v1079h295l326 -540v540h295v-1079h-295l-326 530v-530h-295zM172 1409q27 73 100.5 126.5t169.5 53.5q40 0 117 -26.5t117 -26.5q47 0 68.5 13.5t35.5 41.5l217 -110q-27 -77 -85 -135t-134 -58q-70 0 -153.5 32t-116.5 32q-94 0 -137 -74z" />
<glyph horiz-adv-x="1232" d="M92 539q0 123 35 222.5t89.5 160.5t126.5 102.5t140 57.5t135 16t135 -16t139 -57t125.5 -102t89 -160.5t34.5 -223.5t-33.5 -222.5t-87 -160t-124 -102t-139.5 -56.5t-139 -16t-139 16t-140.5 56.5t-125 102t-87.5 160t-34 222.5zM285 1397q0 60 42 101.5t101 41.5 q60 0 102.5 -41.5t42.5 -101.5q0 -61 -42.5 -103.5t-102.5 -42.5q-59 0 -101 42.5t-42 103.5zM416 539q0 -142 51 -221.5t151 -79.5q199 0 199 301q0 57 -9.5 106t-30.5 94t-61.5 71t-97.5 26t-98 -26t-62.5 -71t-31.5 -94.5t-10 -105.5zM670 1397q0 60 41.5 101.5 t101.5 41.5t102.5 -41.5t42.5 -101.5q0 -61 -42.5 -103.5t-102.5 -42.5t-101.5 42.5t-41.5 103.5z" />
<glyph horiz-adv-x="1069" d="M92 444v635h289v-635q0 -87 41.5 -128.5t114.5 -41.5q71 0 112 41.5t41 128.5v635h287v-635q0 -98 -26 -180t-77.5 -146t-137.5 -100t-199 -36q-118 0 -205.5 36t-139 100.5t-76 145.5t-24.5 180zM199 1397q0 60 42 101.5t101 41.5q60 0 102.5 -41.5t42.5 -101.5 q0 -61 -42.5 -103.5t-102.5 -42.5q-59 0 -101 42.5t-42 103.5zM584 1397q0 60 41.5 101.5t101.5 41.5t102.5 -41.5t42.5 -101.5q0 -61 -42.5 -103.5t-102.5 -42.5t-101.5 42.5t-41.5 103.5z" />
<glyph horiz-adv-x="1236" d="M92 0l342 1079h369l342 -1079h-314l-69 217h-287l-69 -217h-314zM332 1511h315l96 -258h-260zM545 492h147l-74 280z" />
<glyph horiz-adv-x="1236" d="M92 0l342 1079h369l342 -1079h-314l-69 217h-287l-69 -217h-314zM205 1419q27 73 100.5 126.5t169.5 53.5q40 0 117 -26.5t117 -26.5q47 0 68.5 14t35.5 42l217 -111q-27 -77 -85 -135t-134 -58q-70 0 -153.5 32t-116.5 32q-95 0 -138 -74zM545 492h147l-74 280z" />
<glyph horiz-adv-x="1232" d="M92 532q0 123 35 222.5t89.5 161t126.5 102.5t140 57.5t135 16.5t135 -16t139 -57t125.5 -102.5t89 -161t34.5 -223.5t-33.5 -222.5t-87 -160t-124 -102t-139.5 -56.5t-139 -16t-139 16t-140.5 56.5t-125 102t-87.5 160t-34 222.5zM205 1409q27 73 100.5 126.5 t169.5 53.5q40 0 117 -26.5t117 -26.5q47 0 68.5 13.5t35.5 41.5l217 -110q-27 -77 -85 -135t-134 -58q-70 0 -153.5 32t-116.5 32q-95 0 -138 -74zM416 532q0 -142 51 -221.5t151 -79.5q199 0 199 301q0 57 -9.5 106t-30.5 94t-61.5 71t-97.5 26t-98 -26t-62.5 -71 t-31.5 -94.5t-10 -105.5z" />
<glyph horiz-adv-x="1181" d="M72 1079h295l223 -362l225 362h295l-373 -641v-438h-295v438zM252 1399q0 60 42 101.5t101 41.5q60 0 103 -41.5t43 -101.5q0 -61 -43 -103.5t-103 -42.5q-59 0 -101 42.5t-42 103.5zM637 1399q0 60 41.5 101.5t101.5 41.5t103 -41.5t43 -101.5q0 -61 -43 -103.5 t-103 -42.5t-101.5 42.5t-41.5 103.5z" />
<glyph horiz-adv-x="997" d="M92 0v1079h813v-282h-518v-119h406v-250h-406v-145h518v-283h-813zM254 1251l121 275h295l121 -275h-201l-68 119l-63 -119h-205z" />
<glyph horiz-adv-x="997" d="M92 0v1079h813v-282h-518v-119h406v-250h-406v-145h518v-283h-813zM184 1397q0 60 42.5 101.5t101.5 41.5q60 0 102.5 -41.5t42.5 -101.5q0 -61 -42.5 -103.5t-102.5 -42.5q-59 0 -101.5 42.5t-42.5 103.5zM569 1397q0 60 42 101.5t102 41.5t102.5 -41.5t42.5 -101.5 q0 -61 -42.5 -103.5t-102.5 -42.5t-102 42.5t-42 103.5z" />
<glyph horiz-adv-x="997" d="M92 0v1079h813v-282h-518v-119h406v-250h-406v-145h518v-283h-813zM236 1536h315l96 -258h-260z" />
<glyph horiz-adv-x="587" d="M92 0v1079h295v-1079h-295zM123 1268l96 258h316l-152 -258h-260z" />
<glyph horiz-adv-x="720" d="M92 1251l121 275h295l121 -275h-201l-68 119l-63 -119h-205zM213 0v1079h295v-1079h-295z" />
<glyph horiz-adv-x="632" d="M-20 1397q0 60 42 101.5t101 41.5q60 0 102.5 -41.5t42.5 -101.5q0 -61 -42.5 -103.5t-102.5 -42.5q-59 0 -101 42.5t-42 103.5zM170 0v1079h295v-1079h-295zM365 1397q0 60 41.5 101.5t101.5 41.5t102.5 -41.5t42.5 -101.5q0 -61 -42.5 -103.5t-102.5 -42.5t-101.5 42.5 t-41.5 103.5z" />
<glyph horiz-adv-x="563" d="M53 1526h316l96 -258h-260zM176 0v1079h295v-1079h-295z" />
<glyph horiz-adv-x="1232" d="M92 539q0 123 35 222.5t89.5 160.5t126.5 102.5t140 57.5t135 16t135 -16t139 -57t125.5 -102t89 -160.5t34.5 -223.5t-33.5 -222.5t-87 -160t-124 -102t-139.5 -56.5t-139 -16t-139 16t-140.5 56.5t-125 102t-87.5 160t-34 222.5zM416 539q0 -142 51 -221.5t151 -79.5 q199 0 199 301q0 57 -9.5 106t-30.5 94t-61.5 71t-97.5 26t-98 -26t-62.5 -71t-31.5 -94.5t-10 -105.5zM463 1268l96 258h315l-151 -258h-260z" />
<glyph horiz-adv-x="1232" d="M92 539q0 123 35 222.5t89.5 160.5t126.5 102.5t140 57.5t135 16t135 -16t139 -57t125.5 -102t89 -160.5t34.5 -223.5t-33.5 -222.5t-87 -160t-124 -102t-139.5 -56.5t-139 -16t-139 16t-140.5 56.5t-125 102t-87.5 160t-34 222.5zM356 1204l121 275h295l121 -275h-201 l-67 119l-64 -119h-205zM416 539q0 -142 51 -221.5t151 -79.5q199 0 199 301q0 57 -9.5 106t-30.5 94t-61.5 71t-97.5 26t-98 -26t-62.5 -71t-31.5 -94.5t-10 -105.5z" />
<glyph horiz-adv-x="1232" d="M92 539q0 123 35 222.5t89.5 160.5t126.5 102.5t140 57.5t135 16t135 -16t139 -57t125.5 -102t89 -160.5t34.5 -223.5t-33.5 -222.5t-87 -160t-124 -102t-139.5 -56.5t-139 -16t-139 16t-140.5 56.5t-125 102t-87.5 160t-34 222.5zM356 1526h316l96 -258h-260zM416 539 q0 -142 51 -221.5t151 -79.5q199 0 199 301q0 57 -9.5 106t-30.5 94t-61.5 71t-97.5 26t-98 -26t-62.5 -71t-31.5 -94.5t-10 -105.5z" />
<glyph horiz-adv-x="1069" d="M92 444v635h289v-635q0 -87 41.5 -128.5t114.5 -41.5q71 0 112 41.5t41 128.5v635h287v-635q0 -98 -26 -180t-77.5 -146t-137.5 -100t-199 -36q-118 0 -205.5 36t-139 100.5t-76 145.5t-24.5 180zM266 1251l121 275h295l121 -275h-201l-67 119l-64 -119h-205z" />
<glyph horiz-adv-x="1069" d="M92 444v635h289v-635q0 -87 41.5 -128.5t114.5 -41.5q71 0 112 41.5t41 128.5v635h287v-635q0 -98 -26 -180t-77.5 -146t-137.5 -100t-199 -36q-118 0 -205.5 36t-139 100.5t-76 145.5t-24.5 180zM406 1268l96 258h315l-151 -258h-260z" />
<glyph horiz-adv-x="1069" d="M92 444v635h289v-635q0 -87 41.5 -128.5t114.5 -41.5q71 0 112 41.5t41 128.5v635h287v-635q0 -98 -26 -180t-77.5 -146t-137.5 -100t-199 -36q-118 0 -205.5 36t-139 100.5t-76 145.5t-24.5 180zM299 1526h315l97 -258h-260z" />
<glyph horiz-adv-x="1236" d="M92 0l342 1079h369l342 -1079h-314l-69 217h-287l-69 -217h-314zM545 492h147l-74 288z" />
<glyph horiz-adv-x="1058" d="M92 0v1079h432q158 0 256.5 -82t98.5 -235q0 -95 -74 -182q162 -60 162 -240q0 -159 -93 -249.5t-264 -90.5h-518zM385 231h168q51 0 80 31.5t29 79.5q0 44 -31.5 70t-77.5 26h-168v-207zM385 680h125q53 0 79.5 19t26.5 63q0 49 -30 70.5t-76 21.5h-125v-174z" />
<glyph horiz-adv-x="1067" d="M92 543q0 123 35 221.5t89 160t126 102.5t140 57t136 16q61 0 120.5 -12t100.5 -29t73 -34.5t48 -29.5l15 -12l-115 -248q-10 9 -29 22.5t-75 35.5t-111 22q-118 0 -184 -73t-66 -199q0 -128 66 -199.5t184 -71.5q55 0 108.5 19.5t80.5 38.5l26 20l115 -248 q-6 -5 -16.5 -12.5t-46 -27.5t-74.5 -35.5t-99 -28t-121 -12.5q-68 0 -136 16t-140 57t-126 102.5t-89 160t-35 221.5z" />
<glyph horiz-adv-x="1116" d="M92 0v1079h373q131 0 232 -31t175 -95.5t113 -169t39 -244.5q0 -111 -31.5 -202.5t-85 -153t-125.5 -103.5t-151.5 -61t-165.5 -19h-373zM387 283h78q118 0 179 76t61 192q0 246 -240 246h-78v-514z" />
<glyph horiz-adv-x="997" d="M92 0v1079h813v-282h-518v-119h406v-250h-406v-145h518v-283h-813z" />
<glyph horiz-adv-x="997" d="M92 0v1079h813v-282h-518v-109h356v-282h-356v-406h-295z" />
<glyph horiz-adv-x="1134" d="M92 537q0 107 31 198.5t84 156.5t124.5 111t152 68.5t165.5 22.5q77 0 145.5 -12t112 -29t75.5 -34.5t46 -29.5l14 -12l-114 -248q-4 3 -11 8.5t-29.5 19.5t-46.5 24.5t-59 19t-69 8.5q-123 0 -211 -75.5t-88 -196.5q0 -280 315 -273l21 2v316h292v-486q-7 -5 -20 -12.5 t-54.5 -27.5t-85 -35.5t-107.5 -28t-126 -12.5q-83 0 -161.5 19.5t-151 63t-126.5 107t-86 158t-32 209.5z" />
<glyph horiz-adv-x="1099" d="M92 0v1079h295v-362h326v362h295v-1079h-295v434h-326v-434h-295z" />
<glyph horiz-adv-x="479" d="M92 0v1079h295v-1079h-295z" />
<glyph horiz-adv-x="862" d="M92 100l121 248q9 -7 24.5 -18t58.5 -29t79 -18q60 0 81 43t21 118v635h293v-540q0 -104 -7.5 -181.5t-30 -151.5t-60 -121t-100 -75t-148.5 -28q-62 0 -119 12t-94 29.5t-65 35t-41 29.5z" />
<glyph horiz-adv-x="1118" d="M92 0v1079h295v-350l279 350h338l-349 -448l392 -631h-353l-307 489v-489h-295z" />
<glyph horiz-adv-x="786" d="M92 0v1079h295v-796h307v-283h-602z" />
<glyph horiz-adv-x="1320" d="M92 0v1079h262l308 -356l307 356h260v-1079h-289v664l-278 -345l-281 336v-655h-289z" />
<glyph horiz-adv-x="1099" d="M92 0v1079h295l326 -544v544h295v-1079h-295l-326 535v-535h-295z" />
<glyph horiz-adv-x="1232" d="M92 539q0 123 35 222.5t89.5 160.5t126.5 102.5t140 57.5t135 16t135 -16t139 -57t125.5 -102t89 -160.5t34.5 -223.5t-33.5 -222.5t-87 -160t-124 -102t-139.5 -56.5t-139 -16t-139 16t-140.5 56.5t-125 102t-87.5 160t-34 222.5zM416 539q0 -142 51 -221.5t151 -79.5 q199 0 199 301q0 57 -9.5 106t-30.5 94t-61.5 71t-97.5 26t-98 -26t-62.5 -71t-31.5 -94.5t-10 -105.5z" />
<glyph horiz-adv-x="1034" d="M92 0v1079h496q152 0 253 -113t101 -274q0 -157 -106 -272t-248 -115h-203v-305h-293zM385 588h168q52 0 80.5 28t28.5 76q0 46 -32.5 75.5t-76.5 29.5h-168v-209z" />
<glyph horiz-adv-x="1245" d="M92 543q0 123 35 222.5t89.5 160.5t126.5 102.5t140 57.5t135 16t135 -16t139 -57t125.5 -102t89 -160.5t34.5 -223.5q0 -188 -70.5 -309.5t-187.5 -184.5l270 -297h-401l-205 228q-65 9 -126.5 33t-122 69t-105.5 107t-73 153.5t-28 200.5zM430 543q0 -131 47.5 -206 t140.5 -75q185 0 185 281q0 53 -8.5 98.5t-28.5 87t-57.5 66t-90.5 24.5t-91 -24.5t-58.5 -66t-29.5 -87.5t-9 -98z" />
<glyph horiz-adv-x="1114" d="M92 0v1079h496q155 0 254.5 -97t99.5 -253q0 -97 -43 -174t-117 -121l240 -434h-342l-186 381h-109v-381h-293zM385 623h164q50 0 78 29t28 77q0 44 -31.5 73t-74.5 29h-164v-208z" />
<glyph horiz-adv-x="1032" d="M92 94l115 262q22 -11 56 -27t107 -42.5t109 -26.5q68 0 106 22t38 62q0 24 -25 42.5t-64.5 32.5t-87.5 29.5t-96.5 39.5t-88 56.5t-64.5 87t-25 124.5q0 155 101 247.5t302 92.5q72 0 135 -11.5t102.5 -28t68.5 -32.5t41 -28l12 -11l-94 -217q0 3 -30 19t-87.5 33.5 t-112.5 17.5q-57 0 -95 -21.5t-38 -58.5q0 -27 25.5 -46.5t66.5 -32.5t90 -26.5t98.5 -34t90.5 -49.5t66.5 -79.5t25.5 -116.5q0 -89 -37.5 -164.5t-98.5 -124t-137.5 -75.5t-156.5 -27q-75 0 -145.5 11.5t-118 28t-84 33t-53.5 27.5z" />
<glyph horiz-adv-x="1091" d="M92 805v274h602h305v-274h-305v-805h-295v805h-307z" />
<glyph horiz-adv-x="1069" d="M92 444v635h289v-635q0 -87 41.5 -128.5t114.5 -41.5q71 0 112 41.5t41 128.5v635h287v-635q0 -98 -26 -180t-77.5 -146t-137.5 -100t-199 -36q-118 0 -205.5 36t-139 100.5t-76 145.5t-24.5 180z" />
<glyph horiz-adv-x="1179" d="M72 1079h338l182 -567l180 567h336l-346 -1079h-344z" />
<glyph horiz-adv-x="1923" d="M72 1079h338l182 -610l205 578h329l209 -578l176 610h340l-346 -1079h-344l-200 580l-197 -580h-344z" />
<glyph horiz-adv-x="1179" d="M72 0l311 557l-287 522h295l199 -338l198 338h295l-288 -522l313 -557h-295l-223 338l-223 -338h-295z" />
<glyph horiz-adv-x="1181" d="M72 1079h295l223 -362l225 362h295l-373 -641v-438h-295v438z" />
<glyph horiz-adv-x="1071" d="M92 0v254l500 571h-473v254h860v-254l-487 -571h487v-254h-887z" />
<glyph horiz-adv-x="1118" d="M125 543q0 124 29.5 224t75.5 161.5t106.5 103t118.5 58t116 16.5q57 0 114.5 -16t118 -57t106 -102.5t75 -162t29.5 -225.5t-28.5 -224.5t-73.5 -161.5t-105 -103t-118 -57.5t-118 -16.5t-118.5 16.5t-118.5 57.5t-105.5 103t-74.5 161.5t-29 224.5zM430 543 q0 -264 141 -264q75 0 107.5 68t32.5 196q0 258 -140 258q-41 0 -70 -22.5t-44 -62t-21 -81.5t-6 -92z" />
<glyph horiz-adv-x="1087" d="M164 946l319 133h316v-774h227v-305h-825v305h256v445l-240 -82z" />
<glyph horiz-adv-x="1079" d="M88 0v111q0 69 27.5 127t71.5 99.5t97.5 77t107 66.5t97.5 61.5t71.5 68t27.5 79.5q0 44 -34 80.5t-105 36.5q-72 0 -148 -26t-102 -44l-101 236q6 5 18 14t55 31t92.5 39t130 31t167.5 14q165 0 272 -90t107 -242q0 -69 -21.5 -130t-60.5 -111t-74 -84.5t-84 -76 t-67 -59.5h362v-309h-907z" />
<glyph horiz-adv-x="1118" d="M72 -78l92 246q141 -59 239 -59q103 0 162.5 29t59.5 85q0 54 -63 82.5t-159 28.5h-167v246l266 213h-375v286h758v-286l-205 -177q6 -1 16.5 -4t41 -15t58 -29t61.5 -48.5t58.5 -70.5t41 -98t16.5 -128q0 -188 -139.5 -303t-366.5 -115q-96 0 -195 29.5t-150 58.5z" />
<glyph horiz-adv-x="1232" d="M113 111v237l417 731h433v-684h182v-284h-182v-285h-342v285h-508zM451 395h170v346z" />
<glyph horiz-adv-x="1075" d="M61 -78l105 283q17 -10 46.5 -24.5t104.5 -39t132 -24.5q65 0 115 34t50 103q0 31 -12.5 54.5t-38 38t-52.5 23.5t-66.5 13t-68 5t-69.5 1h-151l24 690h688v-286h-430l-2 -127q25 2 70 2q241 0 349 -111t108 -315q0 -180 -141.5 -308.5t-342.5 -128.5q-96 0 -200.5 29.5 t-160.5 58.5z" />
<glyph horiz-adv-x="1071" d="M49 391q0 61 13.5 125.5t30.5 116t54 126.5t62.5 122t77.5 137l129 235h334l-230 -471h4q81 0 149 -22t122.5 -67.5t85 -122.5t30.5 -179q0 -91 -27.5 -163.5t-71 -117.5t-101.5 -75.5t-114.5 -42.5t-113.5 -12q-59 0 -115.5 11.5t-115.5 41t-103 74.5t-72 118t-28 166z M350 391q0 -71 37.5 -114.5t95.5 -43.5q56 0 92.5 43.5t36.5 114.5q0 67 -32 116.5t-97 49.5t-99 -50t-34 -116z" />
<glyph horiz-adv-x="1019" d="M113 786v293h815v-276l-428 -977h-355l437 960h-469z" />
<glyph horiz-adv-x="1030" d="M41 371q0 219 192 329q-122 95 -122 248q0 69 22.5 125.5t59.5 94.5t86 63.5t100 37t104 11.5t104.5 -11.5t101 -37t86.5 -63.5t60 -94.5t23 -125.5q0 -157 -117 -248q187 -108 187 -329q0 -82 -27.5 -149.5t-72.5 -112t-104 -75t-119.5 -44t-121.5 -13.5t-121 13.5 t-118.5 44t-103 75t-72 112t-27.5 149.5zM336 389q0 -66 40.5 -109.5t108.5 -43.5t111 44t43 109q0 61 -41.5 110.5t-112.5 49.5q-63 0 -106 -49t-43 -111zM381 920q0 -47 29 -78t75 -31q47 0 78 31.5t31 77.5q0 41 -29.5 75.5t-79.5 34.5q-43 0 -73.5 -33.5t-30.5 -76.5z " />
<glyph horiz-adv-x="1136" d="M113 688q0 91 27.5 163.5t71 118t101.5 76t115 42.5t115 12t114.5 -11.5t115.5 -41t103.5 -74.5t72.5 -118.5t28 -166.5q0 -61 -14 -126t-30.5 -115t-55 -127.5t-62.5 -121t-78 -137.5l-129 -235h-348l229 471h-10q-65 0 -127.5 22.5t-117 67.5t-88 123t-33.5 178z M412 688q0 -67 33 -116.5t98 -49.5t98 49.5t33 116.5q0 71 -37 114.5t-94 43.5q-58 0 -94.5 -43.5t-36.5 -114.5z" />
<glyph horiz-adv-x="630" d="M88 1065v188h98v156h230v-156h178v-188h-178v-193q0 -92 37 -92q8 0 20.5 6t20.5 12l8 5l69 -158q-42 -31 -81 -47t-95 -16q-101 0 -155 64t-54 163v256h-98z" />
<glyph horiz-adv-x="872" d="M100 920q0 120 50 210q79 138 260 138q56 0 102 -27v221h227v-868h-227v18q-52 -30 -121 -30q-87 0 -155.5 53t-102 129t-33.5 156zM360 922q0 -57 23.5 -98.5t71.5 -41.5q13 0 35 13t22 18v207q0 8 -19.5 20.5t-37.5 12.5q-45 0 -70 -42t-25 -89z" />
<glyph horiz-adv-x="786" d="M94 596v868h236v-245q53 49 127 49q104 0 158.5 -72t54.5 -176v-424h-234v348q0 30 -11.5 53t-39.5 23q-55 0 -55 -76v-348h-236z" />
<glyph horiz-adv-x="729" d="M95 662l68 149q94 -55 164 -55q83 0 83 37q0 15 -28 34t-68.5 40t-81 47t-68.5 64.5t-28 82.5q0 31 12 63.5t38.5 67t80 56.5t125.5 22q49 0 92 -6.5t69 -16t45 -19t27 -16.5l8 -6l-59 -134q-76 34 -137 34q-89 0 -89 -45q0 -24 28.5 -46.5t69 -42.5t81.5 -43.5t69.5 -60 t28.5 -80.5q0 -76 -73 -140t-173 -64q-68 0 -139 19.5t-108 38.5z" />
<glyph horiz-adv-x="741" d="M68 594v659h233v-36q59 51 129 51q107 0 160 -72t53 -178v-424h-233v348q0 31 -12.5 54.5t-41.5 23.5q-28 0 -41.5 -24t-13.5 -54v-348h-233z" />
<glyph horiz-adv-x="669" d="M88 592v661h234v-36q53 49 129 49q101 0 129 -35l-107 -236q-40 31 -78 31q-40 0 -56.5 -31t-16.5 -73v-330h-234z" />
<glyph horiz-adv-x="745" d="M84 930q0 129 69.5 221t196.5 113v98h129v-100q48 -10 98 -37.5t78 -63.5l-69 -139q-20 27 -67 43t-87 16q-58 0 -98.5 -46.5t-40.5 -104.5t40.5 -100t98.5 -42q38 0 83.5 16.5t70.5 41.5l69 -141q-32 -37 -81 -67t-95 -42v-96h-129v92q-126 24 -196 116.5t-70 221.5z " />
<glyph horiz-adv-x="688" d="M82 590v168h43q25 0 38 33.5t13 68.5h-94v125h96q-10 112 49.5 197.5t171.5 85.5q63 0 129.5 -25t96.5 -72l-58 -120q-24 24 -62.5 39.5t-74.5 15.5q-72 0 -72 -121h119v-125h-119q0 -66 -36 -102h247v-168h-487z" />
<glyph horiz-adv-x="729" d="M8 748l98 96q-14 38 -14 102q0 55 14 101l-98 96l144 145l94 -96q55 20 102 20q54 0 103 -22l98 98l143 -145l-106 -103q14 -43 14 -94q0 -58 -14 -94l106 -104l-143 -142l-94 92q-52 -22 -107 -22q-48 0 -106 20l-90 -90zM236 946q0 -50 31 -82.5t81 -32.5q48 0 76.5 33 t28.5 82q0 46 -29.5 79.5t-75.5 33.5q-49 0 -80.5 -33t-31.5 -80z" />
<glyph horiz-adv-x="727" d="M37 649l69 168q4 -2 33 -17t44.5 -22t43.5 -14.5t52 -7.5q86 6 86 47q0 17 -20.5 30.5t-51.5 22.5t-66.5 25t-66.5 35.5t-51.5 56t-20.5 84.5q0 75 38.5 126.5t111.5 73.5v86h168v-81q38 -5 82 -22t67 -40l-53 -145q-15 15 -61 33t-85 18q-30 0 -55 -11.5t-25 -37.5 q0 -17 21.5 -29.5t53.5 -20t69.5 -21t69.5 -31t53.5 -52t21.5 -82.5q0 -73 -44.5 -132.5t-114.5 -84.5v-90h-168v70q-123 8 -201 65z" />
<glyph horiz-adv-x="798" d="M68 1255h178l135 -221l137 221h178l-200 -346h116v-96h-141v-37h141v-94h-141v-82h-178v82h-139v94h139v37h-139v96h114z" />
<glyph horiz-adv-x="739" d="M47 807v100h94v37h-94v98h109q16 64 51.5 111.5t81 73.5t91.5 38.5t91 12.5q61 0 116.5 -18.5t80.5 -37.5l26 -18l-73 -155q-7 5 -18.5 13.5t-46.5 22t-69 13.5q-82 0 -125 -56h160v-98h-190v-14v-23h190v-100h-153q45 -45 118 -45q34 0 67.5 12t49.5 24l17 13l73 -158 q-10 -8 -28 -20t-76 -31.5t-119 -19.5t-120 19.5t-115 72.5t-80 133h-109z" />
<glyph horiz-adv-x="1411" d="M76 346q0 73 22.5 139t76.5 126t134 94q-35 84 -35 137q0 137 101.5 212.5t277.5 75.5q58 0 123 -13.5t103 -39.5v-2l-93 -196l-4 4q-21 24 -100 24q-47 0 -68.5 -29t-21.5 -69q0 -82 227 -350q31 82 31 203v4h248v-4q0 -243 -105 -404q104 -115 240 -254l4 -4h-379 q-39 36 -67 68q-127 -68 -289 -68q-189 0 -307.5 99.5t-118.5 246.5zM340 375q0 -52 48 -93.5t114 -41.5q64 0 119 18q-118 132 -193 242q-43 -17 -65.5 -51t-22.5 -74z" />
<glyph horiz-adv-x="1243" d="M74 543q0 158 43 283t136 203t225 78q48 0 93.5 -13.5t75.5 -32.5t53 -38t34 -33l10 -13v102h314v-460q0 -173 12 -255.5t38 -110.5t81 -28l-86 -243q-70 0 -119 10t-83.5 33.5t-54.5 47.5t-47 67q-5 -6 -14 -17t-39.5 -38t-64.5 -48t-87.5 -38t-109.5 -17 q-126 0 -221 81t-142 207t-47 273zM420 547q0 -111 44 -175.5t133 -64.5q68 0 107.5 36t39.5 69v243q0 37 -40 90.5t-107 53.5q-81 0 -129 -75.5t-48 -176.5z" />
<glyph d="M74 543q0 158 43 283t136 203t225 78q48 0 93.5 -13.5t75.5 -32.5t53 -38t34 -33l10 -13v102h314v-460q0 -173 12 -255.5t38 -110.5t81 -28l-86 -243q-70 0 -119 10t-83.5 33.5t-54.5 47.5t-47 67q-5 -6 -14 -17t-39.5 -38t-64.5 -48t-87.5 -38t-109.5 -17 q-126 0 -221 81t-142 207t-47 273zM420 547q0 -111 44 -175.5t133 -64.5q68 0 107.5 36t39.5 69v243q0 37 -40 90.5t-107 53.5q-81 0 -129 -75.5t-48 -176.5zM485 1268l96 258h316l-152 -258h-260z" />
<glyph d="M74 543q0 158 43 283t136 203t225 78q48 0 93.5 -13.5t75.5 -32.5t53 -38t34 -33l10 -13v102h314v-460q0 -173 12 -255.5t38 -110.5t81 -28l-86 -243q-70 0 -119 10t-83.5 33.5t-54.5 47.5t-47 67q-5 -6 -14 -17t-39.5 -38t-64.5 -48t-87.5 -38t-109.5 -17 q-126 0 -221 81t-142 207t-47 273zM371 1253l121 275h295l121 -275h-201l-67 119l-64 -119h-205zM420 547q0 -111 44 -175.5t133 -64.5q68 0 107.5 36t39.5 69v243q0 37 -40 90.5t-107 53.5q-81 0 -129 -75.5t-48 -176.5z" />
<glyph d="M74 543q0 158 43 283t136 203t225 78q48 0 93.5 -13.5t75.5 -32.5t53 -38t34 -33l10 -13v102h314v-460q0 -173 12 -255.5t38 -110.5t81 -28l-86 -243q-70 0 -119 10t-83.5 33.5t-54.5 47.5t-47 67q-5 -6 -14 -17t-39.5 -38t-64.5 -48t-87.5 -38t-109.5 -17 q-126 0 -221 81t-142 207t-47 273zM303 1384q0 60 42 102t101 42q60 0 103 -42t43 -102q0 -61 -43 -103t-103 -42q-59 0 -101 42t-42 103zM420 547q0 -111 44 -175.5t133 -64.5q68 0 107.5 36t39.5 69v243q0 37 -40 90.5t-107 53.5q-81 0 -129 -75.5t-48 -176.5zM688 1384 q0 60 41.5 102t101.5 42t103 -42t43 -102q0 -61 -43 -103t-103 -42t-101.5 42t-41.5 103z" />
<glyph d="M74 543q0 158 43 283t136 203t225 78q48 0 93.5 -13.5t75.5 -32.5t53 -38t34 -33l10 -13v102h314v-460q0 -173 12 -255.5t38 -110.5t81 -28l-86 -243q-70 0 -119 10t-83.5 33.5t-54.5 47.5t-47 67q-5 -6 -14 -17t-39.5 -38t-64.5 -48t-87.5 -38t-109.5 -17 q-126 0 -221 81t-142 207t-47 273zM332 1512h315l97 -258h-261zM420 547q0 -111 44 -175.5t133 -64.5q68 0 107.5 36t39.5 69v243q0 37 -40 90.5t-107 53.5q-81 0 -129 -75.5t-48 -176.5z" />
<glyph d="M74 543q0 158 43 283t136 203t225 78q48 0 93.5 -13.5t75.5 -32.5t53 -38t34 -33l10 -13v102h314v-460q0 -173 12 -255.5t38 -110.5t81 -28l-86 -243q-70 0 -119 10t-83.5 33.5t-54.5 47.5t-47 67q-5 -6 -14 -17t-39.5 -38t-64.5 -48t-87.5 -38t-109.5 -17 q-126 0 -221 81t-142 207t-47 273zM420 547q0 -111 44 -175.5t133 -64.5q68 0 107.5 36t39.5 69v243q0 37 -40 90.5t-107 53.5q-81 0 -129 -75.5t-48 -176.5zM461 1403q0 73 52.5 124.5t127.5 51.5q74 0 126 -51.5t52 -124.5q0 -76 -52 -128t-126 -52q-75 0 -127.5 52 t-52.5 128zM569 1403q0 -30 21 -51t49 -21q30 0 51.5 21t21.5 51q0 29 -22 50.5t-51 21.5q-28 0 -49 -21.5t-21 -50.5z" />
<glyph d="M74 543q0 158 43 283t136 203t225 78q48 0 93.5 -13.5t75.5 -32.5t53 -38t34 -33l10 -13v102h314v-460q0 -173 12 -255.5t38 -110.5t81 -28l-86 -243q-70 0 -119 10t-83.5 33.5t-54.5 47.5t-47 67q-5 -6 -14 -17t-39.5 -38t-64.5 -48t-87.5 -38t-109.5 -17 q-126 0 -221 81t-142 207t-47 273zM227 1403q27 73 100.5 126.5t169.5 53.5q40 0 117 -26.5t117 -26.5q47 0 68.5 13.5t35.5 41.5l217 -110q-27 -77 -85 -135t-134 -58q-70 0 -153.5 32t-116.5 32q-94 0 -137 -74zM420 547q0 -111 44 -175.5t133 -64.5q68 0 107.5 36 t39.5 69v243q0 37 -40 90.5t-107 53.5q-81 0 -129 -75.5t-48 -176.5z" />
</font>
</defs>
</svg>
